<?xml version="1.0" encoding="UTF-8" standalone="no"?>
<!-- Created with Inkscape (http://www.inkscape.org/) -->

<svg
   version="1.1"
   id="svg3071"
   width="907.61865"
   height="562.86353"
   viewBox="0 0 907.61864 562.86351"
   sodipodi:docname="d1.svg"
   inkscape:version="1.2.2 (732a01da63, 2022-12-09, custom)"
   xmlns:inkscape="http://www.inkscape.org/namespaces/inkscape"
   xmlns:sodipodi="http://sodipodi.sourceforge.net/DTD/sodipodi-0.dtd"
   xmlns="http://www.w3.org/2000/svg"
   xmlns:svg="http://www.w3.org/2000/svg">
  <defs
     id="defs3075" />
  <sodipodi:namedview
     id="namedview3073"
     pagecolor="#ffffff"
     bordercolor="#000000"
     borderopacity="0.25"
     inkscape:showpageshadow="2"
     inkscape:pageopacity="0.0"
     inkscape:pagecheckerboard="0"
     inkscape:deskcolor="#d1d1d1"
     showgrid="false"
     inkscape:zoom="0.97470288"
     inkscape:cx="378.57691"
     inkscape:cy="326.25327"
     inkscape:window-width="1920"
     inkscape:window-height="1031"
     inkscape:window-x="0"
     inkscape:window-y="25"
     inkscape:window-maximized="1"
     inkscape:current-layer="layer1" />
  <g
     inkscape:groupmode="layer"
     id="layer1"
     inkscape:label="Layer 1"
     transform="translate(-2.3469906,-19691.244)">
    <path
       style="fill:#000000;stroke-width:0.569763"
       d="m 357.93058,20252.924 c -1.91352,-1.167 -1.92603,-1.202 -1.57316,-4.414 0.55118,-5.017 3.73642,-11.019 8.0434,-15.155 3.66795,-3.524 7.1388,-8.38 7.1388,-9.989 0,-0.752 -1.11078,-0.904 -7.2645,-0.99 -6.45425,-0.1 -7.64577,0.05 -10.68306,1.255 -6.9692,2.763 -8.63403,3.126 -14.59069,3.173 -5.36065,0.05 -5.97794,-0.06 -6.8762,-1.171 -0.76356,-0.943 -0.86178,-1.548 -0.43408,-2.673 0.54108,-1.422 0.50727,-1.447 -1.59279,-1.175 -3.41976,0.444 -9.37082,1.589 -11.63389,2.239 -2.15067,0.618 -6.38956,0.251 -7.88946,-0.683 -0.54536,-0.339 -0.85297,-1.416 -0.85004,-2.974 0.006,-3.19 4.90779,-11.377 9.48984,-15.847 6.90002,-6.733 9.76319,-19.01 7.00775,-30.048 -0.49004,-1.964 -0.75624,-3.787 -0.59158,-4.054 0.65761,-1.063 -2.04989,-12.725 -3.68729,-15.881 -0.92548,-1.784 -1.69086,-4.02 -1.70084,-4.969 -0.01,-0.948 -0.39018,-2.216 -0.84492,-2.818 -0.45475,-0.6 -1.36743,-2.908 -2.02819,-5.127 -0.66075,-2.219 -1.65981,-5.061 -2.22018,-6.314 -1.37523,-3.077 -3.54184,-11.874 -3.78868,-15.384 -0.11013,-1.567 -0.47123,-5.253 -0.80229,-8.192 -0.46836,-4.156 -0.49247,-23.535 -0.0331,-26.563 0.0476,-0.314 -0.19185,-2.365 -0.53202,-4.559 -0.34015,-2.193 -0.81161,-5.911 -1.04765,-8.261 -0.41355,-4.117 -2.00123,-9.96 -3.01131,-11.082 -0.26808,-0.298 -0.4874,-1.116 -0.4874,-1.818 0,-0.703 -0.23064,-1.42 -0.51253,-1.594 -0.28186,-0.174 -0.82823,-1.663 -1.21412,-3.31 -0.38591,-1.645 -0.87158,-3.249 -1.07922,-3.563 -0.46476,-0.7 -1.83638,-4.877 -3.46132,-10.54 -0.67445,-2.351 -1.46321,-5.016 -1.75278,-5.925 -0.28956,-0.908 -0.52649,-2.751 -0.52649,-4.094 0,-1.342 -0.26666,-3.143 -0.59258,-4 -0.81597,-2.146 -0.87141,-11.177 -0.0941,-15.323 0.35248,-1.881 0.87857,-4.829 1.16905,-6.553 0.90291,-5.358 3.92188,-14.492 5.07321,-15.35 0.71154,-0.53 2.42107,-3.859 2.42107,-4.713 0,-0.442 0.89739,-2.623 1.9942,-4.849 1.70662,-3.465 1.99416,-4.626 1.99416,-8.058 0,-4.881 -1.11074,-9.38 -3.213,-13.016 -2.66996,-4.619 -6.0161,-9.451 -8.29042,-11.975 -1.19397,-1.324 -2.17091,-2.641 -2.17091,-2.926 0,-0.286 -1.40019,-1.988 -3.11153,-3.783 -1.71138,-1.795 -3.09118,-3.427 -3.06626,-3.626 0.14373,-1.144 -0.21783,-1.749 -1.23877,-2.074 -0.63209,-0.2 -1.52827,-1.27 -1.9915,-2.38 -0.46327,-1.108 -1.51062,-2.692 -2.32743,-3.519 -2.62009,-2.653 -16.38979,-21.516 -18.25378,-25.007 -0.54394,-1.018 -1.15469,-1.851 -1.35726,-1.851 -0.20255,0 -1.21867,-1.347 -2.25801,-2.991 -2.0039,-3.173 -5.65003,-8.656 -10.65264,-16.024 -1.67528,-2.466 -3.43278,-5.287 -3.90561,-6.267 -0.75502,-1.565 -6.61874,-10.069 -9.06849,-13.151 -0.4865,-0.612 -0.88455,-1.83 -0.88455,-2.706 0,-0.877 -0.24857,-1.594 -0.5524,-1.594 -0.30381,0 -1.88675,-1.986 -3.51762,-4.415 -1.6309,-2.429 -3.16265,-4.497 -3.40391,-4.594 -0.24126,-0.1 -0.74755,-1.126 -1.12509,-2.279 -0.37752,-1.157 -1.17558,-2.742 -1.77343,-3.525 -0.59783,-0.784 -1.7012,-2.322 -2.4519,-3.418 -4.39957,-6.429 -5.57105,-7.978 -6.03322,-7.978 -0.2829,0 -0.51438,-0.539 -0.51438,-1.199 0,-0.66 -0.76917,-2.172 -1.70927,-3.359 -0.94012,-1.187 -1.70929,-2.419 -1.70929,-2.74 0,-0.321 -0.22443,-0.669 -0.49874,-0.774 -0.2743,-0.107 -1.86269,-2.497 -3.52972,-5.316 -1.66707,-2.821 -3.77005,-5.994 -4.67331,-7.051 -0.90328,-1.057 -1.94292,-2.595 -2.31035,-3.418 -0.3674,-0.823 -1.82179,-3.082 -3.23196,-5.02 -1.41016,-1.937 -3.44737,-4.979 -4.52714,-6.757 -1.07976,-1.779 -2.68221,-4.138 -3.56102,-5.244 -0.8788,-1.106 -1.59781,-2.448 -1.59781,-2.984 0,-0.535 -0.92208,-1.923 -2.04909,-3.084 -2.06019,-2.122 -5.28585,-6.163 -6.25916,-7.843 -0.28769,-0.496 -2.49582,-3.051 -4.90693,-5.676 -2.41112,-2.625 -5.12503,-5.798 -6.0309,-7.051 -0.90589,-1.254 -3.03141,-3.433 -4.7234,-4.843 -1.69198,-1.411 -4.26074,-3.654 -5.70833,-4.985 -1.44758,-1.333 -2.80842,-2.422 -3.02405,-2.422 -0.21561,0 -0.91227,-0.485 -1.54808,-1.078 -0.63581,-0.592 -3.38132,-2.192 -6.10112,-3.555 -2.71982,-1.365 -5.564,-2.861 -6.32043,-3.323 -0.75642,-0.465 -2.67937,-1.324 -4.27322,-1.91 -5.29013,-1.944 -25.29377,-1.893 -30.81629,0.08 -0.94011,0.335 -3.39461,1.119 -5.45444,1.742 -3.920898,1.185 -5.053894,1.972 -11.613815,8.069 -8.842283,8.22 -13.604233,10.621 -26.518624,13.375 -3.917123,0.835 -7.89122,1.879 -8.831329,2.319 -1.588861,0.745 -6.289998,2.073 -14.035555,3.964 -1.765528,0.431 -4.329462,0.756 -5.697628,0.722 -1.368168,-0.04 -3.605983,0.239 -4.972924,0.608 -2.349786,0.635 -9.501577,0.559 -12.613375,-0.135 -0.783424,-0.174 -2.382281,-0.466 -3.553016,-0.651 -2.937407,-0.462 -10.3626486,-7.951 -11.9023742,-12.006 -1.9378457,-5.103 -1.1771957,-11.06 2.0683719,-16.202 0.7820967,-1.239 1.4219937,-2.39 1.4219937,-2.558 0,-1.139 4.5056676,-6.701 7.1103896,-8.777 1.72994,-1.378 3.145346,-2.849 3.145346,-3.268 0,-1.257 7.697155,-5.905 9.778867,-5.905 0.680103,0 1.072691,-0.163 0.872418,-0.364 -0.200275,-0.2 0.590271,-0.845 1.756769,-1.432 1.213607,-0.609 2.503678,-1.855 3.015677,-2.911 0.492128,-1.015 2.150619,-2.743 3.685536,-3.839 1.534919,-1.097 3.982138,-3.185 5.438263,-4.639 4.083274,-4.081 5.865436,-4.803 13.91148,-5.641 5.423777,-0.564 8.692475,-1.477 10.373882,-2.897 2.003428,-1.691 10.748734,-5.783 15.248065,-7.135 9.713266,-2.915 41.151672,-5.153 51.011192,-3.629 2.35027,0.362 5.68338,0.796 7.40691,0.961 1.72354,0.166 3.39009,0.511 3.70346,0.766 0.55647,0.455 4.23374,1.742 10.54061,3.693 7.22372,2.234 16.30017,6.959 26.96305,14.039 1.82484,1.211 3.52758,2.203 3.78387,2.203 0.25629,0 1.70416,1.022 3.21747,2.274 1.51331,1.25 3.52826,2.645 4.4777,3.101 2.05201,0.983 3.13977,1.796 8.4365,6.304 7.06468,6.014 11.95574,9.972 12.32469,9.972 0.19728,0 4.0715,3.585 8.6094,7.966 4.53788,4.382 8.40959,7.972 8.60379,7.977 0.93189,0.02 17.4218,19.229 23.41373,27.266 1.79045,2.401 3.9698,5.22 4.843,6.264 0.8732,1.045 3.08262,3.994 4.90983,6.553 1.82721,2.559 3.81425,5.183 4.41565,5.83 0.60141,0.646 1.09346,1.385 1.09346,1.64 0,0.423 2.11048,3.089 5.12264,6.474 1.3236,1.487 6.14157,7.731 7.42189,9.617 1.20684,1.778 12.17956,16.141 13.63034,17.842 0.66843,0.784 1.91105,2.24 2.76139,3.238 0.85036,0.997 2.44345,3.017 3.54024,4.487 1.09681,1.47 2.63518,3.378 3.41857,4.237 0.78343,0.862 2.5524,3.008 3.93105,4.773 2.49758,3.195 2.84776,3.433 4.77857,3.234 0.81693,-0.08 0.94673,0.177 0.65772,1.329 -0.29026,1.156 0.0647,1.86 1.83103,3.628 1.20507,1.208 4.8832,5.106 8.17359,8.664 5.10649,5.52 7.87945,8.107 13.78367,12.857 3.42248,2.754 15.50249,9.96 16.69556,9.96 0.43478,0 0.93748,0.237 1.11716,0.528 0.17967,0.291 2.18184,1.421 4.44927,2.513 8.77829,4.225 15.2948,7.215 15.72322,7.215 0.24608,0 1.99446,0.749 3.88529,1.664 1.89085,0.917 4.56431,1.96 5.94105,2.318 1.37672,0.358 4.29787,1.235 6.49146,1.948 2.1936,0.714 6.29591,2.033 9.11621,2.933 2.82032,0.898 5.76886,1.964 6.55228,2.365 0.78343,0.401 1.74844,0.731 2.14447,0.732 0.39604,0 5.01112,1.412 10.25574,3.132 5.24461,1.721 10.94583,3.539 12.66938,4.04 1.7235,0.5 4.92845,1.683 7.12202,2.628 2.1936,0.945 5.2703,2.102 6.83716,2.572 1.56687,0.47 3.618,1.205 4.5581,1.635 1.6087,0.735 5.97046,2.465 14.52896,5.766 2.0369,0.785 4.47266,1.623 5.41275,1.861 3.20335,0.808 5.90881,2.44 27.91841,16.826 3.91821,2.561 9.11693,5.648 14.52896,8.626 4.03529,2.221 11.59872,5.6 15.38358,6.872 4.10593,1.38 5.67371,1.983 9.4011,3.609 1.83072,0.798 5.26126,2.133 9.40109,3.658 1.41018,0.52 4.48689,1.92 6.83716,3.111 2.35026,1.19 4.9142,2.359 5.69763,2.595 1.23527,0.373 13.58202,6.165 16.80802,7.885 0.62673,0.335 3.95986,2.047 7.40691,3.807 6.35962,3.245 13.38261,7.452 17.83811,10.686 1.34997,0.98 3.19719,1.944 4.10497,2.144 1.00491,0.22 1.80195,0.848 2.03795,1.605 0.21313,0.683 0.64566,1.407 0.96118,1.61 2.55733,1.643 11.88087,9.809 16.58544,14.528 10.19485,10.227 15.69549,17.14 24.68202,31.023 10.36175,16.007 27.93585,34.008 38.31875,39.249 1.84728,0.933 3.51813,1.954 3.71302,2.269 0.19498,0.315 2.12607,1.463 4.29138,2.55 12.29853,6.171 21.78318,8.286 37.02999,8.258 13.80868,-0.02 22.56386,-1.351 36.46483,-5.516 8.50741,-2.55 18.88023,-3.239 27.57797,-1.829 7.9607,1.289 12.10229,2.131 13.44499,2.731 0.7834,0.351 5.39848,1.263 10.25573,2.028 12.02776,1.894 17.31011,1.617 28.77304,-1.508 6.31025,-1.721 19.66276,-7.597 23.68112,-10.421 4.21602,-2.964 18.35723,-10.132 22.75455,-11.536 2.03694,-0.65 4.98543,-1.35 6.5523,-1.558 2.4089,-0.318 3.09071,-0.186 4.41565,0.858 0.87572,0.69 1.56685,1.797 1.56685,2.51 0,1.703 -2.73777,4.242 -5.35245,4.965 -2.9061,0.802 -8.64122,4.204 -11.81915,7.011 -1.45344,1.283 -3.63278,3.05 -4.84297,3.927 -1.21021,0.876 -3.73873,2.963 -5.61893,4.637 -12.32602,10.974 -15.6603,13.592 -20.22661,15.882 -2.47061,1.238 -4.38977,2.356 -8.74336,5.093 -1.86913,1.176 -3.82235,2.137 -4.34059,2.137 -0.51831,0 -1.44001,0.376 -2.04828,0.837 -0.60828,0.46 -1.59625,0.844 -2.19545,0.854 -0.59919,0 -2.39395,0.396 -3.98835,0.857 -1.59436,0.461 -4.77454,1.385 -7.06701,2.053 -2.29238,0.668 -6.13831,1.311 -8.54645,1.431 -2.40809,0.119 -7.19865,0.479 -10.64573,0.802 -3.44706,0.322 -12.03622,0.688 -19.08706,0.813 -7.05081,0.127 -13.58885,0.494 -14.52896,0.819 -0.94009,0.324 -3.24762,0.892 -5.12785,1.263 -4.46338,0.881 -9.55369,2.409 -13.10454,3.935 -3.664,1.574 -4.42815,1.878 -8.54648,3.403 -1.8802,0.696 -3.93134,1.486 -4.55807,1.755 -7.0093,3.013 -14.19525,5.409 -21.08124,7.028 -1.88024,0.442 -4.18778,1.119 -5.12789,1.505 -7.56347,3.102 -25.14805,3.817 -41.02293,1.668 -5.70089,-0.772 -27.41865,-4.85 -31.62185,-5.939 -1.72355,-0.446 -3.9029,-0.967 -4.843,-1.159 -1.57119,-0.321 -8.73631,-2.977 -14.24408,-5.28 -1.25346,-0.525 -3.99652,-1.917 -6.09573,-3.095 -3.81896,-2.143 -5.54161,-2.303 -5.63207,-0.526 -0.0261,0.514 -0.1591,3.372 -0.29536,6.349 -0.13814,3.017 -0.78012,7.303 -1.45078,9.686 -1.4917,5.298 -1.59411,17.242 -0.205,23.93 2.38305,11.473 2.43081,16.941 0.16914,19.37 -1.64102,1.761 -5.18956,3.24 -9.39575,3.918 -4.04185,0.651 -14.12409,3.761 -15.88004,4.898 -2.52969,1.639 -5.12551,1.29 -6.22568,-0.838 -1.03941,-2.01 -2.94549,-2.23 -7.45885,-0.861 -4.0973,1.243 -5.5268,1.086 -7.53226,-0.832 -1.7583,-1.68 -1.78766,-1.686 -4.19442,-0.836 -5.04453,1.78 -9.66589,0.824 -9.54983,-1.975 0.0651,-1.57 1.95988,-6.857 2.83158,-7.901 0.45881,-0.55 1.24851,-1.894 1.75491,-2.987 0.50637,-1.093 1.84879,-3.201 2.98313,-4.686 7.46373,-9.774 8.9654,-12.921 10.3294,-21.644 1.3136,-8.401 -0.33821,-14.658 -6.17193,-23.377 -1.25788,-1.88 -2.71691,-3.386 -3.4186,-3.528 -0.67327,-0.136 -5.07003,-0.408 -9.77058,-0.604 -8.60103,-0.359 -17.22132,-2.028 -27.34862,-5.294 -1.88023,-0.606 -5.16731,-1.287 -7.30464,-1.513 -4.28849,-0.452 -3.25713,-0.881 -12.06729,5.025 -5.26613,3.529 -11.41126,8.674 -13.70367,11.471 -2.5737,3.141 -5.05385,9.476 -5.91209,15.1 -0.35863,2.351 -0.94666,5.94 -1.30673,7.977 -1.15331,6.524 -0.4045,15.888 1.84532,23.076 1.80467,5.765 1.96322,8.361 0.66465,10.887 -2.21731,4.312 -5.42177,6.176 -14.98302,8.711 -2.679,0.712 -5.12756,1.023 -6.40342,0.817 -1.31437,-0.214 -3.46716,0.08 -5.91813,0.814 -8.08316,2.417 -12.02829,3.119 -16.18736,2.883 -2.2602,-0.127 -4.20047,-0.505 -4.31175,-0.839 -0.11132,-0.334 -0.52679,-1.05 -0.9234,-1.592 -0.67972,-0.93 -0.95916,-0.914 -4.86704,0.273 -4.20262,1.276 -8.09868,1.296 -9.34855,0.05 -0.88068,-0.88 -0.72294,-5.3 0.25774,-7.222 0.46942,-0.92 1.56512,-3.096 2.43498,-4.836 0.92835,-1.855 3.80163,-5.503 6.95741,-8.83 2.95673,-3.118 5.63091,-6.288 5.94259,-7.043 0.81491,-1.978 0.0624,-6.09 -1.81286,-9.91 -0.89304,-1.819 -1.89966,-4.332 -2.23692,-5.585 -0.56968,-2.115 -2.24995,-3.672 -2.65823,-2.464 -0.0983,0.293 -0.74254,1.428 -1.43147,2.525 -0.68893,1.096 -1.29626,2.634 -1.34959,3.418 -0.0925,1.358 -1.21334,4.314 -4.75541,12.535 -0.87753,2.037 -2.15386,6.011 -2.83632,8.831 -2.20251,9.103 -2.48018,10.21 -3.28395,13.105 -0.43512,1.566 -1.03529,5.412 -1.33368,8.546 -0.29842,3.134 -0.85482,8.209 -1.23648,11.277 -0.56991,4.583 -0.55526,6.059 0.0821,8.263 1.87115,6.467 1.24029,9.478 -2.73327,13.049 -2.68554,2.413 -6.42601,3.276 -12.13938,2.8 -3.89883,-0.326 -5.05078,-0.185 -8.89617,1.087 -2.99822,0.991 -6.24782,1.564 -10.11499,1.782 -6.43041,0.363 -8.5683,-0.172 -9.39722,-2.353 -0.29999,-0.789 -0.81645,-1.434 -1.14769,-1.434 -0.33124,0 -2.581,0.748 -4.99953,1.662 -3.97408,1.502 -9.34301,2.899 -11.12004,2.895 -0.37628,0 -1.55215,-0.532 -2.61304,-1.179 z m 36.10691,-2.592 c 4.71241,-1.149 6.10291,-2.125 5.45487,-3.83 -0.27767,-0.73 -1.23858,-2.075 -2.13533,-2.987 -0.89677,-0.913 -2.17308,-2.42 -2.83626,-3.347 -1.0576,-1.48 -1.37102,-1.611 -2.54994,-1.069 -1.76306,0.811 -6.98427,4.76 -9.71733,7.35 -2.18081,2.066 -2.86324,4.417 -1.45526,5.012 1.15226,0.488 9.54315,-0.228 13.23925,-1.129 z m -27.91063,0.127 c 5.08854,-1.016 7.51919,-1.92 7.912,-2.944 0.41566,-1.083 -1.67678,-5.884 -2.7428,-6.294 -0.46392,-0.177 -1.34829,-1.179 -1.96529,-2.225 -0.617,-1.045 -1.79603,-2.342 -2.62008,-2.883 -1.48114,-0.97 -1.51719,-0.959 -3.15451,0.956 -0.91093,1.064 -1.66666,2.133 -1.67941,2.375 -0.0128,0.242 -0.6695,1.462 -1.45948,2.714 -1.46567,2.322 -2.40074,6.615 -1.78834,8.211 0.42219,1.1 2.31798,1.123 7.49791,0.1 z m 48.38564,-3.948 c 3.77853,-2.618 4.8872,-3.957 4.8872,-5.903 0,-1.102 -0.45559,-2.343 -1.09545,-2.983 -0.81462,-0.815 -0.90634,-1.168 -0.35774,-1.378 0.55225,-0.212 0.69815,-1.755 0.58019,-6.134 -0.0866,-3.218 0.0878,-7.405 0.38766,-9.304 1.83684,-11.637 4.04577,-22.363 5.81567,-28.239 0.42472,-1.41 0.6548,-2.899 0.51128,-3.31 -0.14351,-0.409 0.12974,-1.179 0.60719,-1.708 1.54865,-1.721 3.24025,-6.717 2.51843,-7.439 -0.4767,-0.476 -0.30592,-0.955 0.66196,-1.856 0.94726,-0.883 1.2376,-1.671 1.06054,-2.877 -0.17008,-1.158 -0.0303,-1.58 0.46212,-1.39 1.55447,0.597 7.0205,-15.832 9.55228,-28.711 0.56984,-2.898 3.27226,-12.875 3.93547,-14.529 1.9488,-4.859 6.71304,-11.098 14.9001,-19.514 3.35727,-3.451 4.32245,-4.131 5.8646,-4.131 1.26283,0 2.03858,-0.359 2.4558,-1.14 0.71147,-1.329 1.70931,-1.509 1.70931,-0.307 0,1.199 -2.8729,3.731 -4.65434,4.103 -0.90957,0.19 -1.6532,0.808 -1.85048,1.537 -0.1814,0.671 -2.27559,2.887 -4.65372,4.924 -5.02737,4.306 -6.04263,5.697 -4.15684,5.697 1.20741,0 1.21481,0.04 0.22738,1.128 -0.86068,0.951 -0.88988,1.177 -0.18655,1.447 0.45868,0.177 1.51007,0.06 2.33643,-0.25 0.82639,-0.315 1.63077,-0.364 1.78758,-0.108 0.48431,0.783 10.11918,1.208 12.57492,0.553 1.25349,-0.335 2.92004,-0.654 3.70347,-0.71 0.78343,-0.06 1.9803,-0.413 2.65972,-0.79 0.67945,-0.378 1.97578,-0.54 2.88073,-0.359 1.12328,0.225 1.88347,0.05 2.39548,-0.574 0.94876,-1.143 2.3198,-1.173 2.3198,-0.05 0,0.953 2.01347,1.175 2.56522,0.283 0.19438,-0.315 0.96669,-0.418 1.71621,-0.231 0.74951,0.189 2.10563,-0.02 3.01357,-0.482 0.90796,-0.452 2.43969,-0.707 3.40389,-0.565 1.33779,0.197 1.93033,-0.02 2.5013,-0.94 0.95679,-1.534 2.17453,-1.573 1.77875,-0.06 -0.37543,1.437 1.27551,1.559 2.76943,0.208 0.95369,-0.863 1.05659,-0.863 1.38779,0 0.45345,1.182 1.84966,1.195 3.13684,0.03 0.91322,-0.825 1.04436,-0.812 1.56741,0.166 0.47789,0.893 1.20377,1.056 4.46099,1.004 2.38645,-0.04 4.15981,0.206 4.58762,0.634 0.38357,0.383 2.05014,0.879 3.70347,1.099 2.79032,0.374 8.32388,1.961 10.98273,3.149 0.62673,0.279 2.42149,0.757 3.98835,1.06 1.56685,0.303 3.87439,0.849 5.12788,1.212 4.0506,1.175 5.73596,1.243 7.94396,0.321 2.59342,-1.083 3.05037,-1.131 2.14082,-0.221 -1.21051,1.21 -0.73286,1.752 1.25959,1.428 1.06879,-0.173 2.11188,-0.146 2.31794,0.06 0.77786,0.778 6.42109,0.623 7.49158,-0.206 1.0391,-0.805 1.0372,-0.85 -0.0727,-1.708 -0.62673,-0.485 -1.059,-1.384 -0.96059,-1.998 0.0984,-0.614 -0.21105,-1.266 -0.68766,-1.449 -0.60685,-0.233 -0.77135,-0.809 -0.54895,-1.921 0.17472,-0.873 0.0141,-2.155 -0.35667,-2.848 -0.37087,-0.693 -0.68682,-2.652 -0.70212,-4.355 -0.0153,-1.703 -0.26544,-3.243 -0.55589,-3.422 -0.29042,-0.18 -0.35744,-1.104 -0.1489,-2.053 0.25481,-1.16 0.13305,-1.878 -0.37132,-2.19 -0.59444,-0.367 -0.52354,-0.715 0.34112,-1.67 0.89187,-0.986 0.96846,-1.403 0.41855,-2.284 -0.55804,-0.894 -0.41474,-1.472 0.83869,-3.386 1.75004,-2.673 2.71947,-2.993 2.25417,-0.742 -1.79131,8.661 -1.88996,11.425 -0.61875,17.34 0.49272,2.292 0.98366,4.579 1.09096,5.083 0.41781,1.959 3.45053,7.175 5.47536,9.419 2.1275,2.355 3.78006,4.658 7.15393,9.965 5.99007,9.422 4.23639,26.622 -3.73307,36.613 -0.97175,1.219 -1.76367,2.5 -1.7598,2.848 0.0125,1.122 5.76196,6.618 6.92209,6.618 1.49536,0 6.83483,-4.629 6.46385,-5.603 -0.16602,-0.437 0.0142,-0.658 0.42342,-0.522 0.39193,0.133 0.71258,1.116 0.71258,2.185 0,1.545 0.24728,1.981 1.20347,2.117 0.66195,0.1 1.92777,0.928 2.81296,1.851 2.36429,2.469 4.13431,2.235 7.00632,-0.92 1.30171,-1.43 2.36667,-2.84 2.36667,-3.134 0,-0.294 0.24869,-0.533 0.55273,-0.533 0.30405,0 0.49636,0.946 0.42734,2.103 -0.0996,1.671 0.13473,2.236 1.13964,2.75 1.7509,0.896 3.46756,3.208 3.81795,5.139 0.16151,0.892 0.77832,2.105 1.37064,2.698 1.01648,1.016 1.24292,1.027 4.03012,0.199 2.85961,-0.849 4.86153,-2.072 7.84026,-4.791 1.29938,-1.186 1.40472,-1.623 1.16884,-4.843 -0.26732,-3.65 -2.24873,-11.023 -3.22422,-11.999 -0.35592,-0.355 -0.86385,-0.292 -1.43064,0.178 -1.18393,0.982 -1.18814,-0.378 -0.006,-1.941 0.59191,-0.783 0.83751,-2.616 0.8399,-6.267 0,-2.84 0.26191,-6.701 0.57805,-8.58 1.08779,-6.47 1.14542,-7.679 0.4221,-8.864 -0.63355,-1.037 -0.53308,-1.312 0.84824,-2.329 1.54381,-1.136 1.56684,-1.244 1.56684,-7.395 0,-5.436 -0.15371,-6.452 -1.18877,-7.851 l -1.18879,-1.607 1.47366,-2.909 c 0.81054,-1.599 1.47367,-3.36 1.47367,-3.913 0,-1.088 1.60894,-5.435 3.85963,-10.429 4.92233,-10.921 8.45733,-26.496 7.74747,-34.134 -0.43476,-4.677 0.18742,-5.185 2.89557,-2.358 l 1.6113,1.682 -1.44291,3.019 c -0.91384,1.912 -1.54403,4.404 -1.71866,6.799 -0.16216,2.221 -0.71613,4.53 -1.34384,5.597 -0.94105,1.601 -0.96639,1.897 -0.2133,2.488 1.03091,0.807 0.82943,3.693 -0.34981,5.006 -1.25893,1.403 -1.9436,4.383 -1.35996,5.918 0.39648,1.042 0.22945,1.705 -0.7409,2.939 -1.30165,1.654 -5.51616,9.792 -5.52241,10.663 0,0.274 0.38098,0.178 0.85105,-0.212 1.56155,-1.296 0.9426,0.698 -0.8778,2.828 -1.777,2.078 -2.16425,3.739 -0.97394,4.176 0.56976,0.209 0.56976,0.411 0,1.015 -0.97316,1.032 -0.89641,2.237 0.14243,2.237 0.47005,0 0.85465,0.393 0.85465,0.873 0,0.479 0.4487,1.017 0.99711,1.194 1.87813,0.607 4.70052,2.181 4.70052,2.621 0,0.241 0.64101,0.441 1.42441,0.441 0.88635,0 1.42443,0.322 1.42443,0.854 0,0.569 0.56976,0.854 1.7093,0.854 0.94009,0 1.70927,0.257 1.70927,0.571 0,0.836 2.84241,0.695 2.88496,-0.144 0.0198,-0.391 0.26796,-0.134 0.55142,0.571 0.28341,0.705 0.9081,1.281 1.38828,1.281 0.48012,0 0.87298,0.285 0.87298,0.635 0,0.381 0.68323,0.533 1.70928,0.383 0.9401,-0.137 1.70929,-0.08 1.70929,0.13 0,0.486 4.01802,1.701 5.62129,1.701 0.66871,0 1.21587,0.277 1.21587,0.615 0,0.382 0.62317,0.478 1.63706,0.255 1.13466,-0.249 1.73059,-0.119 1.94193,0.436 0.20495,0.534 1.38822,0.829 3.61093,0.902 1.81843,0.06 3.48256,0.394 3.69806,0.742 0.23284,0.377 1.10185,0.493 2.14058,0.285 1.30365,-0.261 1.8861,-0.107 2.28885,0.615 0.5069,0.905 0.6667,0.905 2.60151,-0.02 2.56501,-1.223 2.54896,-1.224 2.18784,0.157 -0.34157,1.306 0.29104,1.426 2.41424,0.458 1.11461,-0.507 1.75393,-0.517 2.52012,-0.03 0.7904,0.494 1.30616,0.446 2.2412,-0.209 1.07753,-0.755 1.2514,-0.755 1.54215,0 0.18027,0.47 0.65803,0.728 1.06172,0.573 0.40366,-0.156 0.88723,0.119 1.07448,0.606 0.4537,1.182 1.4955,1.1 3.2251,-0.253 1.95305,-1.528 2.48703,-1.417 1.37202,0.285 -1.06825,1.631 -0.63656,1.777 1.67918,0.569 1.44252,-0.753 1.58978,-0.752 1.2999,0 -0.17982,0.469 -0.0141,0.883 0.36736,0.92 0.97003,0.1 1.13505,0.07 2.26115,-0.371 0.69695,-0.271 0.99708,-0.108 0.99708,0.527 0,1.134 0.20043,1.136 2.34833,0.02 1.36232,-0.705 1.89559,-0.747 2.55372,-0.2 0.6532,0.541 1.3476,0.527 3.23512,-0.07 2.78953,-0.879 3.8161,-0.785 4.7028,0.427 0.52417,0.717 0.87103,0.751 1.92107,0.189 0.70469,-0.377 1.59132,-0.567 1.97018,-0.421 0.59101,0.226 2.63337,-0.06 11.18716,-1.555 5.68773,-0.996 10.34827,-2.06 12.5348,-2.858 1.41016,-0.514 6.53803,-2.233 11.39526,-3.82 4.85725,-1.586 10.32257,-3.521 12.14523,-4.3 1.82257,-0.778 5.41207,-2.148 7.97667,-3.043 2.56454,-0.896 6.40513,-2.284 8.53464,-3.086 2.1295,-0.801 4.83445,-1.456 6.01098,-1.456 1.17658,0 2.41237,-0.274 2.74627,-0.608 0.33392,-0.334 2.37222,-0.712 4.52963,-0.841 2.15736,-0.128 5.84544,-0.366 8.19574,-0.53 2.35026,-0.163 9.0165,-0.436 14.81382,-0.608 10.58069,-0.314 23.94923,-1.556 28.20329,-2.62 2.06408,-0.517 7.94204,-2.635 10.82548,-3.9 0.62676,-0.275 2.08545,-0.789 3.24154,-1.143 1.15614,-0.353 3.83624,-1.781 5.95581,-3.173 2.11957,-1.392 4.02306,-2.531 4.22997,-2.531 0.33841,0 3.11308,-1.938 10.78631,-7.533 1.40946,-1.027 4.87077,-4.269 7.69179,-7.202 2.82112,-2.934 6.51176,-6.395 8.20148,-7.692 6.39267,-4.906 10.70439,-7.841 13.73573,-9.347 2.83648,-1.409 2.98773,-1.574 1.59448,-1.735 -2.32568,-0.268 -11.56373,3.118 -16.61392,6.089 -2.46327,1.449 -5.66818,3.287 -7.12204,4.084 -4.19231,2.297 -5.36146,3.013 -7.48621,4.586 -1.97314,1.462 -9.2263,5.076 -10.18636,5.076 -0.27353,0 -1.88586,0.613 -3.58284,1.364 -3.17954,1.407 -12.39907,3.432 -18.42241,4.046 -3.5133,0.358 -16.6302,-0.937 -20.22658,-1.997 -1.0968,-0.324 -3.53256,-0.836 -5.41276,-1.136 -1.88022,-0.302 -4.82875,-0.963 -6.55229,-1.47 -9.56394,-2.813 -24.15504,-2.438 -36.64721,0.94 -2.2499,0.608 -6.65477,1.635 -9.78848,2.28 -3.13369,0.646 -6.4668,1.398 -7.40691,1.672 -3.04085,0.884 -19.11046,1.819 -25.02049,1.457 -11.92005,-0.733 -17.22822,-1.878 -25.87705,-5.583 -5.2615,-2.254 -6.81762,-3.13 -16.61938,-9.353 -3.9672,-2.519 -8.08565,-5.568 -10.27189,-7.604 -10.93501,-10.185 -15.69849,-15.415 -19.81826,-21.754 -1.89749,-2.921 -4.30027,-6.224 -5.33962,-7.342 -2.39289,-2.572 -4.85011,-5.883 -8.60775,-11.596 -4.88346,-7.425 -20.84906,-24.672 -25.75845,-27.826 -1.25349,-0.805 -2.92004,-2.074 -3.70346,-2.819 -0.78343,-0.746 -2.57819,-2.149 -3.98836,-3.118 -1.41016,-0.968 -3.05232,-2.303 -3.64935,-2.966 -0.5969,-0.664 -1.36609,-1.211 -1.70928,-1.217 -0.34308,0 -2.54684,-1.446 -4.8971,-3.199 -2.35026,-1.753 -6.09418,-4.057 -8.31972,-5.121 -2.22562,-1.063 -4.50884,-2.445 -5.07376,-3.069 -0.56496,-0.624 -1.24035,-1.135 -1.5009,-1.135 -0.26058,0 -4.77184,-2.083 -10.02501,-4.628 -5.25321,-2.545 -11.79867,-5.619 -14.54546,-6.83 -2.74682,-1.211 -5.56714,-2.571 -6.2674,-3.021 -0.70001,-0.456 -2.93952,-1.376 -4.97642,-2.048 -2.03692,-0.675 -4.26539,-1.586 -4.95218,-2.029 -0.6868,-0.441 -2.22515,-1.167 -3.41859,-1.611 -9.97185,-3.708 -22.91731,-9.187 -26.95455,-11.406 -2.03689,-1.121 -5.12896,-2.788 -6.87125,-3.705 -1.74226,-0.918 -3.50431,-2.074 -3.91566,-2.569 -0.41134,-0.495 -1.04375,-0.901 -1.4054,-0.901 -0.36162,0 -2.42715,-1.41 -4.58998,-3.134 -2.16289,-1.723 -4.29471,-3.133 -4.73734,-3.133 -0.44269,0 -2.26694,-1.027 -4.05389,-2.279 -1.78696,-1.254 -3.41732,-2.279 -3.62303,-2.279 -0.20569,0 -1.51371,-0.77 -2.90667,-1.71 -1.39301,-0.94 -2.89952,-1.709 -3.34783,-1.709 -0.44834,0 -1.40484,-0.629 -2.12555,-1.396 -0.72072,-0.766 -2.08472,-1.564 -3.03115,-1.772 -1.71252,-0.377 -12.30937,-4.524 -16.65344,-6.518 -1.25347,-0.576 -3.43281,-1.435 -4.84298,-1.91 -2.83212,-0.953 -9.02113,-3.39 -11.68013,-4.6 -0.94013,-0.427 -3.24766,-1.21 -5.12789,-1.739 -1.88022,-0.53 -4.31596,-1.295 -5.41272,-1.702 -2.75098,-1.019 -11.5935,-3.958 -15.38362,-5.113 -1.72355,-0.525 -4.15929,-1.409 -5.41275,-1.965 -1.25349,-0.556 -3.81741,-1.341 -5.69764,-1.744 -1.88022,-0.405 -4.70055,-1.197 -6.26738,-1.761 -3.98821,-1.436 -8.8072,-2.827 -9.79238,-2.827 -0.45663,0 -1.93848,-0.649 -3.29308,-1.442 -1.35458,-0.795 -5.50249,-2.485 -9.21766,-3.755 -3.71513,-1.271 -7.17486,-2.687 -7.68823,-3.145 -1.01635,-0.91 -6.2731,-3.734 -14.71507,-7.906 -2.96601,-1.467 -7.03622,-3.858 -9.04489,-5.316 -3.48639,-2.531 -5.0862,-3.805 -11.15353,-8.885 -1.47576,-1.236 -5.67982,-5.575 -9.34236,-9.642 -3.66252,-4.068 -7.96299,-8.697 -9.5566,-10.288 -1.59359,-1.591 -4.24501,-4.624 -5.89207,-6.74 -1.64705,-2.114 -3.21532,-3.846 -3.48503,-3.846 -0.26973,0 -1.31137,-1.193 -2.31478,-2.651 -1.00342,-1.458 -2.29771,-3.125 -2.87619,-3.703 -0.57849,-0.579 -1.05181,-1.26 -1.05181,-1.514 0,-0.255 -0.44867,-0.96 -0.99708,-1.567 -0.54838,-0.609 -1.89445,-2.336 -2.99124,-3.842 -1.09679,-1.505 -3.79892,-4.966 -6.00469,-7.691 -2.20581,-2.725 -4.75528,-5.982 -5.66555,-7.234 -0.91028,-1.254 -2.11375,-2.792 -2.6744,-3.419 -2.10489,-2.353 -6.58932,-8.135 -9.82308,-12.665 -1.84068,-2.579 -4.08538,-5.399 -4.98821,-6.268 -0.90283,-0.869 -1.98187,-2.354 -2.39786,-3.3 -0.416,-0.948 -2.47503,-3.746 -4.57562,-6.217 -2.10059,-2.472 -4.21108,-5.252 -4.68999,-6.178 -1.34013,-2.591 -6.61338,-9.299 -11.4784,-14.602 -9.60827,-10.472 -25.24009,-25.505 -27.39083,-26.342 -0.51306,-0.2 -1.51588,-1.159 -2.22846,-2.131 -0.71259,-0.974 -2.30129,-2.283 -3.53045,-2.909 -1.22919,-0.628 -2.44892,-1.524 -2.71056,-1.991 -0.61244,-1.095 -6.78699,-6.072 -9.95589,-8.026 -1.34706,-0.83 -3.09019,-2.132 -3.87362,-2.892 -0.78341,-0.761 -2.57817,-2.112 -3.98832,-3.002 -1.41016,-0.89 -4.99967,-3.209 -7.97669,-5.15 -2.977,-1.942 -6.11783,-3.674 -6.9796,-3.847 -0.86177,-0.171 -1.56685,-0.554 -1.56685,-0.849 0,-0.674 -6.68068,-3.745 -13.38943,-6.156 -2.82033,-1.013 -5.76885,-2.162 -6.55227,-2.554 -0.78343,-0.392 -2.68051,-0.876 -4.21574,-1.075 -1.53524,-0.201 -3.0736,-0.578 -3.41859,-0.839 -1.85738,-1.407 -22.43232,-3.824 -27.97587,-3.288 -1.88022,0.182 -6.4953,0.446 -10.25573,0.588 -12.074244,0.456 -20.886224,2.2 -27.982767,5.538 -2.542365,1.197 -4.945399,2.566 -5.340075,3.041 -0.394672,0.476 -1.039394,0.865 -1.43271,0.865 -0.393314,0 -1.03822,0.389 -1.433137,0.865 -0.394904,0.476 -1.644169,1.291 -2.776136,1.812 -1.131963,0.52 -2.790968,1.809 -3.686663,2.863 -1.378537,1.622 -1.728409,1.787 -2.279053,1.075 -1.006894,-1.303 -6.920163,-2.176 -9.715231,-1.433 -3.091103,0.819 -4.654725,2.356 -6.747321,6.632 -3.044832,6.222 -5.689278,8.113 -12.682191,9.071 -1.505539,0.206 -3.149111,0.787 -3.652382,1.291 -0.503271,0.503 -1.798432,1.544 -2.878137,2.312 -1.079703,0.769 -3.255582,2.802 -4.835287,4.519 -1.579705,1.715 -3.449075,3.722 -4.154158,4.46 -0.705082,0.737 -1.281966,1.553 -1.281966,1.815 0,0.26 -0.37927,0.788 -0.842823,1.172 -0.807105,0.671 -1.4296913,1.721 -3.7895294,6.393 -0.7172131,1.42 -1.0652788,3.327 -1.0652788,5.839 0,3.454 0.1454286,3.889 1.974127,5.914 1.0857702,1.202 2.9446222,2.58 4.1307822,3.063 8.961688,3.647 13.569414,4.407 19.932413,3.287 2.131382,-0.375 4.900813,-0.803 6.154293,-0.951 2.546949,-0.301 7.68289,-2.181 13.674315,-5.006 15.857151,-7.478 17.531602,-8.193 20.201233,-8.62 2.105317,-0.336 3.524033,0.547 3.790088,2.359 0.134119,0.914 -1.292385,1.545 -2.573757,1.138 -1.456375,-0.461 -8.632873,1.102 -11.281569,2.458 -1.319341,0.677 -2.697034,1.229 -3.061546,1.229 -0.364511,0 -2.489972,1.106 -4.723245,2.458 -2.345675,1.42 -7.188568,3.495 -11.467416,4.914 -8.945282,2.965 -15.184595,3.757 -20.431862,2.591 -4.843166,-1.075 -9.976051,-3.051 -12.23527,-4.71 -1.2850254,-0.944 -2.0870457,-1.208 -2.4780914,-0.818 -1.0300313,1.03 0.092173,2.846 2.8553914,4.619 7.126931,4.573 18.513934,5.595 30.29566,2.719 3.603754,-0.879 8.557062,-2.221 11.00735,-2.983 2.450291,-0.76 4.816546,-1.383 5.258345,-1.383 0.441799,0 2.411112,-0.486 4.376255,-1.081 1.965142,-0.594 6.108025,-1.652 9.206414,-2.35 3.766014,-0.85 6.504616,-1.846 8.261567,-3.006 5.615755,-3.708 10.725248,-7.811 13.453631,-10.805 3.217093,-3.531 5.720543,-4.962 12.095687,-6.917 8.04151,-2.466 13.07883,-3.181 22.65986,-3.215 5.54828,-0.02 9.01742,0.245 11.39526,0.874 6.95512,1.838 15.63781,7.048 26.57875,15.948 4.28312,3.484 13.01978,12.177 13.01978,12.954 0,0.238 1.28197,1.721 2.84882,3.296 1.56685,1.575 2.84881,3.114 2.84881,3.419 0,0.306 0.37597,1.009 0.83545,1.56 0.87834,1.055 1.88081,2.434 5.87864,8.087 1.34248,1.898 3.20133,4.014 4.13078,4.701 0.92946,0.687 1.68993,1.703 1.68993,2.256 0,1.152 2.36438,5.31 5.90834,10.391 1.33779,1.918 3.18373,4.727 4.10208,6.243 0.91834,1.517 2.05431,3.328 2.52436,4.025 0.47006,0.698 2.1024,3.175 3.62742,5.505 1.52503,2.33 4.12019,6.288 5.76703,8.795 1.64684,2.507 3.97332,6.097 5.16995,7.977 1.19665,1.88 3.73488,5.598 5.64053,8.262 1.90565,2.663 4.20303,6.124 5.10525,7.691 0.90225,1.567 3.10295,5.157 4.89047,7.976 1.78751,2.821 5.26689,8.539 7.73194,12.706 2.46504,4.168 4.8739,8.027 5.35299,8.578 0.47908,0.55 1.12745,1.422 1.44081,1.938 0.31339,0.515 1.65946,2.497 2.99128,4.402 1.33181,1.906 2.42148,3.705 2.42148,4 0,0.295 1.49499,2.529 3.32222,4.967 1.82722,2.439 3.81354,5.202 4.41407,6.143 0.60053,0.94 2.73051,3.994 4.73328,6.787 3.08698,4.305 3.54192,5.238 2.98802,6.125 -0.5635,0.902 -0.4715,1.046 0.66868,1.046 1.35221,0 2.485,1.233 5.80962,6.319 2.84574,4.354 7.80368,10.761 10.93837,14.137 5.94139,6.398 13.00449,16.382 16.16163,22.847 2.78567,5.703 4.02508,12.333 2.96319,15.852 -1.50639,4.992 -3.52396,10.315 -5.11298,13.49 -0.94105,1.88 -2.15656,4.958 -2.70111,6.838 -0.54452,1.879 -1.32347,4.316 -1.73096,5.412 -2.37862,6.403 -3.25243,26.758 -1.27945,29.804 0.44481,0.686 0.95801,2.53 1.14049,4.098 0.18247,1.566 0.7013,4.001 1.15295,5.412 0.4517,1.41 1.40718,4.615 2.12338,7.122 0.71617,2.507 1.48666,4.943 1.71214,5.413 1.18912,2.478 4.70485,14.317 5.77834,19.457 1.33872,6.41 1.53048,11.945 1.04335,30.112 -0.23725,8.848 -0.11729,11.256 0.74687,15.002 0.56622,2.453 0.92,4.76 0.7862,5.127 -0.13378,0.367 0.0678,1.436 0.44796,2.376 0.38016,0.941 1.04027,3.505 1.46693,5.698 0.42662,2.194 1.23506,4.758 1.79654,5.698 0.56149,0.939 1.02185,2.296 1.02302,3.014 0,0.717 0.46897,2.255 1.03955,3.419 0.57059,1.162 1.36948,3.266 1.77536,4.677 0.40588,1.41 0.94715,3.205 1.2028,3.989 2.13041,6.527 5.10064,19.052 5.10064,21.506 0,0.867 0.22213,2.351 0.49364,3.297 0.27147,0.947 0.30159,4.947 0.0669,8.89 -0.35756,6.007 -0.72715,7.99 -2.28102,12.235 -1.01983,2.786 -2.37502,5.806 -3.01152,6.713 -1.11792,1.59 -1.12167,1.673 -0.11072,2.411 3.09806,2.266 5.98936,4.985 5.90204,5.552 -0.0548,0.354 0.0661,1.03 0.26851,1.5 0.2024,0.47 0.71596,1.88 1.14121,3.133 1.18997,3.508 2.56531,3.33 6.6501,-0.857 1.87863,-1.925 3.4157,-3.938 3.4157,-4.472 0,-1.878 1.80037,-2.701 5.64527,-2.579 3.20924,0.1 3.79351,0.302 5.03104,1.732 2.04245,2.36 4.13752,6.742 4.13752,8.652 0,0.911 0.3675,1.963 0.81667,2.336 1.09379,0.908 8.67292,0.209 10.54809,-0.972 0.76665,-0.484 2.03456,-0.904 2.81756,-0.935 0.94732,-0.03 1.7556,-0.627 2.4159,-1.766 1.25402,-2.159 3.11878,-11.786 3.86287,-19.941 1.06953,-11.722 1.25977,-15.943 1.30697,-29.006 0.0433,-11.978 -0.0378,-13.114 -0.9861,-13.807 -0.94668,-0.692 -0.95755,-0.84 -0.12968,-1.761 0.49698,-0.554 0.88804,-1.648 0.86901,-2.432 -0.0191,-0.783 0.14134,-3.026 0.35635,-4.985 l 0.39089,-3.561 -1.59075,-0.02 -1.59072,-0.02 1.76648,-0.77 c 2.10956,-0.917 2.69559,-2.128 1.69381,-3.498 -0.60846,-0.833 -0.57728,-1.288 0.18158,-2.648 0.84674,-1.519 0.84372,-1.696 -0.0397,-2.36 -0.65567,-0.491 -0.79266,-0.975 -0.43605,-1.538 1.0576,-1.671 0.57851,-2.247 -1.88405,-2.258 l -2.42149,-0.01 1.85173,-0.913 c 1.92281,-0.948 2.51563,-2.48 0.95962,-2.48 -0.49067,0 -1.40149,0.272 -2.02403,0.605 -0.62258,0.334 -1.54925,0.527 -2.05927,0.428 -0.57319,-0.108 0.094,-0.703 1.74712,-1.554 5.97357,-3.072 4.35674,-5.258 -2.0603,-2.785 -0.87181,0.335 -1.70194,0.494 -1.84475,0.351 -0.14278,-0.143 1.21149,-0.854 3.00954,-1.58 3.96113,-1.6 4.82531,-2.307 4.15181,-3.397 -0.42505,-0.687 -0.72769,-0.661 -2.00644,0.178 -0.82824,0.542 -2.19618,0.899 -3.03989,0.791 -1.31705,-0.168 -1.13955,-0.315 1.25494,-1.034 1.75316,-0.528 3.23278,-1.433 3.98395,-2.439 l 1.19501,-1.6 -1.42001,-1.106 c -1.83971,-1.433 -4.52644,-2.811 -5.47799,-2.811 -0.41209,0 -0.61053,-0.362 -0.44103,-0.803 0.42918,-1.12 -1.8748,-1.764 -2.99067,-0.838 -0.74959,0.622 -0.85789,0.564 -0.7181,-0.381 0.24671,-1.666 -0.58971,-3.676 -1.53068,-3.676 -0.45669,0 -1.07654,-0.648 -1.37746,-1.439 -0.30091,-0.791 -0.93556,-1.588 -1.41029,-1.77 -0.47477,-0.183 -0.8632,-0.789 -0.8632,-1.349 0,-0.559 -0.37045,-1.159 -0.82323,-1.334 -0.45275,-0.174 -1.00021,-1.291 -1.21655,-2.483 -0.47374,-2.608 -2.07969,-5.936 -3.39068,-7.024 -0.52562,-0.435 -1.175,-1.369 -1.4431,-2.075 -0.26808,-0.705 -1.52336,-1.81 -2.78948,-2.456 -1.2661,-0.646 -2.30549,-1.362 -2.30978,-1.59 -0.005,-0.229 -0.16238,-0.992 -0.35134,-1.697 -1.30414,-4.867 10.15134,6.262 12.74986,12.387 0.46427,1.094 1.45578,2.716 2.20334,3.604 0.7476,0.888 1.3593,2.122 1.3593,2.74 0,1.625 1.60576,4.486 2.51759,4.486 0.42848,0 0.90743,0.334 1.06429,0.744 0.15689,0.408 1.51412,1.369 3.01603,2.137 1.50191,0.766 3.34003,1.905 4.08472,2.531 1.34777,1.135 3.29627,1.8 5.65386,1.927 0.91983,0.05 1.39256,-0.408 1.84024,-1.783 0.75916,-2.334 1.47467,-6.661 1.20141,-7.266 -0.16626,-0.367 -0.39498,-6.533 -0.54945,-14.813 -0.0672,-3.603 -0.36467,-6.844 -0.66099,-7.2 -0.34125,-0.411 -0.31399,-1.142 0.0745,-1.995 0.40288,-0.884 0.4523,-2.714 0.14407,-5.334 -0.48839,-4.152 -0.37632,-5.982 0.36628,-5.982 1.36487,0 2.45462,6.909 1.21096,7.678 -0.33911,0.21 -0.35125,0.856 -0.0319,1.696 0.28386,0.746 0.52891,1.827 0.54457,2.401 0.0158,0.574 0.13367,9.89 0.26232,20.701 0.18124,15.234 0.0515,20.747 -0.57636,24.5 -1.49172,8.916 -3.02188,16.246 -3.9279,18.813 -1.49467,4.236 -2.40963,12.284 -2.52027,22.168 -0.0577,5.155 -0.20784,9.538 -0.33357,9.742 -0.12573,0.204 -0.26503,5.219 -0.30953,11.146 -0.0695,9.256 -0.85529,18.275 -2.05566,23.596 -0.73789,3.269 -4.1566,14.685 -4.9774,16.619 -0.97449,2.297 -4.07469,7.087 -4.92859,7.614 -0.68972,0.426 -0.70393,2.39 -0.0191,2.64 0.91762,0.334 5.5131,6.607 6.589,8.993 1.02013,2.263 2.62072,3.049 3.45531,1.698 0.20689,-0.334 0.76522,-0.458 1.24072,-0.275 0.53665,0.205 1.58091,-0.429 2.75294,-1.672 1.03858,-1.101 2.08131,-2.002 2.3172,-2.002 0.74034,0 3.06622,-2.443 3.06622,-3.219 0,-0.408 0.70508,-1.191 1.56685,-1.74 0.86179,-0.548 1.7719,-1.322 2.0225,-1.722 0.92837,-1.479 2.44907,-0.748 3.52638,1.696 1.12409,2.55 6.20773,9.428 7.68527,10.398 2.44173,1.604 9.62342,1.327 12.21852,-0.471 z m -40.80065,-105.609 c 0.41128,-0.164 0.90268,-0.144 1.09203,0.05 0.18932,0.19 -0.14718,0.325 -0.74782,0.3 -0.66373,-0.02 -0.79876,-0.163 -0.34421,-0.344 z m -2.27908,-12.535 c 0.4113,-0.165 0.90273,-0.144 1.09207,0.05 0.18932,0.188 -0.1472,0.323 -0.74784,0.298 -0.66373,-0.02 -0.79874,-0.162 -0.34423,-0.344 z M 84.035683,19746.784 c -0.575251,-1.5 0.03925,-2.898 1.355665,-3.086 0.830642,-0.119 1.567833,-0.859 2.0832,-2.093 1.036845,-2.481 3.272161,-3.998 4.73707,-3.214 0.835126,0.447 1.441293,0.272 2.744579,-0.793 1.720311,-1.406 2.87769,-1.676 4.51018,-1.049 0.802863,0.308 0.713013,0.593 -0.629761,1.995 -0.861436,0.898 -2.078639,1.634 -2.704891,1.634 -0.626257,0 -1.76391,0.577 -2.528109,1.282 l -1.389459,1.282 0.415442,-1.349 c 0.582494,-1.892 -0.673473,-1.364 -1.885755,0.795 -0.523649,0.932 -1.016181,1.8 -1.094521,1.93 -0.07834,0.131 -0.307173,0.07 -0.508515,-0.127 -0.201338,-0.202 -0.03271,-0.769 0.374692,-1.259 0.534289,-0.645 0.567776,-1.066 0.12016,-1.514 -0.447619,-0.448 -0.869674,-0.02 -1.514218,1.519 -0.491486,1.176 -0.893612,2.333 -0.893612,2.573 0,0.239 -0.645603,0.858 -1.434671,1.375 -1.243117,0.815 -1.477771,0.828 -1.757476,0.09 z m -46.051662,-4.652 c -1.094235,-1.095 -1.106266,-1.495 -0.114866,-3.824 1.415921,-3.326 5.873802,-6.302 7.464215,-4.981 1.93585,1.606 0.379602,5.688 -3.260787,8.552 -1.755806,1.38 -2.890403,1.451 -4.088561,0.253 z m -12.176652,-4.347 c -0.928838,-0.928 -0.793932,-2.692 0.355012,-4.639 1.267987,-2.149 7.196255,-4.762 8.448259,-3.722 1.317792,1.093 0.421127,3.32 -2.550358,6.331 -2.723172,2.761 -4.836108,3.446 -6.252913,2.03 z m 75.664541,-0.816 c 0,-0.198 0.55133,-0.839 1.22518,-1.424 0.89659,-0.778 1.42165,-0.899 1.95774,-0.454 0.5213,0.433 1.08581,0.419 1.95732,-0.05 1.56788,-0.839 2.34812,-0.129 0.83752,0.762 -2.14864,1.268 -5.97776,2.013 -5.97776,1.164 z m -40.095838,-2.061 c -1.403708,-2.226 -1.524053,-3.53 -0.497278,-5.389 1.685705,-3.051 11.293041,-9.852 12.694265,-8.986 0.89933,0.556 0.661525,1.203 -1.660372,4.517 -1.215814,1.736 -2.495183,4.286 -2.843036,5.668 -1.131287,4.493 -5.873758,7.075 -7.693579,4.19 z m 2.705133,-2.022 c 0.154501,-0.25 0.06731,-0.8 -0.193755,-1.222 -0.641215,-1.038 -2.374836,-0.323 -1.943509,0.801 0.356004,0.928 1.664895,1.186 2.137264,0.421 z m 5.375501,-7.38 c -0.105607,-0.548 -0.569587,-0.996 -1.03106,-0.996 -0.461469,0 -0.925449,0.448 -1.031056,0.996 -0.13473,0.7 0.17291,0.998 1.031056,0.998 0.858148,0 1.165791,-0.298 1.03106,-0.998 z m 40.945254,8.199 c 0.88581,-0.739 2.50794,-1.506 3.60473,-1.703 1.0968,-0.197 2.63516,-0.51 3.41858,-0.694 2.69198,-0.631 5.98487,-0.535 7.60231,0.22 1.91806,0.896 1.57878,1.464 -0.93758,1.568 -4.41184,0.184 -10.11431,0.973 -10.40406,1.442 -0.17395,0.282 -1.34637,0.512 -2.6054,0.512 h -2.28914 z m 18.70346,-0.934 c -0.37968,-0.614 0.10297,-1.714 0.74583,-1.7 0.21653,0 0.77828,0.261 1.24834,0.569 0.75969,0.499 0.75969,0.624 0,1.122 -1.09126,0.717 -1.55558,0.719 -1.99417,0 z m -54.982142,-8.477 c 0,-0.747 1.472826,-1.826 1.904155,-1.394 0.78003,0.781 0.33026,1.895 -0.764628,1.895 -0.626741,0 -1.139527,-0.226 -1.139527,-0.501 z m 9.326962,-9.029 c -6.940877,-4.684 -8.561664,-6.345 -5.481063,-5.617 0.861768,0.204 2.197946,0.426 2.969289,0.494 0.897258,0.08 1.868583,0.842 2.69651,2.118 0.711733,1.096 1.573305,2.323 1.914594,2.726 1.36022,1.604 0.110427,1.771 -2.09933,0.279 z m 3.127295,-3.781 c -0.837504,-0.612 -0.797509,-0.745 0.394738,-1.308 1.020766,-0.482 1.39246,-0.454 1.6119,0.12 0.450522,1.174 -0.918408,1.986 -2.006638,1.19 z m 8.276026,-1.185 c -0.173347,-0.452 -0.229405,-1.251 -0.124555,-1.776 0.17222,-0.862 0.323125,-0.846 1.56325,0.159 0.783443,0.636 1.196988,1.398 0.963457,1.776 -0.570792,0.923 -2.023584,0.827 -2.402152,-0.159 z m -4.207152,-0.889 c 0,-0.312 0.256391,-0.569 0.569763,-0.569 0.313369,0 0.569762,0.257 0.569762,0.569 0,0.314 -0.256393,0.571 -0.569762,0.571 -0.313372,0 -0.569763,-0.257 -0.569763,-0.571 z m 7.08134,-1.953 c -0.603367,-0.441 -0.899043,-1 -0.657049,-1.242 0.242001,-0.242 0.867324,-0.01 1.389607,0.509 1.231494,1.232 0.690149,1.773 -0.732558,0.733 z m 4.456361,0.45 c -1.19472,-0.505 -0.79449,-1.872 0.65426,-2.236 2.32346,-0.584 4.04629,-0.08 4.04629,1.176 0,0.901 -0.41685,1.162 -1.99417,1.251 -1.0968,0.06 -2.31467,-0.02 -2.70638,-0.191 z m 244.7392,515.077 c 0.71938,-0.466 1.74496,-0.72 2.27906,-0.565 0.53412,0.157 1.86849,-0.158 2.96529,-0.699 1.8747,-0.923 1.98306,-1.128 1.80878,-3.427 -0.21493,-2.833 -1.83347,-5.863 -3.83166,-7.173 -0.76766,-0.502 -1.39569,-1.317 -1.39569,-1.809 0,-0.655 -0.80233,-0.319 -2.99127,1.248 -8.20672,5.881 -13.32519,12.001 -11.21641,13.413 1.19694,0.8 10.80385,0.04 12.3819,-0.988 z m -23.60478,-3.118 c 2.15173,-0.302 4.39518,-0.807 4.98542,-1.123 1.37994,-0.738 1.37712,-2.864 -0.008,-6.513 -0.83247,-2.193 -1.65078,-3.205 -3.56056,-4.405 -1.36378,-0.858 -2.6991,-1.565 -2.96739,-1.571 -0.51484,0 -1.42555,1.047 -5.34705,6.21 -2.91039,3.832 -4.33866,6.674 -3.9121,7.786 0.33387,0.87 2.38039,0.797 10.81034,-0.384 z m 132.91288,-9.28 c 7.01642,-1.369 7.63931,-1.686 7.08356,-3.604 -0.93224,-3.215 -3.90345,-9.113 -4.75622,-9.44 -0.49345,-0.19 -1.3098,0.14 -1.86424,0.753 -0.54254,0.599 -1.81778,1.246 -2.83389,1.436 -2.37512,0.445 -5.38732,2.943 -7.62432,6.319 -3.85639,5.823 -1.67444,6.813 9.99511,4.536 z m -19.20804,-0.943 c 5.40432,-1.296 6.30637,-1.829 6.30637,-3.725 0,-3.366 -6.81673,-10.095 -8.72459,-8.615 -2.72442,2.117 -6.1597,11.186 -4.83925,12.778 0.79947,0.963 1.61782,0.914 7.25747,-0.438 z m 38.35555,-3.497 c 0.54841,-0.282 0.9971,-0.759 0.9971,-1.061 0,-0.303 0.76025,-0.55 1.68944,-0.55 1.06474,0 2.40937,-0.632 3.63625,-1.71 1.07072,-0.94 2.55391,-1.713 3.29596,-1.718 1.66853,0 2.4158,-0.49 3.25807,-2.09 0.98319,-1.868 0.80286,-4.428 -0.7547,-10.718 -1.74841,-7.062 -2.71468,-7.955 -6.76714,-6.26 -0.83379,0.349 -1.01211,0.219 -0.85074,-0.619 0.12051,-0.625 0.9746,-1.28 2.08483,-1.599 3.01356,-0.864 3.47231,-2.57 4.38748,-16.309 0.14487,-2.175 1.03101,-6.545 1.96372,-9.683 0.32537,-1.094 0.59161,-2.183 0.59161,-2.421 0,-0.726 -3.61642,-0.481 -6.78992,0.462 -1.65464,0.492 -3.13704,0.765 -3.29419,0.609 -0.65404,-0.655 0.58505,-1.501 2.19581,-1.501 2.4881,0 7.72352,-1.627 8.84433,-2.747 0.89586,-0.896 0.88985,-0.97 -0.0941,-1.16 -0.57802,-0.107 -1.96989,0.07 -3.093,0.4 -2.92309,0.861 -6.88504,1.209 -6.88504,0.604 0,-0.284 0.46398,-0.516 1.03104,-0.516 0.56709,0 3.16242,-0.539 5.76744,-1.198 l 4.73639,-1.198 5.34585,-5.355 c 2.94021,-2.944 5.60093,-5.355 5.91272,-5.355 0.31177,0 0.56684,-0.288 0.56684,-0.644 0,-0.803 -3.17952,-0.344 -5.81096,0.84 -2.47886,1.116 -9.0869,2.452 -16.03313,3.243 -5.5303,0.63 -8.46769,0.425 -3.69118,-0.258 19.08308,-2.727 30.65867,-6.43 34.95774,-11.181 l 1.07434,-1.187 -3.11177,0.365 c -3.34727,0.393 -7.8319,1.498 -11.94314,2.944 -3.85525,1.356 -10.55719,2.345 -15.66849,2.312 -2.50695,-0.01 -3.66071,-0.13 -2.56394,-0.252 1.09681,-0.121 4.68631,-0.748 7.97671,-1.391 3.29035,-0.644 7.26448,-1.371 8.83132,-1.617 3.04689,-0.475 7.12203,-1.977 7.12203,-2.623 0,-0.659 -7.15998,0.295 -10.95502,1.459 -3.77106,1.157 -11.85597,2.338 -15.23912,2.227 -2.53917,-0.08 -1.44023,-0.367 3.9734,-1.026 4.85444,-0.589 8.87882,-1.531 10.20636,-2.387 1.08772,-0.702 -1.69506,-0.482 -15.904,1.253 -5.48398,0.668 -10.48365,1.22 -11.11038,1.225 -0.62676,0 -3.65797,-0.05 -6.73603,-0.119 -5.48877,-0.126 -7.31145,0.181 -5.16812,0.868 0.59327,0.19 1.59143,0.589 2.21816,0.883 0.97926,0.462 0.93921,0.493 -0.28486,0.223 -4.3584,-0.963 -6.66477,-0.986 -7.01451,-0.07 -0.24631,0.642 0.0272,0.995 0.90966,1.174 0.69401,0.141 2.03103,0.42 2.97116,0.62 0.94009,0.201 2.99123,0.585 4.55809,0.855 2.46023,0.421 2.30481,0.446 -1.13954,0.177 -7.15324,-0.554 -9.00093,-0.507 -9.25459,0.24 -0.13308,0.393 0.35643,0.954 1.08777,1.246 1.27331,0.511 1.27828,0.534 0.11753,0.569 -1.53264,0.05 -2.61886,1.32 -2.15524,2.528 0.36458,0.95 1.51602,1.111 6.66298,0.935 4.10476,-0.142 10.60592,0.649 9.25474,1.124 -1.16891,0.412 -5.06836,0.316 -12.12219,-0.299 -3.52642,-0.308 -4.18287,-0.223 -4.49134,0.581 -0.19869,0.518 -0.0865,1.216 0.2494,1.553 0.43442,0.434 0.25067,0.905 -0.63652,1.633 -1.12966,0.927 -1.16375,1.109 -0.36156,1.926 0.48713,0.496 2.02548,1.133 3.41857,1.416 l 2.53288,0.514 -2.88851,-0.05 c -3.46312,-0.06 -4.59593,0.444 -3.62167,1.616 0.36696,0.443 1.12018,0.805 1.67385,0.805 1.27599,0 3.83749,2.04 3.27299,2.607 -0.23312,0.234 -0.8943,0 -1.46928,-0.522 -1.4484,-1.31 -4.21316,-1.275 -4.00326,0.05 0.0867,0.549 -0.31307,1.705 -0.88856,2.571 -1.42789,2.147 -1.78948,8.2 -0.67974,11.378 0.46677,1.338 1.76038,4.568 2.87469,7.177 1.7265,4.045 2.02605,5.385 2.02605,9.069 v 4.322 l -4.55812,4.437 c -2.50697,2.442 -4.5581,4.693 -4.5581,5.006 0,0.311 0.96149,1.274 2.13661,2.139 2.77642,2.044 4.65436,4.223 4.68005,5.431 0.0416,1.962 1.34144,1.74 3.24828,-0.556 1.12684,-1.356 2.81171,-2.613 4.05123,-3.02 1.16715,-0.383 3.07845,-1.298 4.24737,-2.033 1.16892,-0.735 2.36951,-1.337 2.66798,-1.337 0.29849,0 0.70426,-0.577 0.90177,-1.282 0.99297,-3.545 1.96322,-4.403 3.70605,-3.276 0.70813,0.458 0.48575,0.894 -1.29713,2.54 -2.14381,1.981 -2.1476,1.991 -1.02476,3.114 0.61986,0.621 1.96829,2.933 2.99655,5.14 1.66298,3.57 2.12239,4.102 4.15845,4.817 2.30026,0.808 5.9284,0.658 7.84411,-0.326 z m 6.44923,-61.989 c 0.30368,-0.303 1.82923,-0.676 3.39008,-0.828 2.79594,-0.272 2.81265,-0.265 1.12865,0.527 -1.98051,0.93 -5.37363,1.157 -4.51873,0.301 z m 7.08265,-1.666 c 0.47005,-0.263 1.62383,-0.628 2.56394,-0.815 l 1.70928,-0.338 -1.70928,0.805 c -1.92302,0.907 -4.09813,1.201 -2.56394,0.348 z m -7.9767,-1.668 c 0,-0.301 0.83328,-0.673 1.85173,-0.827 2.44224,-0.371 9.71333,-2.012 11.05173,-2.494 0.58065,-0.21 0.86424,-0.169 0.63021,0.08 -0.69236,0.763 -5.99205,2.475 -8.87045,2.865 -1.46795,0.2 -3.1177,0.486 -3.66612,0.637 -0.54841,0.152 -0.9971,0.04 -0.9971,-0.269 z m -8.97375,-2.773 c 0.54842,-0.144 1.44578,-0.144 1.99416,0 0.54841,0.143 0.0997,0.26 -0.99708,0.26 -1.09679,0 -1.54547,-0.12 -0.99708,-0.26 z m -19.48122,-2.508 c -4.23813,-0.831 -3.96556,-1.08 0.78072,-0.714 5.73816,0.443 8.74647,1.243 4.59887,1.224 -1.56685,0 -3.98766,-0.237 -5.37959,-0.51 z m 10.22257,0.03 c 2.23151,-0.526 5.82254,-0.779 7.97669,-0.562 2.698,0.274 -1.63213,1.013 -5.98253,1.024 -3.31576,0 -3.65204,-0.07 -1.99416,-0.462 z m 20.49885,-1.7 c -0.33068,-0.204 1.26755,-0.692 3.55159,-1.083 2.28406,-0.393 7.2162,-1.461 10.96035,-2.375 7.8543,-1.917 9.0236,-2.041 5.44238,-0.575 -5.99449,2.452 -18.44123,4.969 -19.95432,4.033 z m 111.76075,67.581 c 6.39598,-2.413 6.76261,-2.651 6.76261,-4.402 0,-4.778 -5.16415,-10.002 -7.75911,-7.848 -3.01837,2.505 -7.07218,10.696 -6.29536,12.721 0.4944,1.289 3.06747,1.122 7.29186,-0.471 z m -12.81662,-2.342 c 7.16921,-2.187 8.70716,-4.935 5.19269,-9.281 -1.90689,-2.357 -3.02207,-2.941 -5.65324,-2.954 -3.34125,-0.01 -10.15384,11.201 -8.06853,13.287 0.74701,0.747 3.90959,0.357 8.52908,-1.052 z m -15.37964,-0.636 c 4.52574,-1.412 4.87174,-1.635 5.92349,-3.811 1.13765,-2.355 1.51912,-6.086 0.62219,-6.086 -0.27218,0 -1.64858,-1.154 -3.05874,-2.565 -1.41017,-1.409 -2.82395,-2.564 -3.14175,-2.564 -0.93968,0 -5.18534,6.948 -6.11142,10.001 -1.26944,4.185 -1.11678,6.523 0.42589,6.523 0.29364,0 2.69678,-0.675 5.34034,-1.498 z m -183.82186,-63.313 c 0.005,-0.548 0.41707,-2.15 0.91672,-3.56 0.49963,-1.411 1.15127,-5.768 1.44806,-9.684 0.52978,-6.99 0.51654,-7.138 -0.73002,-8.147 -0.69831,-0.566 -1.93055,-0.952 -2.73831,-0.858 l -1.46869,0.171 0.0316,7.122 c 0.0352,7.956 0.33356,14.878 0.66897,15.526 0.43609,0.843 1.86354,0.407 1.87165,-0.57 z"
       id="path3189" />
  </g>
</svg>
