<?xml version="1.0" encoding="UTF-8" standalone="no"?>
<!-- Created with Inkscape (http://www.inkscape.org/) -->

<svg
   version="1.1"
   id="svg3071"
   width="907.61865"
   height="562.86353"
   viewBox="0 0 907.61864 562.86351"
   sodipodi:docname="d2.svg"
   inkscape:version="1.2.2 (732a01da63, 2022-12-09, custom)"
   xmlns:inkscape="http://www.inkscape.org/namespaces/inkscape"
   xmlns:sodipodi="http://sodipodi.sourceforge.net/DTD/sodipodi-0.dtd"
   xmlns="http://www.w3.org/2000/svg"
   xmlns:svg="http://www.w3.org/2000/svg">
  <defs
     id="defs3075" />
  <sodipodi:namedview
     id="namedview3073"
     pagecolor="#ffffff"
     bordercolor="#000000"
     borderopacity="0.25"
     inkscape:showpageshadow="2"
     inkscape:pageopacity="0.0"
     inkscape:pagecheckerboard="0"
     inkscape:deskcolor="#d1d1d1"
     showgrid="false"
     inkscape:zoom="1.1196396"
     inkscape:cx="442.10655"
     inkscape:cy="267.94337"
     inkscape:window-width="1920"
     inkscape:window-height="1031"
     inkscape:window-x="0"
     inkscape:window-y="25"
     inkscape:window-maximized="1"
     inkscape:current-layer="svg3071" />
  <g
     inkscape:groupmode="layer"
     id="layer2"
     inkscape:label="Layer 1">
    <path
       id="path3189"
       style="fill:#000000;stroke-width:0.569763"
       d="M 121.4759 19691.252 C 108.01906 19691.375 88.512792 19693.179 81.22785 19695.365 C 76.728523 19696.717 67.983229 19700.811 65.979803 19702.502 C 64.298398 19703.922 61.030528 19704.834 55.606756 19705.398 C 47.56072 19706.236 45.777917 19706.958 41.694647 19711.039 C 40.238523 19712.493 37.790111 19714.581 36.255194 19715.678 C 34.720278 19716.774 33.063727 19718.502 32.5716 19719.517 C 32.059601 19720.573 30.767628 19721.819 29.554022 19722.428 C 28.387525 19723.015 27.597888 19723.659 27.798162 19723.859 C 27.998435 19724.06 27.605218 19724.224 26.925116 19724.224 C 24.843406 19724.224 17.147772 19728.872 17.147772 19730.129 C 17.147772 19730.548 15.731226 19732.018 14.001287 19733.396 C 11.396568 19735.472 6.8919125 19741.035 6.8919125 19742.174 C 6.8919125 19742.342 6.2521334 19743.493 5.4700375 19744.732 C 2.2244731 19749.874 1.4638343 19755.83 3.4016781 19760.933 C 4.9414022 19764.988 12.366618 19772.477 15.304022 19772.939 C 16.474756 19773.124 18.073333 19773.418 18.856756 19773.592 C 21.968551 19774.286 29.120254 19774.361 31.470037 19773.726 C 32.836977 19773.357 35.074527 19773.077 36.442694 19773.117 C 37.810858 19773.151 40.374433 19772.827 42.139959 19772.396 C 49.885509 19770.505 54.586256 19769.176 56.175116 19768.431 C 57.115224 19767.992 61.090028 19766.948 65.007147 19766.113 C 77.921525 19763.359 82.682451 19760.958 91.524725 19752.738 C 98.084639 19746.641 99.219065 19745.855 103.13996 19744.67 C 105.19979 19744.047 107.65298 19743.263 108.59308 19742.928 C 114.1156 19740.955 134.11937 19740.904 139.40949 19742.848 C 141.00334 19743.434 142.92651 19744.293 143.68293 19744.758 C 144.43936 19745.22 147.28342 19746.715 150.00324 19748.08 C 152.72304 19749.443 155.46899 19751.043 156.1048 19751.635 C 156.74061 19752.228 157.43802 19752.713 157.65363 19752.713 C 157.86926 19752.713 159.22949 19753.802 160.67707 19755.135 C 162.12466 19756.466 164.69407 19758.71 166.38605 19760.121 C 168.07804 19761.531 170.20282 19763.709 171.10871 19764.963 C 172.01458 19766.216 174.72884 19769.389 177.13996 19772.014 C 179.55107 19774.639 181.75852 19777.193 182.04621 19777.689 C 183.01952 19779.369 186.24579 19783.411 188.30597 19785.533 C 189.43298 19786.694 190.3548 19788.082 190.3548 19788.617 C 190.3548 19789.153 191.07366 19790.495 191.95246 19791.601 C 192.83127 19792.707 194.43325 19795.067 195.51301 19796.846 C 196.59278 19798.624 198.63019 19801.664 200.04035 19803.601 C 201.45052 19805.539 202.90537 19807.8 203.27277 19808.623 C 203.6402 19809.446 204.68004 19810.984 205.58332 19812.041 C 206.48658 19813.098 208.59008 19816.271 210.25715 19819.092 C 211.92418 19821.911 213.51214 19824.299 213.78644 19824.406 C 214.06075 19824.511 214.28449 19824.861 214.28449 19825.181 C 214.28449 19825.502 215.05336 19826.735 215.99347 19827.922 C 216.93357 19829.109 217.70441 19830.619 217.70441 19831.279 C 217.70441 19831.939 217.93518 19832.478 218.21808 19832.478 C 218.68025 19832.478 219.85172 19834.028 224.25129 19840.457 C 225.00199 19841.553 226.10463 19843.091 226.70246 19843.875 C 227.30031 19844.658 228.09838 19846.243 228.4759 19847.4 C 228.85344 19848.553 229.35964 19849.58 229.6009 19849.68 C 229.84216 19849.777 231.3743 19851.844 233.00519 19854.273 C 234.63606 19856.702 236.21896 19858.687 236.52277 19858.687 C 236.8266 19858.687 237.07551 19859.404 237.07551 19860.281 C 237.07551 19861.157 237.47377 19862.376 237.96027 19862.988 C 240.41002 19866.07 246.27361 19874.574 247.02863 19876.139 C 247.50146 19877.119 249.2596 19879.94 250.93488 19882.406 C 255.93749 19889.774 259.58333 19895.257 261.58722 19898.43 C 262.62656 19900.074 263.64249 19901.422 263.84504 19901.422 C 264.04761 19901.422 264.65852 19902.253 265.20246 19903.271 C 267.06645 19906.762 280.83628 19925.626 283.45637 19928.279 C 284.27317 19929.106 285.31927 19930.691 285.78254 19931.799 C 286.24577 19932.909 287.14264 19933.978 287.77472 19934.178 C 288.79566 19934.503 289.15674 19935.108 289.01301 19936.252 C 288.98809 19936.451 290.36803 19938.084 292.07941 19939.879 C 293.79075 19941.674 295.19074 19943.376 295.19074 19943.662 C 295.19074 19943.947 296.16865 19945.264 297.36262 19946.588 C 299.63693 19949.112 302.98172 19953.943 305.65168 19958.562 C 307.75394 19962.198 308.86652 19966.697 308.86652 19971.578 C 308.86652 19975.01 308.579 19976.172 306.87238 19979.637 C 305.77557 19981.863 304.87629 19984.042 304.87629 19984.484 C 304.87629 19985.338 303.1679 19988.667 302.45637 19989.197 C 301.30504 19990.055 298.28506 19999.191 297.38215 20004.549 C 297.09167 20006.273 296.56666 20009.22 296.21418 20011.101 C 295.43687 20015.247 295.49196 20024.278 296.30793 20026.424 C 296.63385 20027.281 296.89972 20029.082 296.89972 20030.424 C 296.89972 20031.767 297.13751 20033.609 297.42707 20034.517 C 297.71664 20035.426 298.50457 20038.092 299.17902 20040.443 C 300.80396 20046.106 302.17715 20050.282 302.64191 20050.982 C 302.84955 20051.296 303.33413 20052.902 303.72004 20054.547 C 304.10593 20056.194 304.65302 20057.681 304.93488 20057.855 C 305.21677 20058.029 305.4466 20058.746 305.4466 20059.449 C 305.4466 20060.151 305.6668 20060.969 305.93488 20061.267 C 306.94496 20062.389 308.53305 20068.232 308.9466 20072.349 C 309.18264 20074.699 309.65333 20078.418 309.99347 20080.611 C 310.33364 20082.805 310.57232 20084.856 310.52472 20085.17 C 310.06536 20088.198 310.08957 20107.576 310.55793 20111.732 C 310.88899 20114.671 311.25053 20118.359 311.36066 20119.926 C 311.6075 20123.436 313.7745 20132.231 315.14972 20135.308 C 315.71009 20136.561 316.70968 20139.404 317.37043 20141.623 C 318.03119 20143.842 318.94302 20146.15 319.39777 20146.75 C 319.85251 20147.352 320.23347 20148.62 320.24347 20149.568 C 320.25345 20150.517 321.01721 20152.753 321.94269 20154.537 C 323.58009 20157.693 326.2878 20169.355 325.63019 20170.418 C 325.46553 20170.685 325.73195 20172.509 326.22199 20174.473 C 328.97743 20185.511 326.11419 20197.786 319.21418 20204.519 C 314.63213 20208.989 309.72994 20217.177 309.72394 20220.367 C 309.72101 20221.925 310.03015 20223.003 310.57551 20223.342 C 312.0754 20224.276 316.31351 20224.641 318.46418 20224.023 C 320.72725 20223.373 326.67919 20222.229 330.09894 20221.785 C 332.199 20221.513 332.23182 20221.539 331.69074 20222.961 C 331.26304 20224.086 331.36078 20224.69 332.12433 20225.633 C 333.02259 20226.744 333.64064 20226.855 339.00129 20226.805 C 344.95794 20226.758 346.62194 20226.394 353.59113 20223.631 C 356.62842 20222.426 357.82048 20222.277 364.27472 20222.377 C 370.42844 20222.463 371.54035 20222.613 371.54035 20223.365 C 371.54035 20224.974 368.06962 20229.831 364.40168 20233.355 C 360.0947 20237.491 356.90794 20243.493 356.35676 20248.51 C 356.00389 20251.722 356.01746 20251.757 357.93097 20252.924 L 357.93097 20252.93 C 358.99186 20253.577 360.16798 20254.107 360.54426 20254.107 C 362.32128 20254.111 367.68932 20252.715 371.6634 20251.213 C 374.08192 20250.299 376.33216 20249.551 376.6634 20249.551 C 376.99464 20249.551 377.50989 20250.195 377.80988 20250.984 C 378.6388 20253.165 380.77792 20253.701 387.20832 20253.338 C 391.07548 20253.12 394.32534 20252.547 397.32355 20251.556 C 401.16894 20250.285 402.32121 20250.143 406.22004 20250.469 C 411.9334 20250.945 415.67317 20250.083 418.35871 20247.67 C 422.33227 20244.099 422.96228 20241.088 421.09113 20234.621 C 420.45377 20232.417 420.43919 20230.94 421.0091 20226.357 C 421.39076 20223.289 421.94701 20218.214 422.24543 20215.08 C 422.54382 20211.946 423.14429 20208.099 423.57941 20206.533 C 424.38318 20203.638 424.66206 20202.533 426.86457 20193.43 C 427.54703 20190.61 428.82298 20186.635 429.70051 20184.598 C 433.24257 20176.377 434.36387 20173.42 434.45637 20172.062 C 434.5097 20171.278 435.11705 20169.74 435.80597 20168.644 C 436.4949 20167.547 437.13736 20166.414 437.23566 20166.121 C 437.64394 20164.913 439.32614 20166.469 439.89582 20168.584 C 440.23308 20169.837 441.23911 20172.351 442.13215 20174.17 C 444.0074 20177.99 444.75956 20182.102 443.94465 20184.08 C 443.63297 20184.835 440.95801 20188.005 438.00129 20191.123 C 434.84551 20194.45 431.97261 20198.096 431.04426 20199.951 C 430.1744 20201.691 429.07813 20203.869 428.60871 20204.789 C 427.62803 20206.711 427.47217 20211.13 428.35285 20212.01 C 429.60272 20213.256 433.49789 20213.237 437.70051 20211.961 C 441.60838 20210.774 441.88797 20210.757 442.56769 20211.687 C 442.9643 20212.229 443.3802 20212.945 443.49152 20213.279 C 443.6028 20213.613 445.54187 20213.99 447.80207 20214.117 C 451.96113 20214.353 455.90642 20213.651 463.98957 20211.234 C 466.44054 20210.5 468.59317 20210.208 469.90754 20210.422 C 471.1834 20210.628 473.63284 20210.315 476.31183 20209.603 C 485.87307 20207.068 489.07695 20205.204 491.29426 20200.892 C 492.59282 20198.366 492.43486 20195.771 490.63019 20190.006 C 488.38038 20182.818 487.63118 20173.454 488.78449 20166.93 C 489.14456 20164.893 489.7325 20161.304 490.09113 20158.953 C 490.94937 20153.329 493.42954 20146.994 496.00324 20143.853 C 498.29565 20141.056 504.44024 20135.912 509.70637 20132.383 C 518.51652 20126.477 517.48624 20126.905 521.77472 20127.357 C 523.91205 20127.583 527.19918 20128.265 529.07941 20128.871 C 539.2067 20132.137 547.82605 20133.805 556.42707 20134.164 C 561.12761 20134.36 565.52528 20134.631 566.19855 20134.767 C 566.90024 20134.909 568.35864 20136.417 569.61652 20138.297 C 575.45024 20147.016 577.102 20153.273 575.7884 20161.674 C 574.4244 20170.397 572.92399 20173.542 565.46027 20183.316 C 564.32593 20184.801 562.98227 20186.911 562.4759 20188.004 C 561.9695 20189.097 561.1808 20190.44 560.72199 20190.99 C 559.85029 20192.034 557.95506 20197.32 557.88996 20198.89 C 557.7739 20201.689 562.39426 20202.645 567.43879 20200.865 C 569.84555 20200.015 569.8758 20200.021 571.6341 20201.701 C 573.63956 20203.619 575.06805 20203.776 579.16535 20202.533 C 583.67871 20201.164 585.58493 20201.384 586.62433 20203.394 C 587.7245 20205.522 590.32121 20205.871 592.8509 20204.232 C 594.60685 20203.095 604.68991 20199.987 608.73176 20199.336 C 612.93794 20198.658 616.48527 20197.179 618.12629 20195.418 C 620.38796 20192.989 620.34137 20187.52 617.95832 20176.047 C 616.56921 20169.359 616.6717 20157.415 618.1634 20152.117 C 618.83406 20149.734 619.47448 20145.448 619.61262 20142.431 C 619.74888 20139.455 619.88339 20136.596 619.90949 20136.082 C 619.99995 20134.305 621.72139 20134.464 625.54035 20136.607 C 627.63956 20137.785 630.38259 20139.178 631.63605 20139.703 C 637.14382 20142.006 644.30901 20144.661 645.88019 20144.982 C 646.82029 20145.174 649.0004 20145.696 650.72394 20146.142 C 654.92714 20147.231 676.64415 20151.31 682.34504 20152.082 C 698.2199 20154.231 715.80501 20153.516 723.36847 20150.414 C 724.30858 20150.028 726.61519 20149.35 728.49543 20148.908 C 735.38141 20147.289 742.56817 20144.894 749.57746 20141.881 C 750.20419 20141.612 752.25585 20140.821 754.13605 20140.125 C 758.25438 20138.6 759.01698 20138.297 762.68097 20136.723 C 766.23182 20135.197 771.32307 20133.668 775.78644 20132.787 C 777.66667 20132.416 779.97331 20131.847 780.9134 20131.523 C 781.85351 20131.198 788.39189 20130.832 795.44269 20130.705 C 802.49353 20130.58 811.08353 20130.214 814.53058 20129.892 C 817.97766 20129.569 822.76703 20129.209 825.17512 20129.09 C 827.58325 20128.97 831.42961 20128.326 833.72199 20127.658 C 836.01446 20126.99 839.19599 20126.066 840.79035 20125.605 C 842.38475 20125.144 844.17944 20124.75 844.77863 20124.75 C 845.37783 20124.74 846.36566 20124.354 846.97394 20123.894 C 847.58221 20123.433 848.50251 20123.058 849.02082 20123.058 C 849.53906 20123.058 851.49349 20122.098 853.36262 20120.922 C 857.7162 20118.185 859.6342 20117.066 862.1048 20115.828 C 866.67111 20113.538 870.00536 20110.919 882.33137 20099.945 C 884.21156 20098.271 886.7403 20096.184 887.95051 20095.308 C 889.1607 20094.431 891.34082 20092.666 892.79426 20091.383 C 895.97218 20088.576 901.70652 20085.173 904.61262 20084.371 C 907.22729 20083.648 909.96613 20081.109 909.96613 20079.406 C 909.96613 20078.693 909.27544 20077.586 908.39972 20076.896 C 907.07479 20075.852 906.39261 20075.721 903.98371 20076.039 C 902.41684 20076.247 899.46791 20076.946 897.43097 20077.596 C 893.03366 20079 878.89308 20086.169 874.67707 20089.133 C 870.65871 20091.957 857.30567 20097.832 850.99543 20099.553 C 839.53251 20102.678 834.24974 20102.954 822.22199 20101.06 C 817.36475 20100.295 812.74953 20099.384 811.96613 20099.033 C 810.62343 20098.433 806.48151 20097.592 798.52082 20096.303 C 789.82309 20094.893 779.4501 20095.581 770.94269 20098.131 C 757.04174 20102.296 748.28652 20103.626 734.47785 20103.646 C 719.23106 20103.674 709.74707 20101.56 697.44855 20095.389 C 695.28325 20094.302 693.35252 20093.155 693.15754 20092.84 C 692.96265 20092.525 691.29193 20091.503 689.44465 20090.57 C 679.06176 20085.329 661.48803 20067.327 651.12629 20051.32 C 642.13977 20037.437 636.63753 20030.526 626.44269 20020.299 C 621.73813 20015.58 612.41604 20007.412 609.85871 20005.769 C 609.54319 20005.566 609.1109 20004.843 608.89777 20004.16 C 608.66177 20003.403 607.86362 20002.775 606.85871 20002.555 C 605.95093 20002.355 604.10321 20001.392 602.75324 20000.412 C 598.29775 19997.178 591.27496 19992.969 584.91535 19989.724 C 581.4683 19987.964 578.13583 19986.253 577.5091 19985.918 C 574.2831 19984.198 561.93577 19978.406 560.70051 19978.033 C 559.91708 19977.797 557.3535 19976.627 555.00324 19975.437 C 552.65297 19974.246 549.57553 19972.846 548.16535 19972.326 C 544.02552 19970.801 540.59568 19969.468 538.76496 19968.67 C 535.03757 19967.044 533.47049 19966.44 529.36457 19965.06 C 525.57971 19963.788 518.01509 19960.408 513.9798 19958.187 C 508.56778 19955.209 503.36871 19952.123 499.45051 19949.562 C 477.44093 19935.176 474.73588 19933.544 471.53254 19932.736 C 470.59245 19932.498 468.15733 19931.66 466.12043 19930.875 C 457.56194 19927.574 453.19983 19925.844 451.59113 19925.109 C 450.65103 19924.679 448.59941 19923.944 447.03254 19923.474 C 445.46568 19923.004 442.3902 19921.847 440.1966 19920.902 C 438.00303 19919.957 434.79705 19918.773 433.07355 19918.273 C 431.35 19917.772 425.64824 19915.955 420.40363 19914.234 C 415.15902 19912.514 410.54576 19911.101 410.14972 19911.101 C 409.7537 19911.1 408.78862 19910.772 408.00519 19910.371 C 407.22177 19909.97 404.27278 19908.904 401.45246 19908.006 C 398.63216 19907.106 394.52887 19905.786 392.33527 19905.072 C 390.14168 19904.359 387.22176 19903.483 385.84504 19903.125 C 384.4683 19902.767 381.79448 19901.723 379.90363 19900.806 C 378.0128 19899.892 376.26495 19899.142 376.01887 19899.142 C 375.59045 19899.142 369.07254 19896.153 360.29426 19891.928 C 358.02683 19890.836 356.02471 19889.705 355.84504 19889.414 C 355.66536 19889.123 355.16263 19888.887 354.72785 19888.887 C 353.53478 19888.887 341.45501 19881.68 338.03254 19878.926 C 332.12832 19874.176 329.35582 19871.588 324.24933 19866.068 C 320.95895 19862.51 317.28058 19858.612 316.07551 19857.404 C 314.30918 19855.636 313.95517 19854.933 314.24543 19853.777 C 314.53444 19852.625 314.40415 19852.367 313.58722 19852.447 C 311.65642 19852.646 311.30551 19852.41 308.80793 19849.215 C 307.42928 19847.45 305.65972 19845.303 304.87629 19844.441 C 304.0929 19843.582 302.55513 19841.675 301.45832 19840.205 C 300.36153 19838.735 298.76962 19836.714 297.91926 19835.717 C 297.06892 19834.719 295.82597 19833.262 295.15754 19832.478 C 293.70676 19830.777 282.73352 19816.415 281.52668 19814.637 C 280.24636 19812.751 275.4284 19806.506 274.1048 19805.019 C 271.09265 19801.634 268.98176 19798.97 268.98176 19798.547 C 268.98176 19798.292 268.48942 19797.552 267.88801 19796.906 C 267.28661 19796.259 265.30115 19793.635 263.47394 19791.076 C 261.64674 19788.517 259.43699 19785.568 258.56379 19784.523 C 257.69059 19783.479 255.51049 19780.661 253.72004 19778.26 C 247.72811 19770.223 231.23786 19751.012 230.30597 19750.992 C 230.11178 19750.987 226.24033 19747.397 221.70246 19743.015 C 217.16456 19738.634 213.29036 19735.051 213.09308 19735.051 C 212.72413 19735.051 207.83354 19731.092 200.76887 19725.078 C 195.47214 19720.57 194.38337 19719.756 192.33137 19718.773 C 191.38193 19718.317 189.36811 19716.924 187.8548 19715.674 C 186.34149 19714.422 184.89234 19713.398 184.63605 19713.398 C 184.37976 19713.398 182.67769 19712.406 180.85285 19711.195 C 170.18998 19704.115 161.11367 19699.39 153.88996 19697.156 C 147.5831 19695.205 143.90541 19693.92 143.34894 19693.465 C 143.03557 19693.21 141.36936 19692.863 139.64582 19692.697 C 137.92229 19692.532 134.58984 19692.098 132.23957 19691.736 C 129.77469 19691.355 125.96151 19691.211 121.4759 19691.252 z M 382.16144 20112.9 C 382.94798 20112.919 383.96644 20113.276 384.57746 20113.771 C 385.82402 20114.78 385.83771 20114.928 385.30793 20121.918 C 385.01114 20125.834 384.36029 20130.19 383.86066 20131.601 C 383.36101 20133.011 382.94769 20134.614 382.94269 20135.162 C 382.93458 20136.139 381.50769 20136.575 381.0716 20135.732 C 380.73619 20135.084 380.43688 20128.163 380.40168 20120.207 L 380.37043 20113.084 L 381.83918 20112.914 C 381.94015 20112.902 382.04908 20112.898 382.16144 20112.9 z "
       transform="translate(-2.3469906,-19691.244)" />
    <path
       id="path3220"
       style="fill:#008000;display:inline;stroke-width:0.569763"
       d="m 113.15168,19694.242 c -1.88022,0.182 -6.49546,0.446 -10.25586,0.588 -12.074211,0.456 -20.885901,2.199 -27.982423,5.537 -2.542359,1.197 -4.945168,2.566 -5.339844,3.041 -0.394672,0.476 -1.038325,0.865 -1.431641,0.865 -0.393311,0 -1.038679,0.39 -1.433593,0.866 -0.394904,0.476 -1.64538,1.291 -2.777344,1.812 -1.13196,0.52 -2.789855,1.809 -3.685547,2.863 -1.378534,1.622 -1.728653,1.787 -2.279297,1.075 -1.006891,-1.303 -6.919782,-2.175 -9.714844,-1.432 -3.091091,0.819 -4.655456,2.355 -6.748046,6.631 -3.044823,6.222 -5.688749,8.112 -12.681641,9.07 -1.505536,0.206 -3.149073,0.787 -3.652344,1.291 -0.503268,0.503 -1.799204,1.545 -2.878906,2.313 -1.0797,0.769 -3.254285,2.802 -4.833984,4.519 -1.579702,1.715 -3.449217,3.721 -4.154297,4.459 -0.705082,0.737 -1.283203,1.557 -1.283203,1.816 0,0.26 -0.378247,0.788 -0.841797,1.172 -0.807102,0.671 -1.4292316,1.721 -3.7890628,6.393 -0.717211,1.42 -1.0664062,3.328 -1.0664062,5.84 0,3.454 0.1459166,3.889 1.9746093,5.914 1.0857672,1.202 2.9447027,2.579 4.1308597,3.062 8.961661,3.647 13.568662,4.407 19.93164,3.287 2.131376,-0.375 4.90082,-0.803 6.154297,-0.951 2.546943,-0.301 7.682421,-2.181 13.673828,-5.006 15.857103,-7.478 17.53155,-8.194 20.201172,-8.621 2.105311,-0.336 3.524961,0.548 3.791016,2.36 0.134119,0.914 -1.29285,1.545 -2.574219,1.138 -1.456369,-0.461 -8.632563,1.101 -11.28125,2.457 -1.319338,0.677 -2.696035,1.231 -3.060547,1.231 -0.364508,0 -2.491342,1.105 -4.724609,2.457 -2.345669,1.42 -7.187961,3.495 -11.466797,4.914 -8.945255,2.965 -15.184389,3.758 -20.431641,2.592 -4.843151,-1.075 -9.977115,-3.052 -12.236328,-4.711 -1.2850209,-0.944 -2.0855178,-1.209 -2.4765623,-0.819 -1.030028,1.03 0.092259,2.847 2.8554683,4.62 7.12691,4.573 18.513232,5.594 30.294922,2.718 3.603745,-0.879 8.557531,-2.22 11.007813,-2.982 2.450282,-0.76 4.816016,-1.383 5.257812,-1.383 0.441799,0 2.411816,-0.487 4.376953,-1.082 1.965139,-0.594 6.106699,-1.652 9.205079,-2.35 3.766002,-0.847 6.504773,-1.845 8.261718,-3.005 5.61574,-3.708 10.724751,-7.811 13.453125,-10.805 3.217084,-3.531 5.720584,-4.961 12.095701,-6.916 8.04148,-2.466 13.07916,-3.183 22.66016,-3.217 5.54825,-0.02 9.01867,0.246 11.39648,0.875 6.95512,1.838 15.63722,7.047 26.57813,15.947 4.28309,3.484 13.01953,12.178 13.01953,12.955 0,0.238 1.28276,1.72 2.84961,3.295 1.56685,1.575 2.84765,3.115 2.84765,3.42 0,0.306 0.37646,1.01 0.83594,1.561 0.87834,1.055 1.88108,2.433 5.87891,8.086 1.34248,1.898 3.20141,4.014 4.13086,4.701 0.92946,0.687 1.68945,1.703 1.68945,2.256 0,1.152 2.36427,5.309 5.9082,10.39 1.33779,1.918 3.18322,4.729 4.10157,6.245 0.91834,1.517 2.05534,3.326 2.52539,4.023 0.47006,0.698 2.10193,3.176 3.62695,5.506 1.52503,2.33 4.12074,6.288 5.76758,8.795 1.64684,2.507 3.97329,6.096 5.16992,7.976 1.19665,1.88 3.73498,5.598 5.64063,8.262 1.90562,2.663 4.20327,6.125 5.10546,7.692 0.90225,1.567 3.10311,5.157 4.89063,7.976 1.78751,2.821 5.26542,8.538 7.73047,12.705 2.46504,4.168 4.87442,8.027 5.35351,8.578 0.47908,0.55 1.12805,1.424 1.44141,1.94 0.31339,0.515 1.65844,2.495 2.99023,4.4 1.33181,1.906 2.42188,3.705 2.42188,4 0,0.295 1.49506,2.531 3.32226,4.969 1.82722,2.439 3.81354,5.201 4.41407,6.142 0.60053,0.94 2.7316,3.995 4.73437,6.788 3.08698,4.305 3.54023,5.238 2.98633,6.125 -0.5635,0.902 -0.47026,1.044 0.66992,1.044 1.35221,0 2.48398,1.235 5.8086,6.321 2.84571,4.354 7.80476,10.761 10.93945,14.137 5.94136,6.398 13.00497,16.38 16.16211,22.845 2.78567,5.703 4.02478,12.335 2.96289,15.854 -1.50639,4.992 -3.52426,10.315 -5.11328,13.49 -0.94105,1.88 -2.15662,4.958 -2.70117,6.838 -0.54452,1.879 -1.32298,4.316 -1.73047,5.412 -2.37862,6.403 -3.25228,26.757 -1.2793,29.803 0.44481,0.686 0.95815,2.529 1.14063,4.097 0.18247,1.566 0.70069,4.001 1.15234,5.412 0.4517,1.41 1.40685,4.617 2.12305,7.124 0.71617,2.507 1.48741,4.942 1.71289,5.412 1.18912,2.478 4.70385,14.317 5.77734,19.457 1.33872,6.41 1.5301,11.946 1.04297,30.113 -0.23725,8.848 -0.11611,11.256 0.74805,15.002 0.56622,2.453 0.91895,4.76 0.78515,5.127 -0.13378,0.367 0.0691,1.435 0.44922,2.375 0.38016,0.941 1.04014,3.504 1.4668,5.697 0.42662,2.194 1.23344,4.759 1.79492,5.699 0.56149,0.939 1.02227,2.296 1.02344,3.014 0,0.717 0.47043,2.256 1.04101,3.42 0.57059,1.162 1.36951,3.265 1.77539,4.676 0.40588,1.41 0.94553,3.206 1.20118,3.99 2.13038,6.527 5.10156,19.052 5.10156,21.506 0,0.867 0.22263,2.351 0.49414,3.297 0.27147,0.947 0.30109,4.945 0.0664,8.888 -0.35753,6.007 -0.72738,7.992 -2.28125,12.237 -1.0198,2.786 -2.37521,5.806 -3.01171,6.713 -1.11792,1.59 -1.12228,1.672 -0.11133,2.41 3.09806,2.266 5.98966,4.985 5.90234,5.552 -0.0548,0.354 0.0671,1.03 0.26953,1.5 0.2024,0.47 0.71538,1.88 1.14063,3.133 1.18997,3.508 2.5656,3.33 6.65039,-0.857 1.87863,-1.925 3.41601,-3.939 3.41601,-4.473 0,-1.878 1.79964,-2.7 5.64454,-2.578 3.20921,0.1 3.79372,0.302 5.03125,1.732 2.04242,2.36 4.13671,6.743 4.13671,8.653 0,0.911 0.36919,1.963 0.81836,2.336 1.09379,0.908 8.67171,0.208 10.54688,-0.973 0.76665,-0.484 2.03536,-0.904 2.81836,-0.935 0.94732,-0.03 1.75571,-0.627 2.41601,-1.766 1.25402,-2.159 3.11724,-11.786 3.86133,-19.941 1.06953,-11.722 1.2614,-15.943 1.3086,-29.006 0.0433,-11.978 -0.038,-13.114 -0.98633,-13.807 -0.94668,-0.692 -0.95873,-0.841 -0.13086,-1.762 0.49698,-0.554 0.88817,-1.647 0.86914,-2.431 -0.0191,-0.783 0.14241,-3.026 0.35742,-4.985 l 0.39063,-3.56 -1.5918,-0.02 -1.58985,-0.02 1.76563,-0.77 c 2.10956,-0.917 2.69709,-2.128 1.69531,-3.498 -0.60846,-0.833 -0.57722,-1.288 0.18164,-2.648 0.84674,-1.519 0.84241,-1.696 -0.041,-2.36 -0.65567,-0.491 -0.79216,-0.976 -0.43555,-1.539 1.0576,-1.671 0.57779,-2.247 -1.88477,-2.258 h -2.41992 l 1.85157,-0.912 c 1.92278,-0.948 2.51499,-2.481 0.95898,-2.481 -0.49067,0 -1.4009,0.273 -2.02344,0.606 -0.62258,0.334 -1.55052,0.526 -2.06054,0.427 -0.57319,-0.108 0.0949,-0.703 1.74804,-1.554 5.97357,-3.072 4.35647,-5.259 -2.06054,-2.786 -0.87181,0.335 -1.7029,0.495 -1.84571,0.352 -0.14278,-0.143 1.21172,-0.854 3.00977,-1.58 3.9611,-1.6 4.82584,-2.307 4.15234,-3.397 -0.42505,-0.687 -0.72711,-0.661 -2.00586,0.178 -0.82824,0.542 -2.1973,0.899 -3.04101,0.791 -1.31705,-0.168 -1.13863,-0.316 1.25586,-1.035 1.75313,-0.528 3.2332,-1.431 3.98437,-2.437 l 1.19531,-1.6 -1.42187,-1.107 c -1.83971,-1.433 -4.52501,-2.811 -5.47656,-2.811 -0.41209,0 -0.61091,-0.362 -0.44141,-0.803 0.42918,-1.12 -1.87439,-1.764 -2.99023,-0.838 -0.74959,0.622 -0.85854,0.565 -0.71875,-0.38 0.24671,-1.666 -0.59031,-3.676 -1.53125,-3.676 -0.45669,0 -1.07604,-0.649 -1.37696,-1.44 -0.30091,-0.791 -0.93542,-1.587 -1.41015,-1.769 -0.47477,-0.183 -0.86329,-0.79 -0.86329,-1.35 0,-0.559 -0.36948,-1.159 -0.82226,-1.334 -0.45275,-0.174 -1.00046,-1.29 -1.2168,-2.482 -0.47374,-2.608 -2.07963,-5.938 -3.39062,-7.026 -0.52562,-0.435 -1.17526,-1.368 -1.44336,-2.074 -0.26808,-0.705 -1.52297,-1.811 -2.78906,-2.457 -1.2661,-0.646 -2.30626,-1.362 -2.31055,-1.59 -0.005,-0.229 -0.1626,-0.99 -0.35156,-1.695 -1.30414,-4.867 10.15148,6.262 12.75,12.387 0.46427,1.094 1.45556,2.715 2.20312,3.603 0.7476,0.888 1.35938,2.122 1.35938,2.74 0,1.625 1.60577,4.487 2.51757,4.487 0.42848,0 0.9076,0.334 1.06446,0.744 0.15689,0.408 1.51371,1.369 3.01562,2.137 1.50191,0.766 3.34125,1.905 4.08594,2.531 1.34777,1.135 3.29478,1.799 5.65234,1.926 0.91983,0.05 1.39412,-0.409 1.8418,-1.784 0.75916,-2.334 1.47443,-6.66 1.20117,-7.265 -0.16626,-0.367 -0.39631,-6.533 -0.55078,-14.813 -0.0672,-3.603 -0.36384,-6.845 -0.66016,-7.201 -0.34122,-0.411 -0.31427,-1.141 0.0742,-1.994 0.40288,-0.884 0.45276,-2.714 0.14453,-5.334 -0.48836,-4.152 -0.37736,-5.982 0.36524,-5.982 1.36487,0 2.4546,6.908 1.21094,7.677 -0.33911,0.21 -0.3506,0.858 -0.0312,1.698 0.28386,0.746 0.52926,1.826 0.54492,2.4 0.0158,0.574 0.13307,9.89 0.26172,20.701 0.18124,15.234 0.0517,20.747 -0.57617,24.5 -1.49172,8.916 -3.02172,16.246 -3.92774,18.813 -1.49467,4.236 -2.40889,12.284 -2.51953,22.168 -0.0577,5.155 -0.20825,9.538 -0.33398,9.742 -0.12573,0.204 -0.26605,5.219 -0.31055,11.146 -0.0695,9.256 -0.85432,18.275 -2.05469,23.596 -0.73789,3.269 -4.15774,14.685 -4.97851,16.619 -0.97449,2.297 -4.07384,7.086 -4.92774,7.613 -0.68972,0.426 -0.70436,2.391 -0.0195,2.641 0.91762,0.334 5.51394,6.606 6.58984,8.992 1.02013,2.263 2.62049,3.05 3.45508,1.699 0.20689,-0.334 0.76474,-0.458 1.24024,-0.275 0.53665,0.205 1.58187,-0.429 2.7539,-1.672 1.03858,-1.101 2.08052,-2.002 2.31641,-2.002 0.74034,0 3.0664,-2.443 3.0664,-3.219 0,-0.408 0.70464,-1.191 1.56641,-1.74 0.86179,-0.548 1.77284,-1.322 2.02344,-1.722 0.92837,-1.479 2.44808,-0.747 3.52539,1.697 1.12409,2.55 6.20801,9.426 7.68555,10.396 2.4417,1.604 9.62365,1.328 12.21875,-0.47 v 0 c 3.7785,-2.618 4.88671,-3.959 4.88671,-5.905 0,-1.102 -0.45584,-2.342 -1.0957,-2.982 -0.81462,-0.815 -0.90602,-1.167 -0.35742,-1.377 0.55225,-0.212 0.69804,-1.756 0.58008,-6.135 -0.0866,-3.218 0.0869,-7.406 0.38672,-9.305 1.83684,-11.637 4.0465,-22.362 5.8164,-28.238 0.42472,-1.41 0.65524,-2.899 0.51172,-3.31 -0.14351,-0.409 0.12997,-1.178 0.60742,-1.707 1.54865,-1.721 3.2394,-6.718 2.51758,-7.44 -0.4767,-0.476 -0.30577,-0.954 0.66211,-1.855 0.94726,-0.883 1.23761,-1.671 1.06055,-2.877 -0.17008,-1.158 -0.0295,-1.581 0.46289,-1.391 1.55447,0.597 7.02098,-15.832 9.55273,-28.711 0.56984,-2.898 3.27039,-12.875 3.9336,-14.529 1.94877,-4.859 6.71336,-11.098 14.90039,-19.514 3.35724,-3.451 4.32308,-4.131 5.86523,-4.131 1.26283,0 2.03786,-0.359 2.45508,-1.14 0.71147,-1.329 1.71094,-1.509 1.71094,-0.307 0,1.199 -2.87286,3.732 -4.6543,4.104 -0.90957,0.19 -1.65428,0.808 -1.85156,1.537 -0.1814,0.671 -2.27617,2.887 -4.6543,4.924 -5.02734,4.306 -6.04204,5.697 -4.15625,5.697 1.20741,0 1.21399,0.04 0.22656,1.127 -0.86068,0.951 -0.88887,1.177 -0.18554,1.447 0.45868,0.177 1.5096,0.06 2.33593,-0.25 0.82639,-0.315 1.6303,-0.363 1.78711,-0.107 0.48431,0.783 10.12044,1.207 12.57618,0.552 1.25346,-0.335 2.91969,-0.655 3.70312,-0.711 0.78343,-0.06 1.98074,-0.412 2.66016,-0.789 0.67945,-0.378 1.97591,-0.54 2.88086,-0.359 1.12328,0.225 1.88252,0.05 2.39453,-0.574 0.94876,-1.143 2.32031,-1.172 2.32031,-0.05 0,0.953 2.0127,1.173 2.56445,0.281 0.19438,-0.315 0.96728,-0.417 1.7168,-0.23 0.74951,0.189 2.10573,-0.02 3.01367,-0.483 0.90796,-0.452 2.4401,-0.706 3.4043,-0.564 1.33779,0.197 1.92903,-0.02 2.5,-0.94 0.95679,-1.534 2.17508,-1.573 1.7793,-0.06 -0.37543,1.437 1.27561,1.56 2.76953,0.209 0.95369,-0.863 1.05747,-0.863 1.38867,0 0.45345,1.182 1.84954,1.194 3.13672,0.03 0.91322,-0.825 1.04335,-0.812 1.5664,0.166 0.47789,0.893 1.20372,1.056 4.46094,1.004 2.38645,-0.04 4.16008,0.207 4.58789,0.635 0.38357,0.383 2.0498,0.877 3.70313,1.097 2.79029,0.374 8.32357,1.963 10.98242,3.151 0.62673,0.279 2.42142,0.755 3.98828,1.058 1.56685,0.303 3.87542,0.85 5.12891,1.213 4.05057,1.175 5.73536,1.243 7.94336,0.321 2.59339,-1.083 3.05017,-1.131 2.14062,-0.221 -1.21051,1.21 -0.73268,1.752 1.25977,1.428 1.06879,-0.173 2.1123,-0.146 2.31836,0.06 0.77783,0.778 6.42169,0.622 7.49218,-0.207 1.0391,-0.805 1.03764,-0.849 -0.0723,-1.707 -0.62673,-0.485 -1.05935,-1.384 -0.96094,-1.998 0.0984,-0.614 -0.21089,-1.266 -0.6875,-1.449 -0.60685,-0.233 -0.77123,-0.808 -0.54883,-1.92 0.17472,-0.873 0.0133,-2.157 -0.35742,-2.85 -0.37087,-0.693 -0.68783,-2.65 -0.70313,-4.353 -0.0153,-1.703 -0.26423,-3.243 -0.55468,-3.422 -0.29042,-0.18 -0.35698,-1.106 -0.14844,-2.055 0.25481,-1.16 0.13132,-1.877 -0.37305,-2.189 -0.59444,-0.367 -0.52286,-0.715 0.3418,-1.67 0.89187,-0.986 0.96788,-1.402 0.41797,-2.283 -0.55804,-0.894 -0.41359,-1.473 0.83984,-3.387 1.75004,-2.673 2.71921,-2.993 2.25391,-0.742 -1.79131,8.661 -1.89035,11.425 -0.61914,17.34 0.49272,2.292 0.98452,4.58 1.09179,5.084 0.41781,1.959 3.44981,7.174 5.47461,9.418 2.1275,2.355 3.78043,4.657 7.1543,9.964 5.99007,9.422 4.23701,26.623 -3.73242,36.614 -0.97175,1.219 -1.76364,2.499 -1.75977,2.847 0.0125,1.122 5.76175,6.619 6.92188,6.619 1.49536,0 6.83387,-4.629 6.46289,-5.603 -0.16602,-0.437 0.0146,-0.658 0.42383,-0.522 0.39193,0.133 0.71289,1.115 0.71289,2.184 0,1.545 0.24693,1.981 1.20312,2.117 0.66195,0.1 1.92731,0.929 2.8125,1.852 2.36429,2.469 4.13388,2.235 7.00586,-0.92 1.30171,-1.43 2.36719,-2.841 2.36719,-3.135 0,-0.294 0.24869,-0.531 0.55273,-0.531 0.30405,0 0.49676,0.944 0.42774,2.101 -0.0996,1.671 0.13376,2.236 1.13867,2.75 1.7509,0.896 3.46797,3.208 3.81836,5.139 0.16151,0.892 0.77877,2.106 1.37109,2.699 1.01648,1.016 1.2421,1.028 4.0293,0.2 2.85961,-0.849 4.86307,-2.072 7.8418,-4.791 1.29938,-1.186 1.40385,-1.624 1.16797,-4.844 -0.26732,-3.65 -2.24912,-11.022 -3.22461,-11.998 -0.35592,-0.355 -0.8629,-0.293 -1.42969,0.177 -1.18393,0.982 -1.188,-0.378 -0.006,-1.941 0.59191,-0.783 0.83745,-2.617 0.83984,-6.268 0,-2.837 0.26199,-6.701 0.57813,-8.58 1.08779,-6.47 1.14519,-7.678 0.42187,-8.863 -0.63355,-1.037 -0.53366,-1.313 0.84766,-2.33 1.54381,-1.136 1.56641,-1.243 1.56641,-7.394 0,-5.436 -0.15244,-6.451 -1.1875,-7.85 l -1.18946,-1.608 1.47461,-2.91 c 0.81054,-1.599 1.47266,-3.359 1.47266,-3.912 0,-1.088 1.60871,-5.435 3.85937,-10.429 4.92233,-10.921 8.45791,-26.495 7.74805,-34.133 -0.43476,-4.677 0.18638,-5.187 2.89453,-2.36 l 1.61133,1.684 -1.44141,3.018 c -0.91384,1.912 -1.54412,4.403 -1.71875,6.798 -0.16216,2.221 -0.71604,4.531 -1.34375,5.598 -0.94105,1.601 -0.96793,1.897 -0.21484,2.488 1.03091,0.807 0.82963,3.693 -0.34961,5.006 -1.25893,1.403 -1.94301,4.383 -1.35937,5.918 0.39648,1.042 0.23011,1.706 -0.74024,2.94 -1.30165,1.654 -5.51719,9.791 -5.52344,10.662 0,0.274 0.3815,0.179 0.85157,-0.211 1.56152,-1.296 0.94344,0.698 -0.87696,2.828 -1.777,2.078 -2.16492,3.739 -0.97461,4.176 0.56976,0.209 0.56976,0.409 0,1.013 -0.97316,1.032 -0.89626,2.239 0.14258,2.239 0.47005,0 0.85352,0.393 0.85352,0.873 0,0.479 0.44963,1.016 0.99804,1.193 1.87813,0.607 4.70118,2.181 4.70118,2.621 0,0.241 0.64045,0.442 1.42382,0.442 0.88635,0 1.42383,0.321 1.42383,0.853 0,0.569 0.56945,0.854 1.70899,0.854 0.94009,0 1.71093,0.258 1.71093,0.572 0,0.836 2.84222,0.694 2.88477,-0.145 0.0198,-0.391 0.26732,-0.134 0.55078,0.571 0.28341,0.705 0.90849,1.281 1.38867,1.281 0.48012,0 0.87305,0.285 0.87305,0.635 0,0.381 0.68296,0.532 1.70898,0.382 0.9401,-0.137 1.70899,-0.08 1.70899,0.131 0,0.486 4.01782,1.701 5.62109,1.701 0.66871,0 1.2168,0.278 1.2168,0.616 0,0.382 0.62283,0.477 1.63672,0.254 1.13466,-0.249 1.73006,-0.12 1.9414,0.435 0.20495,0.534 1.38862,0.829 3.61133,0.902 1.81843,0.06 3.48177,0.395 3.69727,0.743 0.23284,0.377 1.10189,0.493 2.14062,0.285 1.30365,-0.261 1.88632,-0.107 2.28907,0.615 0.5069,0.905 0.66675,0.906 2.60156,-0.02 2.56501,-1.223 2.54862,-1.225 2.1875,0.156 -0.34157,1.306 0.29086,1.427 2.41406,0.459 1.11461,-0.507 1.75532,-0.518 2.52148,-0.03 0.7904,0.494 1.3052,0.446 2.24024,-0.209 1.07753,-0.755 1.25222,-0.755 1.54297,0 0.18027,0.47 0.65688,0.729 1.06054,0.574 0.40366,-0.156 0.88893,0.118 1.07618,0.605 0.4537,1.182 1.49501,1.099 3.22461,-0.254 1.95302,-1.528 2.4861,-1.417 1.37109,0.285 -1.06825,1.631 -0.63605,1.779 1.67969,0.571 1.44252,-0.753 1.59066,-0.752 1.30078,0 -0.17982,0.469 -0.0143,0.883 0.36719,0.92 0.97003,0.1 1.13366,0.07 2.25976,-0.371 0.69695,-0.271 0.99805,-0.108 0.99805,0.527 0,1.134 0.19978,1.135 2.34765,0.02 1.36232,-0.705 1.89656,-0.748 2.55469,-0.201 0.6532,0.541 1.34686,0.529 3.23438,-0.07 2.7895,-0.879 3.81642,-0.786 4.70312,0.426 0.52417,0.717 0.86991,0.751 1.91992,0.189 0.70469,-0.377 1.59185,-0.568 1.97071,-0.422 0.59101,0.226 2.63374,-0.06 11.1875,-1.554 5.6877,-0.996 10.34865,-2.06 12.53515,-2.858 1.41016,-0.514 6.53733,-2.233 11.39453,-3.82 4.85725,-1.586 10.32383,-3.522 12.14649,-4.301 1.82257,-0.778 5.41196,-2.148 7.97656,-3.043 2.56454,-0.896 6.40372,-2.284 8.5332,-3.086 2.1295,-0.801 4.83519,-1.455 6.01172,-1.455 1.17658,0 2.4122,-0.273 2.7461,-0.607 0.33392,-0.334 2.37191,-0.713 4.52929,-0.842 2.15736,-0.128 5.84502,-0.365 8.19532,-0.529 2.35023,-0.163 9.01716,-0.438 14.81445,-0.61 10.58066,-0.314 23.94909,-1.555 28.20312,-2.619 2.06408,-0.517 7.94274,-2.635 10.82618,-3.9 0.62676,-0.275 2.08612,-0.789 3.24218,-1.143 1.15614,-0.353 3.83551,-1.782 5.95508,-3.174 2.11957,-1.392 4.02356,-2.531 4.23047,-2.531 0.33841,0 3.11196,-1.936 10.78516,-7.531 1.40946,-1.027 4.87041,-4.27 7.6914,-7.203 2.82112,-2.934 6.51341,-6.395 8.20313,-7.692 6.39264,-4.906 10.70306,-7.841 13.73437,-9.347 2.83648,-1.409 2.98896,-1.574 1.59571,-1.735 -2.32568,-0.268 -11.56505,3.117 -16.61524,6.088 -2.46327,1.449 -5.66723,3.287 -7.12109,4.084 -4.19231,2.297 -5.36158,3.013 -7.48633,4.586 -1.97314,1.462 -9.22549,5.076 -10.18555,5.076 -0.27353,0 -1.887,0.614 -3.58398,1.365 -3.17954,1.407 -12.39854,3.431 -18.42188,4.045 -3.51327,0.358 -16.63018,-0.936 -20.22656,-1.996 -1.0968,-0.324 -3.53386,-0.836 -5.41406,-1.136 -1.88022,-0.302 -4.82724,-0.962 -6.55078,-1.469 -9.56391,-2.813 -24.1563,-2.439 -36.64844,0.939 -2.2499,0.608 -6.6534,1.635 -9.78711,2.28 -3.13369,0.646 -6.46809,1.397 -7.4082,1.671 -3.04085,0.884 -19.10953,1.819 -25.01953,1.457 -11.92002,-0.733 -17.22813,-1.877 -25.87696,-5.582 -5.26147,-2.254 -6.81741,-3.13 -16.61914,-9.353 -3.96717,-2.519 -8.08722,-5.568 -10.27343,-7.604 -10.93498,-10.185 -15.69862,-15.415 -19.81836,-21.754 -1.89749,-2.918 -4.29857,-6.223 -5.33789,-7.341 -2.39289,-2.572 -4.85174,-5.885 -8.60938,-11.598 -4.88343,-7.425 -20.84845,-24.67 -25.75781,-27.824 -1.25349,-0.805 -2.91971,-2.075 -3.70313,-2.82 -0.78343,-0.746 -2.57811,-2.149 -3.98828,-3.118 -1.41016,-0.968 -3.05336,-2.303 -3.65039,-2.966 -0.5969,-0.664 -1.36579,-1.211 -1.70898,-1.217 -0.34308,0 -2.54623,-1.446 -4.89649,-3.199 -2.35026,-1.753 -6.09477,-4.058 -8.32031,-5.122 -2.22562,-1.063 -4.50735,-2.444 -5.07227,-3.068 -0.56496,-0.624 -1.2414,-1.135 -1.50195,-1.135 -0.26058,0 -4.77222,-2.084 -10.02539,-4.629 -5.25318,-2.545 -11.79813,-5.619 -14.54492,-6.83 -2.74682,-1.211 -5.56732,-2.569 -6.26758,-3.019 -0.70001,-0.456 -2.93966,-1.377 -4.97656,-2.049 -2.03692,-0.675 -4.26438,-1.586 -4.95117,-2.029 -0.6868,-0.441 -2.22649,-1.168 -3.41993,-1.612 -9.97182,-3.708 -22.91588,-9.187 -26.95312,-11.406 -2.03689,-1.121 -5.13076,-2.786 -6.87305,-3.703 -1.74226,-0.918 -3.50271,-2.075 -3.91406,-2.57 -0.41134,-0.495 -1.0446,-0.901 -1.40625,-0.901 -0.36162,0 -2.42704,-1.411 -4.58984,-3.135 -2.16289,-1.723 -4.2937,-3.132 -4.73633,-3.132 -0.44269,0 -2.26774,-1.028 -4.05469,-2.28 -1.78696,-1.254 -3.41734,-2.279 -3.62305,-2.279 -0.20569,0 -1.51329,-0.769 -2.90625,-1.709 -1.39298,-0.94 -2.89934,-1.709 -3.34765,-1.709 -0.44834,0 -1.40625,-0.629 -2.12696,-1.396 -0.72069,-0.766 -2.08482,-1.564 -3.03125,-1.772 -1.71249,-0.377 -12.30827,-4.523 -16.65234,-6.517 -1.25347,-0.576 -3.43358,-1.436 -4.84375,-1.911 -2.83212,-0.953 -9.02069,-3.389 -11.67969,-4.599 -0.94013,-0.427 -3.24672,-1.211 -5.12695,-1.74 -1.88022,-0.53 -4.3173,-1.295 -5.41406,-1.702 -2.75098,-1.019 -11.5927,-3.958 -15.38282,-5.113 -1.72352,-0.525 -4.1606,-1.409 -5.41406,-1.965 -1.25349,-0.556 -3.81706,-1.341 -5.69726,-1.744 -1.88022,-0.405 -4.70075,-1.198 -6.26758,-1.762 -3.98821,-1.436 -8.80584,-2.826 -9.79102,-2.826 -0.45663,0 -1.93837,-0.648 -3.29297,-1.441 -1.35455,-0.795 -5.50358,-2.486 -9.21875,-3.756 -3.7151,-1.271 -7.17413,-2.687 -7.6875,-3.145 -1.01632,-0.91 -6.2729,-3.734 -14.71484,-7.906 -2.96601,-1.467 -7.03625,-3.858 -9.04492,-5.316 -3.48639,-2.531 -5.08697,-3.805 -11.1543,-8.885 -1.47576,-1.236 -5.67926,-5.576 -9.3418,-9.643 -3.66249,-4.068 -7.96303,-8.696 -9.55664,-10.287 -1.59356,-1.591 -4.24554,-4.624 -5.89257,-6.74 -1.64705,-2.114 -3.21467,-3.846 -3.48438,-3.846 -0.26973,0 -1.31104,-1.194 -2.31445,-2.652 -1.00342,-1.458 -2.29848,-3.123 -2.87696,-3.701 -0.57846,-0.579 -1.05273,-1.262 -1.05273,-1.516 0,-0.255 -0.44768,-0.959 -0.99609,-1.566 -0.54838,-0.609 -1.8954,-2.336 -2.99219,-3.842 -1.09679,-1.505 -3.79814,-4.966 -6.00391,-7.691 -2.20578,-2.725 -4.75574,-5.983 -5.66601,-7.235 -0.91028,-1.254 -2.11318,-2.791 -2.67383,-3.418 -2.10489,-2.353 -6.58851,-8.136 -9.82227,-12.666 -1.84065,-2.579 -4.08545,-5.398 -4.98828,-6.267 -0.90283,-0.869 -1.98245,-2.353 -2.39844,-3.299 -0.41597,-0.948 -2.47558,-3.748 -4.57617,-6.219 -2.10056,-2.472 -4.21054,-5.252 -4.68945,-6.178 -1.34013,-2.591 -6.6135,-9.298 -11.47852,-14.601 -9.60824,-10.472 -25.23988,-25.505 -27.39062,-26.342 -0.51306,-0.2 -1.51594,-1.159 -2.22852,-2.131 -0.71259,-0.974 -2.30209,-2.282 -3.53125,-2.908 -1.22919,-0.628 -2.44929,-1.525 -2.71093,-1.992 -0.61244,-1.095 -6.78621,-6.072 -9.95508,-8.026 -1.34706,-0.83 -3.08962,-2.132 -3.87305,-2.892 -0.78341,-0.761 -2.57813,-2.112 -3.98828,-3.002 -1.41016,-0.89 -4.99957,-3.21 -7.97656,-5.151 -2.977,-1.942 -6.1187,-3.672 -6.98047,-3.845 -0.86177,-0.171 -1.56641,-0.555 -1.56641,-0.85 0,-0.674 -6.67995,-3.745 -13.38867,-6.156 -2.82033,-1.013 -5.76931,-2.163 -6.55273,-2.555 -0.78343,-0.392 -2.68157,-0.875 -4.2168,-1.074 -1.53524,-0.201 -3.07298,-0.579 -3.41797,-0.84 -1.85738,-1.407 -22.43304,-3.823 -27.97656,-3.287 z m -8.51953,11.188 c 1.36335,0 2.25195,0.515 2.25195,1.418 0,0.901 -0.41682,1.161 -1.99414,1.25 -1.0968,0.06 -2.31337,-0.02 -2.70508,-0.192 -1.19472,-0.505 -0.79445,-1.87 0.6543,-2.234 0.65347,-0.165 1.25948,-0.243 1.79297,-0.242 z m -7.316409,0.689 c 0.302447,-0.01 0.752819,0.216 1.144531,0.605 1.231492,1.232 0.690283,1.773 -0.732422,0.733 -0.603365,-0.441 -0.898244,-1 -0.65625,-1.242 0.0605,-0.06 0.143325,-0.09 0.244141,-0.1 z m -2.244141,1.781 c 0.210508,0 0.561888,0.249 1.220703,0.781 0.783441,0.636 1.19642,1.4 0.962891,1.778 -0.570792,0.923 -2.023776,0.826 -2.402344,-0.16 -0.173347,-0.452 -0.227897,-1.251 -0.123047,-1.776 0.08073,-0.404 0.156054,-0.616 0.341797,-0.623 z m -3.884766,0.942 c 0.0097,0 0.0195,0 0.0293,0 0.313369,0 0.570313,0.256 0.570313,0.568 0,0.314 -0.256944,0.57 -0.570313,0.57 -0.31337,0 -0.570312,-0.256 -0.570312,-0.57 0,-0.302 0.241076,-0.553 0.541015,-0.568 z m -14.314453,0.642 c 0.249424,0 0.616314,0.05 1.097656,0.164 0.861768,0.204 2.197409,0.426 2.96875,0.494 0.897258,0.08 1.867388,0.842 2.695313,2.118 0.711731,1.096 1.574727,2.323 1.916016,2.726 1.360216,1.604 0.110143,1.771 -2.09961,0.279 -5.856353,-3.952 -7.92501,-5.752 -6.578125,-5.781 z m 11.158203,0.354 c 0.277007,0 0.436157,0.154 0.552735,0.459 0.45052,1.174 -0.917632,1.985 -2.00586,1.189 v 0 c -0.837502,-0.612 -0.797713,-0.745 0.394532,-1.308 0.478482,-0.226 0.814177,-0.34 1.058593,-0.338 z m -14.8125,10.619 c 0.14775,0 0.267893,0.02 0.355469,0.08 0.899328,0.556 0.661737,1.204 -1.660156,4.518 -1.215812,1.736 -2.495897,4.286 -2.84375,5.668 -1.131285,4.493 -5.873541,7.074 -7.69336,4.189 -1.403704,-2.226 -1.524819,-3.53 -0.498046,-5.389 1.580344,-2.86 10.123609,-9.017 12.339843,-9.062 z m 2.541016,2.344 c 0.108658,0 0.200183,0.03 0.267578,0.1 0.780028,0.781 0.331214,1.895 -0.763672,1.895 -0.626739,0 -1.140625,-0.225 -1.140625,-0.5 0,-0.63 1.049967,-1.498 1.636719,-1.494 z m -42.042969,6.388 c 0.388343,0 0.698907,0.07 0.894531,0.235 1.31779,1.093 0.420698,3.321 -2.550781,6.332 -2.723166,2.761 -4.83515,3.445 -6.251953,2.029 -0.928836,-0.928 -0.795426,-2.692 0.353516,-4.639 1.069862,-1.813 5.457641,-3.956 7.554687,-3.957 z m 87.396489,1.703 c 1.5649,0 3.00425,0.211 3.91406,0.635 1.91806,0.896 1.57886,1.465 -0.9375,1.569 -4.41184,0.184 -10.1126,0.974 -10.40235,1.443 -0.17395,0.282 -1.34645,0.512 -2.60546,0.512 h -2.28907 l 1.60938,-1.346 c 0.88581,-0.739 2.50868,-1.506 3.60547,-1.703 1.0968,-0.197 2.63455,-0.51 3.41797,-0.694 1.17773,-0.276 2.47034,-0.412 3.6875,-0.416 z m 8.73828,0.178 c 0.21653,0 0.77798,0.262 1.24804,0.57 0.75969,0.499 0.75969,0.624 0,1.122 -1.09126,0.717 -1.55555,0.719 -1.99414,0 -0.37026,-0.616 0.10613,-1.706 0.7461,-1.692 z m -85.451175,1.938 c 0.365972,0.01 0.685092,0.112 0.933594,0.318 1.935846,1.606 0.380615,5.689 -3.259766,8.553 -1.755802,1.38 -2.891688,1.452 -4.089844,0.254 -1.094233,-1.095 -1.106632,-1.496 -0.115234,-3.825 1.194681,-2.806 4.555003,-5.363 6.53125,-5.3 z m 63.406245,1.658 c 0.63856,0 0.68307,0.524 -0.35546,1.137 -2.14697,1.267 -5.97256,2.011 -5.97852,1.166 v 0 c 0.003,-0.2 0.55273,-0.839 1.22461,-1.422 0.89659,-0.778 1.42289,-0.898 1.95898,-0.453 0.5213,0.433 1.08553,0.418 1.95704,-0.05 0.48996,-0.262 0.90311,-0.374 1.19335,-0.375 z m -9.761714,1.564 c 0.449036,0.01 0.911724,0.123 1.421875,0.319 0.802859,0.308 0.713869,0.594 -0.628906,1.996 -0.861434,0.898 -2.078828,1.633 -2.705078,1.633 -0.626257,0 -1.7651,0.578 -2.529297,1.283 l -1.388672,1.281 0.416016,-1.35 c 0.582492,-1.892 -0.674439,-1.364 -1.886719,0.795 -0.523649,0.932 -1.01541,1.8 -1.09375,1.93 -0.07834,0.131 -0.308424,0.07 -0.509766,-0.127 -0.201336,-0.202 -0.0324,-0.768 0.375,-1.258 0.534289,-0.645 0.56871,-1.065 0.121094,-1.513 -0.447617,-0.448 -0.869128,-0.02 -1.513672,1.517 -0.491484,1.176 -0.894531,2.334 -0.894531,2.574 0,0.239 -0.646481,0.858 -1.435547,1.375 -1.243115,0.815 -1.476156,0.828 -1.755859,0.09 -0.569592,-1.496 0.04158,-2.89 1.355468,-3.078 0.830642,-0.119 1.566665,-0.858 2.082032,-2.092 1.036843,-2.481 3.273374,-3.999 4.738281,-3.215 0.835124,0.447 1.440857,0.273 2.744141,-0.792 1.18271,-0.967 2.100012,-1.397 3.08789,-1.368 z m 405.072264,388.561 c -2.19163,0.04 -6.93106,0.799 -9.77734,1.672 -3.77106,1.157 -11.85516,2.337 -15.23828,2.226 -2.53917,-0.08 -1.44095,-0.366 3.97265,-1.025 4.85444,-0.589 8.87952,-1.531 10.20703,-2.387 1.08772,-0.702 -1.69541,-0.483 -15.90429,1.252 -5.48398,0.668 -10.4846,1.222 -11.11133,1.227 -0.62676,0 -3.65632,-0.05 -6.73438,-0.119 -5.48874,-0.126 -7.31325,0.18 -5.16992,0.867 0.59327,0.19 1.59202,0.589 2.21875,0.883 0.97926,0.462 0.93892,0.492 -0.28515,0.222 -4.3584,-0.963 -6.66394,-0.984 -7.01368,-0.07 -0.24631,0.642 0.0277,0.995 0.91016,1.174 0.69401,0.141 2.03057,0.419 2.9707,0.619 0.94009,0.201 2.99174,0.585 4.5586,0.855 2.46023,0.421 2.30372,0.445 -1.14063,0.176 -7.15321,-0.554 -9.00024,-0.507 -9.2539,0.24 -0.13308,0.393 0.35655,0.954 1.08789,1.246 1.27331,0.511 1.27793,0.536 0.11718,0.571 -1.53261,0.05 -2.61987,1.319 -2.15625,2.527 0.36458,0.95 1.51711,1.112 6.66407,0.936 4.10473,-0.142 10.60508,0.648 9.2539,1.123 -1.16891,0.412 -5.06729,0.316 -12.12109,-0.299 -3.52642,-0.308 -4.18372,-0.222 -4.49219,0.582 -0.19869,0.518 -0.0859,1.216 0.25,1.553 0.43442,0.434 0.25047,0.904 -0.63672,1.632 -1.12966,0.927 -1.16349,1.109 -0.36133,1.926 0.48713,0.496 2.02491,1.133 3.41797,1.416 l 2.53321,0.514 -2.88868,-0.05 c -3.46309,-0.06 -4.59535,0.445 -3.62109,1.617 0.36696,0.443 1.12016,0.805 1.67383,0.805 1.27599,0 3.83794,2.04 3.27344,2.607 -0.23312,0.234 -0.89573,0 -1.47071,-0.521 -1.44837,-1.31 -4.21185,-1.276 -4.00195,0.05 0.0867,0.549 -0.31318,1.704 -0.88867,2.57 -1.42789,2.147 -1.78943,8.201 -0.67969,11.379 0.46677,1.338 1.76069,4.569 2.875,7.178 1.7265,4.045 2.02539,5.384 2.02539,9.068 v 4.322 l -4.55859,4.438 c -2.50697,2.442 -4.5586,4.693 -4.5586,5.006 0,0.311 0.9616,1.273 2.13672,2.138 2.77642,2.044 4.654,4.222 4.67969,5.43 0.0416,1.962 1.34316,1.741 3.25,-0.555 1.12684,-1.356 2.81126,-2.612 4.05078,-3.019 1.16715,-0.383 3.07718,-1.298 4.2461,-2.033 1.16889,-0.735 2.36949,-1.338 2.66796,-1.338 0.29849,0 0.70484,-0.577 0.90235,-1.282 0.99297,-3.545 1.9642,-4.404 3.70703,-3.277 0.70813,0.458 0.486,0.895 -1.29688,2.541 -2.14378,1.981 -2.14823,1.99 -1.02539,3.113 0.61986,0.621 1.96784,2.934 2.9961,5.141 1.66298,3.57 2.12214,4.101 4.1582,4.816 2.30026,0.808 5.92804,0.658 7.84375,-0.326 v 0 c 0.54841,-0.282 0.99805,-0.758 0.99805,-1.06 0,-0.303 0.76026,-0.551 1.68945,-0.551 1.06474,0 2.40984,-0.633 3.63672,-1.711 1.07072,-0.94 2.55287,-1.712 3.29492,-1.717 1.66853,0 2.41554,-0.49 3.25781,-2.09 0.98319,-1.868 0.80366,-4.428 -0.7539,-10.718 -1.74841,-7.062 -2.71512,-7.955 -6.76758,-6.26 -0.83379,0.349 -1.01098,0.219 -0.84961,-0.619 0.12051,-0.625 0.97378,-1.281 2.08398,-1.6 3.01356,-0.864 3.47155,-2.569 4.38672,-16.308 0.14487,-2.175 1.03214,-6.544 1.96485,-9.682 0.32537,-1.094 0.59179,-2.184 0.59179,-2.422 0,-0.726 -3.61754,-0.48 -6.79101,0.463 -1.65464,0.492 -3.13582,0.763 -3.29297,0.607 -0.65404,-0.655 0.58455,-1.5 2.19531,-1.5 2.4881,0 7.72294,-1.628 8.84375,-2.748 0.89586,-0.896 0.8902,-0.97 -0.0937,-1.16 -0.57802,-0.107 -1.97064,0.07 -3.09375,0.401 -2.92309,0.861 -6.88476,1.208 -6.88476,0.603 0,-0.284 0.46419,-0.516 1.03125,-0.516 0.56709,0 3.16258,-0.538 5.76757,-1.197 l 4.73633,-1.197 5.34571,-5.356 c 2.94018,-2.944 5.60034,-5.355 5.9121,-5.355 0.31177,0 0.56836,-0.289 0.56836,-0.645 0,-0.803 -3.18106,-0.344 -5.8125,0.84 -2.47883,1.116 -9.08502,2.453 -16.03125,3.244 -5.53027,0.63 -8.46791,0.426 -3.6914,-0.257 19.08302,-2.727 30.65796,-6.431 34.95703,-11.182 l 1.07422,-1.188 -3.11133,0.366 c -3.34727,0.393 -7.83212,1.497 -11.94336,2.943 -3.85525,1.356 -10.55667,2.346 -15.66797,2.313 -2.50695,-0.01 -3.66122,-0.13 -2.56445,-0.252 1.09681,-0.121 4.68616,-0.748 7.97656,-1.391 3.29035,-0.644 7.26519,-1.371 8.83203,-1.617 3.04689,-0.475 7.1211,-1.977 7.1211,-2.623 0,-0.165 -0.44719,-0.228 -1.17774,-0.213 z m -131.13086,3.465 c 0.22965,0 0.43257,0.05 0.53906,0.162 0.18932,0.188 -0.1474,0.322 -0.74804,0.297 -0.66373,-0.02 -0.79826,-0.162 -0.34375,-0.344 v 0 c 0.17994,-0.07 0.37412,-0.109 0.55273,-0.111 z m 132.98047,0.59 c 0.41377,0.01 -0.24376,0.352 -1.81055,0.994 -5.99448,2.452 -18.44199,4.969 -19.95507,4.033 -0.33068,-0.204 1.26674,-0.693 3.55078,-1.084 2.28406,-0.393 7.21679,-1.461 10.96093,-2.375 4.41804,-1.078 6.72192,-1.589 7.25391,-1.568 z m -54.84375,5.818 c 0.60831,0 1.65351,0.05 3.13672,0.164 5.73815,0.443 8.74721,1.244 4.59961,1.225 -1.56685,0 -3.98698,-0.237 -5.37891,-0.51 -2.91371,-0.571 -3.6957,-0.869 -2.35742,-0.879 z m 18.71484,0.267 c 0.67446,0 1.30326,0.02 1.8418,0.08 2.698,0.274 -1.63202,1.012 -5.98242,1.023 -3.31576,0 -3.65202,-0.07 -1.99414,-0.461 1.67363,-0.394 4.11141,-0.636 6.13476,-0.641 z m 25.51758,2.438 c 0.20428,-0.02 0.25955,0.06 0.11328,0.213 -0.69234,0.763 -5.99269,2.475 -8.87109,2.865 -1.46795,0.2 -3.1176,0.486 -3.66602,0.637 -0.54369,0.151 -0.98848,0.04 -0.99609,-0.262 0.003,-0.301 0.83525,-0.672 1.85156,-0.826 2.44224,-0.371 9.7124,-2.012 11.05078,-2.494 0.21775,-0.08 0.39502,-0.123 0.51758,-0.133 z m -21.39648,0.572 c 0.36144,0 0.7219,0.04 0.99609,0.11 0.54841,0.143 0.10069,0.259 -0.99609,0.259 -1.09679,0 -1.54644,-0.119 -0.99805,-0.259 0.27421,-0.07 0.63661,-0.11 0.99805,-0.11 z m -98.69336,2.85 c 0.22963,0 0.43255,0.05 0.53906,0.16 0.18932,0.19 -0.14741,0.326 -0.74805,0.301 -0.66371,-0.02 -0.79828,-0.163 -0.34375,-0.344 v 0 c 0.17994,-0.07 0.37414,-0.109 0.55274,-0.111 z m 118.91992,0.547 -1.71094,0.804 c -1.923,0.907 -4.09667,1.201 -2.5625,0.348 0.47005,-0.263 1.62239,-0.627 2.5625,-0.814 z m -5.9375,1.83 c 0.53949,0 0.15211,0.192 -0.90039,0.687 -1.98051,0.93 -5.37443,1.157 -4.51953,0.301 0.30368,-0.303 1.82979,-0.674 3.39062,-0.826 1.04848,-0.102 1.70561,-0.165 2.0293,-0.162 z"
       transform="translate(-2.3469906,-19691.244)" />
    <path
       id="path3238"
       style="fill:#00ffff;stroke-width:0.569763"
       d="M 68.425116 19724.51 C 67.963647 19724.51 67.499472 19724.958 67.393866 19725.506 C 67.259136 19726.206 67.56697 19726.504 68.425116 19726.504 C 69.283263 19726.504 69.591096 19726.206 69.456366 19725.506 C 69.350759 19724.958 68.886588 19724.51 68.425116 19724.51 z M 62.971991 19731.16 C 62.310923 19731.166 61.661589 19731.727 61.944647 19732.465 C 62.30065 19733.393 63.608997 19733.652 64.081366 19732.887 C 64.235866 19732.637 64.149071 19732.086 63.888006 19731.664 C 63.667589 19731.307 63.318264 19731.157 62.971991 19731.16 z "
       transform="translate(-2.3469906,-19691.244)" />
    <path
       style="display:inline;fill:#008080;stroke-width:0.569763"
       d="m 366.12686,20250.459 c 5.08854,-1.016 7.51919,-1.92 7.912,-2.944 0.41566,-1.083 -1.67678,-5.884 -2.7428,-6.294 -0.46392,-0.177 -1.34829,-1.179 -1.96529,-2.225 -0.617,-1.045 -1.79603,-2.342 -2.62008,-2.883 -1.48114,-0.97 -1.51719,-0.959 -3.15451,0.956 -0.91093,1.064 -1.66666,2.133 -1.67941,2.375 -0.0128,0.242 -0.6695,1.462 -1.45948,2.714 -1.46567,2.322 -2.40074,6.615 -1.78834,8.211 0.42219,1.1 2.31798,1.123 7.49791,0.1 z"
       id="path3218"
       transform="translate(-2.3469906,-19691.244)" />
    <path
       style="display:inline;fill:#008080;stroke-width:0.569763"
       d="m 394.03749,20250.332 c 4.71241,-1.149 6.10291,-2.125 5.45487,-3.83 -0.27767,-0.73 -1.23858,-2.075 -2.13533,-2.987 -0.89677,-0.913 -2.17308,-2.42 -2.83626,-3.347 -1.0576,-1.48 -1.37102,-1.611 -2.54994,-1.069 -1.76306,0.811 -6.98427,4.76 -9.71733,7.35 -2.18081,2.066 -2.86324,4.417 -1.45526,5.012 1.15226,0.488 9.54315,-0.228 13.23925,-1.129 z"
       id="path3216"
       transform="translate(-2.3469906,-19691.244)" />
    <path
       style="display:inline;fill:#008080;stroke-width:0.569763"
       d="m 437.02337,20209.643 c 5.40432,-1.296 6.30637,-1.829 6.30637,-3.725 0,-3.366 -6.81673,-10.095 -8.72459,-8.615 -2.72442,2.117 -6.1597,11.186 -4.83925,12.778 0.79947,0.963 1.61782,0.914 7.25747,-0.438 z"
       id="path3264"
       transform="translate(-2.3469906,-19691.244)" />
    <path
       style="display:inline;fill:#008080;stroke-width:0.569763"
       d="m 456.23141,20210.586 c 7.01642,-1.369 7.63931,-1.686 7.08356,-3.604 -0.93224,-3.215 -3.90345,-9.113 -4.75622,-9.44 -0.49345,-0.19 -1.3098,0.14 -1.86424,0.753 -0.54254,0.599 -1.81778,1.246 -2.83389,1.436 -2.37512,0.445 -5.38732,2.943 -7.62432,6.319 -3.85639,5.823 -1.67444,6.813 9.99511,4.536 z"
       id="path3262"
       transform="translate(-2.3469906,-19691.244)" />
    <path
       style="display:inline;fill:#008080;stroke-width:0.569763"
       d="m 323.31853,20219.866 c 2.15173,-0.302 4.39518,-0.807 4.98542,-1.123 1.37994,-0.738 1.37712,-2.864 -0.008,-6.513 -0.83247,-2.193 -1.65078,-3.205 -3.56056,-4.405 -1.36378,-0.858 -2.6991,-1.565 -2.96739,-1.571 -0.51484,0 -1.42555,1.047 -5.34705,6.21 -2.91039,3.832 -4.33866,6.674 -3.9121,7.786 0.33387,0.87 2.38039,0.797 10.81034,-0.384 z"
       id="path3260"
       transform="translate(-2.3469906,-19691.244)" />
    <path
       style="display:inline;fill:#008080;stroke-width:0.569763"
       d="m 346.92331,20222.984 c 0.71938,-0.466 1.74496,-0.72 2.27906,-0.565 0.53412,0.157 1.86849,-0.158 2.96529,-0.699 1.8747,-0.923 1.98306,-1.128 1.80878,-3.427 -0.21493,-2.833 -1.83347,-5.863 -3.83166,-7.173 -0.76766,-0.502 -1.39569,-1.317 -1.39569,-1.809 0,-0.655 -0.80233,-0.319 -2.99127,1.248 -8.20672,5.881 -13.32519,12.001 -11.21641,13.413 1.19694,0.8 10.80385,0.04 12.3819,-0.988 z"
       id="path3258"
       transform="translate(-2.3469906,-19691.244)" />
    <path
       style="display:inline;fill:#008080;stroke-width:0.569763"
       d="m 566.76504,20198.475 c 4.52574,-1.412 4.87174,-1.635 5.92349,-3.811 1.13765,-2.355 1.51912,-6.086 0.62219,-6.086 -0.27218,0 -1.64858,-1.154 -3.05874,-2.565 -1.41017,-1.409 -2.82395,-2.564 -3.14175,-2.564 -0.93968,0 -5.18534,6.948 -6.11142,10.001 -1.26944,4.185 -1.11678,6.523 0.42589,6.523 0.29364,0 2.69678,-0.675 5.34034,-1.498 z"
       id="path3286"
       transform="translate(-2.3469906,-19691.244)" />
    <path
       style="display:inline;fill:#008080;stroke-width:0.569763"
       d="m 582.14468,20199.111 c 7.16921,-2.187 8.70716,-4.935 5.19269,-9.281 -1.90689,-2.357 -3.02207,-2.941 -5.65324,-2.954 -3.34125,-0.01 -10.15384,11.201 -8.06853,13.287 0.74701,0.747 3.90959,0.357 8.52908,-1.052 z"
       id="path3284"
       transform="translate(-2.3469906,-19691.244)" />
    <path
       style="display:inline;fill:#008080;stroke-width:0.569763"
       d="m 594.9613,20201.453 c 6.39598,-2.413 6.76261,-2.651 6.76261,-4.402 0,-4.778 -5.16415,-10.002 -7.75911,-7.848 -3.01837,2.505 -7.07218,10.696 -6.29536,12.721 0.4944,1.289 3.06747,1.122 7.29186,-0.471 z"
       id="path3282"
       transform="translate(-2.3469906,-19691.244)" />
  </g>
</svg>
