<?xml version="1.0" encoding="UTF-8" standalone="no"?>
<!-- Created with Inkscape (http://www.inkscape.org/) -->

<svg
   version="1.1"
   id="svg4247"
   width="828.89044"
   height="1043.8009"
   viewBox="0 0 828.89044 1043.8009"
   sodipodi:docname="djj2.svg"
   inkscape:version="1.2.2 (732a01da63, 2022-12-09, custom)"
   xmlns:inkscape="http://www.inkscape.org/namespaces/inkscape"
   xmlns:sodipodi="http://sodipodi.sourceforge.net/DTD/sodipodi-0.dtd"
   xmlns="http://www.w3.org/2000/svg"
   xmlns:svg="http://www.w3.org/2000/svg">
  <defs
     id="defs4251" />
  <sodipodi:namedview
     id="namedview4249"
     pagecolor="#ffffff"
     bordercolor="#000000"
     borderopacity="0.25"
     inkscape:showpageshadow="2"
     inkscape:pageopacity="0.0"
     inkscape:pagecheckerboard="0"
     inkscape:deskcolor="#d1d1d1"
     showgrid="false"
     inkscape:zoom="0.74639429"
     inkscape:cx="391.21414"
     inkscape:cy="495.71655"
     inkscape:window-width="1920"
     inkscape:window-height="1031"
     inkscape:window-x="0"
     inkscape:window-y="25"
     inkscape:window-maximized="1"
     inkscape:current-layer="layer1" />
  <g
     inkscape:groupmode="layer"
     id="layer1"
     inkscape:label="Layer 1"
     transform="translate(-64.676312,-58.491467)">
    <path
       style="display:inline;fill:#000000;stroke-width:1.33333"
       d="m 324.35099,1098.6365 c -7.12568,-4.0858 -15.85327,-13.8203 -20.42471,-22.781 -6.27944,-12.3088 -12.68281,-41.5943 -14.12605,-64.6048 -0.79784,-12.72061 -0.64963,-13.84344 2.85973,-21.66332 4.63824,-10.33536 12.4106,-17.65321 22.78163,-21.44938 4.34046,-1.58878 9.92405,-3.91978 12.40798,-5.18002 11.95599,-6.06596 43.3052,-41.20509 62.11531,-69.62467 43.12625,-65.15804 66.70399,-157.74597 72.83055,-285.99999 1.5665,-32.7934 0.77289,-100.66366 -1.24074,-106.10699 -1.03794,-2.80584 -1.19049,-2.74432 -3.95305,1.59427 -1.5804,2.482 -4.53729,6.84192 -6.57088,9.68872 -4.73491,6.62837 -10.40025,15.1013 -13.36921,19.99461 -1.28052,2.11049 -4.21834,6.65897 -6.52847,10.10772 -2.31015,3.44875 -6.04672,9.92827 -8.30349,14.39893 -2.25679,4.47066 -4.68476,8.48787 -5.3955,8.92712 -0.71073,0.43927 -5.02813,7.83298 -9.59422,16.43047 -4.56608,8.59749 -9.6261,17.43181 -11.24447,19.63181 -1.61837,2.2 -10.30455,17.8 -19.30261,34.66667 -8.99807,16.86666 -17.70286,32.46666 -19.34398,34.66666 -1.64112,2.2 -4.61718,7.26074 -6.61348,11.24607 -3.29917,6.58633 -7.07261,12.65643 -15.64486,25.16691 -1.6631,2.42714 -3.6238,5.1416 -4.35714,6.03213 -17.36229,21.08409 -20.0433,23.83824 -32.0563,32.93084 -18.62447,14.09681 -36.6339,20.3113 -58.55135,20.20424 -30.29184,-0.14798 -54.41413,-10.4567 -75.44404,-32.24122 -20.53879,-21.27574 -38.3256,-57.88697 -49.23347,-101.33897 -3.95276,-15.74598 -8.29411,-24.42359 -23.137994,-46.24891 -14.934561,-21.95864 -19.614937,-30.70355 -24.615409,-45.99191 -3.356234,-10.26131 -3.627362,-12.74104 -3.618243,-33.09251 0.01013,-22.55382 1.484633,-32.66437 7.389245,-50.66666 11.074907,-33.76575 41.266821,-58.54697 78.732791,-64.62309 39.94279,-6.4778 87.18829,2.76682 145.86811,28.54232 34.23754,15.03905 55.44873,22.74405 78.66666,28.57578 24.17383,6.07184 37.68076,7.04846 55,3.97676 4.33794,-0.76936 6.09927,-3.13844 2.33334,-3.13844 -1.1,0 -2,-0.52612 -2,-1.16914 0,-1.33622 -8.29342,-5.05747 -24.27598,-10.89263 -6.08154,-2.22035 -12.85736,-4.85148 -15.05736,-5.84697 -2.2,-0.9955 -6.1,-2.24554 -8.66666,-2.77787 -2.56667,-0.53233 -6.16667,-1.71211 -8,-2.62169 -1.83334,-0.9096 -7.83334,-2.71931 -13.33334,-4.02158 -5.5,-1.30226 -10.65066,-2.87681 -11.44593,-3.499 -0.79525,-0.62218 -8.50911,-2.96517 -17.14189,-5.20662 -8.63278,-2.24147 -18.18211,-4.98594 -21.22074,-6.09883 -3.03862,-1.11289 -20.24942,-5.84264 -38.24622,-10.51056 -17.9968,-4.66792 -35.0968,-9.41448 -38,-10.54792 -2.9032,-1.13344 -10.07855,-3.34597 -15.94522,-4.91672 -5.86666,-1.57076 -11.26666,-3.31941 -12,-3.88589 -0.73333,-0.56649 -3.43333,-1.47593 -6,-2.02097 -2.56666,-0.54506 -5.85017,-1.81434 -7.29668,-2.82063 -1.44649,-1.00631 -3.38064,-1.82964 -4.29808,-1.82964 -1.70734,0 -14.14073,-5.92647 -26.87377,-12.80959 -8.64084,-4.67098 -24.41665,-17.88028 -31.03832,-25.9888 -7.32391,-8.96844 -15.05227,-24.55237 -18.44896,-37.20161 -2.6893,-10.01493 -2.95651,-13.34972 -2.29706,-28.66666 0.86513,-20.0941 1.85524,-24.42678 9.29325,-40.66667 3.19977,-6.98627 12.73371,-20.93288 18.68514,-27.33333 3.40943,-3.66667 6.21596,-7.0649 6.23672,-7.55162 0.0208,-0.48672 4.98776,-4.97544 11.03776,-9.97493 6.05,-4.99949 11.3,-9.40127 11.66667,-9.78172 0.36667,-0.38045 2.46667,-1.93688 4.66667,-3.45872 17.39381,-12.03214 25.71257,-17.26697 35.54524,-22.36793 18.61313,-9.65604 22.50577,-12.57995 36.45476,-27.38251 C 252,111.03382 263.1,99.554885 269.33333,93.307156 c 23.92979,-23.985046 53.6302,-35.063867 93.11311,-34.732958 16.37268,0.137222 15.8684,0.08212 26.88689,2.937553 15.72182,4.074288 30.93855,12.200745 41.49778,22.161785 21.67049,20.442844 32.5415,45.750774 37.9406,88.326454 1.05172,8.29363 1.00524,42.80983 -0.0719,53.33334 -1.59956,15.62854 -2.8942,25.32025 -4.71987,35.33333 -7.46074,40.91916 -9.76964,62.42398 -9.8777,92 -0.0715,19.5637 0.44814,30.2095 1.72465,35.33333 2.35288,9.44438 9.65604,25.30097 10.43972,22.66666 0.32724,-1.1 1.12472,-3.2 1.77219,-4.66666 2.33745,-5.29491 7.10732,-28.24775 9.42078,-45.33333 4.50878,-33.29852 5.47847,-41.46839 6.64668,-56 0.70746,-8.8 1.84678,-18.7 2.53183,-22 0.68507,-3.3 2.17787,-18.6 3.31733,-34 1.812,-24.48899 3.55536,-41.50348 6.8309,-66.66667 5.99188,-46.03061 17.62374,-75.13965 38.04456,-95.207474 18.98968,-18.661442 44.24833,-28.47646 72.82578,-28.298676 6.04454,0.0376 12.04454,0.609613 13.33334,1.27113 1.2888,0.661518 4.78656,1.575048 7.77281,2.030067 12.88919,1.963944 36.86261,14.298779 53.23712,27.391632 12.72267,10.172892 36.25732,34.144971 45.24227,46.083151 13.36822,17.76222 18.0013,21.62499 49.4244,41.20705 19.9023,12.4026 29.08126,20.35244 39.38506,34.11116 21.79714,29.10582 32.33019,79.44552 22.61432,108.07863 -3.18285,9.38002 -10.76317,25.02282 -14.40298,29.7221 -5.2987,6.84104 -20.84703,21.23618 -27.61066,25.56282 -25.9615,16.60737 -60.4592,27.22511 -99.98574,30.77373 -5.5323,0.49668 -32.4412,1.45886 -72.66667,2.59834 -20.68983,0.58608 -32.22248,1.46659 -53.33333,4.07194 -12.46819,1.53873 -33.88543,7.63397 -43.98454,12.51778 -12.91798,6.247 -17.3488,9.63828 -17.3488,13.27851 0,3.42357 0.0988,3.42852 5.59046,0.28003 3.68426,-2.11227 8.33864,-2.6701 28.29761,-3.39148 13.13844,-0.47487 24.36507,-1.1582 24.94805,-1.5185 0.58298,-0.3603 4.53335,-0.86944 8.77859,-1.13142 4.24524,-0.26198 12.81863,-1.1606 19.05196,-1.99694 6.23333,-0.83634 20.33333,-2.71898 31.33333,-4.18364 11,-1.46466 37.1,-5.31618 58,-8.55896 58.13439,-9.0199 68.98311,-10.16622 96,-10.14378 41.5241,0.0345 71.32172,12.70904 91.1855,38.78613 8.89282,11.67445 16.8033,28.70339 20.1177,43.30744 1.69344,7.46171 0.95203,33.17378 -1.23153,42.70921 -4.53333,19.79667 -15.50143,45.74812 -25.79563,61.03464 -2.07981,3.08845 -5.3584,8.31537 -7.28573,11.61537 -1.92735,3.3 -8.04149,11.7 -13.587,18.66667 -12.50976,15.71566 -16.18303,23.10146 -24.82487,49.9151 -3.76652,11.68664 -8.39418,24.58664 -10.2837,28.66667 -5.06951,10.94652 -16.59095,26.86944 -25.009,34.56306 -15.9551,14.58206 -42.03292,29.15667 -61.37872,34.3039 -12.30032,3.27268 -36.59772,3.37544 -48.25332,0.20408 -49.165,-13.37731 -86.93676,-65.93304 -108.99268,-151.65281 -6.45124,-25.07257 -8.99546,-34.17191 -14.16667,-50.66667 -11.67792,-37.24942 -23.38788,-60.8099 -37.60763,-75.66666 -4.38682,-4.58333 -8.48093,-8.33333 -9.09802,-8.33333 -1.70692,0 -1.35575,12.22216 1.16138,40.42042 3.32354,37.23196 3.31582,153.43824 -0.012,184.9129 -6.64073,62.80303 -17.27885,101.77997 -45.85285,168 -22.97395,53.24197 -40.96639,81.46406 -82.61197,129.58119 -6.78239,7.8364 -13.85752,16.6651 -15.72251,19.6195 -5.07704,8.0425 -12.28783,26.07 -20.83485,52.0884 -4.20775,12.8091 -8.16011,23.4531 -8.78302,23.6534 -0.62289,0.2004 -4.2746,-1.4373 -8.11489,-3.6393 z"
       id="path4674" />
    <path
       style="display:inline;fill:#008000;stroke-width:1.33333"
       d="m 330.70752,1066 c 6.22585,-18.9844 15.30803,-40.2254 20.52368,-48 2.4598,-3.6667 11.20995,-14.4667 19.44476,-24.00003 31.37597,-36.32355 52.95648,-68.59337 68.10716,-101.84218 26.27787,-57.6679 40.24681,-98.90115 47.75201,-140.95343 10.6045,-59.41793 12.39,-149.94428 4.70483,-238.53771 -2.77653,-32.00736 -2.77888,-31.6141 0.19921,-33.26553 1.38971,-0.77063 4.74879,-3.54492 7.46463,-6.16511 5.46208,-5.26972 6.02211,-5.19704 13.44596,1.74499 2.55992,2.39377 5.47847,4.97041 6.48565,5.72587 1.00719,0.75545 4.23126,3.15545 7.16459,5.33333 2.93333,2.17788 6.08275,4.85979 6.99871,5.95979 3.9884,4.78981 15.1956,25.7037 20.04068,37.39815 8.83034,21.31359 22.22932,64.80878 27.06745,87.86521 1.31755,6.27884 1.51132,6.92367 8.03427,26.73663 20.84922,63.32787 52.55492,102.56914 91.18536,112.85764 3.67044,0.97756 12.69017,1.78449 20.04385,1.7932 10.79615,0.0133 15.41684,-0.64968 24,-3.4408 14.10189,-4.58575 29.65584,-12.77527 42.19036,-22.21423 20.10305,-15.13834 29.32275,-28.97245 38.4342,-57.67033 11.27413,-35.50953 12.49532,-37.93385 34.00156,-67.49986 22.21541,-30.54098 34.50372,-55.18028 39.47879,-79.15895 2.99398,-14.43033 3.1267,-21.90017 0.63962,-36 -2.39389,-13.5716 -6.12998,-22.99185 -13.53806,-34.1352 -17.97391,-27.03661 -46.48234,-39.0495 -89.91012,-37.88636 -21.11655,0.56558 -28.20234,1.28991 -59.33334,6.06527 -35.38214,5.42747 -85.92404,12.58727 -132,18.6992 -13.21232,1.7526 -53.72036,3.84503 -68.26214,3.52605 l -12.26216,-0.26896 -3.32807,-6.2601 -3.32807,-6.26011 3.59023,-6.55107 c 4.21125,-7.68428 8.43573,-11.4286 20.25688,-17.95446 14.99723,-8.27923 46.15436,-15.08395 80.66667,-17.61762 8.13309,-0.59708 68.02073,-2.25632 80.66666,-2.23493 1.65384,0.003 15.92878,-1.38649 32.06011,-3.1202 14.01961,-1.50674 44.64609,-10.38892 58.60656,-16.99684 11.78341,-5.57746 17.72944,-9.52122 28.45049,-18.8701 10.72404,-9.35148 18.63154,-20.67628 22.88058,-32.76868 3.41756,-9.72606 6.65664,-25.89507 5.5471,-27.69032 -0.39781,-0.64367 -0.8395,-4.434 -0.98153,-8.42294 -0.45769,-12.85398 -7.0234,-37.06154 -13.51531,-49.83049 -8.75637,-17.22293 -19.52676,-28.81648 -37.71466,-40.59708 -6.6,-4.27493 -17.25859,-11.16872 -23.68575,-15.31953 -15.13023,-9.77147 -20.03259,-14.30044 -35.51385,-32.80894 -17.6439,-21.09405 -30.90722,-34.74418 -43.06303,-44.31896 C 664.15716,92.973108 645.88375,81.384654 643.33333,81.340162 642.6,81.327362 640.32173,80.441514 638.27051,79.371594 626.45427,73.208223 599.2756,71.09211 584,75.146126 c -16.51356,4.382561 -32.80068,13.513559 -41.72581,23.392623 -15.2598,16.890771 -25.22316,42.170651 -30.26646,76.794581 -0.6409,4.4 -1.51416,9.2 -1.94057,10.66666 -0.42643,1.46667 -1.67325,14.36667 -2.77075,28.66667 -1.09749,14.3 -2.54728,29.6 -3.22176,34 -0.67446,4.4 -1.89712,17.25572 -2.717,28.56828 -0.81986,11.31254 -1.77169,21.02296 -2.11514,21.57869 -0.34347,0.55572 -1.55556,9.6 -2.69355,20.09839 -3.97805,36.6992 -5.07865,45.29002 -7.22827,56.4213 -4.01453,20.78827 -5.92228,29.15371 -9.01769,39.54236 l -3.43917,11.54237 -7.3104,0.91338 c -5.46846,0.68324 -7.5796,0.46258 -8.37874,-0.8757 -2.22298,-3.72276 -5.97232,-9.02164 -9.62098,-13.5972 -14.40384,-18.06293 -16.29082,-70.22289 -4.8546,-134.19187 7.62782,-42.66659 8.66684,-53.03731 8.54933,-85.33333 C 455.18111,174.84515 454.56356,167.0929 452.27419,156 446.9956,130.42311 436.7942,109.07777 423.72367,96.261029 c -9.9644,-9.77093 -12.54863,-11.432146 -29.23915,-18.795785 -14.92491,-6.584673 -44.62864,-6.970843 -67.99309,-0.883961 -28.03378,7.303332 -36.19506,13.204785 -69.30068,50.111567 -11.53283,12.857 -21.20598,20.03112 -45.70118,33.8944 -21.57026,12.20788 -41.23122,26.50273 -54.2078,39.41274 -16.336,16.25222 -24.49078,29.76086 -29.83276,49.41882 -9.37477,34.49829 2.59315,68.54927 31.56892,89.81951 4.57347,3.35726 8.9154,6.57594 9.64874,7.15264 2.10544,1.65574 26.30592,13.16952 30,14.273 1.83333,0.54766 3.93333,1.45302 4.66666,2.01192 0.73334,0.5589 3.43334,1.4534 6,1.98779 2.56667,0.53439 7.18375,2.10367 10.26019,3.48729 3.07643,1.38364 6.37643,2.52807 7.33333,2.54319 0.9569,0.0151 12.53982,3.05204 25.73982,6.74872 13.2,3.69667 35.02006,9.70552 48.48902,13.353 13.46898,3.64748 26.64162,7.53118 29.27255,8.63045 2.63093,1.09928 10.81087,3.50531 18.17764,5.34673 7.36676,1.84144 15.19412,4.14944 17.39412,5.12891 2.2,0.97945 7.3,2.51973 11.33333,3.42283 4.03334,0.90309 8.53334,2.35854 10,3.23433 1.46667,0.87577 5.36667,2.37021 8.66667,3.32096 3.3,0.95076 6.6,2.19739 7.33333,2.77031 0.73334,0.57292 3.41364,1.48725 5.95624,2.03184 2.54259,0.5446 5.54259,1.48481 6.66667,2.08937 1.12407,0.60456 4.44376,2.09317 7.37709,3.30801 8.27626,3.42762 14.47584,6.20151 16.66667,7.45718 1.1,0.63046 3.98639,2.17108 6.41419,3.42358 3.5063,1.80891 4.2293,2.83559 3.5153,4.99179 -0.49438,1.49297 -1.19378,4.96452 -1.55424,7.71455 -1.8112,13.8185 -29.44546,19.57628 -62.86397,13.09812 -14.1248,-2.7381 -35.42965,-8.89442 -48.84461,-14.11431 -4.4,-1.71209 -13.7,-5.28495 -20.66667,-7.93968 -6.96667,-2.65473 -15.66667,-6.23868 -19.33333,-7.96431 -7.13104,-3.35605 -8.55183,-3.9573 -26,-11.00257 -71.53884,-28.88615 -132.61846,-27.647 -164.41879,3.33563 -16.089017,15.6753 -24.122024,34.41366 -27.674689,64.55594 -2.030239,17.22539 0.09269,36.31508 5.638373,50.70089 2.209335,5.73114 8.501339,17.01815 14.122209,25.33334 5.575657,8.24829 12.468517,18.47346 15.317477,22.7226 5.83127,8.69717 12.20917,22.22199 13.70156,29.05521 4.28995,19.64252 17.72639,57.14994 25.75194,71.88574 19.92325,36.58139 47.06362,56.72799 80.13641,59.48615 32.79191,2.73474 60.10435,-12.32119 86.14299,-47.48615 12.18101,-16.45034 15.45733,-21.73128 29.36588,-47.33333 6.37424,-11.73333 13.85504,-24.93333 16.62398,-29.33333 2.76895,-4.4 9.37315,-16.1 14.676,-26 5.30286,-9.9 11.2568,-20.4 13.231,-23.33333 1.9742,-2.93334 6.38599,-10.51175 9.804,-16.84092 3.418,-6.32918 8.17215,-14.53147 10.56476,-18.22734 2.39263,-3.69586 6.75023,-10.69893 9.68356,-15.56238 2.93334,-4.86346 6.59419,-10.46115 8.13524,-12.43934 1.54106,-1.97818 3.58606,-5.09669 4.54444,-6.93002 0.95839,-1.83334 4.94754,-7.67754 8.86476,-12.98711 C 448.795,491.03663 452,486.41755 452,486.08157 c 0,-0.33597 1.47639,-2.2039 3.28084,-4.15094 l 3.28085,-3.5401 3.44843,2.71254 c 1.89664,1.4919 5.15925,3.0883 7.25024,3.54756 4.70551,1.0335 5.02159,2.13156 6.91305,24.01602 1.98924,23.01553 0.66994,112.65188 -2.09,142 -12.40821,131.94414 -39.0872,210.80736 -94.94796,280.66666 -22.55893,28.21211 -39.63584,43.11831 -55.7308,48.64663 -10.68133,3.66884 -13.51249,5.72851 -17.00744,12.37286 -2.39354,4.55046 -2.92628,7.58921 -2.74318,15.6472 0.48148,21.1888 7.40432,52.7612 14.03324,64 3.88749,6.5909 6.63062,9.565 7.71534,8.3648 0.51275,-0.5673 2.89996,-7.0315 5.30491,-14.3648 z"
       id="path4701" />
    <path
       style="fill:#000000;stroke-width:1.33333"
       d="m 486.51643,430.22503 c -3.36442,-1.50507 -3.42854,-1.74447 -1.87434,-6.99816 0.8851,-2.99188 2.81284,-7.19188 4.2839,-9.33334 1.47104,-2.14145 6.1829,-9.59354 10.47081,-16.56021 8.66759,-14.08246 14.73476,-22.60564 26.42867,-37.12701 9.20186,-11.4268 11.43832,-18.94712 12.0731,-40.5972 0.37695,-12.85616 -3.17825,-35.70863 -7.05713,-45.36258 -3.77468,-9.39464 -0.12453,-8.29707 4.43544,1.33369 7.35787,15.54005 11.38979,32.47522 11.38979,47.84028 0,5.45205 0.48545,9.91282 1.07877,9.91282 1.75059,0 19.79892,-20.46393 20.78307,-23.56468 1.05645,-3.3286 1.17258,-33.79901 0.16934,-44.43531 -0.87537,-9.2808 -6.90924,-40.28838 -9.21074,-47.33334 -0.9583,-2.93333 -2.79471,-8.93333 -4.08095,-13.33333 -1.28623,-4.4 -2.8788,-9.04185 -3.53904,-10.31524 -0.66025,-1.27339 -1.20045,-2.9588 -1.20045,-3.74536 0,-2.80144 2.37948,0.114 5.7416,7.03477 5.4962,11.31374 8.7696,20.12263 16.23622,43.6925 3.21871,10.16048 4.75948,21.23228 5.61286,40.33333 0.45048,10.08333 1.34201,18.33333 1.98116,18.33333 1.39805,0 18.55906,-15.66521 20.37468,-18.59876 1.85528,-2.99764 1.67268,-49.31757 -0.24964,-63.32918 -2.03134,-14.80611 -9.80119,-42.91891 -16.97132,-61.40539 -1.70658,-4.4 -3.52132,-9.5 -4.03276,-11.33333 -2.54995,-9.14045 12.75829,18.36717 19.29229,34.66666 11.60571,28.95116 15.01581,45.03026 14.66095,69.12808 -0.31443,21.35103 -0.38971,20.64802 2.10872,19.68928 4.35832,-1.67244 25.83601,-18.9362 26.72809,-21.48402 1.52064,-4.34308 1.10495,-28.54806 -0.67553,-39.33334 -2.67584,-16.20901 -8.14714,-38.2567 -11.12359,-44.82474 -0.70405,-1.55361 -1.03504,-3.95361 -0.73553,-5.33333 0.64882,-2.98887 12.94932,20.54962 16.9444,32.42515 4.54446,13.5086 7.06144,29.24138 6.26162,39.13922 -0.40681,5.03425 -0.21996,9.47438 0.41522,9.86694 0.63518,0.39258 4.6669,-1.85585 8.95938,-4.99646 4.29248,-3.14063 9.97374,-7.03672 12.62502,-8.65799 8.02342,-4.90635 15.84616,-25.90217 15.84616,-42.53033 0,-3.16532 0.56324,-5.75512 1.25164,-5.75512 2.39366,0 3.11978,12.3746 1.38172,23.54742 -0.95244,6.1226 -1.4157,11.44803 -1.02944,11.83428 0.38625,0.38626 5.43338,-1.77349 11.21585,-4.79942 9.7152,-5.08394 10.20949,-5.21368 6.50939,-1.70867 -2.2023,2.08619 -6.1023,5.4364 -8.66667,7.44493 l -4.66249,3.65188 11.50384,0.0148 c 7.22318,0.009 13.30092,0.76566 16.33333,2.03268 2.65621,1.10984 4.82949,2.1973 4.82949,2.41655 0,0.21925 -7.05,0.37488 -15.66666,0.34583 -21.13804,-0.0713 -27.37559,1.69221 -40.55859,11.46681 -5.88664,4.36468 -10.33013,8.30864 -9.87443,8.76436 0.45572,0.45571 3.7561,0.67319 7.33418,0.48328 10.08629,-0.53535 27.68402,2.36528 39.43217,6.49956 14.18504,4.99187 29.73029,12.25553 27.72973,12.95697 -0.88198,0.30924 -6.58198,-0.63533 -12.66666,-2.09905 -14.09994,-3.39184 -24.18783,-5.14683 -38.3964,-6.6798 -13.51422,-1.45807 -14.8144,-1.45592 -29.11991,0.0479 l -11.11991,1.16894 -12.54676,10.92296 c -12.70921,11.06439 -14.97953,14.03019 -9.54676,12.47131 7.6724,-2.20153 31.45368,-2.36673 45.12088,-0.31344 19.8528,2.98258 55.56364,15.14628 71.53736,24.36677 6.29656,3.63456 5.30727,4.61583 -1.99157,1.97541 -6.67779,-2.41573 -30.6098,-8.98709 -46.33333,-12.7224 -16.06363,-3.8161 -45.55732,-5.39572 -64.64856,-3.46241 -9.17188,0.9288 -18.1781,2.24947 -20.0138,2.93481 -4.14808,1.54871 -22.67098,19.69952 -22.67098,22.2156 0,1.31455 0.98339,1.59778 3.42228,0.98564 9.54551,-2.39576 48.33494,-0.32544 59.91106,3.19767 2.2,0.66956 9.19633,2.49443 15.5474,4.05528 15.72861,3.86547 37.13273,12.41456 35.40576,14.14152 -0.33471,0.33471 -2.0361,0.0433 -3.78086,-0.64755 -1.74477,-0.69085 -6.7723,-1.97805 -11.1723,-2.86044 -4.4,-0.88237 -9.8,-2.16314 -12,-2.84616 -2.2,-0.683 -12.4,-2.4825 -22.66667,-3.99889 -31.99588,-4.72579 -74.16029,-3.11072 -80.01431,3.06488 -6.04784,6.38007 -15.31902,17.7446 -15.31902,18.77792 0,0.71696 4.49117,0.90839 10.73341,0.45748 16.34849,-1.18093 32.21977,1.49737 48.93325,8.25757 8.41956,3.40551 11.50667,6.73719 4.66667,5.03638 -12.15597,-3.02266 -34.22567,-5.6227 -43.66667,-5.14439 -12.91878,0.65451 -27.92916,3.62199 -32.08076,6.34223 -4.50006,2.94856 -18.33776,21.91438 -35.29758,48.37857 -3.86858,6.03656 -8.00275,11.28309 -9.18703,11.65897 -1.18429,0.37588 -3.28605,2.78688 -4.67057,5.35779 -2.77598,5.15466 -2.64852,5.10592 -7.58096,2.8994 z"
       id="path4709" />
    <path
       style="fill:#000000;stroke-width:1.33333"
       d="M 448.66267,434.94409 C 441.29773,430.75497 400.72217,391.94763 392,380.75068 c -3.60005,-4.6215 -6.79989,-6.8792 -14,-9.87789 -15.78701,-6.57497 -21.97008,-7.53947 -48.33333,-7.53947 -13.38334,0 -24.33334,-0.37093 -24.33334,-0.82429 0,-1.68491 16.21235,-5.29112 30.20946,-6.71967 11.97454,-1.22212 16.28894,-1.12546 25.12388,0.56287 5.86666,1.12111 10.9165,1.80065 11.22186,1.51009 0.8323,-0.79194 -9.22212,-15.0485 -14.5552,-20.63841 -3.86058,-4.04649 -6.394,-5.28297 -14.66666,-7.15833 -20.56864,-4.66279 -38.42463,-6.31912 -58.66667,-5.44195 -19.1556,0.83008 -41.11021,2.74293 -48.50015,4.22568 -2.3789,0.47732 -3.52249,0.266 -3.01389,-0.55692 0.98211,-1.58909 16.94649,-5.91604 33.51404,-9.08356 15.09692,-2.88636 47.13359,-3.23015 65.04472,-0.698 7.1746,1.01429 13.39276,1.49612 13.81815,1.07073 0.42538,-0.42538 -2.41814,-5.85838 -6.31894,-12.07332 l -7.09237,-11.29989 -12.05911,-3.36401 c -17.45314,-4.86874 -25.64349,-6.09026 -46.65489,-6.95814 -19.34429,-0.79901 -44.96191,0.90006 -61.40423,4.07259 C 206.2,290.94926 199.3,292.10536 196,292.5279 l -6,0.76825 7.74817,-3.36807 c 11.29719,-4.9108 30.2999,-9.66556 50.51542,-12.63971 26.09537,-3.83922 35.47448,-3.41544 64.02592,2.89283 4.19256,0.92632 7.98961,1.31746 8.43789,0.86916 0.44828,-0.44828 -2.682,-7.61799 -6.95617,-15.9327 -8.86615,-17.24764 -8.17036,-16.77405 -30.3272,-20.64249 -12.76248,-2.22824 -40.27903,-1.78963 -59.9762,0.95601 -8.49455,1.18408 -11.61295,0.93615 -9.89044,-0.78635 1.02573,-1.02573 23.15298,-7.35848 33.08878,-9.46989 11.39742,-2.42201 26.44978,-2.33283 39.99682,0.237 6.02665,1.14324 11.28508,1.75109 11.68538,1.35079 0.40031,-0.40031 -2.29981,-7.18568 -6.00026,-15.07862 -6.15898,-13.13684 -7.33236,-14.75665 -13.87144,-19.14877 -7.69016,-5.16528 -21.59575,-11.08231 -29.55239,-12.57499 C 246.21593,189.45226 244,188.42118 244,187.66906 c 0,-2.42472 16.22764,-0.0837 25.18196,3.63276 4.68341,1.94383 9.02468,3.02487 9.64727,2.40228 0.62258,-0.62259 -0.0876,-4.34181 -1.57835,-8.26495 -4.03299,-10.61397 -2.49403,-12.84097 2.37661,-3.43916 4.54259,8.76858 4.74731,8.637 6.89036,-4.42865 0.76036,-4.63576 2.7195,-10.59199 4.35363,-13.23606 3.32057,-5.37282 4.71852,-3.98056 2.66395,2.65309 -2.66314,8.5985 -4.50099,24.25906 -3.67335,31.30098 0.79039,6.72499 9.68525,27.11612 12.61943,28.92954 0.67088,0.41464 1.61809,-2.09 2.1049,-5.56584 1.54427,-11.02607 8.96899,-31.2819 15.51212,-42.31955 13.67114,-23.06197 20.35387,-28.81544 11.29011,-9.72019 -2.59708,5.47147 -4.72197,10.60726 -4.72197,11.41286 0,0.8056 -1.42519,4.95426 -3.16707,9.21928 -6.57371,16.09568 -12.07093,43.4526 -10.84285,53.95937 0.41292,3.53271 3.86657,10.09525 12.43658,23.63173 5.3823,8.5014 6.85496,7.53851 6.88735,-4.50322 0.0561,-20.90031 9.12333,-47.0132 26.38939,-76 6.76141,-11.35126 20.36166,-30.37937 21.15004,-29.591 0.20046,0.20047 -4.10776,9.34045 -9.57384,20.31108 -5.4661,10.97062 -9.94012,20.44601 -9.94231,21.05644 -0.003,0.61041 -1.83249,5.27597 -4.06736,10.36792 -7.698,17.5392 -13.13757,42.84425 -14.19237,66.02333 l -0.79643,17.5011 8.41653,12.16556 c 6.92387,10.00804 10.57788,14.06927 10.64579,11.83223 0.12453,-4.10229 3.00215,-24.75103 4.13435,-29.66667 5.14032,-22.31737 17.19217,-50.84129 29.93661,-70.85293 5.23256,-8.21628 9.96997,-12.02125 5.97085,-4.79564 -0.70477,1.27339 -2.84708,5.91524 -4.76068,10.31524 -1.9136,4.4 -4.5728,10.4 -5.90933,13.33334 -2.99289,6.56856 -14.0346,41.56758 -15.98464,50.66666 -2.30249,10.74369 -3.97852,25.93111 -4.02277,36.45268 l -0.0412,9.78601 8.33333,10.54448 c 8.24121,10.42792 10.23683,12.12678 10.43535,8.8835 0.0561,-0.91667 0.2746,-2.56667 0.48553,-3.66667 0.21095,-1.1 0.81252,-5.48453 1.33685,-9.7434 1.75991,-14.29483 10.51255,-36.11 18.13556,-45.20124 4.33392,-5.16865 6.0625,-4.60328 3.07424,1.00552 -3.96008,7.43291 -9.95206,26.61269 -11.8526,37.93912 -2.30877,13.75924 -2.42388,21.62139 -0.45293,30.93437 1.42755,6.74539 2.52512,8.09296 24.21616,29.73229 12.49645,12.46667 24.83007,25.96667 27.40803,30 2.57796,4.03334 5.60804,8.0184 6.7335,8.85572 1.72032,1.27986 1.76282,1.86399 0.26672,3.66667 -2.21777,2.67225 -3.73604,2.62995 -8.79041,-0.24495 z"
       id="path4707" />
    <path
       style="fill:#000000;stroke-width:1.33333"
       d="m 685.77931,641.71127 c 10e-4,-29.09024 -0.29214,-33.16079 -3.55518,-49.24831 -3.66378,-18.06326 -11.31616,-42.25582 -15.4663,-48.8959 -2.7079,-4.33252 -25.45143,-18.74014 -27.0536,-17.13797 -0.58698,0.58697 0.12586,4.53484 1.58397,8.77304 8.37719,24.34871 11.25028,55.25128 8.0034,86.08314 -1.62199,15.40206 -3.844,18.89624 -4.22761,6.64804 -0.14815,-4.73 -0.22851,-10.4 -0.17858,-12.6 0.14522,-6.39907 -3.39372,-40.64163 -5.02965,-48.66666 -4.29987,-21.09285 -12.29792,-44.61755 -16.9474,-49.8474 -2.41307,-2.71428 -22.98901,-13.18307 -23.97427,-12.1978 -0.32725,0.32725 0.94352,6.17129 2.82394,12.98677 4.36061,15.80478 5.6464,31.4463 3.5881,43.64919 -0.87201,5.16988 -2.01464,9.66503 -2.53918,9.9892 -0.52454,0.32419 -1.68836,-7.32368 -2.58627,-16.99527 -0.89791,-9.67158 -2.79063,-21.68418 -4.20603,-26.69468 -3.31705,-11.74228 -10.1933,-26.63337 -13.91145,-30.12639 -3.69019,-3.46675 -21.96639,-11.4015 -43.43653,-18.85832 -9.16667,-3.18368 -17.37383,-6.41479 -18.23812,-7.18024 -0.8643,-0.76544 -4.9143,-3.74663 -9,-6.62486 C 507.34284,461.88863 504,458.77664 504,457.85133 c 0,-4.17892 14.43095,-1.70794 39.26377,6.72302 9.12832,3.09914 34.28218,13.46636 41.04798,16.91801 8.84721,4.51352 30.36638,3.17337 48.02456,-2.9908 7.9723,-2.783 27.98116,-12.07289 31.93308,-14.82619 3.7029,-2.5798 4.64957,0.27419 1.04402,3.14754 -16.57193,13.20654 -25.53292,18.07708 -42.5771,23.14178 -5.46171,1.62296 -10.11398,3.50164 -10.33839,4.17486 -0.2244,0.67321 4.54427,4.15813 10.59704,7.74425 8.96381,5.31085 12.07632,6.48722 16.78075,6.3423 6.83717,-0.21061 23.55184,-4.08289 37.66042,-8.72478 12.15696,-3.99977 42.44336,-18.25927 54.87286,-25.83532 12.67918,-7.72824 16.58548,-8.57115 9.55753,-2.06233 -18.84077,17.44905 -58.75025,37.82431 -85.51789,43.66007 -2.37494,0.51778 -4.64831,1.47578 -5.05195,2.12888 -0.40364,0.65311 4.23948,4.47974 10.31804,8.50359 l 11.05195,7.31612 10.66666,-1.33751 c 19.99464,-2.50714 49.21947,-11.69701 65.77495,-20.68318 3.90956,-2.12208 9.30956,-4.9915 12,-6.37648 2.69045,-1.385 11.64727,-6.935 19.90404,-12.33333 8.25677,-5.39835 15.72448,-9.81518 16.59489,-9.81518 4.3304,0 -20.11245,20.786 -38.72385,32.93044 -18.92681,12.35025 -41.96801,21.84383 -57.95329,23.87825 -7.31664,0.93118 -11.59674,2.55258 -11.59674,4.39312 0,0.6094 5.81514,5.72158 12.92251,11.3604 14.4764,11.48522 12.86729,11.16195 32.41083,6.51148 13.54294,-3.2226 40.92606,-15.46778 57.83118,-25.86093 3.57382,-2.19716 6.86131,-3.63139 7.30552,-3.18716 0.94226,0.94225 -9.02693,10.15813 -20.47004,18.92323 -10.07001,7.71334 -29.61034,16.98234 -40.18838,19.06345 -13.1311,2.58339 -13.14743,2.78235 -1.14495,13.95436 5.86667,5.46073 12.76667,10.70219 15.33333,11.64765 3.00246,1.106 11.20464,1.69923 23,1.6635 10.08334,-0.0305 18.33334,0.15005 18.33334,0.40136 0,1.6513 -11.34092,4.62633 -19.85608,5.20878 -5.57916,0.38162 -10.67902,1.20306 -11.33303,1.8254 -0.68075,0.64779 1.22487,4.01475 4.45749,7.87577 3.10563,3.70932 5.31738,6.74423 4.91499,6.74423 -0.40239,0 -2.94199,-1.5 -5.64356,-3.33333 -2.70156,-1.83334 -5.43964,-3.33334 -6.08461,-3.33334 -1.17264,0 -0.40338,4.60668 1.74004,10.42014 1.48988,4.04093 1.42389,13.73037 -0.11,16.15428 -0.88427,1.39734 -1.45056,0.50554 -2.11663,-3.33334 -1.70196,-9.80922 -4.90665,-19.89084 -9.0118,-28.35015 -3.2786,-6.75608 -5.94116,-9.88542 -13.32985,-15.66667 -12.48091,-9.76564 -13.04906,-9.67351 -9.64319,1.56384 3.27473,10.80472 3.93455,32.61666 1.44832,47.87857 -2.49167,15.29536 -3.19493,18 -4.68033,18 -0.87763,0 -1.83556,-19.58889 -1.63006,-33.33333 0.17675,-11.82024 -9.17341,-49.66507 -13.61522,-55.10775 -2.1097,-2.58506 -24.58347,-18.22558 -26.18824,-18.22558 -1.76452,0 -1.73255,0.18349 1.42954,8.20578 10.14226,25.73114 11.87026,64.85789 4.43592,100.44203 -1.0703,5.12297 -2.42457,9.79305 -3.00948,10.37796 -0.5849,0.5849 -1.06262,-13.20662 -1.06158,-30.64782 z"
       id="path4705" />
    <path
       style="fill:#000000;stroke-width:1.33333"
       d="M 255.03139,684.52415 C 254.46412,683.13586 254,669.39998 254,653.99998 c 0,-24.66353 0.37761,-29.66823 3.16897,-42 3.51547,-15.5308 8.94867,-30.32482 15.09694,-41.10737 6.28122,-11.01572 5.79418,-11.06787 -25.9016,-2.77352 -3.82819,1.00179 -5.75138,2.63532 -8.37667,7.11503 -9.0226,15.39589 -17.67457,46.58345 -20.09407,72.43253 -0.49764,5.31666 -1.34572,9.66666 -1.88462,9.66666 -1.53664,0 -2.67562,-11.10424 -2.67562,-26.08538 0,-16.09448 3.71328,-34.25097 9.51135,-46.50685 6.02608,-12.73786 6.10232,-12.67018 -10.47345,-9.29756 -5.70418,1.1606 -11.78658,2.38844 -13.51644,2.7285 -4.18871,0.82347 -16.75902,12.84964 -22.11874,21.1613 -2.36442,3.66666 -5.64517,8.76666 -7.29053,11.33333 l -2.99159,4.66666 0.81118,-5.80662 c 0.89345,-6.39565 2.49628,-9.68663 9.41458,-19.33032 2.55296,-3.55867 4.26296,-7.08317 3.8,-7.83225 -0.52612,-0.85128 -4.06418,-1.03182 -9.43589,-0.48147 -9.73977,0.99787 -10.28655,-0.62819 -1.07815,-3.20639 3.3189,-0.92922 6.03435,-2.07945 6.03435,-2.55604 0,-0.47658 -3.06227,-2.04861 -6.80503,-3.49338 -6.69068,-2.58272 -17.98886,-10.94407 -16.62753,-12.3054 0.38223,-0.38223 5.20548,1.50448 10.71836,4.19268 14.44464,7.0435 26.91965,9.61664 37.25676,7.68466 11.41521,-2.13346 18.12411,-4.13865 18.12411,-5.41704 0,-0.60109 -3.13892,-2.39737 -6.97538,-3.99172 -12.78476,-5.31312 -25.94973,-14.66925 -38.40958,-27.29709 -16.51696,-16.73963 -19.33434,-21.91759 -6.61504,-12.15757 23.11821,17.73952 43.23145,29.28457 61.42126,35.25597 9.17503,3.01201 14.18636,3.40409 18.84934,1.47476 1.6845,-0.69699 7.7234,-2.615 13.41976,-4.26227 5.69636,-1.64726 10.15408,-3.60384 9.90604,-4.34796 -0.24803,-0.7441 -3.7087,-2.34702 -7.69035,-3.56205 C 239.17984,540.75538 219.82715,528.85094 198,508.17316 c -10.77887,-10.21129 -24.66667,-25.45055 -24.66667,-27.06705 0,-2.22854 2.18538,-0.89918 10.82328,6.58372 8.80012,7.62344 14.39138,12.01465 30.19346,23.71305 16.71521,12.37442 53.69205,29.11034 71.78568,32.4906 5.21257,0.97381 7.56676,0.48728 18.90904,-3.90787 C 312.17016,537.22452 318,534.23598 318,533.34444 c 0,-0.89155 -4.66324,-3.32112 -10.36276,-5.39906 -18.00332,-6.56365 -28.15803,-12.14698 -48.97057,-26.92534 -9.65236,-6.85384 -30.16178,-25.58531 -32.21554,-29.42277 -1.20104,-2.24418 -1.04094,-2.31912 1.78128,-0.83386 1.70551,0.89758 5.05463,3.193 7.44248,5.10094 2.38787,1.90793 6.28787,5.0297 8.66667,6.93728 6.53845,5.24318 37.83177,24.23229 47.65844,28.91962 10.73873,5.12239 24.61063,10.10957 36.01949,12.94964 l 8.68616,2.16229 11.48455,-5.28077 c 6.31649,-2.90443 11.83183,-5.84269 12.25628,-6.52949 0.42447,-0.6868 -4.21593,-3.18886 -10.31199,-5.56012 -6.09605,-2.37127 -15.52016,-7.19316 -20.94245,-10.71532 -10.28443,-6.68047 -25.03595,-20.68136 -23.45543,-22.26189 0.50254,-0.50254 1.96739,0.009 3.25522,1.13716 4.53709,3.97392 26.43701,16.79873 34.34465,20.11257 10.95461,4.59074 23.12593,7.598 30.75148,7.598 5.43612,0 8.61247,-1.30235 21.67152,-8.88565 8.416,-4.88711 21.06301,-12.77791 28.10449,-17.53512 7.04148,-4.75722 13.7027,-8.64704 14.8027,-8.64407 1.1,0.003 3.1835,-0.80623 4.63001,-1.79821 3.82084,-2.62027 6.38084,-2.16258 9.147,1.63538 1.97575,2.71272 2.12772,3.73588 0.79369,5.3433 -4.00425,4.82482 -38.73417,27.35215 -56.78381,36.83243 -12.25927,6.43899 -15.85272,9.03507 -19.56736,14.13638 -6.30216,8.65474 -12.22923,19.56108 -15.35193,28.24889 -3.23138,8.99017 -8.20094,30.81859 -8.20094,36.02201 0,5.65672 -2.39532,6.11362 -3.41986,0.65234 -1.57019,-8.36986 2.1271,-36.60274 5.93773,-45.34102 4.49312,-10.30332 5.78847,-14.13812 5.0314,-14.89518 -1.06581,-1.0658 -18.62289,5.88508 -24.17416,9.57058 -5.05396,3.35536 -14.63957,22.2454 -20.46859,40.33672 -5.61082,17.41415 -10.58833,40.20728 -13.01409,59.59444 -1.09693,8.76693 -2.222,16.16745 -2.50013,16.44559 -0.27814,0.27813 -0.91612,-2.77928 -1.41776,-6.79426 -1.38983,-11.12384 0.6818,-38.3247 4.18309,-54.92455 2.16137,-10.24726 10.09072,-34.70098 13.20477,-40.72288 4.07531,-7.88076 2.12092,-8.31162 -13.08345,-2.88435 -11.54899,4.12247 -12.42913,5.03603 -20.81669,21.60723 -13.75074,27.1671 -20.95976,55.55163 -24.20378,95.29891 -0.77653,9.5144 -1.66324,17.55028 -1.97045,17.85751 -0.30723,0.30721 -1.02272,-0.57729 -1.58997,-1.96559 z"
       id="path4703" />
  </g>
</svg>
