<?xml version="1.0" encoding="UTF-8" standalone="no"?>
<!-- Created with Inkscape (http://www.inkscape.org/) -->

<svg
   version="1.1"
   id="svg2708"
   width="761.33331"
   height="757.1203"
   viewBox="0 0 761.33331 757.1203"
   sodipodi:docname="Dolphin6c.svg"
   inkscape:version="1.2.2 (732a01da63, 2022-12-09, custom)"
   xmlns:inkscape="http://www.inkscape.org/namespaces/inkscape"
   xmlns:sodipodi="http://sodipodi.sourceforge.net/DTD/sodipodi-0.dtd"
   xmlns="http://www.w3.org/2000/svg"
   xmlns:svg="http://www.w3.org/2000/svg">
  <defs
     id="defs2712" />
  <sodipodi:namedview
     id="namedview2710"
     pagecolor="#ffffff"
     bordercolor="#000000"
     borderopacity="0.25"
     inkscape:showpageshadow="2"
     inkscape:pageopacity="0.0"
     inkscape:pagecheckerboard="0"
     inkscape:deskcolor="#d1d1d1"
     showgrid="false"
     inkscape:zoom="0.89096128"
     inkscape:cx="371.50885"
     inkscape:cy="368.1417"
     inkscape:window-width="1920"
     inkscape:window-height="1031"
     inkscape:window-x="0"
     inkscape:window-y="25"
     inkscape:window-maximized="1"
     inkscape:current-layer="layer1" />
  <g
     inkscape:groupmode="layer"
     id="layer1"
     inkscape:label="Layer 1"
     transform="translate(-25.333333,-96.16777)">
    <path
       style="display:inline;fill:#161650;stroke-width:1.33333"
       d="m 477.66667,851.86689 c -0.91667,-0.95347 -1.6663,-4.16358 -1.66583,-7.13358 6.8e-4,-4.37804 1.1362,-6.84624 6,-13.04182 3.29953,-4.203 5.99916,-8.76347 5.99916,-10.13438 0,-6.98394 -7.62767,-20.97464 -12.43092,-22.80084 C 471.44885,797.18977 456,780.44938 456,777.55119 c 0,-1.29316 -0.56247,-2.92121 -1.24992,-3.61788 -3.51976,-3.56693 -9.67156,-22.88942 -10.51567,-33.02917 L 443.33333,730.07996 434,728.5555 c -9.5826,-1.56518 -17.69436,-4.03568 -19.93333,-6.07082 -0.69667,-0.63326 -2.24208,-1.15136 -3.43426,-1.15136 -1.19216,0 -3.62216,-1.5571 -5.4,-3.46022 -1.77782,-1.90312 -5.73104,-4.93002 -8.7849,-6.72645 -3.05387,-1.79643 -6.53166,-4.76063 -7.72842,-6.58712 -2.001,-3.05389 -5.19517,-4.8814 -18.05242,-10.32841 -10.8987,-4.61727 -14.38699,-5.80876 -21.33334,-7.28683 C 345.3,686.08606 337.5,684.433 332,683.2708 c -12.08271,-2.5532 -16,-5.647 -16,-12.63652 0,-10.96715 18.86264,-28.27002 46.23552,-42.41226 1.33713,-0.69082 7.23115,-2.3734 13.09781,-3.73904 13.32684,-3.10224 46.05518,-3.48554 55.33334,-0.64805 23.201,7.09543 27.62589,8.93352 36.50746,15.16505 2.87428,2.01667 6.03454,3.66667 7.02276,3.66667 0.98824,0 3.17812,-2.85 4.8664,-6.33333 5.16111,-10.64864 12.71608,-23.26034 18.96976,-31.66667 3.27328,-4.4 7.39215,-10.1 9.15306,-12.66666 1.7609,-2.56667 6.47422,-8.73763 10.47405,-13.71326 3.99984,-4.97561 8.10504,-10.67561 9.12268,-12.66666 1.01764,-1.99104 4.10781,-6.99287 6.86704,-11.11516 2.75924,-4.1223 5.01679,-8.3523 5.01679,-9.4 0,-1.04771 0.56297,-2.47492 1.25104,-3.17159 0.68808,-0.69667 2.84241,-6.66667 4.78742,-13.26667 3.07907,-10.44816 3.60358,-14.96922 4.05598,-34.9603 0.50825,-22.45954 0.43444,-23.22086 -3.38408,-34.90597 -2.14702,-6.57012 -4.48474,-13.03799 -5.19492,-14.37303 -1.77514,-3.33696 -4.52003,-10.02315 -8.74558,-21.30301 -5.00454,-13.35939 -9.63994,-19.77506 -25.20282,-34.88219 -27.06586,-26.27325 -34.13992,-32.56345 -35.87335,-31.89828 -0.969,0.37184 -2.73829,4.19659 -3.93176,8.49943 -5.22524,18.83878 -7.76193,29.74897 -7.76193,33.38374 0,2.14846 -0.75,4.65628 -1.66667,5.57295 -1.16107,1.16107 -1.66667,6.88444 -1.66667,18.86667 0,11.98222 0.5056,17.7056 1.66667,18.86666 0.9698,0.9698 1.66667,5.07456 1.66667,9.81722 0,7.35445 -0.39924,8.53304 -4.08755,12.06666 -3.34203,3.20185 -5.22673,3.91296 -10.33333,3.89879 -7.75946,-0.0216 -20.02719,-4.87884 -29.13914,-11.53737 -7.36506,-5.38202 -18.07744,-18.2882 -19.73668,-23.77863 -0.55405,-1.83333 -2.09302,-5.13333 -3.41994,-7.33333 -9.1204,-15.12136 -13.58716,-41.77776 -13.42352,-80.10786 0.0689,-16.14026 -0.38203,-23.4021 -1.54798,-24.92894 -2.18701,-2.86393 -11.00812,-5.98095 -25.6452,-9.06192 -16.66494,-3.50783 -73.01082,-4.78063 -116.66666,-2.63537 -32.04798,1.57484 -47.36943,3.26224 -66,7.26884 -5.13334,1.10393 -14.95494,3.2069 -21.82579,4.67325 -13.88283,2.9628 -70.556984,6.20557 -90.652977,5.18696 -12.7226,-0.64487 -19.445235,-3.26275 -25.939544,-10.10117 l -3.751642,-3.95043 3.084975,-0.69751 c 15.415627,-3.48544 36.648205,-10.51637 43.751641,-14.48788 4.960706,-2.77352 11.863619,-5.53752 18,-7.2074 3.666667,-0.99781 9.043537,-3.04488 11.948587,-4.54905 2.90506,-1.50417 5.98954,-2.73485 6.8544,-2.73485 2.15805,0 10.8841,-4.134 16.53035,-7.83132 l 4.66666,-3.05587 -6.66666,0.90423 c -3.66667,0.49733 -8.16667,1.66857 -10,2.60276 -5.6484,2.8782 -17.549882,7.51769 -27.333337,10.65522 C 76.320087,288.14029 64,294.16697 64,296.02246 c 0,0.72097 -1.124564,1.31087 -2.499031,1.31087 -1.374468,0 -5.103429,0.91888 -8.286582,2.04197 -3.183154,1.12308 -9.708588,2.87135 -14.500968,3.88504 -4.79238,1.01369 -9.763419,2.259 -11.046752,2.76735 -2.081104,0.82436 -2.333334,-0.0352 -2.333334,-7.95126 0,-10.67265 1.534282,-13.89934 10.897284,-22.91772 6.304251,-6.07221 28.120776,-20.41429 31.244508,-20.54 0.655348,-0.0264 2.96324,-1.49596 5.12865,-3.26573 l 3.937108,-3.21777 -2.950604,-8.40095 c -3.691571,-10.51061 -3.804287,-20.78091 -0.303382,-27.64324 3.974624,-7.79091 22.800126,-26.072 40.988973,-39.80361 C 123.22759,165.52933 130.9658,160 131.47188,160 c 0.50608,0 3.38193,-1.98658 6.3908,-4.41462 3.00885,-2.42804 7.57065,-5.22686 10.13732,-6.2196 2.56667,-0.99273 5.56667,-2.5009 6.66667,-3.35149 2.74153,-2.11992 17.88816,-9.07675 26,-11.94176 3.66666,-1.29503 7.86666,-2.83039 9.33333,-3.41191 1.46667,-0.58151 6.86667,-2.3549 12,-3.94085 5.13333,-1.58596 10.53333,-3.39377 12,-4.01738 1.46667,-0.6236 7.16667,-2.45256 12.66667,-4.06435 5.5,-1.6118 10.92306,-3.39054 12.05128,-3.95277 1.1282,-0.56223 4.7282,-1.46426 8,-2.00451 3.27178,-0.54025 6.54872,-1.46129 7.28205,-2.04675 1.3194,-1.05337 7.86161,-2.5952 24.66667,-5.81332 4.76666,-0.9128 9.56666,-2.04646 10.66666,-2.51926 1.1,-0.47279 6.5,-1.53756 12,-2.366167 5.5,-0.828605 13.3,-2.002385 17.33334,-2.6084 10.43973,-1.568585 87.8004,-1.536079 101.33333,0.04259 15.77607,1.840328 44.15751,7.233267 48.66667,9.247467 1.46666,0.65514 5.03602,1.58393 7.9319,2.06397 2.89588,0.48004 6.47939,1.72322 7.96335,2.76262 1.48395,1.0394 4.02919,1.88982 5.65607,1.88982 1.62688,0 3.32878,0.6 3.78201,1.33333 0.45323,0.73334 1.83864,1.33703 3.07869,1.34155 1.24006,0.005 3.86423,0.84797 5.8315,1.87434 1.96726,1.02636 5.54757,2.29896 7.95624,2.82799 2.40865,0.52903 5.29906,1.44433 6.42314,2.034 5.29191,2.77608 19.72896,9.10013 22.71043,9.94815 5.29681,1.50659 44.32619,21.26932 52.66667,26.66805 2.2,1.42406 8.12405,5.50174 13.16454,9.06152 l 9.16456,6.47235 27.50211,1.11636 c 15.12617,0.61401 30.20212,1.74569 33.50212,2.51485 3.3,0.76916 12,2.67779 19.33333,4.24139 7.33334,1.5636 14.37519,3.38063 15.64858,4.03785 1.27338,0.65722 3.37816,1.19494 4.67728,1.19494 3.11181,0 14.31988,5.97585 20.97696,11.18438 8.75313,6.84849 21.32665,18.29321 21.90725,19.94051 0.29888,0.84797 3.44888,4.81154 7,8.80793 3.55113,3.99639 6.4566,7.68609 6.4566,8.19935 0,0.51325 2.17428,4.14348 4.83173,8.06717 7.05272,10.41323 9.83494,17.7164 9.83494,25.81625 0,6.31346 -0.5327,7.69268 -4.66227,12.0713 -4.40329,4.66886 -5.00008,4.89714 -10.74443,4.10978 -6.12724,-0.83982 -11.08074,-4.33136 -26.44209,-18.63798 -8.27304,-7.705 -12.30373,-9.39446 -22.15121,-9.28456 -10.09744,0.11266 -14.40195,1.56944 -21.68738,7.33961 l -5.30353,4.20047 0.91121,10.0556 c 0.50118,5.53057 1.40484,10.67237 2.00816,11.42622 0.60332,0.75384 1.53551,3.47063 2.07154,6.0373 0.53602,2.56666 1.43746,5.26666 2.00321,6 0.56573,0.73333 1.46429,4.03333 1.99679,7.33333 0.53249,3.3 1.42477,6.6 1.98285,7.33333 1.11649,1.46712 3.50724,13.19976 5.84137,28.66667 0.83,5.5 1.99048,10.74346 2.57882,11.65214 1.3711,2.11763 3.99154,48.13622 3.92989,69.01452 -0.0477,16.16567 -2.44757,46.31337 -3.98013,50 -0.45728,1.1 -1.56002,6.2 -2.45051,11.33333 -0.89051,5.13334 -2.53125,12.93334 -3.64611,17.33334 -1.11484,4.4 -2.70997,10.67637 -3.54474,13.9475 -0.83476,3.27114 -2.01704,6.57114 -2.6273,7.33334 -0.61025,0.7622 -1.53538,3.37624 -2.05585,5.80897 -0.52045,2.43273 -1.78605,6.03273 -2.81241,8 -1.02636,1.96727 -1.86982,4.46824 -1.87434,5.55772 -0.004,1.08947 -1.46985,4.98947 -3.2563,8.66667 -1.78644,3.67718 -6.29871,12.9858 -10.02724,20.6858 -8.18671,16.90678 -12.3661,24.04331 -19.39134,33.11174 -15.43709,19.92675 -19.31129,24.67691 -30.49546,37.39052 -6.69416,7.60957 -13.0712,15.19341 -14.1712,16.85296 -2.98458,4.50275 -28.10222,26.41496 -36.94884,32.23352 -11.55164,7.59771 -15.6707,9.31357 -31.71783,13.21253 -8.06667,1.95996 -14.90217,3.76698 -15.19,4.01559 -0.28784,0.24861 0.11507,1.22125 0.89535,2.16143 1.626,1.95921 4.59645,9.8588 8.40609,22.35503 1.45319,4.76667 3.22259,10.50927 3.93201,12.76134 2.88391,9.15486 0.39455,50.23969 -3.50852,57.90533 -2.1402,4.20335 -10.12905,16.65953 -17.2016,26.82064 -3.52882,5.06985 -10.34328,10.05575 -19.33333,14.14551 -8.78517,3.99656 -27.55421,5.79142 -30.33333,2.90076 z"
       id="path3189" />
    <path
       id="path3224"
       style="fill:#d5e5ff;stroke-width:1.33333"
       d="M 170.2513 228.27129 C 167.21054 228.35319 165.33333 230.11118 165.33333 233.24785 C 165.33333 237.62043 166.57589 238.41301 173.66732 238.5623 C 178.36627 238.6612 178.66732 238.42475 178.66732 234.63457 C 178.66732 231.47585 177.88312 230.30272 175.05208 229.22636 C 173.25633 228.54362 171.63346 228.23406 170.2513 228.27129 z M 174.66732 267.4373 C 168.43398 267.4636 159.38457 268.30574 154.55794 269.3084 C 147.28449 270.81933 145.41261 271.77557 143.62044 274.89824 C 142.32816 277.14993 140.3306 278.66582 138.65755 278.66582 C 137.11787 278.66582 133.65047 280.16647 130.95247 281.9998 C 128.25449 283.83314 125.3338 285.33379 124.46029 285.33379 C 123.58679 285.33379 121.14434 286.78504 119.0345 288.56035 C 116.92467 290.33567 111.32871 292.76695 106.59896 293.96269 C 101.8692 295.15843 96.109002 297.00588 93.798177 298.06816 C 91.487351 299.13044 88.658692 299.9998 87.511067 299.9998 C 85.580485 299.9998 81.506473 301.53238 71.333333 306.08574 C 65.96206 308.48984 50.667169 313.33379 48.446614 313.33379 C 45.481615 313.33379 46.455562 315.77377 49.667317 316.39238 C 55.354674 317.48781 72.257934 317.3283 101.41146 315.90605 C 120.44728 314.97738 134.95561 313.56174 142.99154 311.8455 C 149.77996 310.3957 159.53398 308.3049 164.66732 307.20097 C 194.75766 300.7299 244.26273 297.87318 303.99935 299.15996 C 343.32096 300.00699 362.26888 302.08312 370.24544 306.41777 C 376.3094 309.71308 377.02791 308.75716 376.32357 298.33379 C 375.9643 293.01712 374.88028 287.75889 373.91341 286.64824 C 372.94653 285.53758 369.26945 283.79952 365.74349 282.78691 C 362.21754 281.77431 358.54744 280.3306 357.58724 279.57793 C 354.94718 277.50852 301.67808 275.81763 284.66732 277.26347 C 263.89319 279.02919 217.29537 279.00698 209.67513 277.22832 C 206.18691 276.41421 199.43397 273.86887 194.66732 271.57011 C 187.00234 267.87361 184.69075 267.395 174.66732 267.4373 z M 479.25716 328.73808 C 475.49033 328.49927 475.04722 330.47232 474.43294 340.98222 C 474.14138 345.97053 474.60075 347.00173 478.36263 349.77715 C 480.70601 351.50604 483.79547 354.40785 485.22591 356.22636 C 486.65635 358.04487 492.06424 362.75616 497.24544 366.69511 C 502.42664 370.63407 506.66732 374.29055 506.66732 374.82207 C 506.66732 375.35357 511.31752 380.49489 517.0013 386.24785 C 529.51349 398.91231 534.72812 406.55505 539.43685 419.1248 C 543.66239 430.40465 546.4078 437.09058 548.18294 440.42754 C 548.89312 441.76257 551.29712 448.36193 553.52669 455.09355 L 557.58138 467.33379 L 556.90755 493.9998 C 556.53743 508.66645 555.62307 522.61646 554.8763 524.9998 C 554.12954 527.38313 553.7192 529.33379 553.96224 529.33379 C 554.20528 529.33379 555.62901 527.38313 557.1263 524.9998 C 558.62358 522.61646 561.78408 517.96581 564.14974 514.66582 C 573.16607 502.08833 578.1159 476.33656 577.04427 447.58183 C 576.40455 430.41644 574.43288 423.37692 563.82161 400.38847 C 561.7201 395.83574 559.99935 391.48638 559.99935 390.72246 C 559.99935 389.95855 559.47183 389.33379 558.82747 389.33379 C 558.18311 389.33379 556.85258 387.38313 555.86849 384.9998 C 553.42623 379.08504 538.40467 364.16452 528.66341 357.97636 C 520.65769 352.89071 506.26956 342.30589 502.847 338.98418 C 499.74696 335.97547 486.25479 329.75813 481.08529 328.95683 C 480.40128 328.85081 479.79528 328.7722 479.25716 328.73808 z " />
  </g>
</svg>
