<?xml version="1.0" encoding="UTF-8" standalone="no"?>
<!-- Created with Inkscape (http://www.inkscape.org/) -->

<svg
   version="1.1"
   id="svg2708"
   width="772.47333"
   height="999.01483"
   viewBox="0 0 772.47333 999.01488"
   sodipodi:docname="dupin2b.svg"
   inkscape:version="1.2.2 (732a01da63, 2022-12-09, custom)"
   xmlns:inkscape="http://www.inkscape.org/namespaces/inkscape"
   xmlns:sodipodi="http://sodipodi.sourceforge.net/DTD/sodipodi-0.dtd"
   xmlns="http://www.w3.org/2000/svg"
   xmlns:svg="http://www.w3.org/2000/svg">
  <defs
     id="defs2712" />
  <sodipodi:namedview
     id="namedview2710"
     pagecolor="#ffffff"
     bordercolor="#000000"
     borderopacity="0.25"
     inkscape:showpageshadow="2"
     inkscape:pageopacity="0.0"
     inkscape:pagecheckerboard="0"
     inkscape:deskcolor="#d1d1d1"
     showgrid="false"
     inkscape:zoom="0.76856441"
     inkscape:cx="360.41221"
     inkscape:cy="500.93394"
     inkscape:window-width="1920"
     inkscape:window-height="1031"
     inkscape:window-x="0"
     inkscape:window-y="25"
     inkscape:window-maximized="1"
     inkscape:current-layer="layer1" />
  <g
     inkscape:groupmode="layer"
     id="layer1"
     inkscape:label="Layer 1"
     transform="translate(-58.813596,-37.304734)">
    <path
       style="fill:#000000;stroke-width:1.33333"
       d="m 78.000002,1035.8008 c -2.2,-0.5872 -6.547317,-3.4789 -9.660705,-6.4261 -5.145962,-4.8712 -5.596906,-5.8138 -4.959099,-10.3666 1.400498,-9.9969 5.129313,-22.55376 9.603969,-32.34146 2.51444,-5.5 4.820559,-11.27934 5.124707,-12.84296 0.304148,-1.56364 1.450379,-4.56364 2.547182,-6.66667 2.6003,-4.98589 2.526268,-7.47276 -0.32272,-10.84075 -6.15835,-7.28022 -7.000001,-8.43084 -7.000001,-9.56962 0,-0.67258 -0.774322,-2.01572 -1.720717,-2.98476 -3.354361,-3.43466 -10.177934,-24.59707 -11.70263,-36.29417 -2.927672,-22.46043 -0.07009,-44.23412 9.513359,-72.48828 5.438487,-16.03388 23.284054,-56.9836 26.142013,-59.98735 0.876307,-0.92101 1.978552,-2.88842 2.449432,-4.37204 0.470881,-1.48361 2.910188,-5.81637 5.420678,-9.62837 2.51049,-3.81199 4.56453,-7.69456 4.56453,-8.62796 0,-0.93339 0.46356,-1.69707 1.03013,-1.69707 0.56657,0 2.16105,-2.1 3.5433,-4.66666 1.38224,-2.56667 3.01868,-4.66667 3.63653,-4.66667 0.61786,0 1.12338,-0.66961 1.12338,-1.48803 0,-1.62961 9.32894,-14.90693 10.97713,-15.62308 0.56258,-0.24445 1.02287,-0.98758 1.02287,-1.65142 0,-0.66384 0.86868,-2.26384 1.9304,-3.55556 1.06172,-1.29172 6.01172,-7.5159 11,-13.83151 8.35933,-10.58368 17.12262,-20.5445 34.40293,-39.10425 14.46855,-15.5398 15.81762,-17.77775 14.77654,-24.51263 -0.41662,-2.6951 -1.0904,-8.20018 -1.4973,-12.23352 -0.4069,-4.03333 -0.98826,-9.13333 -1.29193,-11.33333 -0.87669,-6.35165 -1.00555,-55.24749 -0.16689,-63.33333 0.41833,-4.03333 1.13102,-12.07005 1.58376,-17.85937 0.45274,-5.78932 1.06182,-11.7653 1.35352,-13.27996 0.29169,-1.51466 0.87002,-5.17794 1.28518,-8.14063 2.41279,-17.21855 8.33771,-44.22416 12.00534,-54.72004 4.91429,-14.06356 6.25217,-17.23932 10.2374,-24.30076 3.9435,-6.9875 17.35037,-21.69924 19.77461,-21.69924 1.01944,0 7.55748,16.12694 10.27041,25.33334 5.72376,19.42374 8.72855,26.79434 19.28131,47.29613 3.94627,7.66676 19.8298,22.32124 30.12,27.78933 5.26357,2.797 11.18514,5.37831 13.159,5.73624 1.97388,0.35793 4.23091,1.05212 5.01563,1.54263 0.78472,0.49052 2.32676,1.04088 3.42676,1.22304 1.1,0.18214 4.99367,0.89888 8.65259,1.59273 11.79438,2.23663 20.56696,0.88764 38.88332,-5.9792 9.42192,-3.53229 17.92361,-7.19752 18.89266,-8.14496 0.96904,-0.94744 2.46904,-1.71508 3.33334,-1.70588 2.03878,0.0217 29.02994,-13.47861 31.33333,-15.67217 0.96904,-0.92284 2.41868,-1.6779 3.22143,-1.6779 1.18516,0 14.12937,-7.35981 23.68333,-13.46586 1.1,-0.70301 3.05,-1.63077 4.33334,-2.06168 1.28333,-0.43091 2.33333,-1.17941 2.33333,-1.66335 0,-0.48392 4.5,-3.54802 10,-6.8091 5.5,-3.26108 10,-6.39516 10,-6.96462 0,-0.56946 0.64003,-1.03538 1.42229,-1.03538 0.78227,0 3.63227,-1.61859 6.33334,-3.59686 11.84622,-8.67621 24.96494,-18.45705 25.5777,-19.06981 0.36667,-0.36667 4.86667,-4.2332 10,-8.59228 19.65632,-16.69161 48.63634,-47.50148 63.33334,-67.3323 1.83333,-2.47375 4.08333,-5.25984 5,-6.19132 0.91667,-0.9315 1.66667,-2.1061 1.66667,-2.61022 0,-0.50413 2.00101,-3.697 4.44668,-7.09524 2.44568,-3.39825 6.75902,-10.07864 9.58522,-14.8453 2.8262,-4.76667 5.54432,-8.96667 6.04028,-9.33334 0.49595,-0.36666 1.32191,-2.01312 1.83546,-3.65877 0.51354,-1.64565 1.64552,-3.74565 2.5155,-4.66667 2.35248,-2.49042 21.47383,-45.47359 25.36035,-57.00789 6.62021,-19.64725 7.33821,-36.83401 2.1338,-51.07721 -3.60679,-9.87091 -14.72961,-24.92279 -18.41709,-24.92279 -0.7029,0 -1.47798,-0.45 -1.72243,-1 -0.97457,-2.19281 -10.48209,-8.12636 -23.77777,-14.83949 -7.7,-3.88781 -15.8,-8.20778 -18,-9.59994 -2.2,-1.39216 -4.9,-2.94799 -6,-3.4574 -3.93768,-1.82356 -18.71895,-17.44199 -21.9725,-23.21694 -6.91724,-12.27791 -7.38445,-14.01386 -8.08871,-30.053456 -0.34002,-7.744192 0.0491,-11.546712 1.3642,-13.333333 1.72688,-2.345935 1.89543,-2.356135 2.74443,-0.1661 0.49749,1.283333 1.74035,2.333333 2.76189,2.333333 1.02154,0 1.85735,0.6 1.85735,1.333333 0,0.733334 0.85,1.333334 1.88889,1.333334 1.03889,0 2.08889,0.45 2.33334,1 0.71932,1.618471 10.13797,8.333333 11.68881,8.333333 0.78227,0 1.4223,0.588569 1.4223,1.30793 0,0.719366 1.47538,1.678226 3.27864,2.130816 1.80325,0.45259 3.97284,1.65933 4.82129,2.68166 2.29275,2.7626 19.38644,7.46653 27.42332,7.54649 6.52171,0.0649 26.73185,-5.90352 28.47675,-8.40967 0.98028,-1.40795 10.80764,-5.362969 14.66666,-5.902593 1.83334,-0.256363 5.95463,-1.068272 9.15844,-1.804241 9.1793,-2.108646 22.94194,-0.412834 27.08602,3.337496 1.24735,1.128838 2.85227,1.840858 3.56649,1.582268 0.71422,-0.25858 5.77439,-4.762314 11.24483,-10.008283 12.45159,-11.940646 18.3812,-15.874657 27.39097,-18.172569 7.87758,-2.009149 25.00252,-1.810062 35.731,0.415391 8.451,1.753029 28.0224,2.189347 32.38651,0.722013 7.49279,-2.519278 14.72724,-10.797657 21.53195,-24.638976 7.38356,-15.01874 10.60576,-15.881273 14.47168,-3.873848 0.87015,2.702636 2.17391,5.111156 2.89724,5.352268 1.38096,0.460321 2.45187,8.842626 3.10097,24.272456 0.45564,10.830657 -1.91182,18.4056 -9.05788,28.981588 -4.77312,7.06411 -13.54634,17.14647 -14.92009,17.14647 -0.39013,0 -2.10667,1.35 -3.81451,3 -3.95672,3.82269 -8.06333,7.17598 -9.58608,7.82758 -2.80911,1.20206 -21.22792,13.76213 -21.63197,14.75117 -0.24446,0.59836 -1.29446,1.08792 -2.33334,1.08792 -1.03889,0 -1.88889,0.46356 -1.88889,1.03013 0,0.56656 -2.1,2.16105 -4.66667,3.54329 -2.56666,1.38224 -4.66666,3.01868 -4.66666,3.63654 0,0.61785 -0.59664,1.12337 -1.32587,1.12337 -2.34404,0 -16.06279,13.74906 -21.95149,22 -10.23092,14.335 -18.65232,31.92633 -24.25539,50.66666 -3.55976,11.90616 -8.19997,30 -7.69359,30 0.27151,0 -0.0533,1.43886 -0.722,3.19746 -0.66862,1.75858 -1.56396,5.53261 -1.98964,8.3867 -0.42569,2.85409 -1.07761,6.66524 -1.44872,8.46921 -0.37112,1.80398 -1.87929,10.47996 -3.3515,19.27996 -3.04731,18.21488 -7.37548,40.13395 -9.47816,48 -0.78411,2.93334 -1.55514,5.93334 -1.71339,6.66667 -0.57899,2.68297 -3.62225,13.45907 -5.08336,18 -0.82587,2.56667 -7.3224,17.56666 -14.43675,33.33333 -7.11436,15.76667 -14.54549,32.26667 -16.51364,36.66667 -6.45361,14.4277 -19.97653,41.29608 -21.68893,43.09323 -0.9223,0.96795 -2.04286,3.21795 -2.49012,5 -0.44727,1.78206 -1.1992,3.2401 -1.67096,3.2401 -0.47176,0 -2.35671,2.83358 -4.18879,6.29685 -3.43175,6.48724 -13.49399,22.45967 -15.94691,25.31353 -0.76126,0.88572 -1.38413,1.90779 -1.38413,2.27127 0,0.66308 -20.51119,30.36683 -23.55957,34.11835 -0.89383,1.1 -4.50006,5.9 -8.01384,10.66666 -3.51379,4.76667 -6.84722,8.86667 -7.40764,9.11111 -0.56043,0.24445 -1.01895,0.99445 -1.01895,1.66667 0,0.67222 -1.05,2.30258 -2.33333,3.62301 -1.28334,1.32043 -3.83334,4.40041 -5.66667,6.8444 -1.83333,2.44398 -4.32886,5.59261 -5.54559,6.99696 -1.21673,1.40433 -4.21673,5.04438 -6.66667,8.08901 -5.4571,6.78177 -14.62601,17.52939 -19.87702,23.29947 -2.1509,2.3635 -3.91072,4.69469 -3.91072,5.18042 0,0.48574 -1.5,2.27331 -3.33334,3.97239 -1.83333,1.69908 -3.33333,3.41103 -3.33333,3.80432 0,0.69273 -3.14539,4.76204 -6.12492,7.92404 -0.80204,0.85116 -2.98285,3.93421 -4.84625,6.85121 -1.8634,2.91702 -7.20719,9.2489 -11.87508,14.07084 -4.6679,4.82196 -15.38708,16.1755 -23.82042,25.23008 -17.89842,19.21693 -33.80234,35.78908 -58.33333,60.78433 -9.71667,9.90056 -17.66667,18.57492 -17.66667,19.27638 0,0.70145 2.85,1.32126 6.33333,1.37737 3.48334,0.0561 7.39652,0.30496 8.69598,0.55299 1.29946,0.24804 6.69946,0.86726 12,1.37606 5.30054,0.5088 10.83736,1.17083 12.30403,1.47116 13.83885,2.83384 43.88881,4.19875 55.33333,2.51332 2.56667,-0.378 6.76667,-0.9706 9.33333,-1.3169 2.56667,-0.34631 8.26667,-1.59606 12.66667,-2.77722 4.4,-1.18116 9.25733,-2.304 10.79408,-2.4952 1.53675,-0.19121 3.41612,-0.73209 4.1764,-1.20197 0.76028,-0.46988 6.14632,-1.22632 11.96899,-1.68099 12.89477,-1.00689 15.44588,0.50299 13.72698,8.12434 -1.03916,4.60749 -2.1424,6.48304 -6.99978,11.89984 -1.28334,1.43113 -2.33334,2.97129 -2.33334,3.42258 0,0.4513 -4.35,4.08815 -9.66666,8.08192 -5.31667,3.99376 -9.86667,7.71139 -10.11111,8.26139 -0.24445,0.55 -1.29445,1 -2.33333,1 -1.0389,0 -1.8889,0.6 -1.8889,1.33333 0,0.73333 -0.9,1.33333 -2,1.33333 -1.1,0 -2,0.55958 -2,1.24348 0,0.68392 -1.09422,1.59079 -2.43161,2.01526 -1.3374,0.42446 -3.62015,1.8149 -5.07279,3.08985 -3.7366,3.27953 -6.12674,4.6538 -21.16226,12.16773 -18.85916,9.42478 -27.9498,12.71063 -42.66667,15.42208 -1.46667,0.27022 -5.36667,1.1578 -8.66667,1.97242 -9.41803,2.32484 -48.2298,3.31965 -63.33333,1.62334 -49.82867,-5.59636 -50.00648,-5.56073 -67.67943,13.5561 -6.77632,7.32994 -14.32267,15.48326 -16.76966,18.11846 -16.62532,17.90404 -31.55574,32.31913 -44.88425,43.33505 -13.49589,11.15428 -13.90044,11.45623 -15.34857,11.45623 -0.72495,0 -1.3181,0.6 -1.3181,1.33333 0,0.73334 -0.85,1.33334 -1.88889,1.33334 -1.03888,0 -2.08888,0.53126 -2.33333,1.18057 -0.56098,1.49012 -20.29446,13.48609 -22.18472,13.48609 -0.77142,0 -2.19544,0.77878 -3.16448,1.73062 -0.96906,0.95182 -5.66191,3.14776 -10.42858,4.87984 -4.76667,1.73208 -9.61391,3.9533 -10.77165,4.93605 -1.15775,0.98276 -2.53307,1.78683 -3.05628,1.78683 -1.8277,0 -16.18624,13.38805 -21.47612,20.02456 -17.18995,21.5659 -22.64535,26.7827 -33.36262,31.9034 -18.223197,8.7071 -25.753231,10.8734 -31.999998,9.2062 z"
       id="path3189" />
    <path
       style="fill:#00ffff;stroke-width:1.33333"
       d="m 104.04195,1021.4938 c 6.2395,-2.94 18.45717,-14.0094 26.62472,-24.1225 5.1826,-6.41709 24.50495,-26.23385 28.66667,-29.4002 1.46666,-1.11586 5.66666,-3.16793 9.33333,-4.56013 3.66667,-1.3922 9.30603,-3.92921 12.53192,-5.6378 3.2259,-1.7086 6.6759,-3.10653 7.66667,-3.10653 0.99077,0 1.80141,-0.58858 1.80141,-1.30794 0,-0.71936 1.5,-1.6844 3.33334,-2.14454 1.83333,-0.46014 3.33333,-1.33114 3.33333,-1.93555 0,-0.60441 1.25329,-1.49672 2.78508,-1.98289 2.59001,-0.82204 19.72589,-12.14499 21.21492,-14.01827 0.36667,-0.46129 1.65213,-1.38744 2.85657,-2.05809 9.39891,-5.23348 58.856,-54.60147 82.64414,-82.49521 6.61361,-7.75507 29.61165,-31.3879 79.83263,-82.03616 24.56666,-24.77568 53.96667,-54.73509 65.33333,-66.57646 11.36667,-11.84138 24.11667,-24.25048 28.33334,-27.57579 4.21666,-3.32532 7.66666,-6.90621 7.66666,-7.95756 0,-1.05135 0.6,-1.91153 1.33334,-1.91153 0.73333,0 1.33333,-0.76491 1.33333,-1.6998 0,-0.93488 2.85,-4.71144 6.33333,-8.39234 3.48334,-3.6809 9.03334,-9.8703 12.33334,-13.75424 3.3,-3.88392 7.69262,-8.95736 9.76138,-11.27432 2.06876,-2.31694 5.66876,-6.55676 8,-9.4218 2.33124,-2.86502 5.13862,-6.18482 6.23862,-7.37732 1.1,-1.19249 3.58884,-4.24837 5.53074,-6.79084 1.94191,-2.54248 4.79191,-5.94758 6.33334,-7.56693 1.54142,-1.61933 2.80258,-3.51933 2.80258,-4.22221 0,-0.70289 0.45,-1.47797 1,-1.72243 1.39585,-0.62036 9.28681,-10.70517 17.04027,-21.77777 3.59456,-5.13333 6.8956,-9.63333 7.33564,-10 0.44006,-0.36667 2.8209,-3.66667 5.29076,-7.33333 2.46987,-3.66667 4.85688,-6.96667 5.30446,-7.33334 1.4819,-1.21398 12.02888,-17.61681 12.02888,-18.70749 0,-0.58865 0.49749,-1.27028 1.10553,-1.51473 2.19317,-0.8817 37.56113,-61.66612 37.56113,-64.55368 0,-0.91769 0.51554,-1.86853 1.14563,-2.11299 1.48963,-0.57789 22.48355,-47.39989 28.59651,-63.77777 3.84524,-10.3022 9.35497,-27.14381 11.12308,-34 0.34977,-1.35629 5.60645,-20.23228 6.31233,-22.66666 2.01195,-6.93867 3.4024,-27.33334 1.86351,-27.33334 -0.57257,0 -1.04105,0.64238 -1.04105,1.42751 0,0.78512 -2.93646,7.53512 -6.52547,15 -3.589,7.46487 -8.43255,17.77249 -10.76343,22.90583 -6.511,14.33928 -19.26592,39.91703 -20.29267,40.69342 -0.50437,0.38137 -2.16352,3.38137 -3.687,6.66667 -1.52346,3.28528 -4.23041,8.37324 -6.01542,11.30657 -1.78503,2.93333 -3.9139,6.82112 -4.73084,8.63953 -0.81694,1.8184 -1.91002,3.6184 -2.42907,4 -0.51904,0.38159 -1.67715,2.1938 -2.57357,4.02714 -1.8951,3.87582 -4.65723,8.37598 -5.72863,9.33333 -0.41036,0.36667 -3.69699,5.46667 -7.30361,11.33333 -3.60663,5.86667 -7.0209,10.86667 -7.58724,11.11111 -0.56635,0.24445 -1.02972,1.29445 -1.02972,2.33333 0,1.0389 -0.47395,1.8889 -1.05323,1.8889 -0.57928,0 -2.80532,3 -4.94677,6.66666 -2.14146,3.66667 -4.28776,6.66667 -4.76959,6.66667 -0.48183,0 -2.55427,2.55 -4.60543,5.66667 -8.35925,12.70159 -31.73509,39.94154 -50.80412,59.20221 -11.14347,11.25545 -20.69148,20.46445 -21.2178,20.46445 -0.52632,0 -1.92732,1.07013 -3.11333,2.37808 -1.67622,1.84852 -18.47495,15.68113 -27.48974,22.63591 -6.71917,5.18373 -19.41149,13.65267 -20.46114,13.65267 -0.72415,0 -1.51663,0.45 -1.76108,1 -0.24444,0.55 -6.74444,5.2 -14.44444,10.33334 -7.7,5.13333 -14.2,9.78333 -14.44444,10.33333 -0.24446,0.55 -1.06407,1 -1.82138,1 -0.7573,0 -4.23769,2.1 -7.73419,4.66667 -3.49649,2.56666 -6.8065,4.66666 -7.35557,4.66666 -0.54907,0 -1.96868,1.09266 -3.15469,2.42811 -1.18603,1.33545 -4.1064,3.56483 -6.48974,4.95415 -2.38333,1.38932 -4.33333,2.99666 -4.33333,3.57189 0,0.57521 -0.5992,1.04585 -1.33155,1.04585 -1.45937,0 -17.72976,12.0546 -18.44622,13.66667 -0.24446,0.55 -1.29446,1 -2.33334,1 -1.03889,0 -1.88889,0.6 -1.88889,1.33333 0,0.73334 -0.59315,1.33334 -1.31809,1.33334 -1.40108,0 -5.03778,2.75448 -10.12219,7.66666 -1.70784,1.65 -3.45972,3 -3.89305,3 -0.43334,0 -2.15664,1.35 -3.82956,3 -1.67292,1.65 -5.03459,4.5 -7.47036,6.33334 -4.60816,3.46841 -5.68198,4.40122 -21.48828,18.66666 -11.92708,10.76439 -26.74609,25.57683 -26.16724,26.15567 0.68133,0.68133 14.39766,-3.51156 20.28877,-6.20199 20.01683,-9.14155 37.56279,-18.07238 39.33333,-20.02056 1.39036,-1.52984 14.76558,-9.26645 16.02003,-9.26645 0.72232,0 1.31331,-0.46253 1.31331,-1.02785 0,-0.56531 2.85,-2.51531 6.33333,-4.33334 3.48333,-1.81801 6.63333,-3.68985 7,-4.15964 0.36667,-0.4698 3.36667,-2.23737 6.66667,-3.92794 3.3,-1.69059 6.3,-3.40622 6.66666,-3.81251 1.39916,-1.55039 15.83708,-8.06983 27.72769,-12.52045 9.98818,-3.73855 14.25914,-4.63462 22,-4.61572 10.01377,0.0244 20.96604,3.15804 24.85986,7.11274 2.30368,2.33972 1.54334,3.1862 -13.13064,14.61804 -3.76524,2.93334 -7.6905,6.08334 -8.72282,7 -1.03232,0.91667 -2.2184,1.66667 -2.63576,1.66667 -1.12318,0 -14.69138,9.79804 -15.20943,10.98323 -0.24445,0.55922 -1.07949,1.01677 -1.85565,1.01677 -0.77616,0 -3.13139,1.8 -5.23382,4 -2.10244,2.2 -4.14892,4 -4.54772,4 -1.18625,0 -19.62868,18.84901 -24.78688,25.33333 -6.03961,7.59233 -19.31107,20.98109 -25.11139,25.33333 -2.44332,1.83334 -5.20453,4.08334 -6.13601,5 -0.93149,0.91667 -2.28648,1.66667 -3.01108,1.66667 -0.7246,0 -1.51745,0.46084 -1.76191,1.02409 -0.66073,1.52251 -13.7649,9.64258 -15.56117,9.64258 -0.85247,0 -1.54993,0.57592 -1.54993,1.27981 0,0.70389 -2.4,1.99887 -5.33334,2.87772 -2.93333,0.87884 -5.33333,2.02444 -5.33333,2.54577 0,1.7272 -37.03835,14.64707 -47.33334,16.51102 -1.46666,0.26554 -5.36666,1.10856 -8.66666,1.87337 -5.8934,1.36587 -17.07574,2.83147 -27.05312,3.54571 -2.77923,0.19896 -5.17923,0.58782 -5.33334,0.86417 -0.15412,0.27633 -2.02429,3.80243 -4.15594,7.83576 -2.13166,4.03333 -7.23166,12.93848 -11.33334,19.78922 -4.10168,6.85074 -8.04988,13.60074 -8.77377,15 -0.72389,1.39926 -1.77389,2.54411 -2.33333,2.54411 -0.55944,0 -1.01716,0.64003 -1.01716,1.42229 0,1.55084 -6.71487,10.9695 -8.33334,11.68882 -0.55,0.24445 -1,1.24445 -1,2.22222 0,0.97778 -0.48493,1.97778 -1.07761,2.22223 -0.59269,0.24444 -2.92613,3.14444 -5.18541,6.44444 -5.76543,8.42119 -23.46635,28.41129 -33.6133,37.96037 -4.69864,4.4218 -9.84284,9.31109 -11.43155,10.86512 -5.24068,5.12624 -13.1953,9.49108 -25.3588,13.9148 -12.80405,4.65668 -17.02281,7.54764 -20.32263,13.92637 -1.1381,2.2 -5.73109,9.71794 -10.20665,16.70652 -4.47556,6.98859 -8.88152,13.88859 -9.79101,15.33334 -3.464539,5.50348 -10.031317,20.20693 -11.594181,25.96014 -0.896447,3.3 -1.774377,9.7382 -1.950957,14.3071 l -0.321054,8.3071 5.093242,-1.8034 c 2.801284,-0.9918 7.81212,-3.0844 11.13519,-4.6503 z"
       id="path3216" />
    <path
       style="fill:#00ffff;stroke-width:1.33333"
       d="m 417.33334,848.80764 c 12.46199,-1.86681 22.33302,-3.80516 25.52099,-5.01149 1.93654,-0.73279 4.96571,-1.49094 6.73147,-1.68476 3.55521,-0.39027 16.03188,-4.85022 17.08088,-6.10579 0.36667,-0.43888 4.10811,-2.45963 8.31432,-4.49055 4.20621,-2.03093 11.10621,-5.96488 15.33333,-8.74212 4.22712,-2.77724 9.7747,-6.18729 12.32794,-7.5779 2.55322,-1.39062 5.35106,-3.12839 6.2174,-3.86172 0.86633,-0.73334 5.47809,-4.33333 10.24833,-8 4.77024,-3.66667 10.06405,-8.91667 11.76401,-11.66667 1.69996,-2.75 3.54922,-5 4.10943,-5 0.56021,0 1.01857,-0.63701 1.01857,-1.41557 0,-1.58341 -6.76974,-0.82643 -12.66964,1.41671 -2.0351,0.77374 -3.99586,1.11113 -4.35725,0.74974 -0.36139,-0.36137 -1.79627,-0.0473 -3.18863,0.6978 -1.39237,0.74518 -4.16348,1.59251 -6.15802,1.88298 -1.99455,0.29048 -8.42646,1.49496 -14.29312,2.67665 -11.72692,2.36207 -41.68783,3.51472 -50.4436,1.94064 -3.05603,-0.5494 -8.41328,-1.33151 -11.90503,-1.73801 -3.49175,-0.40652 -6.843,-1.04467 -7.44726,-1.41811 -2.61654,-1.61712 -32.00184,-2.33856 -39.32504,-0.96548 -7.79698,1.46192 -13.89621,5.46545 -25.65406,16.83932 -19.45179,18.81654 -31.70226,29.83729 -37.09264,33.3692 -3.49383,2.28925 -3.62968,3.58197 -0.42712,4.06428 0.89544,0.13485 5.95372,0.91914 11.24061,1.74288 5.28689,0.82373 15.78689,1.87646 23.33333,2.33941 7.54644,0.46295 13.91408,1.00456 14.15031,1.2036 0.70903,0.59737 40.53503,-0.49072 45.57049,-1.24504 z"
       id="path3222" />
    <path
       style="fill:#0000ff;stroke-width:1.33333"
       d="m 230.71554,612.66665 c 6.21995,-5.86667 14.19232,-13.06667 17.7164,-16 3.52407,-2.93334 7.92219,-6.70439 9.77359,-8.38013 1.8514,-1.67574 6.76256,-5.57574 10.91366,-8.66667 4.15112,-3.09092 9.34748,-7.26709 11.54748,-9.28036 2.2,-2.01328 4.44315,-3.66328 4.98476,-3.66667 0.94136,-0.005 2.06203,-0.85585 10.12727,-7.68088 1.95505,-1.65441 4.60464,-3.34484 5.88797,-3.7565 1.28334,-0.41167 2.33334,-1.30806 2.33334,-1.99198 0,-0.6839 0.64285,-1.24348 1.42857,-1.24348 0.78571,0 2.21951,-0.79094 3.18622,-1.75764 0.9667,-0.9667 6.05013,-4.69057 11.2965,-8.27526 l 9.53887,-6.51762 -11.72508,-3.15637 c -6.4488,-1.736 -12.69759,-3.36276 -13.88622,-3.61503 -3.25725,-0.69126 -15.72948,-7.18441 -22.50553,-11.71656 -6.65633,-4.45208 -20,-17.54861 -20,-19.62958 0,-0.73256 -0.50552,-1.33194 -1.12337,-1.33194 -0.61786,0 -2.26786,-2.25 -3.66667,-5 -1.39881,-2.75 -2.87905,-5.3 -3.28944,-5.66666 -1.50112,-1.34123 -10.23464,-20.85532 -12.23301,-27.33333 -1.13111,-3.66667 -3.43322,-10.86667 -5.11579,-16 -1.68257,-5.13334 -3.14927,-10.53334 -3.25932,-12 -0.19097,-2.54532 -0.57041,-2.75495 -3.19776,-1.76667 -1.39029,0.52296 -16.03284,30.54684 -16.77367,34.39365 -0.28772,1.49402 -0.91528,3.3509 -1.39457,4.12642 -0.47931,0.77552 -1.17276,3.32326 -1.54103,5.66165 -0.36826,2.33839 -1.14805,5.15161 -1.73286,6.25161 -1.09686,2.06316 -4.57942,20.07885 -5.92808,30.66667 -0.42035,3.3 -1.01492,7.5 -1.32127,9.33333 -3.722,22.27383 -5.48165,86.21777 -2.89864,105.33333 0.64411,4.76667 1.33299,9.98239 1.53085,11.59049 0.72926,5.92684 2.22727,5.47876 11.03331,-3.30022 4.94149,-4.92631 14.07357,-13.75694 20.29352,-19.6236 z"
       id="path3224" />
    <path
       style="fill:#0000ff;stroke-width:1.33333"
       d="m 80.470072,1021.5248 c -0.10813,-2.3051 0.214188,-4.1912 0.71626,-4.1912 0.502073,0 1.003733,-1.2064 1.1148,-2.6808 0.67296,-8.9338 11.564857,-32.45873 28.850558,-62.31309 10.94985,-18.91164 12.18244,-20.50991 17.69937,-22.95031 3.26144,-1.44269 8.15418,-2.9838 10.87276,-3.42469 7.64084,-1.23917 16.7156,-4.81053 19.09925,-7.51648 1.18601,-1.34637 2.51995,-2.44796 2.96429,-2.44796 1.85179,0 19.29136,-16.86456 29.54598,-28.57178 3.66667,-4.18607 8.31667,-9.32374 10.33333,-11.41706 2.01667,-2.09332 3.66667,-4.45218 3.66667,-5.24193 0,-0.78973 0.6,-1.43589 1.33333,-1.43589 0.73334,0 1.33334,-0.9 1.33334,-2 0,-1.1 0.55441,-2 1.23201,-2 1.19739,0 20.10132,-27.20538 20.10132,-28.92856 0,-0.47382 0.85268,-1.80871 1.89483,-2.96646 1.85841,-2.06453 5.55916,-8.78117 16.58726,-30.10498 l 5.51652,-10.66667 14.23336,0.11174 c 7.82834,0.0615 16.67866,-0.41226 19.66736,-1.05271 2.9887,-0.64045 6.81372,-1.39116 8.50004,-1.66827 1.68634,-0.27709 5.88634,-1.4108 9.33334,-2.51934 3.44701,-1.10854 9.81905,-3.10811 14.16008,-4.44348 4.34104,-1.33539 8.54104,-3.0507 9.33333,-3.8118 0.79231,-0.76112 4.44055,-2.47774 8.10722,-3.81471 15.3504,-5.59717 26.74178,-11.91317 39.91598,-22.13159 4.24104,-3.2895 24.59102,-24.12346 31.23528,-31.97814 8.73495,-10.32624 22.57226,-24.11255 28.84874,-28.7424 2.93333,-2.16379 5.63333,-4.25504 6,-4.64724 1.88271,-2.01379 14.85561,-10.63539 16.00308,-10.63539 0.73164,0 1.33025,-0.53002 1.33025,-1.17782 0,-0.6478 1.05,-1.54082 2.33334,-1.98447 1.28333,-0.44365 4.13333,-2.00659 6.33333,-3.47319 2.2,-1.4666 5.19447,-3.19028 6.65437,-3.83038 2.32126,-1.01779 1.77068,-1.61166 -4.38717,-4.73207 -9.07952,-4.60095 -15.73595,-4.6594 -28.49208,-0.25025 -13.61111,4.70468 -49.08091,22.84761 -49.10003,25.11485 -0.004,0.55 -0.86557,1 -1.91319,1 -1.04762,0 -2.69762,0.75145 -3.66666,1.66988 -0.96906,0.91844 -4.01191,2.85488 -6.76191,4.30321 -2.75,1.44832 -5,3.09688 -5,3.66344 0,0.56658 -0.85715,1.03014 -1.90476,1.03014 -1.04763,0 -2.69763,0.78357 -3.66667,1.74126 -0.96905,0.95771 -2.6619,2.16287 -3.7619,2.67813 -1.1,0.51528 -3.89768,2.09028 -6.21706,3.50002 -19.00026,11.54849 -43.6423,21.89834 -59.11628,24.8293 -8.88036,1.68204 -10.66667,1.5104 -10.66667,-1.02494 0,-1.61984 30.56767,-32.07621 40.53805,-40.39044 3.51764,-2.93333 7.6856,-6.40521 9.26216,-7.71529 1.57656,-1.31008 4.73272,-4.01008 7.01368,-6 6.83208,-5.96032 9.83737,-8.28471 10.71164,-8.28471 0.4556,0 1.79873,-1.07847 2.98474,-2.39659 1.18603,-1.31812 4.2564,-3.82988 6.82307,-5.58166 2.56667,-1.7518 6.53103,-4.72334 8.80968,-6.60342 8.88577,-7.3315 9.93009,-8.085 11.20556,-8.085 0.72495,0 1.31809,-0.6 1.31809,-1.33333 0,-0.73333 0.64003,-1.33333 1.4223,-1.33333 1.55084,0 10.96949,-6.71487 11.68881,-8.33334 0.24445,-0.55 1.29445,-1 2.33333,-1 1.0389,0 1.8889,-0.50552 1.8889,-1.12337 0,-0.61785 2.1,-2.25429 4.66666,-3.63653 2.56667,-1.38224 4.66667,-2.97674 4.66667,-3.5433 0,-0.56657 0.9,-1.03013 2,-1.03013 1.1,0 2,-0.6 2,-1.33333 0,-0.73334 0.75613,-1.33334 1.68029,-1.33334 0.92416,0 3.29798,-1.5 5.27514,-3.33333 1.97717,-1.83333 3.95919,-3.33333 4.40449,-3.33333 0.4453,0 6.73334,-4.2 13.97342,-9.33334 7.24008,-5.13333 13.66948,-9.33333 14.28754,-9.33333 0.61807,0 1.98867,-1.2 3.04579,-2.66667 1.05712,-1.46666 2.38819,-2.66666 2.95792,-2.66666 1.35241,0 16.11843,-10.39413 24.65247,-17.35343 0.88572,-0.72228 1.92886,-1.31324 2.31809,-1.31324 3.27348,0 45.61568,-40.87428 62.12139,-59.96774 11.40063,-13.18803 10.98836,-12.70634 13.30869,-15.55014 1.11388,-1.36516 6.17211,-7.88212 11.24051,-14.48211 5.0684,-6.6 9.70704,-12.2 10.30809,-12.44444 0.60107,-0.24446 1.09284,-1.06407 1.09284,-1.82138 0,-1.54982 9.39342,-14.82382 10.97714,-15.51196 0.56257,-0.24445 1.02286,-0.89925 1.02286,-1.4551 0,-0.91759 13.02588,-21.59447 15.60262,-24.76712 0.59558,-0.73334 1.83502,-2.83334 2.7543,-4.66667 0.91927,-1.83333 2.84592,-5.13333 4.28143,-7.33333 1.43552,-2.2 3.53345,-5.8 4.66207,-8 1.12861,-2.2 3.46582,-6.4 5.1938,-9.33334 1.72797,-2.93333 6.37368,-11.63333 10.32377,-19.33333 3.95011,-7.7 7.51544,-14.3 7.92295,-14.66666 0.81602,-0.73423 3.4105,-6.28115 11.84926,-25.33334 3.08574,-6.96666 6.76529,-14.88553 8.17678,-17.59749 1.41149,-2.71195 2.56636,-5.84349 2.56636,-6.95897 0,-1.80087 9.57992,-31.70486 27.54568,-85.98456 3.25388,-9.83091 6.53651,-19.03353 7.29473,-20.45028 0.75823,-1.41676 1.65762,-4.11464 1.99864,-5.99528 0.34103,-1.88064 1.79175,-4.90893 3.22383,-6.72953 1.43208,-1.82059 2.60379,-3.9954 2.60379,-4.83291 0,-1.88068 8.60397,-13.69345 16.97445,-23.30501 5.3066,-6.09339 9.32796,-9.70275 23.96927,-21.51356 0.88572,-0.71449 2.23572,-1.29907 3,-1.29907 0.76429,0 1.38961,-0.46356 1.38961,-1.03013 0,-0.56656 2.1,-2.16105 4.66667,-3.54329 2.56666,-1.38224 4.66666,-3.01868 4.66666,-3.63654 0,-0.61785 0.9,-1.12337 2,-1.12337 1.1,0 2,-0.58857 2,-1.30793 0,-0.71936 1.5,-1.68441 3.33334,-2.14455 1.83333,-0.46013 3.33333,-1.37156 3.33333,-2.0254 0,-0.65383 0.85,-1.18879 1.88889,-1.18879 1.03888,0 2.08888,-0.45 2.33334,-1 0.24444,-0.55 3.76528,-3.52331 7.82408,-6.60737 4.05879,-3.08405 9.45879,-8.11603 12,-11.18217 2.5412,-3.06614 5.37036,-6.34997 6.28703,-7.29739 0.91666,-0.947425 1.66666,-2.089742 1.66666,-2.538485 0,-0.448743 1.35,-2.641352 3,-4.872467 2.58482,-3.49517 2.99059,-5.655861 2.93198,-15.612676 -0.0783,-13.296813 -0.78206,-20.22277 -2.05498,-20.22277 -0.489,0 -2.98822,2.549999 -5.55381,5.666666 -7.43591,9.033078 -14.02728,15.666666 -15.56699,15.666666 -0.78257,0 -1.42286,0.559568 -1.42286,1.243483 0,1.33086 -3.91477,2.867025 -9.33334,3.662436 -4.21107,0.618156 -19.80036,0.530878 -23.33333,-0.130627 -14.5341,-2.721348 -36.14872,-3.19322 -40.46467,-0.883391 -1.38493,0.741188 -2.82424,1.041426 -3.19847,0.667196 -0.83629,-0.836296 -12.7922,6.115476 -17.38382,10.107837 -1.84646,1.605478 -5.96627,6.741542 -9.15512,11.413482 -3.18886,4.67194 -6.61296,8.82123 -7.60912,9.22063 -0.99615,0.3994 -6.24766,-1.7228 -11.67,-4.716 -12.57737,-6.94285 -19.19478,-7.17735 -34.49313,-1.2223 -5.85253,2.27817 -10.95253,4.58292 -11.33333,5.12167 -0.38079,0.53875 -4.29235,2.35615 -8.69235,4.03866 -10.9904,4.2026 -26.60042,4.80023 -37.33333,1.42929 -8.26623,-2.59621 -32.99192,-14.51751 -33.77777,-16.2857 -0.24446,-0.55 -1.74446,-0.99081 -3.33334,-0.97958 -1.81103,0.0128 -2.29905,0.39548 -1.30799,1.02568 0.8695,0.5529 3.35331,5.60813 5.51958,11.23386 8.199,21.29247 10.70424,23.49651 55.56619,48.88544 13.95576,7.89805 27.33333,18.38364 27.33333,21.42436 0,0.77562 0.46253,1.41024 1.02785,1.41024 1.4468,0 6.33978,9.66229 10.46556,20.66666 2.81511,7.5085 3.50378,11.67956 3.52226,21.33334 0.012,6.6 -0.76179,14.7 -1.72095,18 -0.95915,3.3 -1.91241,6.6 -2.11836,7.33333 -0.95953,3.4166 -4.64443,12.89529 -7.69268,19.78792 -1.84852,4.17984 -3.42148,8.03748 -3.49548,8.57256 -0.3726,2.69428 -16.15448,33.44302 -23.76679,46.30618 -9.43512,15.94328 -29.9661,45.82347 -35.46073,51.60848 -1.88504,1.98465 -3.42735,3.95088 -3.42735,4.36937 0,1.31736 -8.08948,10.0292 -26,28.00031 -15.84005,15.89364 -22.21533,21.71705 -33.19917,30.3254 -2.12623,1.66637 -5.24895,4.37977 -6.9394,6.02977 -1.69046,1.65 -3.65083,3 -4.35638,3 -0.70556,0 -1.48282,0.45 -1.72728,1 -0.6842,1.53946 -16.954,13.66667 -18.33512,13.66667 -0.67124,0 -1.42042,0.50875 -1.66488,1.13055 -0.24444,0.6218 -4.64444,3.74488 -9.77777,6.94017 -5.13333,3.19531 -9.63333,6.20569 -10,6.68976 -0.36667,0.48405 -2.01667,1.3014 -3.66667,1.81633 -1.65,0.51492 -3,1.42582 -3,2.0242 0,0.59839 -1.05,1.45696 -2.33333,1.90796 -1.28333,0.45099 -5.93333,2.94351 -10.33333,5.53893 -4.4,2.59543 -9.5,5.43419 -11.33334,6.30839 -1.83333,0.87419 -3.63333,1.90164 -4,2.28324 -0.36667,0.38159 -4.26667,2.4938 -8.66667,4.6938 -4.4,2.2 -8.3,4.33407 -8.66666,4.74236 -0.36667,0.40831 -2.76667,1.55712 -5.33334,2.55293 -2.56666,0.9958 -5.56666,2.51007 -6.66666,3.36502 -1.1,0.85494 -5,2.6511 -8.66667,3.99146 -3.66667,1.34035 -6.96667,2.85286 -7.33333,3.3611 -0.36667,0.50825 -3.96667,2.15538 -8,3.6603 -4.03334,1.50491 -10.42047,4.2941 -14.19364,6.19819 -3.77316,1.90408 -7.4497,3.46197 -8.17007,3.46197 -0.72037,0 -2.02469,0.86143 -2.89849,1.9143 -0.8738,1.05286 -3.34727,2.30053 -5.4966,2.77261 -2.14932,0.47207 -3.90787,1.3702 -3.90787,1.99585 0,0.62564 -1.32201,1.55714 -2.93781,2.06996 -1.6158,0.51284 -3.75866,1.75327 -4.76191,2.75652 -1.00325,1.00326 -2.68123,1.8241 -3.72885,1.8241 -1.04762,0 -1.90476,0.53496 -1.90476,1.18878 0,0.65384 -1.5,1.56527 -3.33334,2.0254 -1.83333,0.46015 -3.33333,1.42519 -3.33333,2.14455 0,0.71936 -0.9,1.30793 -2,1.30793 -1.1,0 -2,0.50552 -2,1.12338 0,0.61785 -2.1,2.25429 -4.66667,3.63653 -2.56667,1.38224 -4.66667,2.97673 -4.66667,3.54329 0,0.56658 -0.62532,1.03014 -1.38961,1.03014 -0.76428,0 -2.11428,0.60716 -3,1.34925 -1.49149,1.24963 -3.83733,3.05381 -15.58201,11.98408 -2.41111,1.83333 -5.42388,4.23333 -6.69504,5.33333 -1.27116,1.1 -4.24444,3.48056 -6.6073,5.29014 -2.36284,1.80956 -5.65161,4.50955 -7.30836,5.99999 -1.65674,1.49043 -7.13145,6.30987 -12.166,10.70987 -15.14518,13.23629 -87.25168,85.83065 -87.25168,87.842 0,0.403 -1.65,2.43303 -3.66667,4.51117 -2.01666,2.07815 -5.46666,6.08221 -7.66666,8.89792 -2.2,2.81572 -4.63796,5.78609 -5.4177,6.60085 -0.77972,0.81476 -4.6661,5.98139 -8.63641,11.48139 -3.97029,5.5 -7.68233,10.2 -8.24897,10.44444 C 128.46362,736.0222 128,737.0722 128,738.11108 c 0,1.0389 -0.6,1.8889 -1.33333,1.8889 -0.73333,0 -1.33333,0.52054 -1.33333,1.15677 0,1.03036 -10.23288,17.28981 -13.18213,20.94564 -0.63704,0.78967 -1.5721,2.73967 -2.07792,4.33333 -0.50581,1.59368 -1.35869,2.89759 -1.89529,2.89759 -0.53659,0 -1.735,2.1 -2.66312,4.66667 -0.92812,2.56666 -2.24865,4.66666 -2.93451,4.66666 -0.68587,0 -1.24703,0.54652 -1.24703,1.2145 0,2.00612 -9.331565,21.29369 -10.71617,22.14942 -0.706109,0.4364 -1.284308,1.80806 -1.284886,3.04811 -5.79e-4,1.24005 -1.855716,6.15464 -4.122527,10.9213 -2.266811,4.76667 -4.337367,9.74512 -4.601235,11.06323 -0.263868,1.31812 -1.679475,5.81812 -3.145791,10 -8.641432,24.64509 -11.681011,47.32628 -8.970412,66.93677 0.456132,3.3 1.101166,7.93191 1.433407,10.29312 0.332241,2.36121 1.234871,5.47177 2.005843,6.91235 0.770972,1.44057 1.401766,3.80996 1.401766,5.2653 0,3.77155 10.368357,23.22034 15.553027,29.1741 4.968537,5.70557 5.00725,5.3384 -2.201222,20.87721 -2.758442,5.94619 -7.087194,15.32097 -9.61945,20.83284 -5.446352,11.85491 -6.102631,18.90111 -2.337132,25.09301 3.224221,5.3018 6.01248,4.8534 5.741514,-0.9233 z"
       id="path3218" />
    <path
       style="fill:#ffff00;stroke-width:1.33333"
       d="m 109.39373,911.10725 c -3.93301,-5.00002 -6.27466,-13.42634 -4.28427,-15.41674 0.85647,-0.85646 1.55721,-2.64602 1.55721,-3.9768 0,-3.1724 7.54932,-7.70243 12.84665,-7.70875 2.99259,-0.004 4.80148,0.94352 6.36781,3.33405 3.71521,5.67014 3.93168,10.33666 0.78957,17.02122 -3.41062,7.25577 -4.58289,8.32882 -10.2764,9.4066 -3.5416,0.67042 -4.73902,0.21552 -7.00057,-2.65958 z"
       id="path3220" />
  </g>
</svg>
