<?xml version="1.0" encoding="UTF-8" standalone="no"?>
<!-- Created with Inkscape (http://www.inkscape.org/) -->

<svg
   version="1.1"
   id="svg2708"
   width="761.33331"
   height="757.1203"
   viewBox="0 0 761.33331 757.1203"
   sodipodi:docname="du1.svg"
   inkscape:version="1.2.2 (732a01da63, 2022-12-09, custom)"
   xmlns:inkscape="http://www.inkscape.org/namespaces/inkscape"
   xmlns:sodipodi="http://sodipodi.sourceforge.net/DTD/sodipodi-0.dtd"
   xmlns="http://www.w3.org/2000/svg"
   xmlns:svg="http://www.w3.org/2000/svg">
  <defs
     id="defs2712" />
  <sodipodi:namedview
     id="namedview2710"
     pagecolor="#ffffff"
     bordercolor="#000000"
     borderopacity="0.25"
     inkscape:showpageshadow="2"
     inkscape:pageopacity="0.0"
     inkscape:pagecheckerboard="0"
     inkscape:deskcolor="#d1d1d1"
     showgrid="false"
     inkscape:zoom="0.89096128"
     inkscape:cx="380.48791"
     inkscape:cy="368.1417"
     inkscape:window-width="1920"
     inkscape:window-height="1031"
     inkscape:window-x="0"
     inkscape:window-y="25"
     inkscape:window-maximized="1"
     inkscape:current-layer="svg2708" />
  <g
     inkscape:groupmode="layer"
     id="layer1"
     inkscape:label="Layer 1"
     transform="translate(-25.333333,-96.16777)">
    <path
       style="fill:#000000;stroke-width:1.33333"
       d="m 477.66667,851.86689 c -0.91667,-0.95347 -1.6663,-4.16358 -1.66583,-7.13358 6.8e-4,-4.37804 1.1362,-6.84624 6,-13.04182 3.29953,-4.203 5.99916,-8.76347 5.99916,-10.13438 0,-6.98394 -7.62767,-20.97464 -12.43092,-22.80084 C 471.44885,797.18977 456,780.44938 456,777.55119 c 0,-1.29316 -0.56247,-2.92121 -1.24992,-3.61788 -3.51976,-3.56693 -9.67156,-22.88942 -10.51567,-33.02917 L 443.33333,730.07996 434,728.5555 c -9.5826,-1.56518 -17.69436,-4.03568 -19.93333,-6.07082 -0.69667,-0.63326 -2.24208,-1.15136 -3.43426,-1.15136 -1.19216,0 -3.62216,-1.5571 -5.4,-3.46022 -1.77782,-1.90312 -5.73104,-4.93002 -8.7849,-6.72645 -3.05387,-1.79643 -6.53166,-4.76063 -7.72842,-6.58712 -2.001,-3.05389 -5.19517,-4.8814 -18.05242,-10.32841 -10.8987,-4.61727 -14.38699,-5.80876 -21.33334,-7.28683 C 345.3,686.08606 337.5,684.433 332,683.2708 c -12.08271,-2.5532 -16,-5.647 -16,-12.63652 0,-10.96715 18.86264,-28.27002 46.23552,-42.41226 1.33713,-0.69082 7.23115,-2.3734 13.09781,-3.73904 13.32684,-3.10224 46.05518,-3.48554 55.33334,-0.64805 23.201,7.09543 27.62589,8.93352 36.50746,15.16505 2.87428,2.01667 6.03454,3.66667 7.02276,3.66667 0.98824,0 3.17812,-2.85 4.8664,-6.33333 5.16111,-10.64864 12.71608,-23.26034 18.96976,-31.66667 3.27328,-4.4 7.39215,-10.1 9.15306,-12.66666 1.7609,-2.56667 6.47422,-8.73763 10.47405,-13.71326 3.99984,-4.97561 8.10504,-10.67561 9.12268,-12.66666 1.01764,-1.99104 4.10781,-6.99287 6.86704,-11.11516 2.75924,-4.1223 5.01679,-8.3523 5.01679,-9.4 0,-1.04771 0.56297,-2.47492 1.25104,-3.17159 0.68808,-0.69667 2.84241,-6.66667 4.78742,-13.26667 3.07907,-10.44816 3.60358,-14.96922 4.05598,-34.9603 0.50825,-22.45954 0.43444,-23.22086 -3.38408,-34.90597 -2.14702,-6.57012 -4.48474,-13.03799 -5.19492,-14.37303 -1.77514,-3.33696 -4.52003,-10.02315 -8.74558,-21.30301 -5.00454,-13.35939 -9.63994,-19.77506 -25.20282,-34.88219 -27.06586,-26.27325 -34.13992,-32.56345 -35.87335,-31.89828 -0.969,0.37184 -2.73829,4.19659 -3.93176,8.49943 -5.22524,18.83878 -7.76193,29.74897 -7.76193,33.38374 0,2.14846 -0.75,4.65628 -1.66667,5.57295 -1.16107,1.16107 -1.66667,6.88444 -1.66667,18.86667 0,11.98222 0.5056,17.7056 1.66667,18.86666 0.9698,0.9698 1.66667,5.07456 1.66667,9.81722 0,7.35445 -0.39924,8.53304 -4.08755,12.06666 -3.34203,3.20185 -5.22673,3.91296 -10.33333,3.89879 -7.75946,-0.0216 -20.02719,-4.87884 -29.13914,-11.53737 -7.36506,-5.38202 -18.07744,-18.2882 -19.73668,-23.77863 -0.55405,-1.83333 -2.09302,-5.13333 -3.41994,-7.33333 -9.1204,-15.12136 -13.58716,-41.77776 -13.42352,-80.10786 0.0689,-16.14026 -0.38203,-23.4021 -1.54798,-24.92894 -2.18701,-2.86393 -11.00812,-5.98095 -25.6452,-9.06192 -16.66494,-3.50783 -73.01082,-4.78063 -116.66666,-2.63537 -32.04798,1.57484 -47.36943,3.26224 -66,7.26884 -5.13334,1.10393 -14.95494,3.2069 -21.82579,4.67325 -13.88283,2.9628 -70.556984,6.20557 -90.652977,5.18696 -12.7226,-0.64487 -19.445235,-3.26275 -25.939544,-10.10117 l -3.751642,-3.95043 3.084975,-0.69751 c 15.415627,-3.48544 36.648205,-10.51637 43.751641,-14.48788 4.960706,-2.77352 11.863619,-5.53752 18,-7.2074 3.666667,-0.99781 9.043537,-3.04488 11.948587,-4.54905 2.90506,-1.50417 5.98954,-2.73485 6.8544,-2.73485 2.15805,0 10.8841,-4.134 16.53035,-7.83132 l 4.66666,-3.05587 -6.66666,0.90423 c -3.66667,0.49733 -8.16667,1.66857 -10,2.60276 -5.6484,2.8782 -17.549882,7.51769 -27.333337,10.65522 C 76.320087,288.14029 64,294.16697 64,296.02246 c 0,0.72097 -1.124564,1.31087 -2.499031,1.31087 -1.374468,0 -5.103429,0.91888 -8.286582,2.04197 -3.183154,1.12308 -9.708588,2.87135 -14.500968,3.88504 -4.79238,1.01369 -9.763419,2.259 -11.046752,2.76735 -2.081104,0.82436 -2.333334,-0.0352 -2.333334,-7.95126 0,-10.67265 1.534282,-13.89934 10.897284,-22.91772 6.304251,-6.07221 28.120776,-20.41429 31.244508,-20.54 0.655348,-0.0264 2.96324,-1.49596 5.12865,-3.26573 l 3.937108,-3.21777 -2.950604,-8.40095 c -3.691571,-10.51061 -3.804287,-20.78091 -0.303382,-27.64324 3.974624,-7.79091 22.800126,-26.072 40.988973,-39.80361 C 123.22759,165.52933 130.9658,160 131.47188,160 c 0.50608,0 3.38193,-1.98658 6.3908,-4.41462 3.00885,-2.42804 7.57065,-5.22686 10.13732,-6.2196 2.56667,-0.99273 5.56667,-2.5009 6.66667,-3.35149 2.74153,-2.11992 17.88816,-9.07675 26,-11.94176 3.66666,-1.29503 7.86666,-2.83039 9.33333,-3.41191 1.46667,-0.58151 6.86667,-2.3549 12,-3.94085 5.13333,-1.58596 10.53333,-3.39377 12,-4.01738 1.46667,-0.6236 7.16667,-2.45256 12.66667,-4.06435 5.5,-1.6118 10.92306,-3.39054 12.05128,-3.95277 1.1282,-0.56223 4.7282,-1.46426 8,-2.00451 3.27178,-0.54025 6.54872,-1.46129 7.28205,-2.04675 1.3194,-1.05337 7.86161,-2.5952 24.66667,-5.81332 4.76666,-0.9128 9.56666,-2.04646 10.66666,-2.51926 1.1,-0.47279 6.5,-1.53756 12,-2.366167 5.5,-0.828605 13.3,-2.002385 17.33334,-2.6084 10.43973,-1.568585 87.8004,-1.536079 101.33333,0.04259 15.77607,1.840328 44.15751,7.233267 48.66667,9.247467 1.46666,0.65514 5.03602,1.58393 7.9319,2.06397 2.89588,0.48004 6.47939,1.72322 7.96335,2.76262 1.48395,1.0394 4.02919,1.88982 5.65607,1.88982 1.62688,0 3.32878,0.6 3.78201,1.33333 0.45323,0.73334 1.83864,1.33703 3.07869,1.34155 1.24006,0.005 3.86423,0.84797 5.8315,1.87434 1.96726,1.02636 5.54757,2.29896 7.95624,2.82799 2.40865,0.52903 5.29906,1.44433 6.42314,2.034 5.29191,2.77608 19.72896,9.10013 22.71043,9.94815 5.29681,1.50659 44.32619,21.26932 52.66667,26.66805 2.2,1.42406 8.12405,5.50174 13.16454,9.06152 l 9.16456,6.47235 27.50211,1.11636 c 15.12617,0.61401 30.20212,1.74569 33.50212,2.51485 3.3,0.76916 12,2.67779 19.33333,4.24139 7.33334,1.5636 14.37519,3.38063 15.64858,4.03785 1.27338,0.65722 3.37816,1.19494 4.67728,1.19494 3.11181,0 14.31988,5.97585 20.97696,11.18438 8.75313,6.84849 21.32665,18.29321 21.90725,19.94051 0.29888,0.84797 3.44888,4.81154 7,8.80793 3.55113,3.99639 6.4566,7.68609 6.4566,8.19935 0,0.51325 2.17428,4.14348 4.83173,8.06717 7.05272,10.41323 9.83494,17.7164 9.83494,25.81625 0,6.31346 -0.5327,7.69268 -4.66227,12.0713 -4.40329,4.66886 -5.00008,4.89714 -10.74443,4.10978 -6.12724,-0.83982 -11.08074,-4.33136 -26.44209,-18.63798 -8.27304,-7.705 -12.30373,-9.39446 -22.15121,-9.28456 -10.09744,0.11266 -14.40195,1.56944 -21.68738,7.33961 l -5.30353,4.20047 0.91121,10.0556 c 0.50118,5.53057 1.40484,10.67237 2.00816,11.42622 0.60332,0.75384 1.53551,3.47063 2.07154,6.0373 0.53602,2.56666 1.43746,5.26666 2.00321,6 0.56573,0.73333 1.46429,4.03333 1.99679,7.33333 0.53249,3.3 1.42477,6.6 1.98285,7.33333 1.11649,1.46712 3.50724,13.19976 5.84137,28.66667 0.83,5.5 1.99048,10.74346 2.57882,11.65214 1.3711,2.11763 3.99154,48.13622 3.92989,69.01452 -0.0477,16.16567 -2.44757,46.31337 -3.98013,50 -0.45728,1.1 -1.56002,6.2 -2.45051,11.33333 -0.89051,5.13334 -2.53125,12.93334 -3.64611,17.33334 -1.11484,4.4 -2.70997,10.67637 -3.54474,13.9475 -0.83476,3.27114 -2.01704,6.57114 -2.6273,7.33334 -0.61025,0.7622 -1.53538,3.37624 -2.05585,5.80897 -0.52045,2.43273 -1.78605,6.03273 -2.81241,8 -1.02636,1.96727 -1.86982,4.46824 -1.87434,5.55772 -0.004,1.08947 -1.46985,4.98947 -3.2563,8.66667 -1.78644,3.67718 -6.29871,12.9858 -10.02724,20.6858 -8.18671,16.90678 -12.3661,24.04331 -19.39134,33.11174 -15.43709,19.92675 -19.31129,24.67691 -30.49546,37.39052 -6.69416,7.60957 -13.0712,15.19341 -14.1712,16.85296 -2.98458,4.50275 -28.10222,26.41496 -36.94884,32.23352 -11.55164,7.59771 -15.6707,9.31357 -31.71783,13.21253 -8.06667,1.95996 -14.90217,3.76698 -15.19,4.01559 -0.28784,0.24861 0.11507,1.22125 0.89535,2.16143 1.626,1.95921 4.59645,9.8588 8.40609,22.35503 1.45319,4.76667 3.22259,10.50927 3.93201,12.76134 2.88391,9.15486 0.39455,50.23969 -3.50852,57.90533 -2.1402,4.20335 -10.12905,16.65953 -17.2016,26.82064 -3.52882,5.06985 -10.34328,10.05575 -19.33333,14.14551 -8.78517,3.99656 -27.55421,5.79142 -30.33333,2.90076 z m 28.55244,-11.97148 c 10.38301,-4.95535 18.43373,-14.60996 31.04408,-37.22876 2.66342,-4.77731 4.97404,-41.04572 3.03568,-47.64927 -0.81003,-2.75957 -2.42931,-8.3174 -3.59839,-12.35073 -2.3582,-8.13584 -5.00345,-15.13733 -8.94808,-23.68392 -2.73477,-5.92529 -2.36293,-13.41975 0.70667,-14.24275 0.8475,-0.22722 8.74093,-2.08621 17.54093,-4.13108 16.54656,-3.84493 20.73604,-5.5132 28.66667,-11.4152 2.56666,-1.91013 5.3446,-3.71013 6.17318,-4 1.59886,-0.55936 15.74812,-12.95018 24.97047,-21.86721 6.22184,-6.01585 22.80008,-24.51563 26.85635,-29.96919 1.46666,-1.9719 3.56666,-4.49574 4.66666,-5.60856 3.66404,-3.70668 24.1512,-31.32846 28.99251,-39.0891 2.03744,-3.26603 13.03544,-25.79565 16.59392,-33.99299 1.43255,-3.3 3.16164,-7.04185 3.84243,-8.31524 0.6808,-1.27338 1.2415,-3.07338 1.24602,-4 0.004,-0.92661 0.84798,-3.29434 1.87434,-5.26161 1.02636,-1.96727 2.29196,-5.56727 2.81241,-8 0.52047,-2.43273 1.4456,-5.04677 2.05585,-5.80897 1.06507,-1.33027 1.67922,-3.45452 6.15258,-21.28084 5.01122,-19.96974 10.03181,-57.14949 10.08264,-74.66667 0.0515,-17.74413 -2.68104,-63.10668 -3.91632,-65.01452 -0.58834,-0.90868 -1.74882,-6.15214 -2.57882,-11.65214 -2.33413,-15.46691 -4.72488,-27.19955 -5.84137,-28.66667 -0.55808,-0.73333 -1.45036,-4.03333 -1.98285,-7.33333 -0.5325,-3.3 -1.43106,-6.6 -1.99679,-7.33333 -0.56575,-0.73334 -1.46719,-3.43334 -2.00321,-6 -0.53603,-2.56667 -1.43848,-5.26667 -2.00544,-6 -0.56698,-0.73334 -1.45346,-5.05614 -1.96995,-9.60624 -0.51649,-4.5501 -1.78333,-8.97356 -2.81519,-9.82992 C 684.84424,275.04081 684,273.2871 684,272.00006 c 0,-1.28704 -3.69855,-6.75597 -8.21899,-12.15319 -4.52045,-5.39721 -10.30174,-13.1207 -12.84732,-17.16333 -2.54557,-4.04261 -6.21726,-8.64215 -8.15932,-10.22119 -1.94205,-1.57902 -4.93446,-5.86742 -6.64982,-9.52977 -2.37674,-5.07443 -5.2213,-8.17944 -11.95502,-13.04964 C 622.75549,200.18119 605.55856,184.25458 605.08661,181.0961 604.56716,177.6196 590.47884,167.71052 574,159.23118 548.98076,146.35732 539.22792,141.59762 536,140.686 c -1.83333,-0.51778 -6.98075,-2.68395 -11.43871,-4.81371 C 520.10335,133.74253 515.48876,132 514.30665,132 c -1.1821,0 -2.49156,-0.55384 -2.90992,-1.23075 -0.41836,-0.67692 -2.59418,-1.63347 -4.83517,-2.12567 -2.24099,-0.4922 -5.68411,-1.73467 -7.65137,-2.76104 -1.96727,-1.02636 -4.59144,-1.86981 -5.8315,-1.87433 -1.24005,-0.005 -2.62546,-0.60821 -3.07869,-1.34155 -0.45323,-0.73333 -2.15513,-1.33333 -3.78201,-1.33333 -1.62688,0 -4.17212,-0.85042 -5.65607,-1.88982 -1.48396,-1.0394 -5.06747,-2.28258 -7.96335,-2.76262 -2.89588,-0.48004 -6.46524,-1.40883 -7.9319,-2.06398 -4.50916,-2.0142 -32.8906,-7.40714 -48.66667,-9.24747 -13.52712,-1.57798 -82.90381,-1.60963 -93.33333,-0.0426 -4.03334,0.60601 -11.83334,1.77979 -17.33334,2.6084 -5.5,0.8286 -10.9,1.89338 -12,2.36617 -1.1,0.47279 -5.9,1.60645 -10.66666,2.51926 -16.80506,3.21811 -23.34727,4.75994 -24.66667,5.81331 -0.73333,0.58547 -3.88019,1.48453 -6.99301,1.99792 -3.11283,0.51339 -5.99824,1.48123 -6.41203,2.15075 -0.41379,0.66953 -2.02463,1.21733 -3.57965,1.21733 -2.6309,0 -16.95255,4.18149 -23.01531,6.71977 -1.46667,0.61404 -6.86667,2.41404 -12,4 -5.13333,1.58595 -10.53333,3.35933 -12,3.94085 -1.46667,0.58152 -5.66667,2.12206 -9.33333,3.4234 -6.5448,2.32286 -22.74847,9.79906 -28,12.91891 -1.46667,0.87132 -5.06667,3.09289 -8,4.93684 -8.48339,5.33281 -10.5375,6.56089 -12.66667,7.57304 -5.4557,2.59347 -30.02752,22.27617 -40.431952,32.38712 -12.070761,11.73025 -16.901381,18.78501 -16.901381,24.68317 0,1.84581 1.520197,7.39481 3.378217,12.33111 4.235487,11.25265 3.544201,14.93845 -3.954156,21.08278 -3.134288,2.56832 -6.173105,4.66967 -6.752925,4.66967 -0.579822,0 -6.200763,3.09744 -12.490982,6.8832 -12.232394,7.36204 -24.180154,18.03753 -24.180154,21.60531 0,2.66229 -1.209738,2.7782 10.666666,-1.02195 17.10745,-5.47396 25.947714,-8.90692 27.333334,-10.61444 1.509609,-1.86029 5.77897,-3.55528 17.333333,-6.88149 4.4,-1.26666 12.18372,-4.1086 17.29715,-6.31546 8.72077,-3.76368 10.57276,-4.04664 29.87314,-4.56406 11.3168,-0.3034 21.78348,-1.19786 23.25927,-1.98767 4.12872,-2.20963 26.93556,-0.1482 33.08836,2.99073 2.764,1.41008 8.34952,3.80748 12.41228,5.32756 7.21651,2.70004 8.93175,2.74684 74.39497,2.02994 55.48627,-0.60764 68.38375,-0.40496 75.00816,1.17873 l 8,1.91256 -5.41456,-4.93815 c -2.978,-2.71597 -7.178,-5.98584 -9.33333,-7.26636 -15.63453,-9.28877 -15.91877,-9.55826 -15.91877,-15.093 0,-4.96446 0.23669,-5.26817 4.41849,-5.66961 3.42741,-0.32903 5.67045,0.60001 10,4.14188 3.06983,2.51133 8.28151,5.91127 11.58151,7.5554 3.3,1.64415 9.13654,6.23029 12.9701,10.19144 3.83356,3.96116 7.51316,7.20211 8.17687,7.20211 2.79752,0 7.87036,14.43536 9.37113,26.66666 1.89796,15.46831 1.11022,42.58161 -1.28008,44.05889 -1.25805,0.77754 -1.45728,5.61728 -0.82944,20.14888 1.26424,29.2613 4.77359,45.34911 13.44974,61.65748 1.91125,3.59256 3.47501,7.24956 3.47501,8.12668 0,0.87712 1.26143,2.73635 2.80317,4.1316 1.54175,1.39527 3.62399,4.12412 4.6272,6.06412 3.3831,6.54219 23.94018,18.47902 31.82375,18.47902 5.94339,0 9.88008,-8.9984 5.74588,-13.13383 -1.19781,-1.19817 -1.66667,-7.81847 -1.66667,-23.53348 0,-15.71533 0.46883,-22.33509 1.66667,-23.53283 0.91667,-0.9166 1.66667,-3.12436 1.66667,-4.90614 0,-2.89867 1.73766,-10.39291 7.31778,-31.56039 0.9666,-3.66667 2.78067,-15.36667 4.03126,-26 l 2.2738,-19.33333 -8.89972,-16.20224 c -7.37395,-13.42451 -8.82744,-17.08191 -8.4781,-21.33333 0.40223,-4.89491 0.63646,-5.1311 5.08831,-5.1311 4.41109,0 4.94143,0.51116 9.68357,9.33334 2.7593,5.13333 6.20896,11.73333 7.66592,14.66666 1.45696,2.93334 3.52475,6.46435 4.59507,7.84671 1.07032,1.38235 2.33036,5.07615 2.80007,8.20844 0.81258,5.41871 1.14234,5.76769 6.7948,7.19099 6.7904,1.70985 25.7939,10.68035 25.7939,12.17589 0,1.16586 9.96898,8.5556 23.83735,17.66998 12.46503,8.1921 23.61307,19.27958 29.91156,29.74907 2.70477,4.49593 4.91776,8.52815 4.91776,8.96049 0,0.43234 1.44096,3.95386 3.20212,7.82558 1.76117,3.87173 5.41369,12.73952 8.11673,19.70618 4.60679,11.87331 4.96116,13.85264 5.65795,31.60174 0.78321,19.95073 -0.37281,31.17395 -5.18876,50.37433 -2.39101,9.53254 -5.65965,17.50086 -7.94044,19.35726 -0.45049,0.36667 -3.56909,4.86667 -6.93024,10 -6.08176,9.28844 -7.3268,11.04366 -13.24103,18.66667 -1.70685,2.2 -4.28228,6.54312 -5.72318,9.65137 -1.4409,3.10826 -3.32168,5.65826 -4.17951,5.66667 -1.51105,0.0148 -15.06396,17.60448 -15.14931,19.66155 -0.0233,0.56122 -2.17034,3.12041 -4.77125,5.68708 -2.60091,2.56666 -5.37688,5.86666 -6.16884,7.33333 -0.79196,1.46667 -4.82995,7.16666 -8.97329,12.66666 -8.1076,10.76224 -16.09864,24.25332 -21.32355,36 -1.79401,4.03334 -3.85648,8.13506 -4.58327,9.11494 -2.03602,2.74505 -7.9877,0.90564 -15.8406,-4.89563 -3.85225,-2.84583 -8.49496,-5.6328 -10.31714,-6.19328 -1.82218,-0.56048 -3.91306,-1.49457 -4.64639,-2.07575 -1.26193,-1.0001 -9.96365,-4.02656 -23.33333,-8.11533 -9.0976,-2.78227 -35.8018,-2.41884 -47.33334,0.64419 -11.0928,2.94649 -29.0214,11.27709 -31.47692,14.62588 -0.44565,0.60776 -4.04565,3.34816 -8,6.08977 -7.52504,5.21721 -16.3088,15.41985 -15.47841,17.97872 0.43851,1.35129 7.75489,3.31863 28.95533,7.78595 6.82526,1.4382 10.43091,2.65712 20.66667,6.98649 2.2,0.93053 6.492,2.73833 9.53777,4.01733 3.04579,1.27902 8.66398,5.26051 12.4849,8.84776 3.8209,3.58727 7.73805,6.5223 8.70476,6.5223 0.9667,0 3.03937,1.8 4.6059,4 1.56654,2.2 3.8874,4 5.15746,4 1.27006,0 2.87921,0.50082 3.57588,1.11296 2.5472,2.23808 13.4711,5.50624 21.26666,6.36245 10.75882,1.18167 12.66667,3.05705 12.66667,12.4511 0,11.68091 3.38996,22.52404 13.68717,43.7798 1.32403,2.73308 10.02471,10.41356 18.81656,16.61024 6.05179,4.26542 14.0784,25.64835 12.03934,32.07286 -0.47919,1.50978 -3.49703,6.08981 -6.70632,10.17782 -3.2093,4.08802 -5.83546,7.96006 -5.83591,8.60454 -10e-4,2.21614 14.00497,-0.68983 22.21827,-4.60968 z M 160.34991,244.62834 c -3.1967,-2.23905 -5.10167,-9.4516 -3.83223,-14.50945 1.13419,-4.51892 8.35877,-8.56686 16.90844,-9.47379 14.29735,-1.51663 20.85217,3.47641 19.18231,14.61185 -1.32006,8.80274 -5.7146,11.39798 -19.31175,11.40472 -6.85419,0.004 -10.95941,-0.64133 -12.94677,-2.03333 z m 18.31676,-9.99468 c 0,-3.15872 -0.78359,-4.33092 -3.61463,-5.40728 -5.7464,-2.18479 -9.71871,-0.54119 -9.71871,4.02124 0,4.37259 1.24191,5.16448 8.33334,5.31377 4.69896,0.0989 5,-0.13754 5,-3.92773 z M 557.1256,524.99999 c 1.49728,-2.38334 4.65785,-7.03334 7.02351,-10.33334 9.01634,-12.5775 13.96656,-38.33081 12.89493,-67.08557 -0.63972,-17.16541 -2.61183,-24.20369 -13.22311,-47.19216 C 561.71941,395.83618 560,391.48618 560,390.72226 c 0,-0.76391 -0.52721,-1.38894 -1.17157,-1.38894 -0.64436,0 -1.97675,-1.95 -2.96084,-4.33333 -2.44226,-5.91477 -17.46252,-20.83569 -27.20379,-27.02385 -8.00573,-5.08566 -22.3948,-15.67115 -25.81736,-18.99287 -3.10005,-3.00871 -16.59241,-9.22498 -21.76192,-10.02628 -5.47209,-0.84818 -5.94941,0.0148 -6.65144,12.02613 -0.29156,4.98831 0.16863,6.01784 3.93051,8.79326 2.34338,1.7289 5.43108,4.63133 6.86152,6.44985 1.43044,1.81851 6.83997,6.52917 12.02118,10.46813 5.1812,3.93896 9.42038,7.59662 9.42038,8.12814 0,0.5315 4.65037,5.67334 10.33416,11.4263 12.5122,12.66447 17.72697,20.30578 22.4357,32.87554 4.22555,11.27986 6.97044,17.96605 8.74558,21.30301 0.71018,1.33504 3.11545,7.93504 5.34502,14.66667 l 4.05378,12.2393 -0.67295,26.66667 c -0.37012,14.66666 -1.28395,28.61666 -2.03072,31 -0.74676,2.38333 -1.15891,4.33333 -0.91587,4.33333 0.24304,0 1.66694,-1.95 3.16423,-4.33333 z M 101.41053,315.90697 c 19.03584,-0.92867 33.54427,-2.34614 41.5802,-4.06238 6.78843,-1.44981 16.5426,-3.53925 21.67594,-4.64318 30.09037,-6.47108 79.59665,-9.32828 139.33333,-8.0415 39.32165,0.84703 58.26911,2.92279 66.24568,7.25744 6.06396,3.29531 6.78273,2.33936 6.07839,-8.08402 -0.35927,-5.31667 -1.44428,-10.57539 -2.41115,-11.68604 -0.96688,-1.11066 -4.64281,-2.84787 -8.16877,-3.86048 -3.52595,-1.0126 -7.19644,-2.45692 -8.15664,-3.20959 -2.64006,-2.06941 -55.91006,-3.75979 -72.92084,-2.31395 -20.77415,1.76572 -67.37087,1.74456 -74.99112,-0.0341 -3.48822,-0.81411 -10.24222,-3.36105 -15.00888,-5.65981 -7.66499,-3.69651 -9.97656,-4.17404 -20,-4.13174 -6.23334,0.0263 -15.28239,0.8682 -20.10902,1.87086 -7.27346,1.51094 -9.14581,2.46793 -10.93798,5.5906 -1.29228,2.25169 -3.28867,3.76761 -4.96172,3.76761 -1.53968,0 -5.00687,1.5 -7.70487,3.33333 -2.69799,1.83334 -5.62012,3.33334 -6.49363,3.33334 -0.8735,0 -3.31442,1.45253 -5.42426,3.22784 -2.10984,1.77532 -7.70587,4.20618 -12.43563,5.40192 -4.72976,1.19574 -10.490237,3.04321 -12.801065,4.10549 -2.310828,1.06228 -5.140472,1.93141 -6.288098,1.93141 -1.930584,0 -6.003914,1.53238 -16.177064,6.08574 -5.371278,2.4041 -20.666317,7.2476 -22.886874,7.2476 -2.965002,0 -1.991551,2.44041 1.220208,3.05902 5.687362,1.09543 22.59031,0.93687 51.743863,-0.48538 z M 776.8106,274.99999 c 0.9742,-1.28333 1.79033,-3.61005 1.81367,-5.1705 0.0539,-3.60842 -3.42674,-11.9967 -7.11012,-17.13518 -3.49086,-4.86986 -5.65768,-8.46422 -7.37639,-12.23604 -0.72055,-1.58126 -3.29828,-4.88126 -5.72832,-7.33333 -2.43003,-2.45205 -6.75231,-7.32509 -9.60507,-10.82897 C 739.80936,211.2479 718.27045,196 711.65919,196 c -1.29912,0 -3.4039,-0.53772 -4.67728,-1.19494 -1.27339,-0.65722 -8.31524,-2.47425 -15.64858,-4.03785 C 684,189.20361 675.3,187.28509 672,186.50382 c -9.46441,-2.24069 -45.97372,-3.28534 -44.73436,-1.28001 0.86204,1.39479 7.16617,6.47012 25.20855,20.29485 2.09414,1.6046 4.97982,5.66933 6.41262,9.03273 1.4328,3.3634 4.38131,7.51807 6.55224,9.23259 2.17092,1.71453 4.92452,5.01453 6.11908,7.33333 2.98783,5.79974 19.09938,26.29619 21.34914,27.15951 1.00718,0.38649 4.09458,-0.86577 6.86088,-2.78283 9.36444,-6.48956 30.49497,-7.86241 40.59862,-2.6377 6.20459,3.20846 11.62871,7.42289 11.66199,9.06112 0.0159,0.77876 3.28265,3.7468 7.25965,6.59566 3.97699,2.84886 7.54523,5.99886 7.9294,7 0.99731,2.59894 7.49422,2.25146 9.59279,-0.51308 z"
       id="path3189" />
  </g>
</svg>
