<?xml version="1.0" encoding="UTF-8" standalone="no"?>
<!-- Created with Inkscape (http://www.inkscape.org/) -->

<svg
   version="1.1"
   id="svg2708"
   width="165.27345"
   height="618.01959"
   viewBox="0 0 165.27346 618.0196"
   sodipodi:docname="cv3.svg"
   inkscape:version="1.2.2 (732a01da63, 2022-12-09, custom)"
   xmlns:inkscape="http://www.inkscape.org/namespaces/inkscape"
   xmlns:sodipodi="http://sodipodi.sourceforge.net/DTD/sodipodi-0.dtd"
   xmlns="http://www.w3.org/2000/svg"
   xmlns:svg="http://www.w3.org/2000/svg">
  <defs
     id="defs2712" />
  <sodipodi:namedview
     id="namedview2710"
     pagecolor="#ffffff"
     bordercolor="#000000"
     borderopacity="0.25"
     inkscape:showpageshadow="2"
     inkscape:pageopacity="0.0"
     inkscape:pagecheckerboard="0"
     inkscape:deskcolor="#d1d1d1"
     showgrid="false"
     inkscape:zoom="0.90028971"
     inkscape:cx="88.860285"
     inkscape:cy="430.97238"
     inkscape:window-width="1920"
     inkscape:window-height="1031"
     inkscape:window-x="0"
     inkscape:window-y="25"
     inkscape:window-maximized="1"
     inkscape:current-layer="layer1" />
  <g
     inkscape:groupmode="layer"
     id="layer1"
     inkscape:label="Layer 1"
     transform="translate(27.212511,182.59344)">
    <path
       style="fill:#000000;stroke-width:1.99925"
       d="M 83.773417,431.23965 C 68.277989,418.46702 62.607213,390.57846 69.743882,362.24321 c 6.198392,-24.60993 7.238974,-35.8342 3.654445,-39.41874 -1.6575,-1.65749 -12.058272,-6.83018 -23.112829,-11.49489 C 26.413193,301.25618 16.07292,292.36107 11.550939,278.00853 7.9093558,266.4503 5.2821132,246.55395 7.547364,247.68908 c 10.104363,5.06333 25.110418,11.59305 26.642159,11.59305 2.427518,0 2.419061,-0.9679 -0.124251,-14.22164 -1.136571,-5.9229 -1.505992,-14.15051 -0.82094,-18.28357 l 1.245556,-7.51464 9.003184,10.0137 c 4.95175,5.50753 9.944424,10.01372 11.094831,10.01372 1.347039,0 1.700133,-4.31772 0.991858,-12.1287 -1.457905,-16.07803 -7.243944,-24.47393 -27.484598,-39.88183 -22.9851963,-17.49713 -35.6541212,-36.01852 -40.526549,-59.24798 -2.561819,-12.21354 -1.581668,-14.20269 4.9061259,-9.95655 2.5694682,1.68163 8.6330927,3.68986 13.4747152,4.46269 9.4946549,1.51556 9.4737379,1.60521 2.146406,-9.20003 C 6.2317154,110.58834 3.2014447,103.74643 1.3619256,98.133057 -2.4122974,86.615821 -12.708857,69.353938 -15.804555,69.353938 c -4.430151,0 -1.697824,-3.727781 4.252791,-5.802159 9.8144827,-3.421357 21.955724,-2.629333 29.415994,1.918886 3.69766,2.2543 7.20841,3.613351 7.801665,3.0201 C 26.25915,67.8975 25.161003,61.562034 23.225568,54.411954 19.371861,40.175218 9.0957049,23.86637 -5.4581325,8.8892834 -16.774036,-2.755685 -15.359912,-5.4089924 1.4331954,-4.0406988 c 6.4389931,0.5246413 13.4437516,1.2840865 15.5661316,1.6876847 3.210431,0.6104599 4.338484,-1.1979486 6.713038,-10.7618809 4.268575,-17.192437 7.244618,-15.305052 14.973958,9.4964176 8.456825,27.1357804 10.478676,43.2365054 9.540091,75.9712774 -1.83194,63.89218 -1.327153,77.17443 3.305155,86.96713 l 4.255724,8.9966 0.168455,-38.68729 C 56.096692,97.259988 57.945115,65.234447 64.74262,-22.611297 l 0.696157,-8.996602 h -16.15294 c -17.698848,0 -25.105392,-2.613385 -36.916109,-13.025728 -3.722653,-3.281904 -7.9270104,-5.967091 -9.3430188,-5.967091 -4.3312291,0 -15.2624742,-10.430935 -18.1343942,-17.30442 -2.978582,-7.128748 -0.896254,-16.573597 3.707913,-16.818045 1.4016971,-0.07442 0.64229,-1.058915 -1.687573,-2.187766 -5.254621,-2.545941 -11.833432,-14.223951 -13.597749,-24.137291 -2.665966,-14.97952 5.121676,-30.01828 15.54461,-30.01828 4.4195881,0 4.7551168,-0.63731 3.8577781,-7.32747 -0.8817166,-6.57368 -0.151661,-8.07836 7.09682732,-14.62693 15.60746058,-14.1004 32.07055258,-14.95335 37.93488058,-1.96538 l 3.352992,7.42601 0.625924,-8.43992 c 0.470026,-6.33779 1.967346,-9.49815 6.011673,-12.68869 16.455892,-12.98193 65.624929,8.51112 76.737399,33.54389 4.61984,10.407 3.23649,17.0187 -4.89166,23.37994 l -6.06351,4.74541 9.21225,4.07502 c 12.36986,5.47178 13.27858,9.92557 6.29632,30.859866 -3.02492,9.069347 -6.49725,19.541892 -7.71628,23.272333 -3.30483,10.113247 -11.37286,15.209078 -24.079973,15.209078 H 86.656922 L 85.326103,-3.6184774 C 84.594159,18.373204 83.460837,41.76436 82.807597,48.361872 l -1.187702,11.995464 5.43164,-7.996986 c 6.475573,-9.533922 11.71937,-14.084589 20.797365,-18.048389 7.67819,-3.352581 20.2481,-3.938869 20.2481,-0.944431 0,1.099588 -0.90151,1.999247 -2.00338,1.999247 -2.14969,0 -19.9883,23.307207 -19.9883,26.115915 0,0.926826 4.27338,1.202859 9.4964,0.613409 6.51913,-0.735714 10.67779,-0.182735 13.26454,1.76385 3.57755,2.69212 3.4066,3.059004 -3.38012,7.253412 -10.60659,6.555249 -26.345736,24.695173 -36.407461,41.960917 -8.210522,14.08912 -8.892995,16.32893 -8.913217,29.25207 -0.01201,7.69709 0.558574,20.14182 1.268049,27.65497 l 1.289954,13.66027 6.756653,-1.26757 c 6.254071,-1.17327 6.686113,-0.92532 5.808376,3.33332 -0.521555,2.53047 -1.508431,8.06907 -2.193064,12.30796 -1.806554,11.18536 2.633301,8.66024 9.98799,-5.68056 9.52859,-18.57965 9.49773,-38.14262 -0.0975,-61.81181 -1.41329,-3.48629 -0.81505,-3.70879 7.11263,-2.64548 17.06678,2.28913 27.9062,16.32545 27.96179,36.20864 0.0497,17.79475 -2.9463,24.66803 -20.12729,46.17443 -20.069576,25.12219 -22.84119,32.18642 -22.763216,58.01821 0.05306,17.55546 0.966869,22.7743 7.497166,42.81412 4.09025,12.55191 7.43681,25.66333 7.43681,29.13653 0,3.47319 -2.24915,13.82923 -4.99811,23.01346 -6.531885,21.82289 -6.376317,26.28061 1.21909,34.93129 l 6.21722,7.081 -8.1057,13.64391 c -11.227199,18.8982 -12.085522,19.4108 -20.662882,12.34061 z"
       id="path3189" />
    <path
       id="path3228"
       style="fill:#008000;stroke-width:1.99925"
       d="M 77.668348 -45.200862 C 76.92566 -45.328882 75.943908 -44.087368 74.195692 -41.212581 C 71.46651 -36.724675 70.514076 -28.227047 69.424208 1.3792163 C 68.675368 21.721504 67.160942 47.361895 66.058973 58.357732 C 61.674065 102.1119 62.260246 170.74081 67.193739 191.14094 L 68.363661 195.97101 L 73.078505 191.14094 C 77.457703 186.65483 77.655184 185.52545 75.849989 175.31476 C 72.910509 158.68826 73.496761 91.43994 76.982801 45.363591 C 80.188887 2.9875796 81.051007 -37.83822 78.859755 -43.548518 C 78.473586 -44.554858 78.113962 -45.12405 77.668348 -45.200862 z M 30.170302 -12.614924 C 29.331714 -12.614924 28.101826 -9.2181921 27.43788 -5.0660962 C 26.773932 -0.9140156 25.063074 4.0807124 23.635145 6.0335131 C 21.159253 9.4195057 20.624808 9.3961385 12.092177 5.5257006 C -4.0762965 -1.8083998 -5.2902233 0.16301691 7.0179578 13.763982 C 24.735893 33.342932 34.605607 58.546753 31.349989 75.900701 L 29.941786 83.40656 L 23.43202 78.441716 C 15.697678 72.542419 3.8843283 67.353826 -1.8179797 67.353826 C -5.764286 67.353826 -5.727783 67.62875 -0.80040162 75.074529 C 2.009067 79.319923 7.4216559 90.726206 11.228895 100.42414 C 15.036131 110.12204 19.499143 120.11354 21.144911 122.62531 C 22.790678 125.13708 24.137098 128.1218 24.137098 129.26008 C 24.137098 132.28101 11.944968 131.78875 2.2757703 128.37726 C -6.0153868 125.45197 -6.0804768 125.46638 -4.8785266 129.87726 C -4.211301 132.32584 0.11490262 141.93888 4.7367078 151.24054 C 12.730349 167.32827 14.104058 168.87911 32.90077 183.03351 C 43.768743 191.21735 54.113769 200.46933 55.891005 203.59406 C 57.668242 206.71878 59.478113 209.28046 59.912489 209.28742 C 60.346865 209.29342 60.164047 202.88179 59.506239 195.03547 C 58.639755 184.70004 57.210634 179.59826 54.316786 176.51789 C 41.691082 163.07843 38.586328 142.33668 41.566786 91.346013 C 42.498728 75.402058 42.664409 52.909214 41.935927 41.363591 C 40.658536 21.118357 33.305546 -12.614924 30.170302 -12.614924 z M 115.02382 36.365544 L 109.06483 40.123357 C 92.925677 50.300384 83.670718 66.452213 80.193739 90.508123 C 76.205583 118.10062 77.709326 120.51182 87.857801 102.79914 C 96.150242 88.32586 107.1584 75.954467 115.80702 71.385076 C 121.97202 68.127895 122.39275 67.518374 118.53554 67.443669 C 116.02616 67.395169 110.74477 68.704453 106.79725 70.353826 C 102.84974 72.003199 98.872065 73.351873 97.959364 73.351873 C 94.854223 73.351873 101.89758 54.707151 108.47304 45.519841 L 115.02382 36.365544 z M 113.22304 131.81086 C 113.01873 131.839 112.84548 131.92084 112.70741 132.0589 C 112.21669 132.54961 113.22903 137.11653 114.95741 142.20734 C 122.43785 164.24044 115.21889 191.3291 96.408583 211.805 C 90.011158 218.76887 88.184325 216.33838 88.142958 200.805 C 88.126088 194.4824 87.281218 189.3089 86.266005 189.3089 C 81.928909 189.3089 72.328126 199.96171 68.367567 209.16828 C 66.012097 214.6437 63.512089 225.91066 62.810927 234.20539 C 62.109765 242.5001 61.171944 249.28547 60.728895 249.28547 C 58.5183 249.28547 48.516062 243.16667 46.236708 240.42023 C 41.809825 235.08615 40.578699 236.92519 42.322645 246.26008 C 44.450513 257.64999 48.311389 265.05899 60.537489 281.20929 C 72.967832 297.62941 82.542639 317.61205 83.68788 329.5257 C 84.270563 335.58727 82.769683 345.81178 79.348036 359.09406 C 71.578753 389.25316 72.55536 404.55722 83.135145 418.42804 C 89.490049 426.75975 91.351686 426.87907 95.701551 419.23469 C 97.574691 415.9429 99.78311 413.2436 100.6078 413.23664 C 103.97654 413.20824 101.77759 405.61581 97.139051 401.25812 C 89.24995 393.84669 88.786867 385.37647 95.303114 367.65851 C 102.69551 347.55826 102.41789 334.11092 93.99452 304.56672 C 88.262512 284.46221 87.739431 280.40899 88.678114 263.28156 C 90.041298 238.40883 93.775517 228.6722 108.33436 212.02961 C 129.59282 187.72848 136.12611 168.45487 129.2289 150.39484 C 126.33284 142.81162 116.2876 131.38872 113.22304 131.81086 z M 17.914442 261.77375 C 16.538061 261.73888 16.139052 262.97332 16.139052 266.12922 C 16.139052 273.92083 20.814569 283.48075 27.943739 290.26984 C 33.549972 295.60864 69.984982 315.26284 71.859755 313.95929 C 72.267861 313.67555 69.667181 308.23038 66.078505 301.85773 C 62.489828 295.48508 55.712765 285.27147 51.019911 279.16047 C 43.705522 269.63572 41.107206 267.72838 32.81288 265.805 C 27.491305 264.57096 21.561369 262.95194 19.637098 262.20734 C 18.939536 261.93742 18.373236 261.78537 17.914442 261.77375 z " />
    <path
       id="path3268"
       style="fill:#5599ff;stroke-width:1.99925"
       d="M 61.076552 -176.27703 C 56.243765 -176.22769 53.293323 -175.44037 51.12538 -173.74969 C 47.67262 -171.057 47.537763 -170.35744 50.127333 -168.62469 C 54.610615 -165.6248 72.782352 -166.13944 77.230848 -169.39227 C 82.685069 -173.38047 79.817586 -175.18201 66.578505 -176.08563 C 64.508497 -176.22691 62.68748 -176.29348 61.076552 -176.27703 z M 87.226942 -169.40203 C 86.272973 -169.37823 86.113661 -168.55993 86.113661 -167.05633 C 86.113661 -162.79102 93.218308 -155.81255 105.56874 -147.94696 C 113.94995 -142.60924 117.69143 -135.6012 115.37929 -129.57586 C 113.99613 -125.97141 116.36772 -125.63851 119.6996 -128.97039 C 127.39734 -136.66814 115.75136 -154.67312 96.185926 -165.32196 C 90.992026 -168.14884 88.453474 -169.43264 87.226942 -169.40203 z M 24.685927 -168.3493 C 21.733532 -168.51995 18.077647 -167.54843 13.127333 -165.65789 C -2.1447872 -159.82542 -6.8103155 -149.09997 1.8949109 -139.83367 C 4.2315248 -137.34647 6.1405037 -134.92002 6.1370984 -134.4411 C 6.1337584 -133.96217 1.5561559 -133.56111 -4.0347766 -133.55047 C -16.469185 -133.52677 -19.847277 -129.88223 -19.847277 -116.48992 C -19.847277 -103.10028 -13.08495 -93.535139 -3.7476672 -93.720393 C 0.04248121 -93.795583 5.8422549 -94.605082 9.1410046 -95.519221 C 15.132983 -97.179695 15.136068 -97.177971 11.377333 -92.935237 C 9.308044 -90.599494 5.7102836 -88.112139 3.381239 -87.407893 C -2.3906285 -85.662629 -9.8511829 -78.570648 -9.8511829 -74.827815 C -9.8511829 -70.877725 4.046469 -56.599299 7.8910046 -56.599299 C 9.5055345 -56.599299 12.476925 -58.091754 14.49452 -59.917659 C 19.150638 -64.131386 21.215719 -62.267595 17.853895 -56.884456 C 14.390558 -51.338786 16.217505 -50.13881 23.998427 -52.851252 C 32.540327 -55.828981 49.69014 -53.946758 59.387098 -48.966487 C 63.640296 -46.78209 67.901573 -45.475022 68.855848 -46.06219 C 69.810124 -46.649359 70.056464 -51.019792 69.404676 -55.775081 C 68.100946 -65.286858 71.350713 -69.88455 74.992567 -63.679377 C 76.160173 -61.689938 79.31142 -57.375182 81.99452 -54.091487 C 86.6163 -48.435128 87.457718 -48.180287 97.988661 -49.259456 C 106.64609 -50.146633 110.09843 -51.550754 113.60194 -55.609065 C 119.71253 -62.687261 119.35829 -68.153895 112.60194 -71.050471 L 107.10585 -73.407893 L 113.10194 -74.111018 C 118.17842 -74.706377 119.79414 -76.409094 123.61171 -85.198909 C 129.81665 -99.485569 129.44383 -103.81876 121.59999 -108.60125 C 118.02633 -110.78014 113.15209 -112.56589 110.76796 -112.57 C 108.38383 -112.574 105.01021 -113.12363 103.27186 -113.79071 C 100.58242 -114.82273 100.85632 -115.8885 105.1078 -120.9411 C 110.04004 -126.80272 111.43577 -133.54749 108.5746 -137.69891 C 107.76675 -138.87107 102.76346 -142.78515 97.457411 -146.39617 C 92.151364 -150.00719 86.272209 -155.48959 84.392958 -158.57977 C 81.581121 -163.20345 80.322703 -163.83352 77.279676 -162.13055 C 75.208418 -160.97142 67.619354 -160.48776 60.027723 -161.03094 L 46.474989 -161.99969 L 47.545302 -150.78289 C 48.568923 -140.05658 48.458328 -139.71661 45.037489 -142.97235 C 43.070082 -144.8448 39.137299 -151.14186 36.297255 -156.96649 C 32.570013 -164.61067 29.606584 -168.06488 24.685927 -168.3493 z M 31.387098 -47.986018 C 24.922446 -48.025141 20.137098 -46.900945 20.137098 -44.726252 C 20.137098 -39.022034 52.823024 -33.947168 60.064833 -38.527034 C 64.113883 -41.087725 63.005015 -41.754466 48.058973 -45.732112 C 42.460645 -47.222011 36.415161 -47.955589 31.387098 -47.986018 z " />
    <path
       id="path3264"
       style="fill:#ff5599;stroke-width:1.99925"
       d="M 62.121473 -142.5661 C 57.034968 -142.5661 54.822982 -137.54729 58.144911 -133.54461 C 59.502149 -131.90923 61.291165 -130.57 62.121473 -130.57 C 65.033773 -130.57 68.555439 -136.54696 67.40663 -139.54071 C 66.768331 -141.20408 64.389659 -142.5661 62.121473 -142.5661 z M 39.959364 -138.23797 C 35.478667 -138.20807 33.227703 -133.06955 36.412489 -129.23211 C 39.997063 -124.91297 45.129286 -126.89399 45.129286 -132.59735 C 45.129286 -136.14086 43.910479 -137.74186 40.885145 -138.17352 C 40.567557 -138.21883 40.258077 -138.23996 39.959364 -138.23797 z M 81.943739 -132.23992 C 77.463043 -132.21002 75.212079 -127.0715 78.396864 -123.23406 C 81.981431 -118.91492 87.111708 -120.89596 87.111708 -126.5993 C 87.111708 -130.14283 85.894862 -131.74381 82.86952 -132.17547 C 82.551932 -132.22078 82.242452 -132.24192 81.943739 -132.23992 z M 55.742567 -126.54071 C 50.441852 -126.58871 49.779144 -123.43827 53.46327 -115.71258 C 55.334522 -111.78852 57.19384 -108.57977 57.596083 -108.57977 C 57.998326 -108.57977 59.696742 -111.85868 61.371473 -115.86688 C 64.629778 -123.6651 63.149097 -126.47361 55.742567 -126.54071 z M 25.965223 -124.24188 C 21.484527 -124.21197 19.233563 -119.07541 22.418348 -115.23797 C 26.002922 -110.91883 31.133192 -112.89985 31.133192 -118.60321 C 31.133192 -122.14672 29.914387 -123.74772 26.889052 -124.17938 C 26.571464 -124.22469 26.263936 -124.24387 25.965223 -124.24188 z M 70.928114 -121.01141 L 65.424208 -113.79656 C 59.575666 -106.12874 60.246896 -105.50563 71.867567 -107.82977 C 79.086184 -109.27349 79.454093 -110.48286 74.521864 -116.57391 L 70.928114 -121.01141 z M 42.894911 -119.71063 C 41.825762 -119.70925 41.038691 -118.26749 39.353895 -115.00946 C 37.669109 -111.75143 36.8561 -108.52093 37.545302 -107.83172 C 38.234501 -107.14252 42.277875 -106.57977 46.53163 -106.57977 C 53.296641 -106.57977 54.029526 -107.0214 52.381239 -110.10125 C 51.344816 -112.03782 48.679158 -115.26638 46.457411 -117.27703 C 44.72938 -118.84088 43.726471 -119.7117 42.894911 -119.71063 z M 91.101942 -115.76922 C 90.558395 -115.75066 90.008812 -115.64308 89.467176 -115.43524 C 86.124861 -114.15267 84.913081 -108.44637 87.445692 -105.91375 C 89.978319 -103.38113 95.686565 -104.59097 96.96913 -107.93328 C 98.424049 -111.72472 94.906771 -115.89916 91.101942 -115.76922 z M 24.941786 -107.64813 C 24.37998 -107.65553 23.805626 -107.55935 23.232802 -107.33953 C 18.897311 -105.67585 17.999062 -101.00686 21.365614 -97.640315 C 25.418507 -93.587423 27.566434 -93.785699 30.058973 -98.443049 C 32.191628 -102.42796 28.874425 -107.5963 24.941786 -107.64813 z M 61.849989 -102.58172 L 66.11952 -96.583674 C 71.169828 -89.491172 72.327367 -89.259646 75.703505 -94.665706 C 79.18871 -100.2464 77.17196 -102.58172 68.865614 -102.58172 L 61.849989 -102.58172 z M 46.334364 -102.31024 C 43.475826 -102.34129 40.488334 -101.8611 39.092177 -101.07977 C 36.346904 -99.543439 36.488589 -98.669083 40.266005 -93.866877 L 44.564833 -88.400081 L 49.447645 -94.991877 L 54.328505 -101.58172 L 48.271864 -102.20477 C 47.647289 -102.26904 46.994027 -102.30307 46.334364 -102.31024 z M 58.02577 -100.5661 C 56.950983 -100.58137 52.12538 -88.623923 52.12538 -85.945002 C 52.12538 -85.198384 55.370132 -84.587581 59.336317 -84.587581 C 64.33732 -84.587581 66.223124 -85.354484 65.488661 -87.087581 C 62.356382 -94.478727 58.993806 -100.5523 58.02577 -100.5661 z M 87.410536 -97.841487 C 86.818001 -97.837581 86.217925 -97.729774 85.623426 -97.501643 C 80.871452 -95.67814 79.865404 -91.119039 83.430067 -87.554377 C 87.054893 -83.929548 89.938991 -84.419632 92.933973 -89.167659 C 95.26067 -92.856232 91.558278 -97.868826 87.410536 -97.841487 z M 32.824598 -90.585627 C 29.420645 -90.585627 27.274018 -85.716811 28.857802 -81.589534 C 30.395202 -77.58314 37.384244 -77.757145 38.951552 -81.841487 C 40.399708 -85.615318 36.916865 -90.585627 32.824598 -90.585627 z M 72.96913 -81.761409 C 71.477623 -81.78968 69.865717 -81.193152 68.490614 -79.818049 C 66.886103 -78.213533 66.143034 -75.418869 66.83827 -73.607112 C 68.673658 -68.824155 76.962835 -70.523283 77.721083 -75.837581 C 78.22613 -79.377281 75.816552 -81.707436 72.96913 -81.761409 z M 51.230848 -80.15594 C 49.752767 -80.124149 48.118692 -79.438314 46.644911 -77.964534 C 43.990311 -75.309932 43.903434 -74.272624 46.115614 -71.607112 C 49.713352 -67.272099 54.982936 -68.644939 55.764052 -74.120784 C 56.302177 -77.893202 54.05264 -80.216632 51.230848 -80.15594 z " />
  </g>
</svg>
