<?xml version="1.0" encoding="UTF-8" standalone="no"?>
<!-- Created with Inkscape (http://www.inkscape.org/) -->

<svg
   version="1.1"
   id="svg2708"
   width="165.27345"
   height="618.01959"
   viewBox="0 0 165.27346 618.0196"
   sodipodi:docname="cv1.svg"
   inkscape:version="1.2.2 (732a01da63, 2022-12-09, custom)"
   xmlns:inkscape="http://www.inkscape.org/namespaces/inkscape"
   xmlns:sodipodi="http://sodipodi.sourceforge.net/DTD/sodipodi-0.dtd"
   xmlns="http://www.w3.org/2000/svg"
   xmlns:svg="http://www.w3.org/2000/svg">
  <defs
     id="defs2712" />
  <sodipodi:namedview
     id="namedview2710"
     pagecolor="#ffffff"
     bordercolor="#000000"
     borderopacity="0.25"
     inkscape:showpageshadow="2"
     inkscape:pageopacity="0.0"
     inkscape:pagecheckerboard="0"
     inkscape:deskcolor="#d1d1d1"
     showgrid="false"
     inkscape:zoom="0.90028971"
     inkscape:cx="93.303299"
     inkscape:cy="430.97238"
     inkscape:window-width="1920"
     inkscape:window-height="1031"
     inkscape:window-x="0"
     inkscape:window-y="25"
     inkscape:window-maximized="1"
     inkscape:current-layer="layer1" />
  <g
     inkscape:groupmode="layer"
     id="layer1"
     inkscape:label="Layer 1"
     transform="translate(27.212511,182.59344)">
    <path
       style="fill:#000000;stroke-width:1.99925"
       d="M 83.773417,431.23965 C 68.277989,418.46702 62.607213,390.57846 69.743882,362.24321 c 6.198392,-24.60993 7.238974,-35.8342 3.654445,-39.41874 -1.6575,-1.65749 -12.058272,-6.83018 -23.112829,-11.49489 C 26.413193,301.25618 16.07292,292.36107 11.550939,278.00853 7.9093558,266.4503 5.2821132,246.55395 7.547364,247.68908 c 10.104363,5.06333 25.110418,11.59305 26.642159,11.59305 2.427518,0 2.419061,-0.9679 -0.124251,-14.22164 -1.136571,-5.9229 -1.505992,-14.15051 -0.82094,-18.28357 l 1.245556,-7.51464 9.003184,10.0137 c 4.95175,5.50753 9.944424,10.01372 11.094831,10.01372 1.347039,0 1.700133,-4.31772 0.991858,-12.1287 -1.457905,-16.07803 -7.243944,-24.47393 -27.484598,-39.88183 -22.9851963,-17.49713 -35.6541212,-36.01852 -40.526549,-59.24798 -2.561819,-12.21354 -1.581668,-14.20269 4.9061259,-9.95655 2.5694682,1.68163 8.6330927,3.68986 13.4747152,4.46269 9.4946549,1.51556 9.4737379,1.60521 2.146406,-9.20003 C 6.2317154,110.58834 3.2014447,103.74643 1.3619256,98.133057 -2.4122974,86.615821 -12.708857,69.353938 -15.804555,69.353938 c -4.430151,0 -1.697824,-3.727781 4.252791,-5.802159 9.8144827,-3.421357 21.955724,-2.629333 29.415994,1.918886 3.69766,2.2543 7.20841,3.613351 7.801665,3.0201 C 26.25915,67.8975 25.161003,61.562034 23.225568,54.411954 19.371861,40.175218 9.0957049,23.86637 -5.4581325,8.8892834 -16.774036,-2.755685 -15.359912,-5.4089924 1.4331954,-4.0406988 c 6.4389931,0.5246413 13.4437516,1.2840865 15.5661316,1.6876847 3.210431,0.6104599 4.338484,-1.1979486 6.713038,-10.7618809 4.268575,-17.192437 7.244618,-15.305052 14.973958,9.4964176 8.456825,27.1357804 10.478676,43.2365054 9.540091,75.9712774 -1.83194,63.89218 -1.327153,77.17443 3.305155,86.96713 l 4.255724,8.9966 0.168455,-38.68729 C 56.096692,97.259988 57.945115,65.234447 64.74262,-22.611297 l 0.696157,-8.996602 h -16.15294 c -17.698848,0 -25.105392,-2.613385 -36.916109,-13.025728 -3.722653,-3.281904 -7.9270104,-5.967091 -9.3430188,-5.967091 -4.3312291,0 -15.2624742,-10.430935 -18.1343942,-17.30442 -2.978582,-7.128748 -0.896254,-16.573597 3.707913,-16.818045 1.4016971,-0.07442 0.64229,-1.058915 -1.687573,-2.187766 -5.254621,-2.545941 -11.833432,-14.223951 -13.597749,-24.137291 -2.665966,-14.97952 5.121676,-30.01828 15.54461,-30.01828 4.4195881,0 4.7551168,-0.63731 3.8577781,-7.32747 -0.8817166,-6.57368 -0.151661,-8.07836 7.09682732,-14.62693 15.60746058,-14.1004 32.07055258,-14.95335 37.93488058,-1.96538 l 3.352992,7.42601 0.625924,-8.43992 c 0.470026,-6.33779 1.967346,-9.49815 6.011673,-12.68869 16.455892,-12.98193 65.624929,8.51112 76.737399,33.54389 4.61984,10.407 3.23649,17.0187 -4.89166,23.37994 l -6.06351,4.74541 9.21225,4.07502 c 12.36986,5.47178 13.27858,9.92557 6.29632,30.859866 -3.02492,9.069347 -6.49725,19.541892 -7.71628,23.272333 -3.30483,10.113247 -11.37286,15.209078 -24.079973,15.209078 H 86.656922 L 85.326103,-3.6184774 C 84.594159,18.373204 83.460837,41.76436 82.807597,48.361872 l -1.187702,11.995464 5.43164,-7.996986 c 6.475573,-9.533922 11.71937,-14.084589 20.797365,-18.048389 7.67819,-3.352581 20.2481,-3.938869 20.2481,-0.944431 0,1.099588 -0.90151,1.999247 -2.00338,1.999247 -2.14969,0 -19.9883,23.307207 -19.9883,26.115915 0,0.926826 4.27338,1.202859 9.4964,0.613409 6.51913,-0.735714 10.67779,-0.182735 13.26454,1.76385 3.57755,2.69212 3.4066,3.059004 -3.38012,7.253412 -10.60659,6.555249 -26.345736,24.695173 -36.407461,41.960917 -8.210522,14.08912 -8.892995,16.32893 -8.913217,29.25207 -0.01201,7.69709 0.558574,20.14182 1.268049,27.65497 l 1.289954,13.66027 6.756653,-1.26757 c 6.254071,-1.17327 6.686113,-0.92532 5.808376,3.33332 -0.521555,2.53047 -1.508431,8.06907 -2.193064,12.30796 -1.806554,11.18536 2.633301,8.66024 9.98799,-5.68056 9.52859,-18.57965 9.49773,-38.14262 -0.0975,-61.81181 -1.41329,-3.48629 -0.81505,-3.70879 7.11263,-2.64548 17.06678,2.28913 27.9062,16.32545 27.96179,36.20864 0.0497,17.79475 -2.9463,24.66803 -20.12729,46.17443 -20.069576,25.12219 -22.84119,32.18642 -22.763216,58.01821 0.05306,17.55546 0.966869,22.7743 7.497166,42.81412 4.09025,12.55191 7.43681,25.66333 7.43681,29.13653 0,3.47319 -2.24915,13.82923 -4.99811,23.01346 -6.531885,21.82289 -6.376317,26.28061 1.21909,34.93129 l 6.21722,7.081 -8.1057,13.64391 c -11.227199,18.8982 -12.085522,19.4108 -20.662882,12.34061 z m 11.928846,-12.00534 c 1.873141,-3.29179 4.080435,-5.99077 4.905127,-5.99773 3.36874,-0.0284 1.17047,-7.62166 -3.468072,-11.97935 -7.889109,-7.41144 -8.351769,-15.88012 -1.835515,-33.59809 7.392407,-20.10027 7.113157,-33.54731 -1.310219,-63.09154 -5.732014,-20.10453 -6.254071,-24.15953 -5.315387,-41.28698 1.363185,-24.87275 5.097351,-34.60929 19.656213,-51.2519 21.25848,-24.30115 27.79264,-43.57478 20.89542,-61.63483 -3.08913,-8.08878 -14.31282,-20.54453 -16.52185,-18.3355 -0.49072,0.49071 0.52191,5.05744 2.25029,10.14826 7.48045,22.03312 0.26036,49.12246 -18.549968,69.59838 -6.397431,6.96388 -8.224204,4.53261 -8.265571,-11.00079 -0.01687,-6.3226 -0.861256,-11.49565 -1.87647,-11.49565 -4.3371,0 -13.938125,10.65271 -17.898688,19.85929 -2.355472,5.47543 -4.856353,16.74196 -5.557516,25.0367 -0.701162,8.29472 -1.637336,15.08133 -2.080385,15.08133 -2.210597,0 -12.212926,-6.11832 -14.492283,-8.86476 -4.426887,-5.33409 -5.659229,-3.49638 -3.915281,5.83851 2.12787,11.38993 5.989646,18.79933 18.215758,34.94965 12.430355,16.42013 22.004217,36.40186 23.149459,48.31552 0.582684,6.06158 -0.917963,16.28665 -4.339614,29.56894 -7.769291,30.15913 -6.792432,45.46279 3.787364,59.33363 6.35491,8.33171 8.217318,8.4513 12.567188,0.80691 z M 66.077697,301.85708 c -3.58868,-6.37266 -10.364485,-16.58657 -15.057344,-22.69758 -7.314396,-9.52476 -9.91374,-11.43124 -18.208075,-13.35462 -5.32158,-1.23404 -11.250007,-2.85291 -13.17428,-3.59751 -2.790254,-1.07968 -3.498678,-0.28543 -3.498678,3.92243 0,7.79162 4.674282,17.35153 11.803459,24.14063 5.606239,5.3388 42.043,24.99278 43.917774,23.68923 0.408107,-0.28374 -2.194176,-5.72993 -5.782856,-12.10258 z M 59.506607,195.03497 C 58.640122,184.69953 57.210039,179.59742 54.316188,176.51705 41.690471,163.07758 38.585492,142.33634 41.565953,91.345619 42.497896,75.401648 42.664364,52.910151 41.935881,41.364517 40.658489,21.119263 33.30578,-12.615079 30.170532,-12.615079 c -0.838588,0 -2.067936,3.3971698 -2.731883,7.5492698 C 26.774701,-0.9137244 25.063165,4.081207 23.635235,6.0340097 21.15934,9.4200057 20.624255,9.3964569 12.091615,5.5260152 -4.0768742,-1.8080926 -5.2904465,0.16207143 7.0177469,13.76305 24.7357,33.34202 34.605628,58.547179 31.350007,75.901144 l -1.407876,7.50462 -6.509207,-4.964799 C 15.698574,72.541662 3.8842825,67.354691 -1.8180313,67.354691 c -3.9463102,0 -3.9103226,0.273115 1.01706367,7.718901 2.80947143,4.245398 8.22314743,15.653556 12.03039063,25.351498 3.80724,9.69791 8.268796,19.68764 9.914566,22.19941 1.645769,2.51177 2.992308,5.49815 2.992308,6.63643 0,3.02094 -12.191139,2.52854 -21.8603463,-0.88295 -8.2911653,-2.9253 -8.3571612,-2.91146 -7.1552098,1.49943 0.6672263,2.44858 4.99461825,12.06242 9.616428,21.36409 7.9936491,16.08774 9.3665231,17.63749 28.1632541,31.79191 10.867984,8.18385 21.214072,17.43631 22.991309,20.56104 1.777239,3.12472 3.58674,5.68698 4.021116,5.69394 0.434376,0.006 0.251568,-6.40709 -0.406241,-14.25342 z m 16.344148,-19.72109 c -2.939483,-16.62652 -2.353303,-83.874491 1.132741,-129.950886 3.206089,-42.376054 4.067685,-83.201186 1.87643,-88.91149 -1.029784,-2.683576 -1.867533,-2.264137 -4.664681,2.335527 -2.729185,4.48791 -3.68113,12.986308 -4.770999,42.5926004 C 68.675406,21.721939 67.161104,47.362241 66.059134,58.358089 61.674221,102.1123 62.261064,170.74064 67.194562,191.14079 l 1.168326,4.83105 4.715936,-4.83105 c 4.379203,-4.48611 4.577128,-5.61621 2.771931,-15.82691 z m 12.008007,-72.51484 c 8.292449,-14.473293 19.299198,-26.845462 27.947828,-31.414858 6.16501,-3.257184 6.58701,-3.866428 2.72979,-3.941133 -2.50938,-0.0485 -7.7923,1.26113 -11.73982,2.910504 -3.94752,1.649375 -7.924056,2.998863 -8.836758,2.998863 -3.105144,0 3.937838,-18.645653 10.513298,-27.832972 l 6.55092,-9.153036 -5.95879,3.757471 C 92.926058,50.300916 83.671529,66.451369 80.194547,90.507303 76.206387,118.09983 77.710276,120.51174 87.858762,102.79904 Z M 60.064796,-38.527173 c 4.049054,-2.560694 2.939439,-3.226476 -12.006618,-7.204126 -12.796192,-3.405486 -27.920369,-2.861051 -27.920369,1.005073 0,5.704224 32.685171,10.778923 39.926987,6.199053 z m 9.340279,-17.248277 c -1.303732,-9.511787 1.946416,-14.108168 5.588274,-7.902989 1.167607,1.989441 4.318186,6.303829 7.001289,9.587527 4.621784,5.656365 5.463004,5.910476 15.993957,4.831306 8.657435,-0.887178 12.110355,-2.29138 15.613875,-6.349695 6.11059,-7.078203 5.75674,-12.54408 -0.99961,-15.440659 l -5.49793,-2.35707 5.99774,-0.703393 c 5.07648,-0.595359 6.69052,-2.298525 10.50809,-11.088349 6.20495,-14.286675 5.83255,-18.619448 -2.0113,-23.401948 -3.57366,-2.17889 -8.4482,-3.96499 -10.83233,-3.9691 -2.38413,-0.004 -5.7571,-0.55326 -7.49545,-1.22034 -2.68945,-1.03203 -2.41577,-2.09814 1.83572,-7.15074 4.93224,-5.86163 6.32752,-12.60747 3.46635,-16.75889 -0.80785,-1.17216 -5.81013,-5.08567 -11.116181,-8.6967 -5.306052,-3.61102 -11.184938,-9.09384 -13.064191,-12.18402 -2.81184,-4.62369 -4.071587,-5.25211 -7.114617,-3.54914 -2.071261,1.15913 -9.65936,1.64283 -17.250998,1.09965 l -13.553216,-0.96973 1.070386,11.21632 c 1.023623,10.72632 0.914113,11.06759 -2.506729,7.81185 -1.967409,-1.87246 -5.900785,-8.17008 -8.740832,-13.99471 -5.963593,-12.2307 -9.969668,-13.73351 -23.170519,-8.69206 -15.2721352,5.83248 -19.9373833,16.55893 -11.2321482,25.82523 2.3366163,2.48721 4.2456096,4.91405 4.2422043,5.39297 -0.00334,0.47893 -4.5805941,0.87948 -10.1715322,0.89012 -12.4344209,0.0237 -15.8124539,3.66837 -15.8124539,17.06069 0,13.38966 6.762831,22.953378 16.1001233,22.768124 3.79015225,-0.07519 9.5901655,-0.884654 12.8889185,-1.798794 5.9919842,-1.660475 5.9941272,-1.657999 2.2353882,2.584739 -2.0692908,2.335745 -5.66793,4.823008 -7.9969769,5.527255 -5.7718733,1.745266 -13.2312306,8.837897 -13.2312306,12.580734 0,3.950094 13.8971677,18.228805 17.7417072,18.228805 1.6145315,0 4.5862733,-1.493913 6.6038703,-3.31982 4.656122,-4.213731 6.720063,-2.348921 3.358236,3.034224 -3.463341,5.545675 -1.635592,6.745068 6.145337,4.032623 8.541909,-2.977731 25.691688,-1.094769 35.388656,3.885507 4.253202,2.184399 8.513868,3.491228 9.468144,2.904059 0.954277,-0.58717 1.201767,-4.958293 0.549979,-9.713586 z M 46.115873,-71.607378 c -2.212182,-2.665515 -2.125965,-3.702262 0.528638,-6.356866 4.287368,-4.287365 9.940105,-1.90541 9.120104,3.843042 -0.781116,5.47585 -6.051,6.848841 -9.648742,2.513824 z m 20.721853,-1.99946 c -0.695237,-1.811759 0.04872,-4.606894 1.653233,-6.211412 4.000304,-4.000302 10.000424,-1.412212 9.230827,3.981623 -0.758249,5.314303 -9.04867,7.012751 -10.88406,2.229789 z m -37.979962,-7.982169 c -1.583785,-4.127281 0.563633,-8.996601 3.96759,-8.996601 4.092271,0 7.574029,4.969364 6.125871,8.743199 -1.567309,4.084346 -8.556059,4.2598 -10.093461,0.253402 z m 23.267953,-4.356358 c 0,-2.678923 4.824758,-14.636135 5.899546,-14.620865 0.968037,0.0138 4.331607,6.088146 7.463889,13.4793 0.734464,1.733098 -1.151175,2.499056 -6.152183,2.499056 -3.966189,0 -7.211252,-0.610872 -7.211252,-1.357491 z m 31.305292,-1.609979 c -3.564667,-3.564665 -2.560207,-8.122993 2.191772,-9.946498 4.755992,-1.825046 9.969811,4.118673 7.310726,8.334189 -2.994985,4.748031 -5.877669,5.237142 -9.502498,1.612309 z m -43.164979,-6.3106 c -3.777419,-4.80221 -3.919909,-5.677275 -1.174634,-7.213606 1.71835,-0.96164 5.849691,-1.46796 9.180759,-1.12517 l 6.056482,0.62327 -4.881849,6.590341 -4.881851,6.590338 z m 25.854397,-2.717396 -4.270762,-5.99773 h 7.015503 c 8.306354,0 10.323505,2.33495 6.838296,7.915651 -3.376141,5.406065 -4.532724,5.174588 -9.583037,-1.917921 z M 21.36518,-97.640818 c -3.366555,-3.366552 -2.467276,-8.035152 1.868219,-9.698842 4.582599,-1.75851 9.26365,4.34173 6.826328,8.895916 -2.492542,4.657355 -4.64165,4.855822 -8.694547,0.802926 z m 66.080513,-8.272332 c -2.532614,-2.53262 -1.321333,-8.24 2.020986,-9.52257 4.333087,-1.66276 9.164362,3.16851 7.501595,7.50159 -1.282566,3.34232 -6.989952,4.55361 -9.522581,2.02098 z m -49.901365,-1.9195 c -0.689202,-0.68921 0.125375,-3.91876 1.810163,-7.17679 2.995195,-5.79207 3.153008,-5.84246 7.102797,-2.26795 2.221749,2.01066 4.887525,5.24021 5.923949,7.17678 1.648289,3.07986 0.915312,3.52105 -5.849706,3.52105 -4.253759,0 -8.298003,-0.56389 -8.987203,-1.25309 z m 27.878915,-5.96307 5.504035,-7.21617 3.594307,4.43878 c 4.932234,6.09105 4.565294,7.3003 -2.65333,8.74402 -11.620683,2.32414 -12.29356,1.7012 -6.445012,-5.96663 z m -11.960749,-1.91774 c -3.68413,-7.7257 -3.020829,-10.87593 2.279891,-10.82793 7.406537,0.0671 8.888371,2.87672 5.630063,10.67495 -1.674733,4.0082 -3.374077,7.28763 -3.776321,7.28763 -0.402243,0 -2.262379,-3.21059 -4.133633,-7.13465 z m -31.043975,0.47645 c -3.397108,-4.09327 -0.610118,-9.66666 4.471293,-8.94164 3.025339,0.43166 4.24384,2.03272 4.24384,5.57624 0,5.70336 -5.130556,7.68455 -8.715133,3.3654 z m 55.978839,-7.99698 c -3.397107,-4.09327 -0.610118,-9.66666 4.471292,-8.94164 3.025345,0.43166 4.243848,2.03272 4.243848,5.57625 0,5.70335 -5.130569,7.68454 -8.71514,3.36539 z m -41.98413,-5.99773 c -3.397108,-4.09327 -0.610116,-9.66666 4.471295,-8.94164 3.025337,0.43166 4.24384,2.03272 4.24384,5.57624 0,5.70336 -5.130557,7.68455 -8.715135,3.3654 z m 21.731352,-4.31218 c -3.321932,-4.00268 -1.109151,-9.02206 3.977359,-9.02206 2.268188,0 4.646223,1.36095 5.284522,3.02433 1.148811,2.99375 -2.372219,8.97114 -5.284522,8.97114 -0.830309,0 -2.62012,-1.33803 -3.977359,-2.97341 z m 61.55559,4.5728 c 7.69775,-7.69775 -3.94886,-25.70257 -23.514313,-36.35142 -9.23361,-5.02557 -10.07299,-5.16999 -10.07299,-1.73319 0,4.26531 7.10505,11.24406 19.455493,19.10966 8.38122,5.33772 12.12405,12.34537 9.8119,18.37071 -1.38316,3.60446 0.98803,3.93613 4.31991,0.60424 z m -42.469347,-40.4212 c 5.454226,-3.98821 2.586434,-5.79026 -10.652661,-6.69388 -8.280039,-0.56514 -12.561473,0.0823 -15.452067,2.33654 -3.452763,2.69269 -3.589194,3.39215 -0.999622,5.1249 4.483287,2.99989 22.655849,2.48527 27.10435,-0.76756 z"
       id="path3189" />
  </g>
</svg>
