<?xml version="1.0" encoding="UTF-8" standalone="no"?>
<!-- Created with Inkscape (http://www.inkscape.org/) -->

<svg
   version="1.1"
   id="svg2708"
   width="201.51663"
   height="227.31133"
   viewBox="0 0 201.51664 227.31133"
   sodipodi:docname="d3.svg"
   inkscape:version="1.2.2 (732a01da63, 2022-12-09, custom)"
   xmlns:inkscape="http://www.inkscape.org/namespaces/inkscape"
   xmlns:sodipodi="http://sodipodi.sourceforge.net/DTD/sodipodi-0.dtd"
   xmlns="http://www.w3.org/2000/svg"
   xmlns:svg="http://www.w3.org/2000/svg">
  <defs
     id="defs2712" />
  <sodipodi:namedview
     id="namedview2710"
     pagecolor="#ffffff"
     bordercolor="#000000"
     borderopacity="0.25"
     inkscape:showpageshadow="2"
     inkscape:pageopacity="0.0"
     inkscape:pagecheckerboard="0"
     inkscape:deskcolor="#d1d1d1"
     showgrid="false"
     inkscape:zoom="3.5300137"
     inkscape:cx="95.750337"
     inkscape:cy="117.28"
     inkscape:window-width="1920"
     inkscape:window-height="1031"
     inkscape:window-x="0"
     inkscape:window-y="25"
     inkscape:window-maximized="1"
     inkscape:current-layer="layer2" />
  <g
     inkscape:groupmode="layer"
     id="layer2"
     inkscape:label="Layer 1">
    <path
       style="fill:#000000;stroke-width:0.32"
       d="m 115.76004,227.27865 c -0.37184,-0.0834 -0.62895,-0.55693 -0.76529,-1.40953 -0.11292,-0.70618 -0.40093,-1.35903 -0.64003,-1.45078 -0.53959,-0.20706 -0.56183,-1.18347 -0.0458,-2.00981 0.30525,-0.48879 0.30525,-0.85423 0,-1.69838 -0.57592,-1.59268 -0.48806,-2.18855 0.56832,-3.85428 0.8372,-1.32013 1.05992,-1.48367 1.7758,-1.304 0.76515,0.19204 0.80511,0.14553 0.61256,-0.71321 -0.11329,-0.50526 -0.69622,-1.93705 -1.2954,-3.18174 -0.87463,-1.81687 -1.11442,-2.74672 -1.21615,-4.71602 -0.1119,-2.16622 -0.30832,-2.81351 -1.68039,-5.53764 -2.19314,-4.35431 -2.36527,-4.65986 -3.17387,-5.63392 -0.39752,-0.47886 -0.87134,-1.56344 -1.05293,-2.41017 -0.18159,-0.84673 -0.77443,-2.43493 -1.31743,-3.52934 -0.78898,-1.59021 -1.13739,-1.98983 -1.73483,-1.98983 -0.83809,0 -1.43212,-0.78822 -3.876,-5.14307 -0.90333,-1.60966 -1.89804,-2.94891 -2.407428,-3.24126 -0.511498,-0.29356 -1.230455,-1.26424 -1.75033,-2.36316 -0.485251,-1.02574 -1.386746,-2.62477 -2.003318,-3.55339 -0.968061,-1.45801 -1.093472,-1.86087 -0.918976,-2.95211 0.274937,-1.71936 -0.210759,-2.80873 -1.533508,-3.43951 -1.302422,-0.62108 -1.936944,-1.90925 -1.665974,-3.38217 0.208109,-1.13123 -1.076515,-6.35108 -1.768109,-7.1844 -0.216787,-0.26122 -1.0156,-0.9025 -1.775136,-1.42507 -0.759533,-0.52258 -1.965795,-1.74179 -2.680583,-2.70936 -0.982681,-1.3302 -1.469785,-1.73572 -1.997433,-1.66286 -0.562701,0.0777 -1.015783,-0.39933 -2.339924,-2.46364 -0.903155,-1.408 -2.091155,-3.24245 -2.64,-4.07656 -0.548841,-0.8341 -0.997897,-1.71647 -0.997897,-1.96081 0,-0.24435 -0.201872,-0.6118 -0.448605,-0.81657 -0.24673,-0.20477 -0.535274,-0.71764 -0.641207,-1.13971 -0.105933,-0.42207 -0.888093,-1.91247 -1.738134,-3.31201 -1.723315,-2.83733 -2.042567,-3.59195 -2.595216,-6.13434 -0.768378,-3.5348 -1.841456,-5.42555 -4.652055,-8.19684 -1.448518,-1.42826 -2.711427,-2.94026 -2.806461,-3.36 -0.09504,-0.41974 -0.971299,-2.56316 -1.947254,-4.76316 -1.824532,-4.11286 -2.136682,-4.43245 -3.35264,-3.43251 -0.231863,0.19067 -1.095863,0.35699 -1.920001,0.36959 -1.86768,0.0286 -4.226384,-1.46536 -4.864825,-3.08122 -0.512848,-1.29799 -1.550016,-2.49586 -2.161021,-2.49586 -0.250724,0 -0.927725,-0.22391 -1.504445,-0.49759 -0.82513,-0.39155 -1.09049,-0.74956 -1.245213,-1.68 -0.108144,-0.65032 -0.359168,-1.97441 -0.55783,-2.94241 -0.198666,-0.968 -0.34944,-2.1616 -0.335056,-2.652448 0.01962,-0.6692 -0.173044,-0.968179 -0.770144,-1.195197 -0.437962,-0.166512 -0.871745,-0.556912 -0.963959,-0.867552 -0.09221,-0.310643 -0.453222,-1.105494 -0.802237,-1.766336 -0.748544,-1.417331 -0.543965,-2.010934 1.134186,-3.290921 1.48912,-1.135808 1.938445,-2.551303 1.297104,-4.086244 -0.268579,-0.642806 -0.84704,-1.403772 -1.285466,-1.69104 -1.422477,-0.932044 -2.719523,-3.015881 -2.719523,-4.369193 0,-1.795191 -0.680246,-2.850333 -3.280317,-5.088141 -2.791021,-2.40216 -4.691175,-4.616637 -4.925939,-5.740784 -0.09509,-0.455318 -0.729188,-1.36776 -1.409111,-2.027648 -1.351909,-1.312067 -2.702447,-3.426874 -3.035262,-4.752915 -0.11669,-0.464931 -0.429224,-1.025472 -0.694519,-1.245648 -0.265296,-0.220176 -0.813873,-1.126083 -1.219062,-2.013127 -0.405188,-0.887043 -1.614,-2.528569 -2.686249,-3.647833 -1.072248,-1.119264 -1.949542,-2.157546 -1.949542,-2.307293 0,-0.441507 -4.145865,-7.105594 -4.96308,-7.97768 -1.659996,-1.771459 -5.59692,-9.909968 -5.59692,-11.570096 0,-0.37305 -0.231132,-0.589904 -0.628742,-0.589904 -0.760621,0 -1.27807,-0.875341 -1.25361,-2.12066 0.0099,-0.505637 -0.426476,-2.21009 -0.9697954,-3.787674 -0.5433194,-1.577584 -0.9878532,-3.419415 -0.9878532,-4.092958 0,-0.74904 -0.2656595,-1.583947 -0.6840723,-2.14988 C 7.7326952,21.034093 7.6256235,20.543805 7.755924,19.387784 7.8699208,18.376408 7.785687,17.820517 7.4799963,17.566816 c -0.2420089,-0.200849 -0.440016,-0.666734 -0.440016,-1.0353 0,-0.368565 -0.2367897,-1.290144 -0.526199,-2.047952 -0.2894097,-0.757808 -0.454282,-1.44975 -0.3663831,-1.537648 0.087899,-0.0879 1.3686884,-0.181338 2.8461992,-0.207642 2.5603756,-0.04558 4.0963006,0.131537 9.0270246,1.040973 1.716039,0.316511 3.01143,0.322437 6.08,0.02781 2.144648,-0.205912 4.655359,-0.372738 5.579359,-0.370724 1.124765,0.0025 1.684925,-0.128536 1.6949,-0.396337 0.02116,-0.567909 1.35184,2.07638 2.375245,4.72 0.476937,1.232 1.593507,3.68 2.48127,5.44 0.887767,1.76 1.901501,3.771598 2.252746,4.470218 0.351245,0.69862 0.887939,1.99462 1.192649,2.88 0.340861,0.990412 2.079415,3.671849 4.518609,6.969222 4.875885,6.591363 6.998003,9.602211 7.001734,9.934013 0.0063,0.562905 2.117645,3.082438 2.592765,3.094067 0.280455,0.0068 1.000455,0.741734 1.6,1.63305 1.067968,1.587686 1.116052,1.616576 2.370084,1.423824 0.704,-0.108208 1.598934,-0.405463 1.988742,-0.660567 1.086861,-0.711283 3.421651,-0.571712 5.311076,0.317488 2.616185,1.231232 3.391065,1.468205 5.306448,1.62281 2.949069,0.238045 5.280336,0.504249 5.845539,0.667501 0.386397,0.111606 0.590212,-0.11233 0.745424,-0.819012 0.117512,-0.534933 0.357579,-0.97261 0.533499,-0.97261 0.406541,0 0.196361,-3.933754 -0.355549,-6.65449 -0.315738,-1.556473 -0.327536,-2.55984 -0.0519,-4.413072 0.53312,-3.584435 0.464746,-4.434982 -0.443254,-5.51408 -0.440001,-0.522912 -0.800001,-1.161689 -0.800001,-1.419507 0,-0.257817 -0.432,-1.27831 -0.96,-2.26776 -0.528,-0.989449 -0.96,-2.166344 -0.96,-2.615322 0,-1.096863 -0.842662,-3.051402 -1.526374,-3.540402 C 71.642618,26.798235 69.569578,22.645157 68.971722,20.48 68.283245,17.986658 68.160826,15.430603 68.682048,14.431737 68.920755,13.974282 69.116947,13.420573 69.118032,13.201274 69.12248,12.303296 70.515478,8.766311 71.040474,8.32 71.763059,7.7057136 72.253511,6.7400672 72.831571,4.7935194 73.111674,3.8503146 73.637648,2.9711146 74.166858,2.5615017 74.647088,2.1898 75.599805,1.4614023 76.284003,0.94284019 L 77.528007,0 h 5.039533 5.039533 l 1.986288,1.36 c 1.092458,0.748 2.152867,1.4505276 2.356464,1.5611726 C 93.212923,3.607599 94.870126,4.16 95.666308,4.16 c 0.541792,0 1.357565,0.3643392 1.970368,0.88 l 1.045777,0.88 8.178777,0.039213 c 4.53582,0.021747 8.74891,0.1886519 9.45878,0.3747178 2.19254,0.5746947 6.42016,0.8018531 7.6107,0.4089385 0.6002,-0.1980835 2.53085,-0.4129417 4.29034,-0.4774633 2.1104,-0.077389 3.53734,-0.2922442 4.19312,-0.6313587 C 132.9609,5.3513213 133.55897,5.12 133.74322,5.12 c 0.18424,0 1.21209,-0.6456826 2.2841,-1.4348499 2.72343,-2.0048763 5.67616,-2.85576024 9.16153,-2.6400588 2.83074,0.1751886 2.36047,-0.0596162 6.8843,3.4372933 0.52962,0.4093908 1.05497,1.2872087 1.33529,2.2311348 0.57806,1.9465478 1.06851,2.9121942 1.7911,3.5264806 0.52499,0.446311 1.918,3.983296 1.92244,4.881274 9.6e-4,0.219299 0.19728,0.773008 0.43598,1.230463 1.23559,2.367868 -1.1767,10.577981 -3.64398,12.402121 -0.52469,0.387916 -0.95397,0.859305 -0.95397,1.04753 0,0.188226 -0.73314,1.875915 -1.62918,3.75042 -1.85303,3.876477 -1.76715,3.61247 -2.5661,7.888192 -0.50184,2.685667 -0.56537,4.074368 -0.39528,8.64 0.11148,2.992 0.30102,5.512 0.42122,5.6 0.28673,0.20992 1.28934,3.328733 1.28934,4.01073 0,0.29176 0.27584,0.917862 0.61299,1.391337 0.98593,1.384621 2.26579,4.401248 2.28147,5.377427 0.0283,1.762663 2.76308,5.672311 7.07828,10.11913 0.82119,0.846243 1.58292,1.710243 1.69272,1.92 0.5469,1.044749 1.04218,1.755651 1.72284,2.472877 1.0076,1.061737 2.80942,3.783891 3.22016,4.864966 0.64376,1.694365 4.21438,6.002179 5.53233,6.674551 0.69952,0.356867 1.51201,1.088038 1.80553,1.624822 0.29352,0.536787 1.15217,1.565334 1.90812,2.285661 0.75594,0.720326 1.66768,1.784166 2.0261,2.364089 0.35841,0.579927 0.78199,1.05441 0.94129,1.05441 0.48375,0 2.83303,1.73607 2.84602,2.10316 0.0125,0.35367 2.41612,2.05684 2.90272,2.05684 0.15023,0 0.4613,0.26734 0.69128,0.59409 0.22998,0.32675 0.7423,0.69651 1.13849,0.82168 0.39619,0.12516 0.86845,0.50433 1.04949,0.84259 0.18103,0.33826 0.79287,0.8526 1.35965,1.14298 0.56679,0.29038 1.10252,0.62881 1.19052,0.75207 0.088,0.12326 0.78107,0.67009 1.54017,1.21518 1.27621,0.91642 2.1703,1.95928 4.17648,4.87141 0.42437,0.616 1.03755,1.30664 1.36262,1.53475 0.32507,0.22812 0.97777,1.09212 1.45043,1.92 0.47267,0.82789 1.47529,2.38447 2.22806,3.45907 1.61186,2.30099 2.8827,4.97278 3.50898,7.37723 0.24762,0.95066 0.72567,2.26841 1.06234,2.92834 0.92861,1.82023 1.77844,4.97144 1.37682,5.10531 -0.21223,0.0707 -0.11142,0.61147 0.27108,1.45397 0.7385,1.62665 0.76891,2.75756 0.13073,4.86133 -0.50907,1.67815 -0.75529,5.8358 -0.38144,6.44071 0.29184,0.47221 -0.45615,4.15955 -1.48474,7.31929 -0.45835,1.408 -0.8352,2.89729 -0.83744,3.30953 -0.002,0.41224 -0.29209,1.11566 -0.64409,1.56315 -0.352,0.4475 -0.64636,1.11821 -0.65412,1.49048 -0.0247,1.18193 -0.78542,3.64831 -1.31194,4.25333 -0.27929,0.32093 -0.88562,1.34824 -1.34741,2.2829 -0.46178,0.93467 -1.05716,1.91695 -1.32307,2.18286 -0.2659,0.2659 -0.48346,0.68918 -0.48346,0.94061 0,0.25142 -0.144,0.45714 -0.32,0.45714 -0.176,0 -0.32,0.216 -0.32,0.48 0,0.264 -0.13032,0.48 -0.28959,0.48 -0.39171,0 -1.94456,2.68826 -1.9738,3.41698 -0.0129,0.32066 -0.26486,0.95585 -0.56,1.41154 -1.5226,2.35086 -2.17372,3.16392 -2.53661,3.16752 -0.22,0.002 -0.4,0.14796 -0.4,0.32396 0,0.176 -0.252,0.3232 -0.56,0.32712 -0.308,0.004 -0.92,0.28871 -1.36,0.63288 -0.44,0.34417 -1.10889,0.62897 -1.48641,0.63288 -0.37753,0.004 -1.02553,0.36463 -1.44,0.80159 -0.57956,0.61101 -1.08614,0.7974 -2.19359,0.80714 -0.792,0.007 -3.096,0.30603 -5.12,0.66458 -5.76858,1.0219 -7.21434,1.10286 -8.19695,0.45903 -0.69779,-0.45721 -0.96656,-0.48446 -1.57369,-0.15952 -0.55021,0.29445 -1.11709,0.30747 -2.28078,0.0524 -3.38971,-0.74311 -3.88605,-0.75919 -4.08501,-0.13232 -0.14167,0.44633 -0.43292,0.55664 -1.22548,0.46411 -0.84687,-0.0989 -1.16466,0.0477 -1.71388,0.79058 -0.37083,0.50157 -0.78351,1.26916 -0.91707,1.70576 -0.38383,1.25469 -1.08194,1.85098 -3.01067,2.5716 -0.98806,0.36916 -2.24547,0.94817 -2.79424,1.2867 -0.54878,0.33853 -1.40331,0.61551 -1.89897,0.61551 -1.16544,0 -3.66326,1.20869 -3.66326,1.77265 0,0.23955 0.18,0.5507 0.4,0.69145 0.51156,0.32727 1.2,1.55346 1.2,2.13732 0,0.24756 0.216,0.53299 0.48,0.6343 0.264,0.10131 0.48,0.49048 0.48,0.86484 0,0.37435 0.28054,1.07464 0.62344,1.55619 0.34289,0.48154 0.9146,1.61422 1.27046,2.51705 0.91768,2.32816 2.19074,4.69024 3.00699,5.57927 1.04426,1.13737 2.45911,3.26854 2.45911,3.70413 0,0.21054 0.144,0.3828 0.32,0.3828 0.82898,0 0.17701,0.99998 -1.04,1.59515 -0.748,0.36581 -2.05771,1.0728 -2.91047,1.57109 -1.13413,0.66272 -2.16524,0.96125 -3.84,1.11179 -6.65887,0.59853 -7.25432,0.72178 -8.80099,1.8217 -3.19295,2.27067 -5.06654,3.40034 -6.44854,3.88809 -1.40444,0.49567 -6.22345,1.04035 -11.9721,1.35318 -1.56866,0.0854 -3.00146,0.30456 -3.184,0.4871 -0.18255,0.18255 -0.7351,0.3319 -1.2279,0.3319 -0.58311,0 -0.896,0.16762 -0.896,0.48 0,0.264 -0.144,0.48 -0.32,0.48 -0.47688,0 -0.73436,0.0537 -1.44,0.30044 -0.352,0.12307 -0.89199,0.16727 -1.19997,0.0982 z"
       id="path3189"
       transform="translate(-6.1237507)" />
    <path
       id="path3252"
       style="fill:#008080;stroke-width:0.32"
       d="M 7.4440632 13.759766 L 8.1784382 15.759766 C 8.5817127 16.859765 9.4942443 19.257176 10.207735 21.087891 C 10.921226 22.918606 11.652313 25.206448 11.830782 26.171875 C 12.009251 27.137302 12.324961 28.133002 12.533907 28.384766 C 12.854964 28.771615 12.97623 28.728336 13.313204 28.101562 L 13.711641 27.359375 L 14.016329 28.160156 C 14.184213 28.600156 14.420483 29.796892 14.539766 30.820312 C 14.867817 33.634916 15.279993 34.239027 16.123751 33.134766 C 16.426465 32.738593 16.610145 32.783588 17.360079 33.439453 C 18.128379 34.111378 18.259694 34.499733 18.391329 36.490234 C 18.500703 38.144124 18.416403 38.963422 18.082735 39.472656 C 17.616904 40.183607 17.752074 41.599609 18.28586 41.599609 C 18.445689 41.599609 18.712322 41.960391 18.87961 42.400391 C 19.304665 43.518368 19.947032 43.396778 20.574923 42.080078 C 21.221876 40.723404 21.931517 40.560898 21.623751 41.839844 C 21.507281 42.323843 21.382454 43.263402 21.346407 43.927734 C 21.283367 45.08948 21.314462 45.129279 22.16086 44.943359 C 23.00916 44.757024 23.039766 44.79627 23.039766 46.060547 C 23.039766 47.299711 23.084688 47.361587 23.840548 47.171875 C 24.632678 46.973065 24.966609 47.439639 24.319063 47.839844 C 23.801054 48.15999 23.924808 50.240234 24.461641 50.240234 C 24.715254 50.240234 25.011071 50.095922 25.119844 49.919922 C 25.425397 49.425525 26.240938 49.542034 26.240938 50.080078 C 26.240938 50.344078 25.966686 50.560547 25.633516 50.560547 C 24.944539 50.560547 24.56695 51.275596 24.856173 52.029297 C 24.983066 52.359979 25.312595 52.487613 25.799532 52.394531 C 26.454717 52.269283 26.602055 52.43479 26.97336 53.724609 C 27.296864 54.848378 27.542093 55.186409 28.002657 55.144531 C 28.773281 55.074461 29.306834 55.804093 29.742891 57.519531 C 29.955033 58.35409 30.273433 58.880859 30.565157 58.880859 C 30.854621 58.880859 31.039766 59.183116 31.039766 59.654297 C 31.039766 60.913471 31.380377 61.439453 32.194063 61.439453 C 32.723289 61.439453 32.959688 61.621894 32.959688 62.027344 C 32.959688 63.534983 33.76271 63.158891 34.287813 61.40625 C 34.585311 60.413288 34.736087 60.235503 34.951876 60.621094 C 35.285283 61.216862 36.160115 61.288994 36.16086 60.720703 C 36.16182 59.950221 38.70944 57.931746 41.342501 56.617188 C 42.803837 55.887617 44.296497 54.928257 44.658907 54.484375 C 45.292688 53.708111 45.488933 53.670153 49.78586 53.515625 L 54.252657 53.355469 L 52.801485 51.810547 C 52.003121 50.960184 50.850599 49.430588 50.240938 48.412109 C 49.631278 47.393633 48.878563 46.372556 48.56711 46.142578 C 48.255661 45.912597 48.000704 45.528415 48.000704 45.289062 C 48.000704 45.049709 47.892469 44.804762 47.760469 44.746094 C 47.62847 44.687428 47.102353 43.848858 46.592501 42.880859 C 45.086678 40.021931 43.419865 37.347553 42.502657 36.320312 C 42.031214 35.792313 41.257114 34.787063 40.781954 34.085938 C 40.306792 33.384811 39.747257 32.663248 39.539766 32.484375 C 39.121811 32.124061 37.440157 29.555242 37.440157 29.277344 C 37.440157 29.090389 35.379419 24.810312 34.899141 24 C 34.227318 22.866512 32.006868 16.95019 31.824923 15.808594 L 31.625704 14.560547 L 27.252657 14.830078 C 21.575818 15.18188 16.979135 15.151233 16.166719 14.753906 C 15.417662 14.387566 10.762905 13.759766 8.7917195 13.759766 L 7.4440632 13.759766 z M 58.059298 77.412109 C 56.731017 77.457498 55.404344 77.726473 54.588594 78.201172 C 53.869132 78.619836 52.812872 79.062674 52.242891 79.185547 C 51.672908 79.308424 51.142538 79.514214 51.063204 79.642578 C 50.803597 80.062636 48.639376 79.635303 48.639376 79.164062 C 48.639376 78.91932 48.388782 78.722429 48.080782 78.724609 C 47.42469 78.729209 45.997569 80.779755 46.141329 81.511719 C 46.221059 81.917683 46.437658 81.848783 47.262423 81.154297 L 48.283907 80.292969 L 48.096407 81.505859 C 47.993453 82.173194 47.708006 83.120207 47.461641 83.609375 C 46.859438 84.805083 47.232402 85.34272 48.113985 84.550781 C 49.812207 83.025244 50.253717 83.688657 48.639376 85.339844 C 47.855645 86.141465 47.715268 86.500557 47.873751 87.292969 C 48.056378 88.206104 48.123789 88.243104 48.994844 87.939453 C 49.877017 87.631927 50.114133 87.08763 49.932344 85.792969 C 49.863385 85.301833 50.773183 83.364196 51.487032 82.480469 C 51.969805 81.882808 52.657496 81.693667 52.311251 82.253906 C 52.197712 82.437618 52.282534 82.801956 52.498751 83.0625 C 52.818599 83.447895 52.733394 83.757184 52.043673 84.726562 C 51.545987 85.42604 51.340051 85.966632 51.545626 86.035156 C 51.738227 86.099356 52.053472 85.996056 52.244844 85.804688 C 52.495439 85.554093 52.801978 85.764066 53.340548 86.556641 C 53.820524 87.262989 54.257508 87.591918 54.563204 87.474609 C 54.82515 87.374094 55.039766 87.434719 55.039766 87.609375 C 55.039766 87.92399 56.84691 87.878754 59.920626 87.488281 C 61.530713 87.28374 61.736016 87.486813 61.108126 88.660156 C 60.925938 89.000555 60.515561 89.279297 60.196016 89.279297 C 58.917614 89.279297 57.651458 89.981993 57.270235 90.902344 C 56.959647 91.652167 56.969268 92.23876 57.313204 93.789062 C 57.850864 96.212602 58.648985 96.643596 60.901094 95.726562 C 61.396547 95.524819 62.28443 95.359375 62.873751 95.359375 C 63.885114 95.359375 63.930838 95.409615 63.713594 96.240234 C 63.548011 96.873335 63.183778 97.209235 62.412813 97.439453 C 61.774762 97.629981 61.069864 98.180019 60.670626 98.796875 C 60.301833 99.366695 59.784235 99.837927 59.520235 99.845703 C 59.127854 99.857253 59.141148 99.936491 59.592501 100.2793 C 60.012049 100.59795 60.085218 100.92188 59.899141 101.62891 C 59.397151 103.53628 60.14485 104.69433 61.119844 103.51953 C 61.639457 102.89343 63.486941 102.90236 64.010469 103.5332 C 64.357327 103.95114 64.193363 104.24706 62.930391 105.47461 C 61.47207 106.89203 61.04217 107.83031 61.840548 107.85156 C 62.456979 107.86796 63.570612 108.91357 63.824923 109.71484 C 64.07865 110.51427 64.823923 110.46776 64.756563 109.65625 C 64.733013 109.37256 64.965808 109.06013 65.272188 108.96289 C 65.578569 108.86569 65.983325 108.4644 66.172579 108.07227 C 66.398525 107.60413 66.523593 107.52828 66.537813 107.85156 C 66.549713 108.12235 66.269361 108.91386 65.914766 109.60938 C 65.560172 110.30489 65.334015 111.03803 65.41086 111.23828 C 65.4877 111.43852 65.412817 111.74018 65.244844 111.9082 C 65.076829 112.07621 65.032163 112.45339 65.145235 112.74805 C 65.310947 113.17988 65.718448 112.91075 67.248751 111.36133 C 69.079677 109.50753 69.83308 109.10001 70.231173 109.74414 C 70.334567 109.91144 70.12529 110.59368 69.768282 111.25977 C 69.411274 111.92586 69.119844 112.6953 69.119844 112.9707 C 69.119844 113.24611 68.971535 113.62096 68.789766 113.80273 C 68.607997 113.9845 68.550212 114.37259 68.662813 114.66602 C 68.885188 115.24551 69.440157 115.3992 69.440157 114.88086 C 69.440157 114.70486 69.719638 114.56055 70.061251 114.56055 C 70.402863 114.56055 70.778791 114.40251 70.897188 114.21094 C 71.02864 113.99825 71.262562 114.15433 71.498751 114.61133 C 71.974325 115.53144 71.535309 117.16764 70.87961 116.91602 C 70.573479 116.79855 70.496597 116.94281 70.619844 117.41406 C 70.898746 118.48058 72.553007 118.06261 73.043673 116.80078 C 73.146331 116.53678 73.240716 116.78738 73.25461 117.35938 C 73.28727 118.70374 73.669601 118.6775 74.422579 117.2793 C 74.754316 116.6633 75.136214 116.16016 75.272188 116.16016 C 75.639603 116.16016 75.585674 116.37857 74.858126 117.80469 C 73.992933 119.50061 74.194637 120.05988 75.533907 119.67578 C 76.088187 119.51682 76.730369 119.22905 76.961641 119.03711 C 77.267885 118.78296 77.447035 118.79261 77.619844 119.07227 C 77.763572 119.30483 77.517795 119.70446 76.996798 120.08398 C 76.191409 120.67067 75.249263 122.1867 74.555391 124.01172 C 74.301092 124.68059 74.349413 124.80078 74.869844 124.80078 C 75.212701 124.80078 75.734819 124.37591 76.051485 123.83984 C 77.197449 121.89989 77.815904 123.14942 76.836641 125.42578 C 76.088459 127.16497 75.953529 128.44281 76.537813 128.24805 C 76.745282 128.17885 77.134142 127.51876 77.403048 126.78125 C 77.982819 125.19113 78.883942 124.96258 79.184298 126.33008 C 79.326601 126.978 79.118467 127.69748 78.416719 128.9707 C 77.886336 129.93301 77.449203 130.96411 77.446016 131.26172 C 77.434916 132.29856 78.168373 132.2678 79.043673 131.19531 C 79.657086 130.44372 79.955559 130.26506 80.063204 130.58594 C 80.194503 130.97733 80.33201 130.97754 81.06711 130.58594 C 82.172565 129.99703 82.286898 130.16012 81.717501 131.51367 C 81.372675 132.33338 81.17798 132.51302 80.979219 132.19141 C 80.768807 131.85096 80.6209 131.91725 80.313204 132.49219 C 79.986094 133.10339 80.002596 133.29079 80.408907 133.58789 C 80.987163 134.01072 80.573655 135.03906 79.824923 135.03906 C 79.569668 135.03906 79.360079 135.25553 79.360079 135.51953 C 79.360079 136.03511 79.978796 136.11532 81.541719 135.80273 C 82.287812 135.65351 82.573036 135.3895 82.72336 134.70508 C 82.942531 133.7072 83.648391 132.96392 84.108126 133.24805 C 84.271543 133.34905 84.469729 133.86605 84.547579 134.39648 C 84.6925 135.38389 84.241555 136.02408 83.119844 136.42188 C 82.811845 136.53109 82.559298 136.81831 82.559298 137.06055 C 82.559298 137.3028 82.272625 137.76152 81.920626 138.08008 C 81.237147 138.69862 81.074125 139.6748 81.600313 140 C 81.776313 140.10877 81.920626 139.98923 81.920626 139.73438 C 81.920626 139.14303 83.175693 137.60798 83.190157 138.18164 C 83.207407 138.86561 84.618428 138.4837 84.748751 137.75977 C 84.928975 136.75866 86.040735 135.72849 86.742891 135.91211 C 87.571843 136.12889 87.52754 136.42821 86.375704 138.44141 C 85.517033 139.9422 85.458154 140.18732 85.916719 140.36328 C 86.205731 140.47419 86.606023 140.40246 86.805391 140.20312 C 87.34902 139.6595 88.135859 139.7637 89.076876 140.50391 C 90.127966 141.33069 90.161459 142.30314 89.155001 142.76172 C 88.429907 143.09209 87.680391 144.24658 87.680391 145.03125 C 87.680391 145.22965 88.013282 145.07797 88.420626 144.69531 C 89.380587 143.79348 89.726473 143.81896 91.057344 144.88086 C 92.301046 145.87321 92.382931 146.24442 91.635469 147.50977 C 91.175822 148.28789 91.165495 148.52202 91.553438 149.39844 C 91.974785 150.35033 92.755079 150.76382 92.840548 150.08008 C 92.862568 149.90408 92.898626 149.62813 92.920626 149.4668 C 92.999586 148.88777 93.433035 148.71531 93.87961 149.08594 C 94.360544 149.48508 94.338655 151.62125 93.850313 151.96875 C 93.702729 152.07377 93.309772 152.77742 92.977266 153.53125 C 92.524467 154.55782 92.465545 154.99219 92.738985 155.26562 C 93.012422 155.53905 93.303224 155.41629 93.897188 154.77539 C 94.333354 154.30476 94.839739 153.91992 95.024141 153.91992 C 95.208544 153.91992 95.360079 153.6313 95.360079 153.2793 C 95.360079 152.5828 95.596281 152.49573 96.287813 152.93359 C 96.666296 153.17323 96.649249 153.43018 96.180391 154.60742 C 95.875525 155.3729 95.439654 156.21647 95.211641 156.48047 C 94.532874 157.26637 93.760469 158.96122 93.760469 159.66406 C 93.760469 160.68556 94.890887 160.49034 95.346407 159.39062 C 95.925452 157.99268 97.096816 157.01869 97.893282 157.27148 C 98.431346 157.44226 98.519615 157.65035 98.350313 158.3418 C 98.234735 158.81383 97.982537 159.25658 97.789766 159.32617 C 97.596996 159.39577 96.767872 160.12043 95.946016 160.93555 C 95.124158 161.75067 94.309482 162.3705 94.135469 162.3125 C 93.529176 162.1104 93.399878 162.89576 93.881563 163.86133 C 94.148347 164.39611 94.286908 165.04356 94.188204 165.30078 C 93.924966 165.98676 94.674158 166.71964 95.639376 166.7207 C 96.223724 166.72134 96.675061 167.02109 97.119844 167.70117 C 97.734843 168.64152 97.825791 168.67117 99.440157 168.47656 C 101.37106 168.2438 101.54472 168.5239 100.35031 169.94336 C 99.759863 170.64508 99.537122 170.74824 99.399141 170.38867 C 99.191878 169.84854 97.741274 169.7536 97.428438 170.25977 C 97.31281 170.44686 97.426018 170.84372 97.680391 171.14062 C 97.934881 171.43754 98.230506 171.92935 98.338594 172.23438 C 98.458879 172.57383 98.728255 172.71614 99.031954 172.59961 C 99.304856 172.49488 99.732469 172.57683 99.981173 172.7832 C 100.22987 172.9896 100.68033 173.1133 100.98313 173.05859 C 101.85905 172.90032 101.88994 173.71434 101.01633 173.93359 C 100.29914 174.1136 100.24378 174.25401 100.39328 175.4668 C 100.62239 177.32548 101.16934 178.38277 101.95969 178.49609 C 102.32979 178.54919 103.03869 179.01817 103.53586 179.53711 C 104.0586 180.08274 104.77253 180.48047 105.22922 180.48047 C 105.99084 180.48047 106.00014 180.50218 105.45774 181.10156 C 104.63896 182.0063 105.17099 183.41806 106.47141 183.79102 C 107.34099 184.04041 107.44871 184.20468 107.42844 185.23633 C 107.38684 187.35152 109.03143 190.0316 110.39914 190.07617 C 111.15466 190.10077 112.31906 191.52809 112.31906 192.42969 C 112.31906 192.88014 112.57161 193.39066 112.87961 193.56445 C 113.32814 193.81753 113.36015 193.95967 113.03977 194.2832 C 112.81977 194.50536 112.63938 195.09118 112.63938 195.58398 C 112.63938 196.82936 113.43507 196.744 114.74094 195.35938 C 115.99959 194.02483 116.63434 193.89768 116.34836 195.03711 C 116.23764 195.47826 116.35791 196.33584 116.61789 196.95703 C 117.08081 198.06494 117.07693 198.08008 116.29367 198.08008 C 115.2283 198.08008 115.05836 198.69521 115.64524 200.42383 C 116.11695 201.81324 118.34087 204.48047 119.02805 204.48047 C 119.21102 204.48047 119.35996 204.66086 119.36008 204.88086 C 119.36021 205.1298 118.9078 205.2793 118.16086 205.2793 C 117.14052 205.2793 116.97591 205.37582 117.06125 205.91992 C 117.11645 206.27192 117.1622 206.80335 117.16281 207.09961 C 117.16345 207.39587 117.36963 207.80829 117.6218 208.01758 C 117.87398 208.22687 118.08078 208.72051 118.08078 209.11523 C 118.08078 209.50994 118.36745 210.19898 118.71945 210.64648 C 119.07145 211.09397 119.36008 211.90944 119.36008 212.45703 C 119.36008 213.37658 119.42814 213.43786 120.24094 213.25977 C 120.72494 213.15372 121.31014 213.00778 121.54172 212.93555 C 121.83402 212.84435 121.93219 213.07128 121.86203 213.67773 C 121.78223 214.36779 121.59161 214.55118 120.95969 214.55469 C 120.32191 214.55869 120.13955 214.74201 120.05734 215.45898 C 120.00064 215.95362 120.09074 216.53087 120.25852 216.74023 C 120.59622 217.16155 120.54264 219.22128 120.17844 219.81055 C 120.05072 220.01722 119.69 220.10499 119.37766 220.00586 C 118.56548 219.74809 117.9653 220.62184 118.1882 221.73633 C 118.31887 222.38973 118.1365 223.11821 117.58664 224.15234 C 116.68983 225.839 116.61693 226.14974 117.23508 225.63672 C 117.47426 225.43822 118.37426 225.0476 119.23508 224.76758 C 120.09591 224.48757 122.59953 224.12725 124.79953 223.9668 C 133.76638 223.31287 135.69201 222.94996 137.89719 221.50195 C 138.3517 221.20351 138.95624 220.81662 139.24094 220.64062 C 139.52563 220.46463 140.65679 219.69148 141.75461 218.92383 L 143.7507 217.5293 L 148.35617 217.08984 C 151.79325 216.76259 153.3075 216.47672 154.32102 215.96289 C 155.06813 215.58413 155.75255 215.17093 155.84055 215.04492 C 155.92855 214.91891 156.33062 214.64079 156.73508 214.42773 C 157.49739 214.02615 157.47376 213.1198 156.67844 212.30273 C 156.48166 212.10058 155.76483 211.26531 155.08664 210.44727 C 154.40844 209.62922 153.66934 208.96094 153.44406 208.96094 C 153.21878 208.96094 152.94983 208.70839 152.84641 208.40039 C 152.74299 208.09239 152.51987 207.62337 152.35031 207.35938 C 152.18075 207.09538 151.8575 205.97267 151.63156 204.86328 C 151.25011 202.99025 151.03378 202.64569 148.60422 200.05273 C 146.81804 198.14642 145.46957 197.01849 144.35422 196.49609 C 143.10134 195.90928 142.71945 195.56281 142.71945 195.01172 C 142.71945 194.38003 142.55553 194.29344 141.36008 194.29102 C 140.41008 194.28902 139.04093 193.83473 136.81906 192.78711 C 135.06962 191.96224 132.90549 191.18982 132.01047 191.06836 C 131.11546 190.94691 130.17235 190.70979 129.91281 190.54297 C 129.65327 190.37614 128.49116 190.2392 127.33078 190.23828 C 125.51277 190.23628 125.02933 190.10433 123.84445 189.2832 C 123.08818 188.75911 122.11622 187.79432 121.68234 187.13867 C 120.90724 185.96741 120.85254 185.94523 118.60617 185.85352 L 116.31906 185.75977 L 116.42844 184.80078 C 116.57954 183.45171 116.82749 183.28999 119.10031 183.07227 C 121.58265 182.83449 121.97858 182.13045 120.05539 181.375 C 119.0134 180.9657 118.75482 180.68074 118.51438 179.66406 C 118.28649 178.70044 118.03345 178.39041 117.31125 178.19727 C 116.80795 178.06267 116.00812 178.03017 115.53391 178.125 C 114.85656 178.26047 114.55781 178.12281 114.13938 177.48438 C 113.63018 176.70724 113.63641 176.65041 114.31125 176.17773 C 114.69949 175.9058 115.49405 175.59371 116.07688 175.48438 C 117.55262 175.20753 117.98219 174.30283 117.14328 173.23633 C 116.65694 172.61804 116.57284 172.26433 116.80734 171.82617 C 117.40495 170.70951 117.189 170.57748 115.09055 170.77344 C 113.30209 170.94045 113.03323 170.89282 112.83078 170.36523 C 112.6676 169.93999 112.81535 169.60272 113.34055 169.20312 C 113.74733 168.89365 114.25298 168.49637 114.46555 168.32031 C 114.67812 168.14425 115.43576 168 116.14719 168 C 116.85862 168 117.44016 167.85179 117.44016 167.66992 C 117.44016 167.48806 117.9433 166.83475 118.5593 166.21875 C 119.1753 165.60275 119.68039 164.9617 119.68039 164.79492 C 119.68039 164.62814 120.0753 164.40488 120.5593 164.29883 C 121.0433 164.19278 121.62098 164.05078 121.8425 163.98242 C 122.42247 163.80345 123.00155 162.37594 122.75461 161.73242 C 122.56299 161.23305 122.47812 161.24656 121.81125 161.87305 C 120.81463 162.80934 120.63938 162.74345 120.63938 161.43945 C 120.63938 160.25436 120.36226 160.08872 119.39719 160.69141 C 118.48211 161.26289 117.76047 160.80645 117.76047 159.6582 C 117.76047 158.9239 117.44247 158.3442 116.56906 157.48828 C 113.74803 154.72374 113.26525 153.96019 113.48313 152.59766 C 113.68501 151.3352 113.68583 151.33452 112.86399 151.70898 C 111.71177 152.23397 111.09976 151.893 110.98117 150.6582 C 110.90027 149.81631 110.66784 149.50671 109.84055 149.14258 C 108.95976 148.75491 108.79953 148.51681 108.79953 147.5918 C 108.79953 146.76871 108.64317 146.45815 108.16086 146.33203 C 107.71854 146.21636 107.52024 145.89711 107.52024 145.29492 C 107.52024 144.67606 107.28767 144.31749 106.71945 144.05859 C 106.12779 143.78901 105.92063 143.4463 105.92063 142.74414 C 105.92063 142.02608 105.70535 141.69066 105.03977 141.36523 C 104.21533 140.96212 104.16521 140.81924 104.24289 139.10742 C 104.31789 137.45374 104.26417 137.2793 103.67258 137.2793 C 103.26795 137.2793 102.77234 136.86501 102.37375 136.18945 C 102.01957 135.58916 101.52813 135.02024 101.28195 134.92578 C 101.03577 134.83128 100.73522 134.20636 100.61399 133.53711 C 100.49276 132.86786 100.19822 131.93034 99.957735 131.45508 C 99.717258 130.97982 99.520235 130.07982 99.520235 129.45508 C 99.520235 128.67086 99.375108 128.32031 99.051485 128.32031 C 98.355118 128.32031 97.96413 127.3622 97.565157 124.67969 L 97.207735 122.27344 L 96.444063 122.77344 C 95.411644 123.4499 95.429922 122.78808 96.479219 121.54102 C 97.460649 120.37466 97.557637 119.03906 96.66086 119.03906 C 96.320719 119.03906 95.961184 118.78507 95.862032 118.47266 C 95.762872 118.16026 95.169549 117.37489 94.541719 116.72852 C 93.564008 115.72191 93.450533 115.45879 93.75461 114.89062 C 94.222114 114.01709 93.99409 113.71593 92.676485 113.46875 C 90.968743 113.14837 90.737831 112.63004 91.555391 110.94727 C 92.317247 109.37914 92.213403 108.45239 91.299532 108.66406 C 90.516947 108.84533 89.688526 108.14854 89.543673 107.1875 C 89.427209 106.41485 89.34265 106.39488 87.920626 106.79688 C 87.492341 106.91795 87.360079 106.76251 87.360079 106.13867 C 87.360079 105.60702 87.139717 105.25395 86.727266 105.12305 C 86.32647 104.99584 85.962747 104.43591 85.737032 103.59766 C 85.436062 102.47995 85.461274 102.2168 85.891329 101.90234 C 86.5016 101.4561 86.551839 100.90857 86.000704 100.70898 C 85.680704 100.59309 85.680704 100.42869 86.000704 99.886719 C 86.558412 98.942151 86.52359 98.880859 85.440157 98.880859 C 84.650375 98.880859 84.479219 98.749136 84.479219 98.140625 C 84.479219 97.733812 84.22873 97.122437 83.920626 96.78125 C 83.612517 96.440063 82.64036 95.255203 81.760469 94.150391 C 80.410976 92.455941 79.908095 92.068176 78.547579 91.667969 C 77.496329 91.358734 76.103468 90.514305 74.547579 89.244141 C 73.234661 88.172331 71.583609 87.002341 70.87961 86.642578 C 70.175611 86.282815 69.425632 85.742462 69.213594 85.441406 C 68.259044 84.086125 62.457081 78.434067 61.53586 77.962891 C 60.716963 77.544049 59.387578 77.366721 58.059298 77.412109 z "
       transform="translate(-6.1237507)"
       inkscape:label="Branch" />
    <path
       id="path3250"
       style="fill:#917c6f;stroke-width:0.32"
       d="M 79.182344 1.21875 L 76.908907 3.4101562 C 74.522284 5.710549 73.129108 7.8651789 73.000704 9.4550781 C 72.978724 9.7274815 72.595512 10.28944 72.149141 10.703125 C 71.455447 11.346017 71.274303 11.936212 70.906954 14.767578 C 70.354778 19.0235 70.577939 21.295703 71.647188 22.310547 C 71.97683 22.623418 72.546825 23.445006 72.912813 24.134766 C 73.278804 24.824523 73.7032 25.471978 73.856173 25.574219 C 74.297617 25.869259 76.479219 30.008911 76.479219 30.550781 C 76.479219 30.820372 76.767846 31.327688 77.119844 31.679688 C 77.471844 32.031686 77.760469 32.591366 77.760469 32.921875 C 77.760469 33.460493 78.225473 34.822242 79.031954 36.640625 C 79.538611 37.782985 79.692316 39.439008 79.715548 44 C 79.754618 51.671603 79.592099 53.934831 78.946016 54.648438 C 78.380053 55.273546 78.402061 55.284879 80.465548 55.505859 C 81.617496 55.629222 82.559298 55.837354 82.559298 55.966797 C 82.559298 56.376347 86.470259 57.592734 88.799532 57.908203 C 90.03153 58.07506 92.377222 58.439149 94.012423 58.716797 C 95.647625 58.994445 97.120836 59.139099 97.28586 59.037109 C 97.450884 58.935118 98.007973 59.1633 98.524141 59.544922 C 99.179597 60.029518 100.06988 60.278989 101.47531 60.373047 C 102.58207 60.447117 103.64488 60.637727 103.83664 60.796875 C 104.17259 61.075691 105.62284 61.495624 108.31906 62.091797 C 109.02306 62.247461 110.53639 62.598525 111.68039 62.873047 C 114.645 63.584456 116.85924 63.991205 117.60031 63.960938 C 117.95231 63.946568 118.708 64.084054 119.28 64.265625 C 119.88226 64.456802 120.31906 64.472385 120.31906 64.302734 C 120.31906 64.141609 120.78808 64.293834 121.36008 64.642578 C 122.54856 65.36721 123.53611 65.456779 124.10422 64.888672 C 124.41134 64.581555 124.63068 64.579814 125.11594 64.882812 C 125.45659 65.095551 125.94441 65.188641 126.20188 65.089844 C 126.47752 64.984068 126.81658 65.182754 127.02609 65.574219 C 127.54233 66.538815 126.93419 67.523059 125.82883 67.509766 C 124.91008 67.498726 122.25815 66.647173 121.02414 65.966797 C 120.61992 65.743927 117.88578 65.269277 114.94602 64.912109 C 111.3107 64.47044 109.52142 64.122437 109.35227 63.824219 C 109.21549 63.583054 108.56608 63.293414 107.91086 63.181641 C 106.75596 62.984627 105.32967 62.600188 103.68039 62.039062 C 103.24039 61.889365 102.01569 61.75236 100.95969 61.736328 C 99.903693 61.720298 98.350254 61.472795 97.506563 61.185547 C 96.281967 60.768615 95.84811 60.741609 95.356173 61.048828 C 94.833363 61.375331 94.624648 61.310842 93.985079 60.621094 C 93.19365 59.767572 90.64956 59.143153 87.680391 59.074219 C 86.888393 59.055819 85.926148 58.860625 85.541719 58.640625 C 85.157292 58.420625 84.573215 58.240234 84.244844 58.240234 C 83.916474 58.240234 83.511654 58.12196 83.344454 57.976562 C 82.503003 57.244836 79.101513 56.674799 75.119844 56.599609 C 73.70862 56.572949 72.639376 56.41478 72.639376 56.232422 C 72.639376 56.02629 71.670177 55.990859 69.920626 56.132812 C 68.202321 56.272233 67.199923 56.23778 67.199923 56.039062 C 67.199923 55.644184 62.837007 53.439453 62.055391 53.439453 C 61.737428 53.439453 61.388775 53.583766 61.280001 53.759766 C 61.171226 53.935764 60.532138 54.080078 59.860079 54.080078 C 59.126062 54.080078 58.467115 54.285524 58.209688 54.595703 C 57.86521 55.010779 57.465339 55.066412 56.170626 54.875 C 55.284775 54.744037 52.687137 54.665335 50.399141 54.701172 L 46.240938 54.767578 L 45.280001 55.837891 C 44.752001 56.427297 43.960235 57.005379 43.520235 57.121094 C 41.929641 57.539396 40.558622 58.318118 40.408907 58.890625 C 40.324837 59.2121 39.713293 59.693402 39.049532 59.958984 C 38.385771 60.224571 37.756463 60.666823 37.651094 60.941406 C 37.545729 61.216011 37.256491 61.439453 37.008516 61.439453 C 36.253504 61.439453 35.69661 62.410215 35.653048 63.800781 C 35.630298 64.5268 35.424085 65.565894 35.194063 66.111328 C 34.823687 66.989576 34.854733 67.267394 35.467501 68.533203 C 35.848059 69.319332 36.164296 70.097287 36.170626 70.261719 C 36.191966 70.816402 37.686187 72.402619 38.002657 72.207031 C 38.206629 72.080971 38.20755 71.535122 38.006563 70.646484 C 37.311013 67.571005 37.338842 66.453851 38.133516 65.560547 C 38.543554 65.099616 39.253255 64.63456 39.709688 64.527344 C 40.471222 64.348458 42.231879 62.896914 42.246798 62.435547 C 42.250298 62.327547 42.969903 61.813345 43.846407 61.292969 C 44.722914 60.772595 45.440157 60.233376 45.440157 60.09375 C 45.440157 59.954128 46.087612 59.839844 46.87961 59.839844 C 47.963106 59.839844 48.319063 59.718574 48.319063 59.347656 C 48.319063 58.971984 48.628745 58.873164 49.619844 58.931641 C 51.327132 59.03238 51.4898 59.390781 50.092501 59.974609 C 49.469407 60.234955 48.959688 60.598224 48.959688 60.783203 C 48.959688 60.968186 48.340275 61.119141 47.582735 61.119141 C 45.385388 61.119141 42.283603 63.452669 41.487032 65.705078 C 41.327182 66.157068 41.074984 66.246479 40.37961 66.09375 L 39.479219 65.894531 L 39.498751 67.826172 C 39.510011 68.887946 39.628471 69.7568 39.760469 69.757812 C 39.892469 69.758772 40.000704 70.091294 40.000704 70.496094 C 40.000704 70.900892 40.179143 71.42305 40.399141 71.65625 C 40.719141 71.99545 40.719141 72.109232 40.399141 72.226562 C 40.179143 72.307232 40.000704 72.721154 40.000704 73.146484 C 40.000704 73.571818 39.856391 73.919922 39.680391 73.919922 C 39.020016 73.919922 39.395489 74.591188 40.399141 75.203125 C 41.801786 76.058333 42.367014 76.004758 42.905001 74.960938 C 43.154452 74.476938 43.53823 73.964965 43.758516 73.824219 C 43.978804 73.683474 44.162806 73.394849 44.166719 73.183594 C 44.170639 72.972375 44.471333 72.44 44.834688 72 C 45.198048 71.56 45.409582 71.370288 45.303438 71.578125 C 44.982134 72.207272 45.642005 72.343384 46.145235 71.751953 C 46.403769 71.448104 46.800025 70.733459 47.026094 70.162109 C 47.343486 69.359954 47.90368 68.891801 49.485079 68.113281 C 50.611458 67.558765 51.612847 67.186362 51.711641 67.285156 C 52.063756 67.637271 51.199654 68.730668 49.612032 69.941406 C 48.725378 70.617578 48.000704 71.295999 48.000704 71.447266 C 48.000704 71.598534 47.208936 72.475725 46.240938 73.398438 C 45.272939 74.321147 44.479219 75.249133 44.479219 75.458984 C 44.479219 75.668837 44.367504 75.839844 44.229219 75.839844 C 44.090933 75.839844 43.954809 76.092391 43.928438 76.400391 C 43.902068 76.708389 43.782867 77.356786 43.662813 77.841797 C 43.457088 78.672921 43.901624 79.679687 44.47336 79.679688 C 44.602109 79.679688 45.123816 79.316093 45.633516 78.871094 C 47.121543 77.571947 47.304163 77.4441 48.071016 77.173828 C 48.471678 77.032615 49.80777 76.879347 51.039766 76.833984 C 52.655905 76.774474 53.586607 76.563907 54.37961 76.074219 C 55.141042 75.604027 55.517811 75.512266 55.606173 75.777344 C 55.753793 76.220216 57.233953 76.281285 57.881563 75.871094 C 58.124111 75.717465 58.238705 75.456844 58.137423 75.292969 C 57.896156 74.902591 62.093903 73.900695 62.988985 74.134766 C 63.470458 74.260671 63.680391 74.168386 63.680391 73.833984 C 63.680391 73.569941 64.24899 72.840844 64.944063 72.212891 C 65.639135 71.584936 66.434193 70.632224 66.711641 70.095703 C 67.262252 69.030953 67.840548 68.807357 67.840548 69.658203 C 67.840548 70.865964 67.045261 72.223328 65.721407 73.279297 C 64.102441 74.570662 63.958482 75.314617 65.199923 75.964844 C 66.178916 76.477607 67.757428 78.094255 68.590548 79.439453 C 68.8903 79.923453 69.355085 80.320312 69.623751 80.320312 C 70.286254 80.320312 72.319063 82.335683 72.319063 82.992188 C 72.319063 83.282407 72.499454 83.526304 72.719454 83.535156 C 75.41813 83.6437 75.917308 83.824166 77.418673 85.228516 C 78.264127 86.01934 79.700392 87.0439 80.612032 87.505859 C 81.523668 87.967824 82.34574 88.54224 82.438204 88.783203 C 82.530674 89.024163 82.951088 89.308471 83.371798 89.414062 C 83.916747 89.550837 84.2454 89.969425 84.514376 90.867188 C 84.943871 92.300726 85.753442 92.86981 85.770235 91.75 L 85.781954 91.039062 L 86.381563 91.759766 C 87.036548 92.544897 87.676737 92.675529 88.219454 92.132812 C 88.470094 91.882174 88.884163 92.197863 89.697969 93.263672 C 90.322087 94.081056 90.918694 94.59537 91.031954 94.412109 C 91.391895 93.829714 91.709854 94.049775 92.16086 95.199219 C 92.519698 96.113758 92.76715 96.320313 93.510469 96.320312 C 94.024444 96.320312 94.500225 96.529772 94.604219 96.800781 C 94.705528 97.064781 94.984381 97.279297 95.22336 97.279297 C 95.462336 97.279297 95.809685 97.566393 95.996798 97.916016 C 96.19815 98.292251 96.628681 98.529496 97.049532 98.498047 C 97.80112 98.441887 103.03977 101.03834 103.03977 101.4668 C 103.03977 101.60485 103.36447 101.81546 103.76047 101.93555 C 104.15647 102.05563 104.77193 102.42161 105.12961 102.74805 C 106.22256 103.74558 112.4211 104.92554 117.06516 105.02148 C 120.36222 105.08958 122.85348 104.75201 123.53195 104.14453 C 123.81233 103.89348 124.33313 103.78542 124.74289 103.89258 C 125.19858 104.01174 125.69144 103.87098 126.09055 103.50977 C 126.43676 103.19645 126.71945 103.03841 126.71945 103.1582 C 126.71945 103.47741 128.45633 102.52674 128.94211 101.94141 C 129.41082 101.37663 130.5593 101.25982 130.5593 101.77734 C 130.5593 102.17875 128.62801 104 128.20188 104 C 128.03902 104 127.13448 104.82784 126.19211 105.83984 C 124.85408 107.27673 124.41504 107.58185 124.1882 107.22852 C 123.95599 106.86681 123.59607 107.04041 122.39719 108.0957 L 120.89719 109.41602 L 118.28977 109.24414 C 116.85479 109.15044 114.98795 108.94083 114.14328 108.77734 C 113.29862 108.61384 111.93064 108.48047 111.10227 108.48047 C 109.74367 108.48047 109.55572 108.38697 109.18039 107.53906 C 108.63359 106.30374 107.98247 106.21135 106.24484 107.11914 C 103.49515 108.55565 102.54966 110.01199 103.78977 110.89844 L 104.47922 111.39258 L 103.68039 112.09766 C 102.90287 112.78251 102.08078 114.23855 102.08078 114.93164 C 102.08078 115.11988 102.36745 115.19947 102.71945 115.10742 C 103.47212 114.91059 103.52386 115.35347 102.87961 116.48047 C 102.35124 117.40476 102.24885 119.03906 102.71945 119.03906 C 102.89545 119.03906 103.03977 119.45918 103.03977 119.9707 C 103.03977 120.76265 103.1419 120.87275 103.72336 120.7207 C 104.09892 120.6225 104.34629 120.6734 104.27414 120.83203 C 104.20194 120.99071 103.86886 121.65862 103.53391 122.31641 C 102.84964 123.66018 103.06267 124.18027 104.04563 123.56641 C 105.00112 122.96968 105.07708 123.28433 104.29758 124.60547 C 103.735 125.55898 103.68374 125.85788 104.01242 126.25391 C 104.32172 126.6266 104.33004 126.9248 104.04758 127.54492 C 103.56842 128.59657 103.5845 129.02733 104.13156 129.77539 C 104.57636 130.38369 104.59272 130.38266 105.29172 129.75586 L 106.0007 129.11914 L 105.32102 130.24023 C 104.677 131.30285 104.41805 132.48047 104.82883 132.48047 C 104.93307 132.48047 105.39848 132.18104 105.86203 131.81641 C 106.94016 130.96835 107.13779 131.50792 106.26633 132.91797 C 105.89978 133.51107 105.60031 134.23036 105.60031 134.51758 C 105.60031 135.08981 106.71436 135.24723 107.03977 134.7207 C 107.14855 134.5447 107.38174 134.40039 107.55734 134.40039 C 107.73293 134.40039 107.65164 134.72017 107.37766 135.11133 C 106.57245 136.26093 106.73281 136.74889 107.84055 136.52734 C 108.5601 136.38343 108.79953 136.45474 108.79953 136.80859 C 108.79953 137.06819 108.65522 137.2793 108.47922 137.2793 C 107.98412 137.2793 108.10328 138.46855 108.61789 138.66602 C 108.86919 138.76242 109.11979 139.24584 109.17649 139.74023 C 109.25089 140.3893 109.4808 140.66835 110.0007 140.74219 C 110.3967 140.79839 110.71945 141.05097 110.71945 141.30273 C 110.71945 141.86588 111.41315 141.90002 111.94992 141.36328 C 112.26636 141.04684 112.40581 141.05997 112.63547 141.43164 C 113.00016 142.02173 112.50862 142.64858 111.57688 142.78125 C 110.74848 142.89921 110.66092 143.63335 111.41867 144.11133 C 111.81014 144.35826 112.17265 144.33542 112.74094 144.03125 C 113.68344 143.52684 114.88175 143.83633 114.8757 144.58203 C 114.8667 145.68678 114.46851 146.59378 114.06125 146.4375 C 113.49815 146.22142 112.84224 147.07132 113.08469 147.70312 C 113.23119 148.08488 113.61917 148.18762 114.61203 148.10742 C 115.47295 148.03792 115.98902 148.14152 116.07688 148.40039 C 116.15158 148.62039 115.98637 148.80078 115.70774 148.80078 C 115.03012 148.80078 115.02659 150.49865 115.70383 151.06055 C 116.12185 151.40748 116.25785 151.40025 116.4968 151.01953 C 116.65536 150.76684 116.70787 150.308 116.61203 150 C 116.48591 149.59471 116.61503 149.43945 117.08078 149.43945 C 117.81878 149.43945 118.2481 149.93858 117.76633 150.23633 C 117.35922 150.48794 117.33253 152.96094 117.73703 152.96094 C 118.15473 152.96094 119.03786 152.03048 119.04953 151.57812 C 119.07333 150.65517 119.82632 152.59856 119.83274 153.59961 C 119.83874 154.51642 119.97099 154.7382 120.5632 154.82227 C 121.14873 154.90537 121.32494 154.73627 121.48508 153.93555 C 121.73182 152.70188 122.03316 152.50688 122.88156 153.0293 C 123.46497 153.38856 123.61903 153.34741 124.11008 152.70117 L 124.67258 151.96289 L 125.11008 152.78125 C 125.60897 153.71343 125.92995 153.81249 126.19602 153.11914 C 126.45689 152.43933 127.03977 152.5231 127.03977 153.24023 C 127.03977 153.57068 127.24038 154.00785 127.48508 154.21094 C 127.84098 154.50631 128.1293 154.30983 128.92453 153.22852 C 129.66031 152.22801 129.81556 151.81059 129.52024 151.62305 C 129.20855 151.42512 129.20671 151.36906 129.51438 151.36523 C 129.73103 151.36223 129.99732 151.00597 130.10617 150.57227 C 130.21502 150.13858 130.55922 149.70273 130.8718 149.60352 C 131.26842 149.47764 131.50004 148.96665 131.63547 147.91211 C 131.96094 145.37793 132.19006 144.1891 132.48703 143.51953 C 133.37729 141.51216 133.76047 140.29896 133.76047 139.48047 C 133.76047 138.92425 133.92932 138.56055 134.1882 138.56055 C 134.81595 138.56055 135.36008 137.13676 135.36008 135.49414 C 135.36008 134.5118 135.51288 134.00149 135.8425 133.875 C 136.40332 133.6598 136.99831 132.44363 137.85813 129.75977 C 138.19644 128.70377 138.91662 127.19239 139.45774 126.40039 C 140.76606 124.48547 147.71365 117.75977 148.38352 117.75977 C 148.50194 117.75977 149.25437 117.44246 150.05539 117.05469 C 150.85641 116.66692 152.34162 116.29018 153.35617 116.2168 C 154.37071 116.1434 155.19992 115.96704 155.19992 115.82617 C 155.19992 115.68531 155.63286 115.47533 156.16086 115.35938 C 156.68886 115.24341 157.11984 114.94891 157.11984 114.70508 C 157.11984 113.87867 158.42109 113.5171 160.83274 113.67188 C 163.03272 113.81304 164.79953 114.48328 164.79953 115.17578 C 164.79953 115.33017 164.0998 115.62451 163.24289 115.83008 C 161.95025 116.14018 161.4838 116.11893 160.50266 115.70898 C 159.3563 115.23 159.2638 115.24485 157.53391 116.16797 C 156.55244 116.69171 155.44145 117.11914 155.0632 117.11914 C 153.87584 117.11914 150.61438 118.05692 149.28 118.78125 C 148.576 119.16339 147.12879 120.20546 146.0632 121.09766 C 144.9976 121.98987 143.72681 123.00738 143.23899 123.35938 C 142.29404 124.04117 141.33932 125.55347 141.655 125.86914 C 141.75944 125.97359 141.32181 126.58124 140.68234 127.2207 C 140.0429 127.86017 139.52024 128.58006 139.52024 128.82031 C 139.52024 129.34733 138.68377 131.94995 138.08664 133.2793 C 136.09897 137.70424 136.01788 137.95514 136.38742 138.54688 C 136.6783 139.01262 136.64005 139.31193 136.20969 139.96875 C 135.91008 140.42602 135.54028 140.80078 135.38742 140.80078 C 134.89559 140.80078 134.64786 142.47744 135.09836 142.75586 C 135.43625 142.96469 135.43339 143.20616 135.08274 144.06641 C 134.84629 144.64633 134.54629 145.69639 134.41672 146.40039 C 134.28716 147.10439 133.87685 148.32714 133.50656 149.11914 C 132.33975 151.61476 131.52621 154.66117 131.90305 155.11523 C 132.14097 155.40191 132.13331 155.51953 131.87961 155.51953 C 131.68206 155.51953 131.52024 155.66384 131.52024 155.83984 C 131.52024 156.01584 131.71676 156.16016 131.95774 156.16016 C 132.2091 156.16016 132.47233 156.62958 132.57492 157.26172 C 132.67322 157.86767 133.07934 158.80359 133.47727 159.3418 C 134.14877 160.25006 134.17314 160.43211 133.80734 161.85938 C 133.41435 163.39272 133.57048 164.63474 134.11399 164.29883 C 134.27152 164.20143 134.40109 163.83616 134.40109 163.48633 C 134.40109 162.86809 134.42229 162.86698 135.19016 163.42578 C 135.78049 163.85543 135.98343 164.3011 135.99094 165.18945 C 135.99794 166.06433 136.17841 166.47277 136.67453 166.73828 C 137.20932 167.02449 137.30971 167.29483 137.15891 168.04883 C 136.89504 169.3682 137.69956 171.19922 138.54367 171.19922 C 138.90884 171.19922 139.19992 171.40922 139.19992 171.67188 C 139.19992 172.0324 139.02634 172.07724 138.46359 171.86328 C 137.4754 171.48756 136.64133 171.99816 136.64133 172.97656 C 136.64133 173.40782 136.50775 173.75977 136.34641 173.75977 C 136.18508 173.75977 136.05344 173.10498 136.05344 172.30469 C 136.05344 170.64428 135.60092 169.91992 134.56125 169.91992 C 134.16435 169.91992 133.66126 169.70507 133.44406 169.44336 C 133.22686 169.18165 132.18728 168.65375 131.13352 168.26953 C 129.84849 167.80099 129.1055 167.32624 128.87766 166.82617 C 128.62438 166.27028 128.27614 166.08008 127.50852 166.08008 C 126.94227 166.08008 125.93788 165.85381 125.27805 165.57812 C 123.40042 164.79361 121.76816 165.22006 120.14133 166.91797 C 119.4025 167.68909 118.61733 168.32031 118.39719 168.32031 C 118.11654 168.32031 118.0516 168.66309 118.18234 169.46875 C 118.28498 170.10128 118.20984 170.87449 118.01438 171.1875 C 117.53416 171.95645 117.90926 172.80078 118.73117 172.80078 C 119.10027 172.80078 119.69251 172.95646 120.04758 173.14648 C 120.53723 173.40854 120.82272 173.38059 121.22727 173.03516 C 122.01558 172.36205 126.07587 171.73207 127.10422 172.12305 C 128.53129 172.66563 128.3976 173.04552 126.79563 173.00195 C 125.5599 172.96835 125.28787 173.05995 125.32102 173.49805 C 125.35512 173.94888 125.22581 173.98311 124.52024 173.71289 C 123.18538 173.2017 120.51755 173.66749 119.75461 174.54492 C 119.26146 175.1121 119.19197 175.38433 119.47141 175.66797 C 119.75063 175.95138 119.72318 176.13559 119.36008 176.42188 C 119.06766 176.65242 118.91956 177.19415 118.97922 177.80859 C 119.05502 178.58903 119.29813 178.90932 120.0593 179.22461 C 120.60034 179.44871 121.47997 180.02933 122.01242 180.51562 L 122.97922 181.40039 L 122.36984 182.26562 C 122.03449 182.74116 121.63255 183.29991 121.47727 183.50781 C 121.20984 183.86585 122.56987 186.36644 123.35813 186.9668 C 123.53578 187.1021 124.35253 187.12542 125.17453 187.01953 C 126.49471 186.84947 126.71404 186.91026 127.04953 187.53711 C 127.41673 188.22324 127.55282 188.23997 131.155 188.08008 C 134.36021 187.93782 135.03716 187.99808 136.0007 188.50391 C 138.16812 189.64185 141.29963 190.97579 143.04172 191.50391 C 144.01017 191.79749 145.16272 192.31914 145.60227 192.66211 C 146.48447 193.35048 148.41811 193.38947 148.95969 192.73047 C 149.13569 192.5163 150.92546 191.82815 152.93625 191.20117 C 158.23698 189.54835 158.1542 189.60401 158.64914 187.37305 C 158.88157 186.32533 159.23374 185.2725 159.43234 185.0332 C 160.06545 184.27034 160.23276 177.58381 159.70969 173.93555 C 159.53422 172.71171 159.50824 171.55916 159.65305 171.375 C 159.90928 171.04908 160.1604 169.5712 160.53391 166.17969 C 160.71348 164.54919 161.1382 163.99554 161.86594 164.44531 C 162.14023 164.61483 162.12232 165.31682 161.79758 167.2168 C 161.55848 168.6157 161.33704 170.47938 161.30539 171.35938 C 161.27379 172.23936 161.21669 173.50016 161.17844 174.16016 C 161.14024 174.82016 161.18344 175.36031 161.27414 175.36133 C 161.36514 175.36229 161.45013 176.23812 161.46164 177.30664 C 161.47314 178.37516 161.61746 179.34638 161.78195 179.46484 C 161.94643 179.58331 162.11072 180.16461 162.14914 180.75586 C 162.18754 181.34711 162.37504 182.01701 162.56516 182.24609 C 162.80493 182.535 162.80746 182.72724 162.57492 182.87109 C 162.39038 182.98514 162.24094 183.3576 162.24094 183.69922 C 162.24094 184.31183 162.58455 184.50991 162.97336 184.12109 C 163.37401 183.72045 167.08554 183.63965 167.54563 184.02148 C 167.88404 184.30233 168.11131 184.3052 168.4343 184.03711 C 168.75647 183.76974 170.10752 183.7744 173.66672 184.05469 C 178.81284 184.46 183.0989 184.13429 184.47531 183.23242 C 184.85066 182.98649 185.51205 182.85259 185.94602 182.93555 C 186.49334 183.04018 187.00738 182.83491 187.62375 182.26367 C 188.12644 181.79779 188.89211 181.43945 189.38547 181.43945 C 189.96839 181.43945 190.65078 181.04232 191.44602 180.24023 C 193.55128 178.11685 194.24094 177.25697 194.24094 176.75195 C 194.24094 176.1016 195.16108 174.52679 196.16086 173.46484 C 197.21311 172.34716 197.51647 171.84926 199.04367 168.73633 C 199.75183 167.29286 200.47224 166.02294 200.64524 165.91602 C 200.81821 165.8091 200.95969 165.37821 200.95969 164.95898 C 200.95969 164.53975 201.104 164.10877 201.28 164 C 201.456 163.89123 201.60031 162.99202 201.60031 162.00195 C 201.60031 159.85114 202.48281 156.48047 203.04563 156.48047 C 203.266 156.48047 203.767 155.68524 204.16086 154.71484 C 204.79725 153.14689 204.8536 152.62275 204.65891 149.99609 C 203.96193 140.59292 203.96249 140.72742 204.5593 140.35547 C 205.20774 139.95134 205.27731 138.98347 204.74875 137.70117 C 204.54453 137.20571 204.41301 136.59544 204.45578 136.3457 C 204.60411 135.47956 203.74054 132.95364 202.91672 131.8418 C 201.98601 130.58569 200.9872 127.94153 200.97141 126.69531 C 200.96541 126.23343 200.59798 125.53021 200.13547 125.0957 C 199.68153 124.66925 199.01627 123.64123 198.65891 122.81055 C 198.30156 121.97986 197.81729 121.13965 197.58078 120.94336 C 197.34427 120.74708 196.92408 119.80794 196.64719 118.85547 C 196.13567 117.09591 194.52137 114.88086 193.7507 114.88086 C 193.07566 114.88086 192.07236 113.37225 191.8425 112.01172 C 191.64785 110.85958 191.49301 110.70402 189.86984 110.03125 C 188.90113 109.62973 187.97101 109.04358 187.80344 108.73047 C 187.63587 108.41737 186.93642 107.87426 186.24875 107.52344 C 185.56107 107.17261 184.80928 106.48966 184.57883 106.00391 C 184.26203 105.33613 183.81364 105.04384 182.74094 104.80664 C 181.56975 104.54766 181.09644 104.19771 180.02219 102.80664 C 179.24112 101.79522 178.46945 101.12182 178.09445 101.12109 C 177.29405 101.11909 175.36008 99.255548 175.36008 98.486328 C 175.36008 98.16333 175.10753 97.806494 174.79953 97.691406 C 173.82651 97.327824 171.51423 95.242702 170.86594 94.144531 C 170.523 93.563612 169.80739 92.935212 169.27609 92.75 C 168.66084 92.535516 167.89726 91.790987 167.17258 90.699219 C 166.54681 89.75645 165.39749 88.339606 164.61789 87.548828 C 163.8383 86.758049 163.19992 85.838945 163.19992 85.507812 C 163.19992 85.176681 162.62461 84.083115 161.92063 83.078125 C 161.21663 82.073131 160.63938 81.147897 160.63938 81.021484 C 160.63938 80.830875 159.86279 80.152995 158.73313 79.359375 C 158.60787 79.271375 157.99386 78.394933 157.36984 77.412109 C 156.74585 76.429282 155.85804 75.329299 155.39719 74.966797 C 154.93634 74.604291 154.5593 74.147793 154.5593 73.953125 C 154.5593 73.758456 154.27263 73.310984 153.92063 72.958984 C 153.56863 72.606986 153.28 72.103842 153.28 71.839844 C 153.28 71.575844 153.13569 71.359375 152.95969 71.359375 C 152.78369 71.359375 152.63938 71.164094 152.63938 70.923828 C 152.63938 70.683563 152.3527 70.119369 152.0007 69.671875 C 151.6487 69.22438 151.36008 68.626393 151.36008 68.341797 C 151.36008 68.057202 150.9993 67.686817 150.5593 67.519531 C 150.1193 67.352245 149.76047 66.986006 149.76047 66.705078 C 149.76047 66.42415 149.53562 65.970467 149.26242 65.697266 C 148.9254 65.360255 148.8323 64.905712 148.96945 64.28125 C 149.11873 63.601585 149.05015 63.359375 148.71164 63.359375 C 148.37389 63.359375 148.20201 62.748151 148.05734 61.039062 C 147.94934 59.763066 147.56939 57.873544 147.21359 56.839844 C 146.83883 55.751075 146.55702 54.068271 146.54172 52.839844 C 146.45702 46.037237 146.59452 40.175902 146.8425 40.019531 C 147.11641 39.846855 148.00158 37.009228 148.38352 35.078125 C 148.48387 34.570712 148.83423 33.885224 149.16281 33.556641 C 149.4914 33.228052 149.76047 32.747202 149.76047 32.486328 C 149.76047 31.603372 152.12683 27.599653 152.99289 27.017578 C 154.03322 26.318377 155.22127 23.782871 155.53195 21.599609 C 155.66296 20.678988 155.57705 18.593511 155.33078 16.6875 C 154.96472 13.854748 154.78654 13.266254 154.0925 12.623047 C 153.64613 12.209362 153.26294 11.647404 153.24094 11.375 C 153.11252 9.7851705 151.71741 7.6304709 149.33078 5.3300781 L 147.0593 3.1386719 L 144.64914 3.296875 C 141.5617 3.499344 138.24101 4.4729155 136.95774 5.5527344 C 136.40439 6.0183449 135.70244 6.4003906 135.39914 6.4003906 C 135.09585 6.4003906 134.70086 6.5478763 134.52024 6.7285156 C 134.3396 6.9091549 133.06008 7.1386116 131.67844 7.2382812 C 130.29679 7.3379512 128.86758 7.6060485 128.50266 7.8339844 C 127.54556 8.4318117 126.2123 8.5975066 120.61984 8.8144531 C 116.39502 8.978346 115.57683 8.9332625 115.23508 8.5214844 C 114.83651 8.0412287 113.23001 7.8921028 109.18625 7.9570312 C 108.09376 7.9745732 107.56393 7.8660589 107.69602 7.6523438 C 107.93632 7.2635168 104.16214 7.5991782 103.30149 8.0429688 C 102.51876 8.4465758 98.957201 8.3830587 98.139376 7.9511719 C 97.754947 7.7481582 96.938973 7.1709068 96.326876 6.6699219 C 95.714773 6.1689373 94.886929 5.7597656 94.487032 5.7597656 C 94.087131 5.7597656 93.760469 5.6010797 93.760469 5.40625 C 93.760469 5.2114203 93.561165 5.1278003 93.319063 5.2207031 C 93.07696 5.313606 92.484671 5.1856198 92.002657 4.9355469 C 91.520637 4.685474 90.938112 4.4804688 90.707735 4.4804688 C 90.477357 4.4804688 89.837252 4.098423 89.283907 3.6328125 C 88.000613 2.5529938 84.677974 1.5794222 81.590548 1.3769531 L 79.182344 1.21875 z M 84.537813 9.2988281 C 84.837615 9.3045981 85.283622 9.5724959 85.760469 10.080078 C 86.174347 10.520629 86.734188 10.845332 87.00461 10.800781 C 87.801459 10.669503 87.84369 11.856777 87.049532 12.064453 C 86.559808 12.192519 86.429308 12.391929 86.594454 12.761719 C 86.721673 13.046587 86.83753 13.708824 86.852266 14.232422 C 86.872106 14.936965 86.716489 15.215835 86.248751 15.308594 C 85.901141 15.377524 85.468203 15.616255 85.287813 15.837891 C 85.029419 16.155366 84.603558 16.074656 83.280001 15.458984 C 81.805212 14.772968 81.600313 14.561843 81.600313 13.726562 C 81.600313 13.038915 81.954562 12.426262 82.87961 11.519531 C 83.583608 10.829472 84.16086 10.044407 84.16086 9.7734375 C 84.16086 9.4500806 84.304634 9.2943391 84.537813 9.2988281 z M 141.70188 11.21875 C 141.93505 11.21425 142.08078 11.370003 142.08078 11.693359 C 142.08078 11.964329 142.66474 12.758264 143.37961 13.458984 C 144.42131 14.480058 144.65879 14.923734 144.57883 15.695312 C 144.49443 16.50921 144.22053 16.77813 142.80539 17.431641 C 141.46809 18.049208 141.08207 18.118307 140.88547 17.777344 C 140.75013 17.54261 140.3527 17.296536 140.0007 17.228516 C 139.52378 17.136356 139.36746 16.861755 139.38742 16.152344 C 139.40212 15.628746 139.51802 14.966509 139.64524 14.681641 C 139.81037 14.311851 139.67984 14.112441 139.19016 13.984375 C 138.39601 13.776699 138.43827 12.589425 139.23508 12.720703 C 139.5055 12.765253 140.06534 12.442504 140.47922 12.001953 C 140.95607 11.494372 141.40207 11.224522 141.70188 11.21875 z M 113.53195 29.59375 C 113.67138 29.593218 113.82277 29.598449 113.98899 29.605469 C 115.24443 29.658729 115.7875 29.904197 117.23508 31.074219 C 119.3443 32.779025 119.67508 33.301597 120.93625 36.941406 C 121.47975 38.509983 122.14436 40.039088 122.41477 40.337891 C 123.31065 41.327828 123.42929 44.800781 122.56711 44.800781 C 122.40201 44.800781 121.68155 42.964699 120.96555 40.720703 C 119.30538 35.517631 118.28609 33.618671 116.74484 32.865234 C 115.64366 32.326913 115.44307 32.322905 113.61399 32.796875 C 110.23627 33.672127 110.17502 33.726617 107.87961 37.996094 C 107.63729 38.446793 107.31753 39.621939 107.16867 40.607422 C 106.64315 44.086525 106.10572 46.080078 105.69211 46.080078 C 105.45041 46.080078 105.28 45.691877 105.28 45.138672 C 105.28 44.62106 105.42431 44.108774 105.60031 44 C 105.77631 43.891226 105.92063 43.33045 105.92063 42.753906 C 105.92063 42.177361 106.19147 40.853564 106.52414 39.8125 C 106.8568 38.771433 107.22982 37.348447 107.35227 36.650391 C 107.47472 35.952334 107.82061 35.016255 108.11984 34.570312 C 108.41906 34.124372 108.85933 33.368161 109.10031 32.888672 C 109.3413 32.409178 110.2018 31.460089 111.01047 30.779297 C 112.14468 29.824445 112.55594 29.597476 113.53195 29.59375 z M 99.768282 31.359375 C 101.03003 31.359375 102.71945 32.644158 102.71945 33.603516 C 102.71945 34.172976 101.69389 35.227496 100.58078 35.800781 C 99.709443 36.249549 99.86386 36.269789 98.668673 35.541016 C 97.286032 34.697941 97.077509 33.841964 97.922579 32.474609 C 98.50394 31.533946 98.792832 31.359375 99.768282 31.359375 z M 127.74875 31.679688 C 129.04063 31.679688 130.62044 33.41945 130.49484 34.703125 C 130.40194 35.652262 130.34948 35.682927 128.58859 35.775391 C 127.00966 35.858311 126.71175 35.777591 126.26828 35.144531 C 125.21428 33.639748 126.05199 31.679688 127.74875 31.679688 z M 110.19797 44.800781 C 110.72718 44.800781 111.20969 45.185808 111.80149 46.080078 C 112.60234 47.290262 112.73746 47.359375 114.25266 47.359375 C 115.68494 47.359375 116.00588 47.219233 117.28195 46.042969 C 118.90942 44.542821 119.83036 44.521674 119.48899 45.992188 C 119.17108 47.361547 118.49923 48.249096 117.11789 49.121094 C 115.27688 50.283275 113.81092 50.164815 111.92258 48.699219 C 111.00636 47.988111 110.32251 47.167906 110.19992 46.632812 C 110.08819 46.145153 109.87272 45.668946 109.71945 45.574219 C 109.17828 45.239759 109.45002 44.800782 110.19797 44.800781 z M 110.84836 54.216797 C 111.09241 54.224497 111.53544 54.426924 111.94602 54.730469 C 112.6869 55.27823 113.36679 55.418876 115.46164 55.458984 C 117.15415 55.491394 118.1969 55.372164 118.45383 55.115234 C 119.30839 54.260679 119.35864 54.778994 118.50852 55.679688 C 118.01017 56.207686 117.37368 56.640625 117.09445 56.640625 C 116.81521 56.640625 116.49302 56.734245 116.37766 56.849609 C 116.2623 56.964966 115.37859 57.094031 114.41477 57.136719 C 112.96223 57.201059 112.63002 57.116028 112.47727 56.634766 C 112.37592 56.315432 111.86722 55.904211 111.34641 55.722656 C 110.42003 55.39972 110.09058 54.629192 110.71359 54.244141 C 110.74589 54.224181 110.79209 54.215017 110.84836 54.216797 z M 138.69797 59.789062 C 139.21129 59.779263 141.69765 62.166774 141.92063 62.960938 C 142.28873 64.271996 141.25926 63.760424 139.84836 61.931641 C 139.10626 60.969742 138.55024 60.031082 138.61203 59.845703 C 138.62463 59.808013 138.65447 59.789892 138.69797 59.789062 z M 52.405001 87.943359 C 52.038597 87.927262 51.560035 88.063329 50.992891 88.359375 C 50.314854 88.713308 49.257993 89.172569 48.645235 89.380859 C 47.774283 89.676917 47.530699 89.93515 47.526094 90.560547 C 47.522294 91.079733 47.266802 91.470779 46.799532 91.675781 C 46.403532 91.849515 46.080782 92.102062 46.080782 92.236328 C 46.080782 92.370593 45.789871 92.480469 45.434298 92.480469 C 44.790208 92.480469 44.789238 92.484663 45.461641 93.802734 C 46.546862 95.929945 47.440588 96.640625 49.033907 96.640625 C 49.794745 96.640625 50.749987 96.406143 51.156954 96.121094 C 51.747801 95.707248 52.05641 95.674852 52.684298 95.960938 C 53.116774 96.157987 53.822893 96.320313 54.25461 96.320312 C 54.87349 96.320312 55.039766 96.154922 55.039766 95.539062 C 55.039766 94.600151 55.632894 94.146428 56.057344 94.759766 C 56.283974 95.087253 56.319117 95.035813 56.196016 94.560547 C 56.104846 94.208547 55.936453 93.523062 55.821016 93.039062 C 55.601744 92.1197 55.229722 91.914829 54.862032 92.509766 C 54.515923 93.069778 53.05292 90.203845 53.194063 89.242188 C 53.315013 88.418103 53.015673 87.970188 52.405001 87.943359 z M 55.94211 97.279297 C 55.461785 97.279297 55.364363 97.428815 55.520235 97.919922 C 55.751019 98.64706 55.588159 98.705621 54.678438 98.21875 C 54.210583 97.96836 53.91329 97.979946 53.569063 98.265625 C 53.197615 98.573903 52.931829 98.568458 52.311251 98.236328 C 51.631011 97.872273 51.440763 97.891253 50.893282 98.386719 C 50.292637 98.930295 49.851939 98.932533 48.553438 98.398438 C 48.035061 98.185212 48.003765 98.327382 48.203829 100.04297 C 48.324216 101.07531 48.615109 102.37858 48.84836 102.93945 C 49.29292 104.00842 49.633703 104.12294 53.280001 104.42578 C 53.984 104.48428 54.660341 104.55635 54.781954 104.58594 C 54.903567 104.61554 55.079809 104.51461 55.174532 104.36133 C 55.269262 104.20806 55.803147 103.99069 56.362032 103.87891 C 58.341038 103.48311 58.743465 102.42994 57.617891 100.58398 C 57.276929 100.02479 56.901872 99.05264 56.783907 98.423828 C 56.624762 97.575519 56.406558 97.279297 55.94211 97.279297 z M 57.658907 104.46484 C 56.674377 104.5016 53.600313 106.89372 53.600313 107.70898 C 53.600313 108.5347 55.559015 109.75977 56.87961 109.75977 C 57.486985 109.75977 58.472419 109.52819 59.071016 109.24414 C 60.05379 108.77778 60.16086 108.5969 60.16086 107.38477 C 60.16086 105.97402 59.66309 104.9876 58.871798 104.83008 C 58.61262 104.77848 58.141963 104.62441 57.826876 104.48828 C 57.781354 104.46861 57.724542 104.46239 57.658907 104.46484 z M 139.51633 173.29297 C 139.76108 173.28227 140.16086 174.55484 140.16086 175.40039 C 140.16086 175.73107 139.71639 175.77036 139.41281 175.4668 C 139.10063 175.15462 139.15283 173.50759 139.48117 173.30469 C 139.49237 173.29769 139.50423 173.29347 139.51633 173.29297 z M 137.79367 176.14648 C 137.88987 176.14638 138.03278 176.20888 138.24094 176.32031 C 138.61519 176.5206 138.87961 176.98993 138.87961 177.45117 C 138.87961 178.31418 138.5776 178.44995 137.98313 177.85547 C 137.77193 177.64427 137.60031 177.1356 137.60031 176.72461 C 137.60031 176.31955 137.63331 176.14665 137.79367 176.14648 z M 126.28 179.83984 C 126.98965 179.83984 127.05633 179.91444 126.71945 180.32031 C 126.28597 180.84262 125.9842 180.91709 125.65305 180.58594 C 125.21172 180.14461 125.46875 179.83984 126.28 179.83984 z "
       transform="translate(-6.1237507)"
       inkscape:label="Body" />
    <path
       id="path3236"
       style="fill:#ffff00;stroke-width:0.32"
       d="M 99.891329 32.439453 C 99.708246 32.447691 99.485655 32.62146 99.266329 32.972656 C 98.786716 33.740636 99.038654 34.318481 99.789766 34.173828 C 100.10791 34.112558 100.31906 33.764164 100.31906 33.302734 C 100.31906 32.727274 100.14222 32.428164 99.891329 32.439453 z M 128.19797 32.996094 C 127.90524 33.011815 127.59332 33.159119 127.34445 33.458984 C 126.96463 33.916648 126.98929 34.050836 127.52609 34.443359 C 128.41035 35.089942 129.11984 34.855625 129.11984 33.916016 C 129.11984 33.30964 128.68586 32.969891 128.19797 32.996094 z "
       inkscape:label="Eyes"
       transform="translate(-6.1237507)" />
  </g>
</svg>
