<?xml version="1.0" encoding="UTF-8" standalone="no"?>
<!-- Created with Inkscape (http://www.inkscape.org/) -->

<svg
   version="1.1"
   id="svg2708"
   width="201.51663"
   height="227.31133"
   viewBox="0 0 201.51664 227.31133"
   sodipodi:docname="d1.svg"
   inkscape:version="1.2.2 (732a01da63, 2022-12-09, custom)"
   xmlns:inkscape="http://www.inkscape.org/namespaces/inkscape"
   xmlns:sodipodi="http://sodipodi.sourceforge.net/DTD/sodipodi-0.dtd"
   xmlns="http://www.w3.org/2000/svg"
   xmlns:svg="http://www.w3.org/2000/svg">
  <defs
     id="defs2712" />
  <sodipodi:namedview
     id="namedview2710"
     pagecolor="#ffffff"
     bordercolor="#000000"
     borderopacity="0.25"
     inkscape:showpageshadow="2"
     inkscape:pageopacity="0.0"
     inkscape:pagecheckerboard="0"
     inkscape:deskcolor="#d1d1d1"
     showgrid="false"
     inkscape:zoom="3.5300137"
     inkscape:cx="101.13275"
     inkscape:cy="117.28"
     inkscape:window-width="1920"
     inkscape:window-height="1031"
     inkscape:window-x="0"
     inkscape:window-y="25"
     inkscape:window-maximized="1"
     inkscape:current-layer="layer1" />
  <g
     inkscape:groupmode="layer"
     id="layer1"
     inkscape:label="Layer 1"
     transform="translate(-6.1237507)">
    <path
       style="fill:#000000;stroke-width:0.32"
       d="m 115.76004,227.27865 c -0.37184,-0.0834 -0.62895,-0.55693 -0.76529,-1.40953 -0.11292,-0.70618 -0.40093,-1.35903 -0.64003,-1.45078 -0.53959,-0.20706 -0.56183,-1.18347 -0.0458,-2.00981 0.30525,-0.48879 0.30525,-0.85423 0,-1.69838 -0.57592,-1.59268 -0.48806,-2.18855 0.56832,-3.85428 0.8372,-1.32013 1.05992,-1.48367 1.7758,-1.304 0.76515,0.19204 0.80511,0.14553 0.61256,-0.71321 -0.11329,-0.50526 -0.69622,-1.93705 -1.2954,-3.18174 -0.87463,-1.81687 -1.11442,-2.74672 -1.21615,-4.71602 -0.1119,-2.16622 -0.30832,-2.81351 -1.68039,-5.53764 -2.19314,-4.35431 -2.36527,-4.65986 -3.17387,-5.63392 -0.39752,-0.47886 -0.87134,-1.56344 -1.05293,-2.41017 -0.18159,-0.84673 -0.77443,-2.43493 -1.31743,-3.52934 -0.78898,-1.59021 -1.13739,-1.98983 -1.73483,-1.98983 -0.83809,0 -1.43212,-0.78822 -3.876,-5.14307 -0.90333,-1.60966 -1.89804,-2.94891 -2.407428,-3.24126 -0.511498,-0.29356 -1.230455,-1.26424 -1.75033,-2.36316 -0.485251,-1.02574 -1.386746,-2.62477 -2.003318,-3.55339 -0.968061,-1.45801 -1.093472,-1.86087 -0.918976,-2.95211 0.274937,-1.71936 -0.210759,-2.80873 -1.533508,-3.43951 -1.302422,-0.62108 -1.936944,-1.90925 -1.665974,-3.38217 0.208109,-1.13123 -1.076515,-6.35108 -1.768109,-7.1844 -0.216787,-0.26122 -1.0156,-0.9025 -1.775136,-1.42507 -0.759533,-0.52258 -1.965795,-1.74179 -2.680583,-2.70936 -0.982681,-1.3302 -1.469785,-1.73572 -1.997433,-1.66286 -0.562701,0.0777 -1.015783,-0.39933 -2.339924,-2.46364 -0.903155,-1.408 -2.091155,-3.24245 -2.64,-4.07656 -0.548841,-0.8341 -0.997897,-1.71647 -0.997897,-1.96081 0,-0.24435 -0.201872,-0.6118 -0.448605,-0.81657 -0.24673,-0.20477 -0.535274,-0.71764 -0.641207,-1.13971 -0.105933,-0.42207 -0.888093,-1.91247 -1.738134,-3.31201 -1.723315,-2.83733 -2.042567,-3.59195 -2.595216,-6.13434 -0.768378,-3.5348 -1.841456,-5.42555 -4.652055,-8.19684 -1.448518,-1.42826 -2.711427,-2.94026 -2.806461,-3.36 -0.09504,-0.41974 -0.971299,-2.56316 -1.947254,-4.76316 -1.824532,-4.11286 -2.136682,-4.43245 -3.35264,-3.43251 -0.231863,0.19067 -1.095863,0.35699 -1.920001,0.36959 -1.86768,0.0286 -4.226384,-1.46536 -4.864825,-3.08122 -0.512848,-1.29799 -1.550016,-2.49586 -2.161021,-2.49586 -0.250724,0 -0.927725,-0.22391 -1.504445,-0.49759 -0.82513,-0.39155 -1.09049,-0.74956 -1.245213,-1.68 -0.108144,-0.65032 -0.359168,-1.97441 -0.55783,-2.94241 -0.198666,-0.968 -0.34944,-2.1616 -0.335056,-2.652448 0.01962,-0.6692 -0.173044,-0.968179 -0.770144,-1.195197 -0.437962,-0.166512 -0.871745,-0.556912 -0.963959,-0.867552 -0.09221,-0.310643 -0.453222,-1.105494 -0.802237,-1.766336 -0.748544,-1.417331 -0.543965,-2.010934 1.134186,-3.290921 1.48912,-1.135808 1.938445,-2.551303 1.297104,-4.086244 -0.268579,-0.642806 -0.84704,-1.403772 -1.285466,-1.69104 -1.422477,-0.932044 -2.719523,-3.015881 -2.719523,-4.369193 0,-1.795191 -0.680246,-2.850333 -3.280317,-5.088141 -2.791021,-2.40216 -4.691175,-4.616637 -4.925939,-5.740784 -0.09509,-0.455318 -0.729188,-1.36776 -1.409111,-2.027648 -1.351909,-1.312067 -2.702447,-3.426874 -3.035262,-4.752915 -0.11669,-0.464931 -0.429224,-1.025472 -0.694519,-1.245648 -0.265296,-0.220176 -0.813873,-1.126083 -1.219062,-2.013127 -0.405188,-0.887043 -1.614,-2.528569 -2.686249,-3.647833 -1.072248,-1.119264 -1.949542,-2.157546 -1.949542,-2.307293 0,-0.441507 -4.145865,-7.105594 -4.96308,-7.97768 -1.659996,-1.771459 -5.59692,-9.909968 -5.59692,-11.570096 0,-0.37305 -0.231132,-0.589904 -0.628742,-0.589904 -0.760621,0 -1.27807,-0.875341 -1.25361,-2.12066 0.0099,-0.505637 -0.426476,-2.21009 -0.9697954,-3.787674 -0.5433194,-1.577584 -0.9878532,-3.419415 -0.9878532,-4.092958 0,-0.74904 -0.2656595,-1.583947 -0.6840723,-2.14988 C 7.7326952,21.034093 7.6256235,20.543805 7.755924,19.387784 7.8699208,18.376408 7.785687,17.820517 7.4799963,17.566816 c -0.2420089,-0.200849 -0.440016,-0.666734 -0.440016,-1.0353 0,-0.368565 -0.2367897,-1.290144 -0.526199,-2.047952 -0.2894097,-0.757808 -0.454282,-1.44975 -0.3663831,-1.537648 0.087899,-0.0879 1.3686884,-0.181338 2.8461992,-0.207642 2.5603756,-0.04558 4.0963006,0.131537 9.0270246,1.040973 1.716039,0.316511 3.01143,0.322437 6.08,0.02781 2.144648,-0.205912 4.655359,-0.372738 5.579359,-0.370724 1.124765,0.0025 1.684925,-0.128536 1.6949,-0.396337 0.02116,-0.567909 1.35184,2.07638 2.375245,4.72 0.476937,1.232 1.593507,3.68 2.48127,5.44 0.887767,1.76 1.901501,3.771598 2.252746,4.470218 0.351245,0.69862 0.887939,1.99462 1.192649,2.88 0.340861,0.990412 2.079415,3.671849 4.518609,6.969222 4.875885,6.591363 6.998003,9.602211 7.001734,9.934013 0.0063,0.562905 2.117645,3.082438 2.592765,3.094067 0.280455,0.0068 1.000455,0.741734 1.6,1.63305 1.067968,1.587686 1.116052,1.616576 2.370084,1.423824 0.704,-0.108208 1.598934,-0.405463 1.988742,-0.660567 1.086861,-0.711283 3.421651,-0.571712 5.311076,0.317488 2.616185,1.231232 3.391065,1.468205 5.306448,1.62281 2.949069,0.238045 5.280336,0.504249 5.845539,0.667501 0.386397,0.111606 0.590212,-0.11233 0.745424,-0.819012 0.117512,-0.534933 0.357579,-0.97261 0.533499,-0.97261 0.406541,0 0.196361,-3.933754 -0.355549,-6.65449 -0.315738,-1.556473 -0.327536,-2.55984 -0.0519,-4.413072 0.53312,-3.584435 0.464746,-4.434982 -0.443254,-5.51408 -0.440001,-0.522912 -0.800001,-1.161689 -0.800001,-1.419507 0,-0.257817 -0.432,-1.27831 -0.96,-2.26776 -0.528,-0.989449 -0.96,-2.166344 -0.96,-2.615322 0,-1.096863 -0.842662,-3.051402 -1.526374,-3.540402 C 71.642618,26.798235 69.569578,22.645157 68.971722,20.48 68.283245,17.986658 68.160826,15.430603 68.682048,14.431737 68.920755,13.974282 69.116947,13.420573 69.118032,13.201274 69.12248,12.303296 70.515478,8.766311 71.040474,8.32 71.763059,7.7057136 72.253511,6.7400672 72.831571,4.7935194 73.111674,3.8503146 73.637648,2.9711146 74.166858,2.5615017 74.647088,2.1898 75.599805,1.4614023 76.284003,0.94284019 L 77.528007,0 h 5.039533 5.039533 l 1.986288,1.36 c 1.092458,0.748 2.152867,1.4505276 2.356464,1.5611726 C 93.212923,3.607599 94.870126,4.16 95.666308,4.16 c 0.541792,0 1.357565,0.3643392 1.970368,0.88 l 1.045777,0.88 8.178777,0.039213 c 4.53582,0.021747 8.74891,0.1886519 9.45878,0.3747178 2.19254,0.5746947 6.42016,0.8018531 7.6107,0.4089385 0.6002,-0.1980835 2.53085,-0.4129417 4.29034,-0.4774633 2.1104,-0.077389 3.53734,-0.2922442 4.19312,-0.6313587 C 132.9609,5.3513213 133.55897,5.12 133.74322,5.12 c 0.18424,0 1.21209,-0.6456826 2.2841,-1.4348499 2.72343,-2.0048763 5.67616,-2.85576024 9.16153,-2.6400588 2.83074,0.1751886 2.36047,-0.0596162 6.8843,3.4372933 0.52962,0.4093908 1.05497,1.2872087 1.33529,2.2311348 0.57806,1.9465478 1.06851,2.9121942 1.7911,3.5264806 0.52499,0.446311 1.918,3.983296 1.92244,4.881274 9.6e-4,0.219299 0.19728,0.773008 0.43598,1.230463 1.23559,2.367868 -1.1767,10.577981 -3.64398,12.402121 -0.52469,0.387916 -0.95397,0.859305 -0.95397,1.04753 0,0.188226 -0.73314,1.875915 -1.62918,3.75042 -1.85303,3.876477 -1.76715,3.61247 -2.5661,7.888192 -0.50184,2.685667 -0.56537,4.074368 -0.39528,8.64 0.11148,2.992 0.30102,5.512 0.42122,5.6 0.28673,0.20992 1.28934,3.328733 1.28934,4.01073 0,0.29176 0.27584,0.917862 0.61299,1.391337 0.98593,1.384621 2.26579,4.401248 2.28147,5.377427 0.0283,1.762663 2.76308,5.672311 7.07828,10.11913 0.82119,0.846243 1.58292,1.710243 1.69272,1.92 0.5469,1.044749 1.04218,1.755651 1.72284,2.472877 1.0076,1.061737 2.80942,3.783891 3.22016,4.864966 0.64376,1.694365 4.21438,6.002179 5.53233,6.674551 0.69952,0.356867 1.51201,1.088038 1.80553,1.624822 0.29352,0.536787 1.15217,1.565334 1.90812,2.285661 0.75594,0.720326 1.66768,1.784166 2.0261,2.364089 0.35841,0.579927 0.78199,1.05441 0.94129,1.05441 0.48375,0 2.83303,1.73607 2.84602,2.10316 0.0125,0.35367 2.41612,2.05684 2.90272,2.05684 0.15023,0 0.4613,0.26734 0.69128,0.59409 0.22998,0.32675 0.7423,0.69651 1.13849,0.82168 0.39619,0.12516 0.86845,0.50433 1.04949,0.84259 0.18103,0.33826 0.79287,0.8526 1.35965,1.14298 0.56679,0.29038 1.10252,0.62881 1.19052,0.75207 0.088,0.12326 0.78107,0.67009 1.54017,1.21518 1.27621,0.91642 2.1703,1.95928 4.17648,4.87141 0.42437,0.616 1.03755,1.30664 1.36262,1.53475 0.32507,0.22812 0.97777,1.09212 1.45043,1.92 0.47267,0.82789 1.47529,2.38447 2.22806,3.45907 1.61186,2.30099 2.8827,4.97278 3.50898,7.37723 0.24762,0.95066 0.72567,2.26841 1.06234,2.92834 0.92861,1.82023 1.77844,4.97144 1.37682,5.10531 -0.21223,0.0707 -0.11142,0.61147 0.27108,1.45397 0.7385,1.62665 0.76891,2.75756 0.13073,4.86133 -0.50907,1.67815 -0.75529,5.8358 -0.38144,6.44071 0.29184,0.47221 -0.45615,4.15955 -1.48474,7.31929 -0.45835,1.408 -0.8352,2.89729 -0.83744,3.30953 -0.002,0.41224 -0.29209,1.11566 -0.64409,1.56315 -0.352,0.4475 -0.64636,1.11821 -0.65412,1.49048 -0.0247,1.18193 -0.78542,3.64831 -1.31194,4.25333 -0.27929,0.32093 -0.88562,1.34824 -1.34741,2.2829 -0.46178,0.93467 -1.05716,1.91695 -1.32307,2.18286 -0.2659,0.2659 -0.48346,0.68918 -0.48346,0.94061 0,0.25142 -0.144,0.45714 -0.32,0.45714 -0.176,0 -0.32,0.216 -0.32,0.48 0,0.264 -0.13032,0.48 -0.28959,0.48 -0.39171,0 -1.94456,2.68826 -1.9738,3.41698 -0.0129,0.32066 -0.26486,0.95585 -0.56,1.41154 -1.5226,2.35086 -2.17372,3.16392 -2.53661,3.16752 -0.22,0.002 -0.4,0.14796 -0.4,0.32396 0,0.176 -0.252,0.3232 -0.56,0.32712 -0.308,0.004 -0.92,0.28871 -1.36,0.63288 -0.44,0.34417 -1.10889,0.62897 -1.48641,0.63288 -0.37753,0.004 -1.02553,0.36463 -1.44,0.80159 -0.57956,0.61101 -1.08614,0.7974 -2.19359,0.80714 -0.792,0.007 -3.096,0.30603 -5.12,0.66458 -5.76858,1.0219 -7.21434,1.10286 -8.19695,0.45903 -0.69779,-0.45721 -0.96656,-0.48446 -1.57369,-0.15952 -0.55021,0.29445 -1.11709,0.30747 -2.28078,0.0524 -3.38971,-0.74311 -3.88605,-0.75919 -4.08501,-0.13232 -0.14167,0.44633 -0.43292,0.55664 -1.22548,0.46411 -0.84687,-0.0989 -1.16466,0.0477 -1.71388,0.79058 -0.37083,0.50157 -0.78351,1.26916 -0.91707,1.70576 -0.38383,1.25469 -1.08194,1.85098 -3.01067,2.5716 -0.98806,0.36916 -2.24547,0.94817 -2.79424,1.2867 -0.54878,0.33853 -1.40331,0.61551 -1.89897,0.61551 -1.16544,0 -3.66326,1.20869 -3.66326,1.77265 0,0.23955 0.18,0.5507 0.4,0.69145 0.51156,0.32727 1.2,1.55346 1.2,2.13732 0,0.24756 0.216,0.53299 0.48,0.6343 0.264,0.10131 0.48,0.49048 0.48,0.86484 0,0.37435 0.28054,1.07464 0.62344,1.55619 0.34289,0.48154 0.9146,1.61422 1.27046,2.51705 0.91768,2.32816 2.19074,4.69024 3.00699,5.57927 1.04426,1.13737 2.45911,3.26854 2.45911,3.70413 0,0.21054 0.144,0.3828 0.32,0.3828 0.82898,0 0.17701,0.99998 -1.04,1.59515 -0.748,0.36581 -2.05771,1.0728 -2.91047,1.57109 -1.13413,0.66272 -2.16524,0.96125 -3.84,1.11179 -6.65887,0.59853 -7.25432,0.72178 -8.80099,1.8217 -3.19295,2.27067 -5.06654,3.40034 -6.44854,3.88809 -1.40444,0.49567 -6.22345,1.04035 -11.9721,1.35318 -1.56866,0.0854 -3.00146,0.30456 -3.184,0.4871 -0.18255,0.18255 -0.7351,0.3319 -1.2279,0.3319 -0.58311,0 -0.896,0.16762 -0.896,0.48 0,0.264 -0.144,0.48 -0.32,0.48 -0.47688,0 -0.73436,0.0537 -1.44,0.30044 -0.352,0.12307 -0.89199,0.16727 -1.19997,0.0982 z m 3.47483,-2.51121 c 0.86083,-0.28001 3.36514,-0.64038 5.56514,-0.80083 8.96686,-0.65393 10.89119,-1.01598 13.09637,-2.46399 0.45451,-0.29844 1.05931,-0.68662 1.34401,-0.86262 0.28469,-0.176 1.41585,-0.94807 2.51367,-1.71572 l 1.99603,-1.39572 4.60657,-0.4386 c 3.43708,-0.32725 4.95144,-0.61344 5.96496,-1.12727 0.74711,-0.37876 1.43039,-0.79176 1.51839,-0.91777 0.088,-0.12601 0.49092,-0.40344 0.89538,-0.6165 0.76231,-0.40158 0.73772,-1.30907 -0.0576,-2.12614 -0.19678,-0.20215 -0.91267,-1.03687 -1.59086,-1.85492 -0.6782,-0.81805 -1.4174,-1.48736 -1.64268,-1.48736 -0.22528,0 -0.49421,-0.252 -0.59763,-0.56 -0.10342,-0.308 -0.32677,-0.776 -0.49633,-1.04 -0.16956,-0.264 -0.49315,-1.38769 -0.71909,-2.49708 -0.38145,-1.87303 -0.59766,-2.21653 -3.02722,-4.80949 -1.78618,-1.90632 -3.13484,-3.03521 -4.25019,-3.55761 -1.25288,-0.58681 -1.63378,-0.93276 -1.63378,-1.48385 0,-0.63169 -0.16455,-0.71897 -1.36,-0.72139 -0.95,-0.002 -2.31894,-0.4549 -4.54081,-1.50252 -1.74944,-0.82487 -3.91309,-1.59914 -4.80811,-1.7206 -0.89501,-0.12145 -1.83965,-0.35732 -2.09919,-0.52414 -0.25954,-0.16683 -1.42129,-0.30407 -2.58167,-0.30499 -1.81801,-0.002 -2.29993,-0.13345 -3.48481,-0.95458 -0.75627,-0.52409 -1.73004,-1.48934 -2.16392,-2.14499 -0.77511,-1.17126 -0.82882,-1.19371 -3.07519,-1.28542 l -2.2863,-0.0933 0.10752,-0.96 c 0.1511,-1.34907 0.39919,-1.50943 2.67202,-1.72715 2.48234,-0.23778 2.87853,-0.94156 0.95534,-1.69701 -1.04199,-0.4093 -1.29969,-0.69586 -1.54013,-1.71254 -0.22789,-0.96362 -0.48165,-1.27259 -1.20385,-1.46573 -0.5033,-0.1346 -1.30307,-0.16713 -1.77728,-0.0723 -0.67735,0.13547 -0.97639,-0.002 -1.39482,-0.64044 -0.5092,-0.77714 -0.50158,-0.83462 0.17326,-1.3073 0.38824,-0.27193 1.18275,-0.58388 1.76558,-0.69322 1.47575,-0.27685 1.90441,-1.18107 1.0655,-2.24757 -0.48634,-0.61829 -0.5706,-0.97175 -0.3361,-1.40991 0.59761,-1.11666 0.3816,-1.24917 -1.71685,-1.05321 -1.78846,0.16701 -2.05713,0.11835 -2.25958,-0.40924 -0.16318,-0.42524 -0.0154,-0.76187 0.5098,-1.16147 0.40678,-0.30948 0.91351,-0.70675 1.12608,-0.88281 0.21257,-0.17606 0.96857,-0.32011 1.68,-0.32011 0.71143,0 1.29351,-0.1488 1.29351,-0.33067 0,-0.18186 0.504,-0.83466 1.12,-1.45066 0.616,-0.616 1.12,-1.25646 1.12,-1.42324 0,-0.16678 0.396,-0.39001 0.88,-0.49606 0.484,-0.10605 1.06124,-0.24876 1.28276,-0.31712 0.57997,-0.17897 1.15789,-1.60626 0.91095,-2.24978 -0.19162,-0.49937 -0.27582,-0.4869 -0.94269,0.13959 -0.99662,0.93629 -1.17102,0.87194 -1.17102,-0.43206 0,-1.18509 -0.27689,-1.35219 -1.24196,-0.7495 -0.91508,0.57148 -1.63804,0.11579 -1.63804,-1.03246 0,-0.7343 -0.31846,-1.31412 -1.19187,-2.17004 -2.82104,-2.76454 -3.3022,-3.52737 -3.08432,-4.88991 0.20188,-1.26246 0.20137,-1.26318 -0.62048,-0.88872 -1.15222,0.52499 -1.7631,0.18378 -1.88169,-1.05102 -0.0809,-0.84189 -0.31435,-1.15197 -1.14164,-1.5161 -0.88079,-0.38767 -1.04001,-0.62495 -1.04001,-1.54996 0,-0.82309 -0.15769,-1.13345 -0.64,-1.25957 -0.44232,-0.11567 -0.64,-0.43649 -0.64,-1.03868 0,-0.61886 -0.23178,-0.97692 -0.8,-1.23582 -0.59166,-0.26958 -0.8,-0.61174 -0.8,-1.3139 0,-0.71806 -0.21442,-1.05424 -0.88,-1.37967 -0.82444,-0.40311 -0.87476,-0.54564 -0.79708,-2.25746 0.075,-1.65368 0.0208,-1.82719 -0.57079,-1.82719 -0.40463,0 -0.89907,-0.41586 -1.29766,-1.09142 -0.35418,-0.60029 -0.84538,-1.16872 -1.09156,-1.26318 -0.24618,-0.0945 -0.54678,-0.71933 -0.66802,-1.38858 -0.12123,-0.66925 -0.41717,-1.60567 -0.657653,-2.08093 -0.240477,-0.47526 -0.437232,-1.37526 -0.437232,-2 0,-0.78422 -0.14512,-1.13589 -0.468743,-1.13589 -0.696368,0 -1.087088,-0.95688 -1.486061,-3.6394 l -0.358086,-2.4076 -0.763555,0.50031 c -1.03242,0.67646 -1.012858,0.0154 0.03644,-1.23167 0.981431,-1.16636 1.078343,-2.50164 0.181565,-2.50164 -0.340141,0 -0.699561,-0.2556 -0.798713,-0.56801 -0.09916,-0.3124 -0.693959,-1.09686 -1.321789,-1.74324 -0.977712,-1.00661 -1.090567,-1.27044 -0.78649,-1.83861 0.467504,-0.87354 0.238723,-1.17515 -1.078883,-1.42233 -1.707744,-0.32038 -1.937827,-0.83813 -1.120266,-2.52091 0.761856,-1.56813 0.658023,-2.49465 -0.255849,-2.28298 -0.782586,0.18127 -1.61122,-0.51542 -1.756074,-1.47646 -0.116464,-0.77265 -0.201475,-0.79313 -1.623501,-0.39113 -0.428285,0.12108 -0.56,-0.0336 -0.56,-0.65744 0,-0.53165 -0.220413,-0.88572 -0.632864,-1.01662 -0.400797,-0.12721 -0.763552,-0.68621 -0.989267,-1.52446 -0.30097,-1.11771 -0.277194,-1.38152 0.152861,-1.69598 0.610272,-0.44624 0.660406,-0.99376 0.10927,-1.19335 -0.32,-0.11589 -0.32,-0.28036 0,-0.82233 0.557709,-0.944569 0.523434,-1.00615 -0.56,-1.00615 -0.789783,0 -0.96,-0.131149 -0.96,-0.739661 0,-0.406813 -0.252087,-1.018813 -0.560192,-1.36 -0.308109,-0.341187 -1.280109,-1.524278 -2.16,-2.629091 -1.349495,-1.694451 -1.852167,-2.082986 -3.212685,-2.483194 -1.051251,-0.309235 -2.444109,-1.153024 -4,-2.42319 -1.312919,-1.071811 -2.963124,-2.243098 -3.667124,-2.602861 -0.704,-0.359763 -1.453488,-0.900432 -1.665526,-1.201488 -0.954551,-1.355283 -6.757361,-7.005536 -7.678583,-7.476713 -1.637795,-0.837684 -5.316275,-0.711988 -6.947776,0.237411 -0.719463,0.418665 -1.774464,0.861744 -2.344445,0.984617 -0.569984,0.122877 -1.101242,0.328436 -1.180576,0.4568 -0.259607,0.420058 -2.423095,-0.0064 -2.423095,-0.477641 0,-0.244743 -0.252,-0.443207 -0.56,-0.441027 -0.656093,0.0046 -2.082563,2.055536 -1.938803,2.7875 0.07973,0.405965 0.296083,0.336951 1.120848,-0.357536 l 1.022048,-0.860604 -0.18719,1.21334 c -0.102954,0.667335 -0.388759,1.613568 -0.635124,2.102736 -0.602204,1.195709 -0.229603,1.734212 0.651981,0.942272 1.698224,-1.525539 2.140775,-0.86264 0.526432,0.788548 -0.783731,0.801622 -0.924201,1.159737 -0.765718,1.95215 0.182627,0.913136 0.248752,0.951382 1.119808,0.647731 0.882173,-0.307526 1.120525,-0.852774 0.938736,-2.147437 -0.06896,-0.491136 0.839971,-2.428934 1.553821,-3.312662 0.482774,-0.597661 1.170745,-0.786224 0.824499,-0.225984 -0.113539,0.183712 -0.0295,0.547194 0.186717,0.807738 0.319849,0.385395 0.235085,0.695875 -0.454637,1.665254 -0.497686,0.699478 -0.703178,1.239738 -0.497603,1.308262 0.192601,0.0642 0.506761,-0.03985 0.698134,-0.231219 0.250595,-0.250595 0.557168,-0.04005 1.095738,0.752525 0.479977,0.706349 0.918355,1.035018 1.224051,0.917709 0.261946,-0.100515 0.476263,-0.03985 0.476263,0.134806 0,0.314615 1.806281,0.270035 4.88,-0.120438 1.610089,-0.204541 1.816633,-9.6e-4 1.188742,1.172384 -0.182188,0.340399 -0.5927,0.618933 -0.912245,0.618933 -1.278404,0 -2.544602,0.702179 -2.925825,1.622531 -0.310588,0.749824 -0.302086,1.336237 0.04185,2.886541 0.537661,2.423542 1.336205,2.854768 3.588317,1.937734 C 61.396291,95.525062 62.28384,95.36 62.873161,95.36 c 1.011364,0 1.058576,0.04938 0.841332,0.88 -0.165584,0.633101 -0.530823,0.969782 -1.301789,1.2 -0.638052,0.190528 -1.342928,0.739181 -1.742167,1.356038 -0.368793,0.569821 -0.886534,1.0424 -1.150534,1.050176 -0.392381,0.01155 -0.379213,0.09069 0.07214,0.433496 0.419549,0.31865 0.493332,0.64279 0.307255,1.34982 -0.501991,1.90738 0.245613,3.06527 1.220608,1.89047 0.519613,-0.6261 2.367325,-0.61774 2.890854,0.0131 0.346858,0.41794 0.182154,0.71377 -1.080819,1.94132 -1.458323,1.41742 -1.888413,2.355 -1.090035,2.37625 0.616432,0.0164 1.731558,1.06356 1.985869,1.86483 0.253728,0.79943 0.998675,0.75131 0.931315,-0.0602 -0.02355,-0.28369 0.207859,-0.59536 0.51424,-0.6926 0.306381,-0.0972 0.711904,-0.49763 0.901158,-0.88976 0.225946,-0.46814 0.35154,-0.5439 0.36576,-0.22062 0.0119,0.27079 -0.268467,1.0614 -0.623062,1.75692 -0.354595,0.69552 -0.58185,1.42842 -0.505005,1.62867 0.07684,0.20024 0.0022,0.50155 -0.165773,0.66957 -0.168016,0.16801 -0.212972,0.54656 -0.0999,0.84122 0.165712,0.43183 0.573786,0.16292 2.10409,-1.3865 1.830928,-1.8538 2.583437,-2.26218 2.98153,-1.61805 0.103395,0.1673 -0.104106,0.84917 -0.461114,1.51526 -0.357008,0.6661 -0.649104,1.43643 -0.649104,1.71183 0,0.27541 -0.14872,0.64946 -0.330489,0.83123 -0.18177,0.18177 -0.238365,0.57057 -0.125764,0.864 0.222375,0.57949 0.776253,0.73184 0.776253,0.2135 0,-0.176 0.279501,-0.32 0.621114,-0.32 0.341613,0 0.717984,-0.15674 0.836381,-0.34831 0.131452,-0.21269 0.365852,-0.057 0.602041,0.4 0.475575,0.92011 0.03499,2.5552 -0.62071,2.30358 -0.306131,-0.11747 -0.381405,0.0282 -0.258157,0.49945 0.278902,1.06652 1.931488,0.64711 2.422154,-0.61472 0.102659,-0.264 0.198019,-0.012 0.211913,0.56 0.03266,1.34437 0.414663,1.3182 1.167642,-0.08 0.331738,-0.616 0.714416,-1.12 0.85039,-1.12 0.367415,0 0.312452,0.21765 -0.415097,1.64377 -0.865194,1.69592 -0.662698,2.25624 0.676573,1.87214 0.554281,-0.15896 1.197008,-0.44607 1.428281,-0.63801 0.306244,-0.25415 0.48497,-0.24466 0.65778,0.035 0.143728,0.23256 -0.101834,0.63095 -0.622832,1.01047 -0.805389,0.58669 -1.747745,2.10256 -2.441617,3.92758 -0.2543,0.66887 -0.20646,0.7891 0.313972,0.7891 0.342857,0 0.864409,-0.42393 1.181075,-0.96 1.145965,-1.93996 1.765037,-0.69069 0.785773,1.58567 -0.748183,1.73919 -0.883748,3.01669 -0.299463,2.82193 0.207469,-0.0692 0.597226,-0.72916 0.866132,-1.46667 0.579772,-1.59012 1.481004,-1.81808 1.78136,-0.45058 0.142304,0.64792 -0.06703,1.36678 -0.768778,2.64 -0.530384,0.96231 -0.966941,1.99315 -0.970128,2.29076 -0.0111,1.03684 0.72279,1.00659 1.59809,-0.0659 0.613414,-0.75159 0.91158,-0.92969 1.019225,-0.60881 0.131299,0.39139 0.268941,0.39136 1.004042,-2.4e-4 1.105456,-0.58891 1.219648,-0.42602 0.65025,0.92753 -0.344826,0.81971 -0.539799,0.99838 -0.73856,0.67677 -0.210413,-0.34045 -0.357268,-0.27399 -0.664964,0.30095 -0.32711,0.6112 -0.310691,0.79948 0.09562,1.09658 0.578257,0.42283 0.163332,1.45198 -0.585401,1.45198 -0.255255,0 -0.464099,0.216 -0.464099,0.48 0,0.51558 0.61967,0.59607 2.182595,0.28348 0.746093,-0.14922 1.030246,-0.41347 1.18057,-1.09789 0.219171,-0.99788 0.926188,-1.74119 1.385923,-1.45706 0.163417,0.101 0.360819,0.61762 0.438669,1.14805 0.144921,0.98741 -0.306045,1.62694 -1.427757,2.02474 -0.308,0.10922 -0.56,0.3968 -0.56,0.63904 0,0.24225 -0.288,0.70108 -0.64,1.01964 -0.683479,0.61854 -0.846189,1.5948 -0.32,1.92 0.176,0.10877 0.32,-0.0108 0.32,-0.26566 0,-0.59135 1.254889,-2.12574 1.269353,-1.55208 0.01725,0.68397 1.428999,0.30168 1.559322,-0.42226 0.180224,-1.00111 1.291354,-2.03054 1.993511,-1.84692 0.828953,0.21678 0.785683,0.51561 -0.366154,2.52881 -0.858672,1.5008 -0.917056,1.74548 -0.45849,1.92144 0.289012,0.11091 0.688599,0.0385 0.887968,-0.16084 0.543629,-0.54363 1.330317,-0.43947 2.271335,0.30074 1.051091,0.82678 1.084899,1.80034 0.07844,2.25892 -0.725094,0.33037 -1.475286,1.48402 -1.475286,2.26869 0,0.1984 0.33328,0.0476 0.740624,-0.33506 0.959962,-0.90183 1.305591,-0.87768 2.636464,0.18422 1.243703,0.99235 1.325488,1.36446 0.578026,2.62981 -0.459648,0.77813 -0.469824,1.01296 -0.08188,1.88938 0.421347,0.95189 1.201302,1.36455 1.286771,0.68081 0.02202,-0.176 0.058,-0.452 0.08,-0.61333 0.07896,-0.57903 0.512746,-0.75106 0.959322,-0.38043 0.480934,0.39914 0.459702,2.53532 -0.02864,2.88282 -0.147584,0.10502 -0.540381,0.80772 -0.872887,1.56155 -0.4528,1.02657 -0.512915,1.46226 -0.239475,1.7357 0.273437,0.27343 0.564141,0.15028 1.158106,-0.49062 0.436166,-0.47063 0.943904,-0.85569 1.128307,-0.85569 0.184403,0 0.33528,-0.288 0.33528,-0.64 0,-0.6965 0.23593,-0.78474 0.927463,-0.34688 0.378483,0.23964 0.362016,0.49786 -0.106842,1.6751 -0.304867,0.76548 -0.740861,1.60778 -0.968874,1.87178 -0.678768,0.7859 -1.451747,2.48127 -1.451747,3.18411 0,1.0215 1.131389,0.82722 1.586909,-0.2725 0.579046,-1.39795 1.750035,-2.37284 2.546502,-2.12005 0.538065,0.17078 0.627018,0.37876 0.457716,1.07021 -0.115578,0.47203 -0.367863,0.91517 -0.560634,0.98476 -0.192771,0.0696 -1.022922,0.79345 -1.844778,1.60857 -0.821859,0.81512 -1.636662,1.43458 -1.810675,1.37658 -0.606294,-0.2021 -0.73447,0.58324 -0.252784,1.54881 0.266784,0.53478 0.404307,1.18278 0.305603,1.44 -0.263238,0.68598 0.486103,1.41937 1.451322,1.42043 0.584349,6.4e-4 1.036035,0.29941 1.480819,0.97949 0.614999,0.94035 0.705632,0.97066 2.32,0.77605 1.930901,-0.23276 2.104391,0.0468 0.909981,1.46626 -0.590451,0.70172 -0.811974,0.80577 -0.949955,0.4462 -0.207264,-0.54013 -1.659651,-0.63493 -1.972487,-0.12876 -0.115628,0.18709 -0.0019,0.58309 0.252474,0.88 0.25449,0.29692 0.551146,0.78941 0.659235,1.09444 0.120285,0.33946 0.389015,0.48074 0.692714,0.36421 0.272902,-0.10473 0.69967,-0.0215 0.948374,0.18487 0.248695,0.2064 0.699925,0.33051 1.002725,0.2758 0.87593,-0.15827 0.90721,0.65563 0.0336,0.87488 -0.71719,0.18001 -0.77385,0.31902 -0.62435,1.53181 0.22911,1.85868 0.77623,2.91699 1.56658,3.03031 0.3701,0.0531 1.0797,0.52106 1.57687,1.04 0.52274,0.54563 1.23698,0.94352 1.69367,0.94352 0.76162,0 0.76971,0.0221 0.2273,0.62148 -0.81878,0.90474 -0.2863,2.31726 1.01412,2.69022 0.86958,0.24939 0.97814,0.41314 0.95787,1.44479 -0.0416,2.11519 1.60354,4.79436 2.97125,4.83893 0.75552,0.0246 1.92,1.45218 1.92,2.35378 0,0.45045 0.252,0.96118 0.56,1.13497 0.44853,0.25308 0.48038,0.39637 0.16,0.7199 -0.22,0.22216 -0.4,0.80713 -0.4,1.29993 0,1.24538 0.79485,1.16063 2.10072,-0.224 1.25865,-1.33455 1.89453,-1.46212 1.60855,-0.32269 -0.11072,0.44115 0.009,1.29881 0.26898,1.92 0.46292,1.10791 0.45864,1.12269 -0.32462,1.12269 -1.06537,0 -1.23584,0.61588 -0.64896,2.3445 0.47172,1.38941 2.69548,4.0555 3.38266,4.0555 0.18297,0 0.33276,0.18 0.33288,0.4 1.3e-4,0.24894 -0.45306,0.4 -1.2,0.4 -1.02034,0 -1.18517,0.0959 -1.09983,0.64 0.0552,0.352 0.10089,0.8824 0.1015,1.17866 6.4e-4,0.29626 0.20744,0.70989 0.45961,0.91918 0.25218,0.20929 0.45851,0.70347 0.45851,1.09819 0,0.39471 0.288,1.08379 0.64,1.53129 0.352,0.44749 0.64,1.26166 0.64,1.80925 0,0.91955 0.0672,0.98089 0.88,0.8028 0.484,-0.10605 1.06948,-0.25191 1.30106,-0.32414 0.2923,-0.0912 0.39016,0.13584 0.32,0.74229 -0.0798,0.69006 -0.26914,0.87453 -0.90106,0.87804 -0.63778,0.004 -0.82091,0.18681 -0.90312,0.90379 -0.0567,0.49464 0.0342,1.07064 0.20198,1.28 0.3377,0.42132 0.2837,2.48166 -0.0805,3.07093 -0.12772,0.20667 -0.48777,0.29464 -0.80011,0.19551 -0.81218,-0.25777 -1.41373,0.61681 -1.19083,1.7313 0.13067,0.6534 -0.0503,1.38201 -0.60016,2.41614 -0.89681,1.68666 -0.97055,1.99725 -0.3524,1.48423 0.23918,-0.1985 1.13918,-0.59 2,-0.87002 z m 29.72514,-32.03684 c 0.176,-0.21417 1.96519,-0.90239 3.97598,-1.52937 5.30073,-1.65282 5.21736,-1.59695 5.7123,-3.82793 0.23243,-1.04772 0.5851,-2.10073 0.7837,-2.34003 0.63311,-0.76286 0.79993,-7.45016 0.27686,-11.09844 -0.17547,-1.22384 -0.20057,-2.37584 -0.0558,-2.56 0.25623,-0.32592 0.50657,-1.80364 0.88008,-5.19517 0.17957,-1.6305 0.60435,-2.18328 1.33209,-1.73351 0.27429,0.16952 0.2572,0.87041 -0.0675,2.77039 -0.2391,1.3989 -0.46062,3.26346 -0.49227,4.14346 -0.0316,0.88 -0.0888,2.14 -0.12703,2.8 -0.0382,0.66 0.005,1.20083 0.0961,1.20185 0.091,9.6e-4 0.17497,0.87609 0.18648,1.94461 0.0115,1.06852 0.15552,2.03969 0.32001,2.15815 0.16448,0.11847 0.3305,0.69914 0.36892,1.29039 0.0384,0.59125 0.22542,1.26243 0.41554,1.49151 0.23977,0.28891 0.24288,0.48004 0.0101,0.62389 -0.18454,0.11405 -0.33554,0.48687 -0.33554,0.82849 0,0.61261 0.3439,0.81055 0.73271,0.42173 0.40065,-0.40064 4.11219,-0.48172 4.57228,-0.0999 0.33841,0.28085 0.56631,0.28526 0.8893,0.0172 0.32217,-0.26737 1.67287,-0.26287 5.23207,0.0174 5.14614,0.40531 9.4325,0.079 10.80891,-0.82286 0.37535,-0.24593 1.03751,-0.37928 1.47148,-0.29632 0.54732,0.10463 1.06127,-0.10145 1.67764,-0.67269 0.50269,-0.46588 1.26733,-0.82352 1.76069,-0.82352 0.58292,0 1.26662,-0.39791 2.06186,-1.2 2.10528,-2.1234 2.79307,-2.98209 2.79307,-3.48711 0,-0.65035 0.92022,-2.22639 1.92,-3.28834 1.05225,-1.11768 1.35614,-1.6161 2.88334,-4.72903 0.70816,-1.44347 1.42911,-2.71197 1.60211,-2.81889 0.17299,-0.10692 0.31454,-0.5374 0.31454,-0.95663 0,-0.41923 0.144,-0.85123 0.32,-0.96 0.176,-0.10877 0.32,-1.00782 0.32,-1.99789 0,-2.15083 0.88218,-5.52211 1.445,-5.52211 0.22037,0 0.72291,-0.79396 1.11677,-1.76436 0.63639,-1.56797 0.69171,-2.09334 0.49702,-4.72 -0.69698,-9.40319 -0.6956,-9.26863 -0.0988,-9.64058 0.64844,-0.40413 0.71724,-1.37193 0.18868,-2.65423 -0.20422,-0.49546 -0.33632,-1.10517 -0.29355,-1.35491 0.14833,-0.86614 -0.71412,-3.39161 -1.53794,-4.50345 -0.93071,-1.25611 -1.93095,-3.90047 -1.94674,-5.14669 -0.006,-0.46188 -0.37328,-1.16508 -0.83579,-1.59959 -0.45394,-0.42645 -1.11772,-1.45502 -1.47508,-2.2857 -0.35735,-0.83069 -0.84323,-1.67093 -1.07974,-1.86722 -0.23651,-0.19628 -0.65656,-1.13618 -0.93345,-2.08865 -0.51152,-1.75956 -2.12564,-3.97462 -2.89631,-3.97462 -0.67504,0 -1.67837,-1.50853 -1.90823,-2.86906 -0.19465,-1.15214 -0.3494,-1.30748 -1.97257,-1.98025 -0.96873,-0.40152 -1.89844,-0.98621 -2.06601,-1.29932 -0.16757,-0.3131 -0.86731,-0.85632 -1.55498,-1.20714 -0.68768,-0.35083 -1.43886,-1.0353 -1.66931,-1.52105 -0.3168,-0.66778 -0.76499,-0.95969 -1.83769,-1.19689 -1.17119,-0.25898 -1.64575,-0.60771 -2.72,-1.99878 -0.78107,-1.01142 -1.55106,-1.68556 -1.92606,-1.68629 -0.8004,-0.002 -2.73523,-1.864814 -2.73523,-2.634036 0,-0.322998 -0.252,-0.681434 -0.56,-0.796522 -0.97302,-0.363584 -3.28574,-2.44871 -3.93403,-3.546883 -0.34294,-0.580921 -1.05823,-1.207757 -1.58953,-1.392969 -0.61527,-0.214484 -1.3791,-0.959114 -2.10378,-2.050884 -0.62577,-0.942771 -1.77562,-2.361136 -2.55522,-3.151916 -0.77959,-0.790781 -1.41744,-1.708714 -1.41744,-2.039847 0,-0.331133 -0.576,-1.424329 -1.28,-2.429321 -0.704,-1.004996 -1.28,-1.930688 -1.28,-2.057101 0,-0.190611 -0.77763,-0.868119 -1.90731,-1.661741 -0.12526,-0.088 -0.7383,-0.964131 -1.36232,-1.946957 -0.62401,-0.982829 -1.51162,-2.083552 -1.97247,-2.446054 -0.46085,-0.362506 -0.8379,-0.818375 -0.8379,-1.013043 0,-0.194669 -0.288,-0.641946 -0.64,-0.993946 -0.352,-0.352 -0.64,-0.856 -0.64,-1.12 0,-0.264 -0.144,-0.48 -0.32,-0.48 -0.176,0 -0.32,-0.196579 -0.32,-0.436845 0,-0.240265 -0.288,-0.802979 -0.64,-1.250473 -0.352,-0.447495 -0.64,-1.04648 -0.64,-1.331076 0,-0.284595 -0.36,-0.65432 -0.8,-0.821606 -0.44,-0.167286 -0.8,-0.53401 -0.8,-0.814938 0,-0.280928 -0.22353,-0.734304 -0.49673,-1.007507 -0.33702,-0.337011 -0.43173,-0.792678 -0.29458,-1.417142 0.14928,-0.679667 0.0822,-0.920413 -0.25631,-0.920413 -0.33775,0 -0.51018,-0.610909 -0.65485,-2.32 -0.108,-1.276 -0.48749,-3.165757 -0.84329,-4.199459 -0.37476,-1.088771 -0.65803,-2.771571 -0.67333,-4 -0.0847,-6.802621 0.0529,-12.664112 0.30091,-12.820483 0.27391,-0.172676 1.15891,-3.011517 1.54085,-4.942624 0.10035,-0.507415 0.45131,-1.191415 0.77989,-1.52 0.32859,-0.328589 0.59744,-0.810874 0.59744,-1.071748 0,-0.882958 2.36586,-4.885066 3.23192,-5.467141 1.04033,-0.699203 2.229,-3.235279 2.53968,-5.418545 0.13101,-0.920623 0.0459,-3.006551 -0.20037,-4.912566 -0.36606,-2.832758 -0.54561,-3.421511 -1.23965,-4.06472 -0.44637,-0.413685 -0.82958,-0.97503 -0.85158,-1.247434 C 153.1116,9.7853773 151.718,7.6297254 149.33137,5.329328 l -2.27279,-2.1906721 -2.40928,0.1579979 c -3.08744,0.2024694 -6.40902,1.1769587 -7.69231,2.2567798 C 136.40364,6.0190451 135.70275,6.4 135.39945,6.4 c -0.30329,0 -0.69924,0.1477958 -0.87988,0.3284355 -0.18064,0.1806397 -1.45887,0.4099837 -2.84051,0.5096535 -1.38165,0.09967 -2.81065,0.367711 -3.17557,0.5956473 -0.9571,0.5978285 -2.29201,0.7638941 -7.88447,0.980841 -4.22484,0.1638931 -5.04214,0.1195277 -5.38389,-0.2922512 -0.39857,-0.4802567 -2.0053,-0.6304749 -6.04906,-0.5655463 -1.09249,0.017542 -1.62122,-0.090457 -1.48913,-0.3041724 0.2403,-0.3888276 -3.53523,-0.054309 -4.3959,0.3894828 -0.78273,0.403608 -4.344245,0.3406807 -5.162072,-0.091207 -0.384429,-0.2030141 -1.199773,-0.7790141 -1.811872,-1.28 C 95.714993,6.1698976 94.886993,5.76 94.487096,5.76 c -0.399901,0 -0.727092,-0.1594064 -0.727092,-0.3542365 0,-0.1948301 -0.198083,-0.2782246 -0.440185,-0.1853216 C 93.077716,5.313345 92.485259,5.1847514 92.003243,4.9346784 91.521223,4.6846051 90.938356,4.48 90.707979,4.48 90.477601,4.48 89.836369,4.0990451 89.283022,3.6334336 87.999726,2.5536126 84.678148,1.5791232 81.590714,1.3766537 L 79.181428,1.2186559 76.908637,3.409328 c -2.386627,2.3003974 -3.78023,4.4560493 -3.908634,6.0459517 -0.02198,0.2724038 -0.405216,0.8337493 -0.851587,1.2474343 -0.693696,0.642894 -0.874019,1.233348 -1.24137,4.06472 -0.552176,4.25593 -0.329193,6.528863 0.740058,7.543709 0.329642,0.312871 0.898797,1.133205 1.264787,1.822965 0.365991,0.689759 0.790599,1.337759 0.943572,1.44 0.441446,0.295042 2.624541,4.433855 2.624541,4.975727 0,0.269591 0.288,0.778165 0.64,1.130165 0.352,0.352 0.64,0.910413 0.64,1.240922 0,0.53862 0.466054,1.900691 1.272537,3.719078 0.506659,1.142362 0.660573,2.798998 0.683805,7.36 0.03907,7.671619 -0.124717,9.934246 -0.7708,10.647853 -0.565965,0.62511 -0.543491,0.637808 1.52,0.85879 1.151952,0.123363 2.094458,0.330205 2.094458,0.459648 0,0.409552 3.910723,1.626813 6.24,1.942282 1.232,0.166857 3.577895,0.530544 5.213098,0.808192 1.635206,0.277648 3.108122,0.421366 3.273146,0.319376 0.165024,-0.101991 0.722364,0.126797 1.238534,0.508419 0.655456,0.484598 1.545368,0.73447 2.950798,0.828528 1.10676,0.07407 2.1692,0.26489 2.36096,0.424038 0.33595,0.278816 1.78722,0.6976 4.48346,1.293773 0.704,0.155664 2.21601,0.507635 3.36001,0.782157 2.96461,0.711411 5.17893,1.118426 5.92,1.088157 0.352,-0.01437 1.108,0.122413 1.68,0.303984 0.60226,0.191177 1.04,0.206822 1.04,0.03717 0,-0.161127 0.468,-0.0076 1.04,0.341142 1.18848,0.724634 2.17587,0.812615 2.74398,0.244506 0.30712,-0.307117 0.52609,-0.30824 1.01135,-0.0052 0.34065,0.212739 0.83001,0.305965 1.08748,0.207168 0.27564,-0.105776 0.61439,0.09372 0.8239,0.485187 0.51624,0.964598 -0.0926,1.947664 -1.19797,1.934371 -0.91875,-0.01104 -3.56968,-0.862473 -4.80369,-1.542851 -0.40422,-0.22287 -3.14022,-0.697446 -6.08,-1.054614 -3.63532,-0.441671 -5.42461,-0.789652 -5.59376,-1.087872 -0.13678,-0.241165 -0.78478,-0.529927 -1.44,-0.6417 -1.1549,-0.197014 -2.58202,-0.582851 -4.2313,-1.143977 -0.44,-0.149699 -1.664,-0.285299 -2.72,-0.301331 -1.055995,-0.01603 -2.610287,-0.264176 -3.45398,-0.551424 -1.224598,-0.416932 -1.658265,-0.44465 -2.150204,-0.137431 -0.52281,0.326503 -0.730503,0.261597 -1.370074,-0.428153 -0.791431,-0.853524 -3.336563,-1.477831 -6.305738,-1.546765 -0.792,-0.0184 -1.754534,-0.213434 -2.138963,-0.433434 -0.384429,-0.22 -0.967629,-0.4 -1.296,-0.4 -0.328372,0 -0.733837,-0.11896 -0.901037,-0.264358 -0.841453,-0.731728 -4.242324,-1.300698 -8.224001,-1.375888 -1.411228,-0.02666 -2.48,-0.184941 -2.48,-0.367299 0,-0.206132 -0.970445,-0.241725 -2.72,-0.09977 -1.718307,0.139421 -2.72,0.104858 -2.72,-0.09386 0,-0.39488 -4.362493,-2.598832 -5.144109,-2.598832 -0.317965,0 -0.667117,0.144 -0.775891,0.32 -0.108775,0.176 -0.747642,0.32 -1.419703,0.32 -0.734019,0 -1.393046,0.206179 -1.650473,0.516358 -0.34448,0.415076 -0.744464,0.469652 -2.039181,0.27824 -0.885853,-0.130963 -3.482644,-0.208793 -5.770644,-0.172956 l -4.16,0.06516 -0.96,1.071655 c -0.528,0.589408 -1.32,1.166326 -1.76,1.282041 -1.590598,0.418304 -2.960506,1.198237 -3.110221,1.770746 -0.08407,0.321475 -0.69593,0.801798 -1.359693,1.067382 -0.663763,0.265587 -1.293053,0.707543 -1.398422,0.982128 C 37.546299,61.215341 37.257202,61.44 37.009227,61.44 c -0.755014,0 -1.311718,0.969395 -1.35528,2.359965 -0.02275,0.726019 -0.229552,1.766301 -0.459574,2.311737 -0.370378,0.87825 -0.339066,1.155223 0.273702,2.421034 0.38056,0.786131 0.697104,1.563862 0.703434,1.728294 0.02134,0.554685 1.514864,2.142244 1.831334,1.946656 0.203972,-0.12606 0.205581,-0.672153 0.0046,-1.560793 -0.695552,-3.075485 -0.667648,-4.192688 0.127028,-5.085994 0.410038,-0.460931 1.118969,-0.925779 1.575404,-1.032995 0.761536,-0.178886 2.521549,-1.63017 2.536468,-2.091539 0.0035,-0.108 0.723494,-0.622125 1.6,-1.142503 0.876509,-0.520374 1.593651,-1.060374 1.593651,-1.2 0,-0.139622 0.648,-0.253862 1.44,-0.253862 1.083498,0 1.44,-0.122045 1.44,-0.492963 0,-0.375674 0.309427,-0.474704 1.300528,-0.416227 1.70729,0.100739 1.869674,0.459347 0.472371,1.043177 -0.623094,0.260346 -1.132899,0.624704 -1.132899,0.809683 0,0.184983 -0.619808,0.33633 -1.37735,0.33633 -2.197351,0 -5.29849,2.333072 -6.095063,4.585485 -0.15985,0.45199 -0.412435,0.540374 -1.107811,0.387645 l -0.900752,-0.19784 0.02048,1.930508 c 0.01126,1.061776 0.128486,1.931338 0.260486,1.932352 0.132,9.6e-4 0.24,0.33305 0.24,0.73785 0,0.4048 0.18,0.9268 0.4,1.16 0.32,0.3392 0.32,0.453334 0,0.570666 -0.22,0.08067 -0.4,0.494668 -0.4,0.92 0,0.425334 -0.144,0.773334 -0.32,0.773334 -0.660377,0 -0.283654,0.671568 0.72,1.283507 1.402647,0.85521 1.967418,0.800317 2.505405,-0.243507 0.249453,-0.484 0.633786,-0.995155 0.854074,-1.135901 0.220288,-0.140745 0.403725,-0.428745 0.407638,-0.64 C 44.171013,72.972845 44.471519,72.44 44.834876,72 c 0.36336,-0.44 0.573808,-0.629949 0.467664,-0.422112 -0.321306,0.629149 0.338752,0.765997 0.841984,0.174566 0.258534,-0.303849 0.65503,-1.019923 0.881101,-1.591273 0.317392,-0.802157 0.877603,-1.268509 2.459004,-2.047031 1.126381,-0.554518 2.128797,-0.927382 2.227591,-0.828588 0.352115,0.352115 -0.512499,1.445804 -2.100125,2.656544 -0.886656,0.676172 -1.612102,1.353171 -1.612102,1.504438 0,0.15127 -0.792,1.029981 -1.76,1.952694 -0.968001,0.922711 -1.760001,1.849357 -1.760001,2.05921 0,0.209853 -0.113142,0.381552 -0.251427,0.381552 -0.138288,0 -0.273008,0.252 -0.299379,0.56 -0.02637,0.308 -0.146176,0.956829 -0.26623,1.44184 -0.205725,0.831126 0.237753,1.83816 0.809491,1.83816 0.128749,0 0.651117,-0.364093 1.160819,-0.809094 1.488029,-1.299149 1.671395,-1.426775 2.43825,-1.697047 0.400662,-0.141213 1.736477,-0.293862 2.968477,-0.339225 1.616141,-0.05951 2.546115,-0.271504 3.33912,-0.761194 0.761434,-0.470192 1.138307,-0.561155 1.226669,-0.296077 0.147622,0.442874 1.627597,0.503703 2.275209,0.09351 0.242548,-0.153629 0.358132,-0.413402 0.256848,-0.577277 -0.241267,-0.390378 3.955841,-1.393786 4.850925,-1.159715 0.481473,0.125907 0.691229,0.03507 0.691229,-0.299328 0,-0.264045 0.568695,-0.993869 1.26377,-1.621824 0.695072,-0.627955 1.490768,-1.580714 1.768218,-2.117235 0.550611,-1.064752 1.128022,-1.289066 1.128022,-0.438218 0,1.207763 -0.793878,2.565264 -2.117734,3.621235 -1.61897,1.291367 -1.763709,2.035738 -0.522266,2.685965 0.978995,0.512765 2.556627,2.13032 3.389747,3.47552 0.299754,0.484 0.764826,0.88 1.033492,0.88 0.662505,0 2.696761,2.015821 2.696761,2.672326 0,0.290221 0.18,0.534912 0.4,0.543764 2.698682,0.108544 3.196458,0.287849 4.697825,1.692201 0.845456,0.790826 2.283078,1.815834 3.19472,2.277795 0.911638,0.461965 1.733181,1.037082 1.825645,1.278045 0.09247,0.24096 0.512339,0.524503 0.933049,0.630096 0.544951,0.136775 0.873514,0.554394 1.14249,1.452157 0.429497,1.433542 1.240125,2.003386 1.256918,0.883574 l 0.01066,-0.709958 0.600647,0.72 c 0.654985,0.785133 1.295321,0.914739 1.838038,0.372022 0.25064,-0.25064 0.664039,0.06595 1.477847,1.13176 0.624118,0.817386 1.221645,1.331242 1.334905,1.147981 0.359943,-0.582397 0.676263,-0.361209 1.127271,0.788237 0.358838,0.914541 0.606448,1.12 1.349769,1.12 0.513975,0 0.990513,0.208989 1.094509,0.48 0.101309,0.264 0.379722,0.48 0.618701,0.48 0.238976,0 0.587594,0.286054 0.774707,0.635677 0.201354,0.376237 0.630407,0.61399 1.051258,0.582541 0.75159,-0.05616 5.991048,2.539206 5.991048,2.967666 0,0.13805 0.324,0.34925 0.72,0.46934 0.396,0.12008 1.01264,0.48543 1.37032,0.81187 1.09295,0.99753 7.29098,2.17887 11.93504,2.27481 3.29708,0.0681 5.78798,-0.26983 6.46645,-0.87731 0.28038,-0.25105 0.80076,-0.35955 1.21052,-0.25239 0.45569,0.11916 0.94909,-0.0205 1.3482,-0.38172 0.34621,-0.31332 0.62948,-0.47165 0.62948,-0.35186 0,0.31921 1.73671,-0.63219 2.22249,-1.21752 0.46871,-0.56478 1.6175,-0.68058 1.6175,-0.16306 0,0.40141 -1.93262,2.22196 -2.35875,2.22196 -0.16286,0 -1.06714,0.828 -2.00951,1.84 -1.33803,1.43689 -1.77704,1.74088 -2.00388,1.38755 -0.23221,-0.36171 -0.59125,-0.1877 -1.79013,0.86759 l -1.49966,1.32005 -2.60903,-0.17033 c -1.43498,-0.0937 -3.30013,-0.3041 -4.1448,-0.46759 -0.84466,-0.1635 -2.21351,-0.29727 -3.04188,-0.29727 -1.3586,0 -1.54689,-0.0921 -1.92222,-0.94 -0.5468,-1.23532 -1.19717,-1.32858 -2.9348,-0.42079 -2.74971,1.43651 -3.69612,2.89284 -2.45601,3.77929 l 0.69066,0.49371 -0.8,0.70464 c -0.77752,0.68485 -1.6,2.14244 -1.6,2.83553 0,0.18824 0.288,0.26695 0.64,0.1749 0.75267,-0.19683 0.80425,0.24572 0.16,1.37272 -0.52837,0.92429 -0.6306,2.56 -0.16,2.56 0.176,0 0.32,0.41852 0.32,0.93004 0,0.79195 0.10139,0.90353 0.68285,0.75148 0.37556,-0.0982 0.6238,-0.0487 0.55165,0.10996 -0.0722,0.15868 -0.40524,0.82671 -0.74019,1.4845 -0.68427,1.34379 -0.47155,1.8636 0.51141,1.24974 0.95551,-0.59673 1.03203,-0.28186 0.25253,1.03928 -0.56258,0.95351 -0.61463,1.25378 -0.28595,1.64981 0.3093,0.37269 0.3173,0.6696 0.0348,1.28972 -0.47916,1.05165 -0.46294,1.482 0.0841,2.23006 0.4448,0.6083 0.461,0.60803 1.16,-0.0188 l 0.7089,-0.63575 -0.6788,1.12 c -0.64402,1.06262 -0.90245,2.24 -0.49167,2.24 0.10424,0 0.5688,-0.29833 1.03235,-0.66296 1.07813,-0.84806 1.27605,-0.30991 0.40459,1.10014 -0.36655,0.5931 -0.66647,1.31337 -0.66647,1.60059 0,0.57223 1.11459,0.72876 1.44,0.20223 0.10878,-0.176 0.34144,-0.32 0.51704,-0.32 0.17559,0 0.0951,0.32005 -0.17889,0.71121 -0.80521,1.1496 -0.64589,1.63834 0.46185,1.41679 0.71955,-0.14391 0.96,-0.0738 0.96,0.28 0,0.2596 -0.144,0.472 -0.32,0.472 -0.4951,0 -0.37768,1.1894 0.13693,1.38687 0.2513,0.0964 0.5033,0.57984 0.56,1.07423 0.0744,0.64907 0.30318,0.92732 0.82308,1.00116 0.396,0.0562 0.72,0.30824 0.72,0.56 0,0.56315 0.69255,0.59719 1.22932,0.0604 0.31644,-0.31644 0.45604,-0.30233 0.6857,0.0693 0.36469,0.59009 -0.1265,1.21617 -1.05826,1.34884 -0.8284,0.11796 -0.91535,0.85158 -0.1576,1.32956 0.39147,0.24693 0.75358,0.22535 1.32187,-0.0788 0.9425,-0.50441 2.14065,-0.19569 2.1346,0.55001 -0.009,1.10475 -0.40703,2.01183 -0.81429,1.85555 -0.5631,-0.21608 -1.2191,0.63446 -0.97665,1.26628 0.1465,0.38176 0.53383,0.48427 1.52669,0.40407 0.86092,-0.0695 1.37831,0.0337 1.46617,0.29253 0.0747,0.22 -0.0922,0.4 -0.37089,0.4 -0.67762,0 -0.67933,1.69834 -0.002,2.26024 0.41802,0.34693 0.55375,0.33994 0.7927,-0.0408 0.15856,-0.25269 0.20988,-0.71143 0.11404,-1.01943 -0.12612,-0.40529 0.003,-0.56 0.46842,-0.56 0.738,0 1.16744,0.49903 0.68567,0.79678 -0.40711,0.25161 -0.4326,2.72322 -0.0281,2.72322 0.4177,0 1.30091,-0.93049 1.31258,-1.38285 0.0238,-0.92297 0.77668,1.0218 0.7831,2.02285 0.006,0.91681 0.13842,1.13864 0.73063,1.22271 0.58553,0.0831 0.76119,-0.0859 0.92133,-0.88666 0.24674,-1.23367 0.54797,-1.42931 1.39637,-0.90689 0.58341,0.35926 0.7377,0.31804 1.22875,-0.3282 l 0.56157,-0.73903 0.43833,0.81903 c 0.49889,0.93218 0.81985,1.03239 1.08592,0.33904 0.26087,-0.67981 0.84427,-0.59633 0.84427,0.12082 0,0.33045 0.20022,0.76698 0.44492,0.97007 0.3559,0.29537 0.6438,0.0988 1.43903,-0.98254 0.73578,-1.00051 0.89042,-1.41762 0.59508,-1.60516 -0.31169,-0.19793 -0.31281,-0.25446 -0.005,-0.25829 0.21665,-0.003 0.48296,-0.35973 0.59181,-0.79343 0.10885,-0.43369 0.45366,-0.8697 0.76624,-0.96891 0.39662,-0.12588 0.62697,-0.63693 0.7624,-1.69147 0.32547,-2.53418 0.55614,-3.72152 0.85311,-4.39109 0.89026,-2.00737 1.27249,-3.22058 1.27249,-4.03907 0,-0.55622 0.16975,-0.92092 0.42863,-0.92092 0.62775,0 1.17137,-1.42248 1.17137,-3.0651 0,-0.98234 0.15188,-1.49327 0.4815,-1.61976 0.56082,-0.2152 1.15673,-1.43126 2.01655,-4.11514 0.33831,-1.056 1.05785,-2.568 1.59897,-3.36 1.30834,-1.91492 8.25573,-8.64 8.9256,-8.64 0.11842,0 0.8707,-0.31726 1.67172,-0.70503 0.80102,-0.38777 2.28648,-0.76508 3.30103,-0.83846 1.01454,-0.0734 1.84463,-0.24868 1.84463,-0.38955 0,-0.14086 0.432,-0.35099 0.96,-0.46696 0.528,-0.11597 0.96,-0.41034 0.96,-0.65417 0,-0.82641 1.30073,-1.18867 3.71238,-1.03389 2.2,0.14118 3.96762,0.81102 3.96762,1.50352 0,0.15439 -0.7011,0.4489 -1.55801,0.65447 -1.29264,0.3101 -1.75941,0.2896 -2.74055,-0.12035 -1.14636,-0.47898 -1.23715,-0.46496 -2.96704,0.45816 -0.98147,0.52374 -2.09397,0.95226 -2.47222,0.95226 -1.18738,0 -4.4478,0.93648 -5.78218,1.66081 -0.704,0.38214 -2.15186,1.42479 -3.21745,2.31699 -1.0656,0.89221 -2.3366,1.9102 -2.82444,2.2622 -0.94495,0.68181 -1.89836,2.19309 -1.58268,2.50876 0.10444,0.10445 -0.3333,0.71311 -0.97277,1.35257 -0.63946,0.63947 -1.16266,1.35924 -1.16266,1.59949 0,0.52702 -0.83725,3.12983 -1.43438,4.45918 -1.98767,4.42496 -2.06861,4.67592 -1.69907,5.26766 0.29088,0.46576 0.2538,0.76413 -0.17656,1.42095 -0.29961,0.45727 -0.66982,0.83139 -0.82268,0.83139 -0.49183,0 -0.74078,1.67683 -0.29028,1.95525 0.33789,0.20883 0.33499,0.4501 -0.0157,1.31035 -0.23645,0.57992 -0.53591,1.6304 -0.66548,2.3344 -0.12956,0.704 -0.53854,1.928 -0.90883,2.72 -1.16681,2.49562 -1.9822,5.54019 -1.60536,5.99425 0.23792,0.28668 0.23134,0.40575 -0.0224,0.40575 -0.19755,0 -0.35918,0.144 -0.35918,0.32 0,0.176 0.19715,0.32 0.43813,0.32 0.25138,0 0.51433,0.4696 0.61692,1.10174 0.0983,0.60595 0.50435,1.5421 0.90228,2.08031 0.6715,0.90826 0.69517,1.0891 0.32937,2.51637 -0.39299,1.53336 -0.23668,2.77677 0.30683,2.44086 0.15755,-0.0974 0.28647,-0.46327 0.28647,-0.8131 0,-0.61824 0.0221,-0.61995 0.78994,-0.0611 0.59033,0.42965 0.79249,0.87533 0.8,1.76368 0.007,0.87488 0.18804,1.284 0.68416,1.54951 0.53479,0.28621 0.63481,0.55716 0.48401,1.31116 -0.26387,1.31937 0.54145,3.15059 1.38556,3.15059 0.36517,0 0.65633,0.20942 0.65633,0.47208 0,0.36054 -0.1741,0.40589 -0.73685,0.19193 -0.98821,-0.37572 -1.82315,0.13349 -1.82315,1.11189 0,0.43126 -0.132,0.7841 -0.29334,0.7841 -0.16133,0 -0.29333,-0.65479 -0.29333,-1.45508 0,-1.66041 -0.45366,-2.38492 -1.49333,-2.38492 -0.3969,0 -0.89935,-0.21413 -1.11655,-0.47584 -0.2172,-0.26171 -1.25708,-0.7902 -2.31084,-1.17442 -1.28503,-0.46854 -2.02779,-0.94409 -2.25563,-1.44416 -0.25328,-0.55589 -0.60165,-0.74558 -1.36927,-0.74558 -0.56625,0 -1.56942,-0.22557 -2.22925,-0.50126 -1.87763,-0.78453 -3.51153,-0.35868 -5.13836,1.33923 -0.73883,0.77112 -1.52345,1.40203 -1.74359,1.40203 -0.28065,0 -0.34453,0.34336 -0.21379,1.14902 0.10264,0.63253 0.0268,1.4046 -0.16864,1.71761 -0.48022,0.76895 -0.105,1.61337 0.71691,1.61337 0.3691,0 0.96159,0.15548 1.31666,0.3455 0.48965,0.26206 0.77442,0.23551 1.17897,-0.10992 0.78831,-0.67311 4.84777,-1.30354 5.87612,-0.91256 1.42707,0.54258 1.29415,0.92176 -0.30784,0.87819 -1.23573,-0.0336 -1.50742,0.0578 -1.47427,0.4959 0.0341,0.45083 -0.0944,0.4854 -0.8,0.21518 -1.33486,-0.51119 -4.00452,-0.0451 -4.76746,0.83235 -0.49315,0.56718 -0.56172,0.84016 -0.28228,1.1238 0.27922,0.28341 0.25221,0.46681 -0.11089,0.7531 -0.29242,0.23056 -0.44173,0.77262 -0.38207,1.38706 0.0758,0.78044 0.32047,1.10079 1.08164,1.41608 0.54104,0.2241 1.41934,0.80536 1.95179,1.29167 l 0.96809,0.88421 -0.60973,0.8646 c -0.33535,0.47554 -0.73678,1.03471 -0.89206,1.24261 -0.26743,0.35804 1.09108,2.85787 1.87934,3.45823 0.17765,0.1353 0.99554,0.15936 1.81754,0.0535 1.32018,-0.17006 1.53885,-0.10973 1.87434,0.51712 0.3672,0.68613 0.50327,0.70417 4.10545,0.54428 3.20521,-0.14226 3.88213,-0.0832 4.84567,0.42266 2.16742,1.13794 5.29873,2.47236 7.04082,3.00048 0.96845,0.29358 2.12045,0.81441 2.56,1.15738 0.8822,0.68837 2.8176,0.72824 3.35918,0.0692 z m -23.30667,-12.14393 c -0.44133,-0.44133 -0.1854,-0.74667 0.62585,-0.74667 0.70965,0 0.7777,0.0741 0.44082,0.48 -0.43348,0.52231 -0.73552,0.59782 -1.06667,0.26667 z m 12.33067,-2.73067 c -0.2112,-0.2112 -0.384,-0.72027 -0.384,-1.13126 0,-0.6481 0.0849,-0.70181 0.64,-0.40474 0.37425,0.20029 0.64,0.67002 0.64,1.13126 0,0.86301 -0.30153,0.99922 -0.896,0.40474 z m 1.42933,-2.38933 c -0.31218,-0.31218 -0.2606,-1.95969 0.0677,-2.16259 0.23944,-0.14798 0.67896,1.20878 0.67896,2.09592 0,0.33068 -0.44309,0.37025 -0.74667,0.0667 z m 0.43522,-113.535585 c -0.7421,-0.961901 -1.29872,-1.900583 -1.23693,-2.085962 0.16081,-0.482441 3.06748,2.253411 3.30935,3.114877 0.3681,1.311062 -0.66152,0.799872 -2.07242,-1.028915 z m -27.37043,-5.296983 c -0.10135,-0.319334 -0.61039,-0.729155 -1.1312,-0.91071 -0.92638,-0.322938 -1.25681,-1.094102 -0.63378,-1.479155 0.17223,-0.106445 0.72658,0.112134 1.2319,0.485728 0.74088,0.547763 1.42165,0.688893 3.5165,0.729001 1.69251,0.03241 2.73517,-0.08768 2.9921,-0.344614 0.85456,-0.854557 0.90463,-0.335046 0.0545,0.565648 -0.49835,0.528 -1.13456,0.96 -1.41379,0.96 -0.27924,0 -0.60209,0.09438 -0.71745,0.209741 -0.11536,0.115357 -0.99831,0.244669 -1.96213,0.287357 -1.45254,0.06434 -1.78392,-0.02173 -1.93667,-0.502996 z m -0.55631,-7.935788 c -0.91622,-0.711108 -1.59874,-1.529879 -1.72133,-2.064973 -0.11173,-0.487661 -0.32855,-0.96416 -0.48182,-1.058887 C 109.1775,45.239994 109.44953,44.8 110.19748,44.8 c 0.52921,0 1.01274,0.385728 1.60454,1.28 0.80087,1.210186 0.93447,1.28 2.44967,1.28 1.43228,0 1.75438,-0.139888 3.03047,-1.316154 1.62747,-1.50015 2.54903,-1.521385 2.20764,-0.05087 -0.31791,1.369363 -0.99019,2.256121 -2.37153,3.128121 -1.84101,1.162183 -3.30811,1.04282 -5.19645,-0.42278 z M 105.28,45.138886 c 0,-0.517612 0.144,-1.030112 0.32,-1.138886 0.176,-0.108774 0.32,-0.669491 0.32,-1.246035 0,-0.576547 0.27218,-1.900048 0.60485,-2.941114 0.33266,-1.041069 0.70503,-2.46399 0.82748,-3.162048 0.12245,-0.698057 0.46746,-1.634057 0.76669,-2.08 0.29922,-0.445942 0.74122,-1.203117 0.9822,-1.682608 0.24099,-0.479494 1.0998,-1.42882 1.90847,-2.109614 1.29624,-1.091261 1.64888,-1.230231 2.97858,-1.173817 1.25546,0.05326 1.79974,0.299589 3.24732,1.469613 2.10922,1.70481 2.43909,2.227905 3.70026,5.867722 0.5435,1.568579 1.20944,3.096439 1.47985,3.395242 0.89588,0.989939 1.01412,4.462659 0.15194,4.462659 -0.1651,0 -0.886,-1.836 -1.602,-4.08 -1.66017,-5.203082 -2.68051,-7.10151 -4.22176,-7.854947 -1.1012,-0.538323 -1.30057,-0.542701 -3.12967,-0.06873 -3.37772,0.875254 -3.43936,0.931155 -5.73477,5.20064 -0.24232,0.450701 -0.56236,1.625763 -0.71122,2.611248 C 106.6427,44.087322 106.1048,46.08 105.69119,46.08 105.44949,46.08 105.28,45.692093 105.28,45.138886 Z M 98.668577,35.540883 C 97.285934,34.697808 97.077928,33.842509 97.923,32.475152 98.504363,31.534487 98.793141,31.36 99.768593,31.36 c 1.261747,0 2.951407,1.28473 2.951407,2.24409 0,0.569462 -1.02585,1.622636 -2.13896,2.195923 -0.871343,0.448768 -0.717272,0.469645 -1.912463,-0.25913 z M 100.32,33.302285 c 0,-0.995392 -0.533455,-1.16257 -1.053339,-0.330103 -0.479613,0.767981 -0.227933,1.345805 0.52318,1.201152 0.318139,-0.06127 0.530159,-0.409619 0.530159,-0.871049 z m 25.94874,1.841625 c -1.054,-1.504787 -0.21716,-3.46391 1.4796,-3.46391 1.29188,0 2.87279,1.740029 2.74719,3.023706 -0.0929,0.949139 -0.1459,0.97894 -1.90679,1.071404 -1.57895,0.08292 -1.87653,0.0019 -2.32,-0.6312 z m 2.85127,-1.228294 c 0,-0.970202 -1.11229,-1.25607 -1.77593,-0.456429 -0.37982,0.457664 -0.35499,0.592167 0.18181,0.984691 0.88426,0.646583 1.59412,0.411348 1.59412,-0.528262 z m 11.76608,-16.137487 c -0.13534,-0.234734 -0.53408,-0.482442 -0.88608,-0.550462 -0.47692,-0.09216 -0.63318,-0.366257 -0.61322,-1.07567 0.0147,-0.523598 0.13088,-1.185072 0.2581,-1.469942 0.16515,-0.36979 0.0351,-0.569254 -0.45462,-0.69732 -0.79415,-0.207676 -0.75223,-1.395011 0.0446,-1.263733 0.27042,0.04455 0.8303,-0.279449 1.24418,-0.72 0.84773,-0.90237 1.60094,-1.047433 1.60094,-0.30833 0,0.27097 0.5849,1.065989 1.29977,1.766711 1.0417,1.021076 1.27996,1.465191 1.2,2.236771 -0.0844,0.813898 -0.35855,1.082237 -1.77369,1.735748 -1.3373,0.617569 -1.7234,0.687192 -1.92,0.346227 z M 83.280004,15.459143 c -1.474791,-0.686018 -1.68,-0.897699 -1.68,-1.73298 0,-0.687649 0.35495,-1.29943 1.28,-2.206163 0.704,-0.690061 1.28,-1.476358 1.28,-1.747328 0,-0.739103 0.753209,-0.5940403 1.600941,0.30833 0.413878,0.440551 0.973757,0.764551 1.244179,0.72 0.796851,-0.131278 0.838768,1.056057 0.04461,1.263733 -0.489724,0.128066 -0.619766,0.32753 -0.45462,0.69732 0.127219,0.28487 0.243363,0.946344 0.258099,1.469942 0.01984,0.704545 -0.137495,0.984575 -0.605235,1.077334 -0.34761,0.06893 -0.77961,0.306675 -0.96,0.528311 C 85.029584,16.155119 84.603561,16.074815 83.28,15.459143 Z M 59.071641,109.24354 c 0.982775,-0.46636 1.088362,-0.6467 1.088362,-1.85884 0,-1.41075 -0.497475,-2.39671 -1.288768,-2.55423 -0.259178,-0.0516 -0.729034,-0.20519 -1.044122,-0.34132 -0.728355,-0.31468 -4.227111,2.35102 -4.227111,3.22064 0,0.82572 1.958365,2.05021 3.278961,2.05021 0.607376,0 1.59408,-0.23241 2.192678,-0.51646 z m -3.897184,-4.88221 c 0.09473,-0.15327 0.629501,-0.37012 1.188387,-0.4819 1.979008,-0.3958 2.380407,-1.45017 1.254832,-3.29613 C 57.276713,100.02411 56.901225,99.052109 56.78326,98.423296 56.624115,97.574986 56.407273,97.28 55.942825,97.28 c -0.480326,0 -0.578694,0.148893 -0.422822,0.64 0.230784,0.727139 0.06823,0.784666 -0.841492,0.297795 -0.467856,-0.25039 -0.765645,-0.237449 -1.109872,0.04823 -0.371449,0.308278 -0.635856,0.30192 -1.256435,-0.03021 -0.68024,-0.364055 -0.871088,-0.343629 -1.41857,0.151837 -0.600646,0.543577 -1.042272,0.545776 -2.340774,0.01168 -0.518378,-0.213226 -0.54832,-0.0719 -0.348256,1.643688 0.120387,1.03234 0.409731,2.33588 0.642982,2.89675 0.44456,1.06897 0.786115,1.1835 4.432416,1.48634 0.704,0.0585 1.379501,0.13051 1.501114,0.1601 0.121613,0.0296 0.298618,-0.0716 0.393341,-0.22488 z m -4.016922,-8.239602 c 0.590848,-0.413846 0.898371,-0.446086 1.526259,-0.16 0.432477,0.19705 1.139546,0.358272 1.571264,0.358272 0.618881,0 0.784945,-0.165254 0.784945,-0.781114 0,-0.938912 0.592288,-1.393222 1.016739,-0.779884 0.22663,0.327488 0.262518,0.276265 0.139417,-0.199002 -0.09117,-0.352 -0.260214,-1.036 -0.375651,-1.52 -0.219273,-0.919363 -0.591318,-1.124998 -0.959008,-0.530061 -0.346109,0.560013 -1.80881,-2.306243 -1.667667,-3.267901 0.19352,-1.318537 -0.688647,-1.672432 -2.201031,-0.882976 -0.678038,0.353933 -1.73415,0.813933 -2.346909,1.022224 -0.870953,0.296058 -1.115395,0.553316 -1.12,1.178714 -0.0038,0.519187 -0.25862,0.91088 -0.725891,1.115882 -0.396,0.173734 -0.72,0.425734 -0.72,0.56 0,0.134265 -0.290928,0.244118 -0.646502,0.244118 -0.64409,0 -0.643984,0.0049 0.02842,1.322973 1.085222,2.127213 1.979008,2.837027 3.572329,2.837027 0.760839,0 1.716314,-0.233222 2.123281,-0.518272 z M 34.28763,61.407216 c 0.297498,-0.992963 0.448935,-1.172157 0.664724,-0.786566 0.333408,0.595769 1.207427,0.667641 1.208172,0.09935 9.6e-4,-0.770483 2.549437,-2.787725 5.1825,-4.102285 1.461338,-0.729571 2.953494,-1.68967 3.315904,-2.133552 0.633782,-0.776265 0.829386,-0.81319 5.126317,-0.967718 l 4.467392,-0.160659 -1.451568,-1.546116 c -0.798365,-0.850364 -1.950384,-2.379414 -2.560045,-3.397894 -0.609661,-1.018477 -1.363296,-2.039942 -1.674749,-2.26992 -0.311449,-0.229981 -0.566275,-0.613981 -0.566275,-0.853334 0,-0.239354 -0.108,-0.483188 -0.24,-0.541856 C 47.628002,44.688 47.10285,43.848 46.592997,42.88 45.087173,40.021069 43.42004,37.347242 42.502831,36.32 c -0.471443,-0.528 -1.24594,-1.533648 -1.721101,-2.234774 -0.475162,-0.701127 -1.033696,-1.421127 -1.241187,-1.6 -0.417956,-0.360314 -2.100541,-2.929571 -2.100541,-3.20747 0,-0.186955 -2.06145,-4.467443 -2.541728,-5.277756 -0.671824,-1.133489 -2.892356,-7.050643 -3.074302,-8.19224 L 31.625105,14.56 27.252553,14.830973 C 21.575708,15.182775 16.978756,15.150526 16.16634,14.753199 15.417282,14.386858 10.762584,13.76 8.7913962,13.76 H 7.4445549 l 0.7332269,2 c 0.4032749,1.1 1.3169927,3.497859 2.0304842,5.328575 0.713492,1.830717 1.443278,4.118472 1.621747,5.0839 0.178469,0.965428 0.495445,1.961313 0.704391,2.213077 0.321057,0.38685 0.441665,0.342875 0.778639,-0.283899 L 13.711779,27.36 l 0.305245,0.8 c 0.167884,0.44 0.40284,1.637345 0.522123,2.660767 0.328051,2.814606 0.741817,3.418529 1.585576,2.314267 0.302715,-0.396173 0.485495,-0.351082 1.23543,0.304784 0.768301,0.671926 0.899316,1.059529 1.030951,3.050032 0.109374,1.653891 0.02443,2.473158 -0.309238,2.982393 C 17.616034,40.183194 17.751456,41.6 18.285243,41.6 c 0.159829,0 0.42747,0.36 0.594758,0.8 0.425055,1.117978 1.067664,0.996701 1.695555,-0.32 0.646954,-1.356675 1.355057,-1.518947 1.04729,-0.24 -0.11647,0.484 -0.241257,1.423542 -0.277304,2.087875 -0.06304,1.161747 -0.03194,1.200493 0.814459,1.014573 0.848301,-0.186336 0.88,-0.146054 0.88,1.118224 0,1.239165 0.04414,1.300445 0.8,1.110733 0.792131,-0.19881 1.127546,0.26839 0.48,0.668595 -0.51801,0.320147 -0.395719,2.4 0.141115,2.4 0.253613,0 0.550111,-0.144 0.658885,-0.32 0.305553,-0.494397 1.12,-0.378045 1.12,0.16 0,0.264 -0.272593,0.48 -0.605763,0.48 -0.688978,0 -1.068183,0.714957 -0.77896,1.468659 0.126894,0.330682 0.457264,0.458557 0.944201,0.365475 0.655186,-0.125248 0.802183,0.04152 1.173488,1.331341 0.323504,1.12377 0.568231,1.461453 1.028795,1.419575 0.770625,-0.07007 1.30569,0.65951 1.741748,2.37495 0.212142,0.83456 0.529375,1.36 0.821099,1.36 0.289464,0 0.475392,0.302646 0.475392,0.773827 0,1.259175 0.34055,1.786173 1.154237,1.786173 0.529226,0 0.765764,0.181216 0.765764,0.586666 0,1.507641 0.802524,1.133193 1.327628,-0.61945 z"
       id="path3189" />
  </g>
</svg>
