<?xml version="1.0" encoding="UTF-8" standalone="no"?>
<!-- Created with Inkscape (http://www.inkscape.org/) -->

<svg
   version="1.1"
   id="svg2708"
   width="601.80109"
   height="1041.8585"
   viewBox="0 0 601.80109 1041.8585"
   sodipodi:docname="w1.svg"
   inkscape:version="1.2.2 (732a01da63, 2022-12-09, custom)"
   xmlns:inkscape="http://www.inkscape.org/namespaces/inkscape"
   xmlns:sodipodi="http://sodipodi.sourceforge.net/DTD/sodipodi-0.dtd"
   xmlns="http://www.w3.org/2000/svg"
   xmlns:svg="http://www.w3.org/2000/svg">
  <defs
     id="defs2712" />
  <sodipodi:namedview
     id="namedview2710"
     pagecolor="#ffffff"
     bordercolor="#000000"
     borderopacity="0.25"
     inkscape:showpageshadow="2"
     inkscape:pageopacity="0.0"
     inkscape:pagecheckerboard="0"
     inkscape:deskcolor="#d1d1d1"
     showgrid="false"
     inkscape:zoom="0.75364072"
     inkscape:cx="322.43481"
     inkscape:cy="517.48796"
     inkscape:window-width="1920"
     inkscape:window-height="1031"
     inkscape:window-x="0"
     inkscape:window-y="25"
     inkscape:window-maximized="1"
     inkscape:current-layer="layer1" />
  <g
     inkscape:groupmode="layer"
     id="layer1"
     inkscape:label="Layer 1"
     transform="translate(-14.666662,-32.145016)">
    <path
       style="fill:#000000;stroke-width:1.33333"
       d="m 358.82025,1069.9712 c -2.26328,-2.5777 -4.4546,-6.0396 -4.86961,-7.6931 -0.415,-1.6535 -0.53199,-11.5425 -0.25997,-21.9756 0.27202,-10.433 0.39244,-18.9691 0.26758,-18.9691 -1.74846,0 -8.62492,3.2115 -8.62492,4.0281 0,0.6053 -1.57548,2.9729 -3.50105,5.2614 -5.15131,6.1219 -13.11181,9.6867 -22.46787,10.0612 -9.5325,0.3815 -13.74488,1.9023 -22.30638,8.0531 -3.51864,2.5279 -6.69615,4.5962 -7.06111,4.5962 -0.36497,0 -0.66135,-4.95 -0.6586,-11 0.004,-8.613 0.57833,-11.9404 2.64707,-15.3334 1.45314,-2.3833 3.1781,-4.3333 3.83325,-4.3333 0.65515,0 1.9432,-1.8156 2.86236,-4.0346 1.95055,-4.709 4.847,-6.8927 19.319,-14.5648 14.90984,-7.90426 19.12167,-12.06727 12.20873,-12.06727 -1.71853,0 -6.61245,-1.2 -10.8754,-2.66667 -4.26294,-1.46666 -10.06492,-2.66666 -12.89329,-2.66666 h -5.14249 l 1.98241,-4.7446 c 4.44492,-10.63819 9.88193,-15.08436 19.69807,-16.10834 3.86209,-0.40288 9.00262,-1.61848 11.42342,-2.70133 2.4208,-1.08285 6.6208,-2.265 9.33334,-2.62699 9.99652,-1.33402 10.87177,-1.80714 13.7385,-7.42642 2.70907,-5.31022 2.8569,-7.67496 3.22855,-51.64534 0.21421,-25.34417 -0.10787,-55.08032 -0.7158,-66.08032 -0.60791,-11 -1.48156,-26.9 -1.94144,-35.33334 -0.45989,-8.43333 -1.09527,-17.13333 -1.41195,-19.33333 -0.31666,-2.2 -1.19508,-13.9 -1.95202,-26 -1.63107,-26.07292 -3.97918,-52.19838 -4.81274,-53.54708 -0.32709,-0.52926 -3.13118,0.18914 -6.2313,1.59645 -11.14055,5.05725 -11.2428,4.93755 -12.28591,-14.38271 -1.05759,-19.58844 -3.16675,-31.38888 -7.57127,-42.36026 -3.10028,-7.72256 -3.14872,-7.76571 -12.09244,-10.7689 -4.93882,-1.65838 -9.24308,-2.58906 -9.56501,-2.06817 -1.56897,2.53865 4.94947,30.49317 11.82225,50.69999 l 3.23026,9.49734 -6.2539,0.1136 c -3.43965,0.0625 -9.32134,0.0228 -13.07044,-0.0881 l -6.81652,-0.20184 -0.96097,7.08816 c -2.10992,15.56299 -2.13157,21.84771 -0.12187,35.37528 2.19804,14.79527 2.00122,17.86667 -2.11772,33.04623 -1.39292,5.13333 -3.12269,16.23333 -3.84394,24.66667 -3.53407,41.32212 -5.54299,63.70004 -6.04471,67.33333 -2.03227,14.71708 -4.65151,37.77984 -5.411,47.6446 -0.99672,12.94584 -0.23223,14.95731 6.22375,16.37527 2.14841,0.47188 4.65694,1.92233 5.57453,3.22324 0.96525,1.36851 4.29096,2.75623 7.8916,3.29296 7.26689,1.08321 16.09521,6.9672 19.06221,12.70476 1.12632,2.17806 2.04784,6.15986 2.04784,8.84847 0,4.50023 -0.23821,4.80272 -3,3.80951 -1.65,-0.59338 -6.47328,-1.02883 -10.7184,-0.96766 -6.13173,0.0884 -8.80416,0.86366 -13.00012,3.77146 -4.69498,3.25362 -6.368,3.63504 -15.06044,3.43349 l -9.77872,-0.22672 -5.22116,7.04531 c -3.19905,4.31673 -7.37645,8.07809 -10.78621,9.71198 -3.23189,1.54866 -5.88627,3.87839 -6.33119,5.55686 -1.38154,5.21194 -13.91977,17.62409 -19.25402,19.06049 -5.85932,1.5777 -11.47043,5.5651 -17.42532,12.3826 -2.40203,2.75 -5.13616,5 -6.07586,5 -2.34381,0 -5.4952,-5.1171 -7.31622,-11.8799 -1.9172,-7.1199 0.78358,-16.15786 7.43065,-24.86597 2.49536,-3.2691 4.53701,-6.21272 4.53701,-6.54137 0,-0.32865 -5.72977,1.47653 -12.73281,4.01153 -13.88528,5.02627 -18.19364,5.50939 -23.26719,2.6091 -2.37578,-1.35812 -8.0253,-1.91908 -19.66666,-1.95275 -17.78186,-0.0515 -17.31615,0.20913 -14.77645,-8.26763 2.00656,-6.6973 6.45689,-11.06792 14.22553,-13.97072 3.41966,-1.27778 8.02961,-3.67349 10.24432,-5.3238 5.1165,-3.81262 13.45497,-5.73301 25.3066,-5.82825 8.38606,-0.0673 9.07774,-0.26848 6.81512,-1.98143 -1.38502,-1.04854 -3.18502,-3.22533 -4,-4.83732 -1.95394,-3.86474 -10.67922,-8.27952 -18.07355,-9.14477 l -5.92511,-0.69334 4.45636,-5.0681 c 7.00339,-7.96479 10.79172,-9.3077 27.26532,-9.66518 11.40678,-0.24753 16.11854,0.22824 21.87542,2.2089 13.45638,4.62968 20.53345,2.75754 23.87114,-6.31479 3.52955,-9.59379 6.60282,-42.33239 9.18336,-97.8275 0.46035,-9.9 1.25652,-20.4 1.76927,-23.33333 0.51275,-2.93333 1.06271,-14.93333 1.22213,-26.66667 0.15943,-11.73333 0.58308,-23.73333 0.94146,-26.66666 1.50618,-12.32822 3.06857,-44.84858 2.36344,-49.19379 -0.75639,-4.66108 -0.79606,-4.68594 -4.45714,-2.79271 -2.03168,1.05061 -6.25026,2.31899 -9.37464,2.8186 l -5.68068,0.90837 0.96867,-4.5369 c 2.73753,-12.82172 4.76983,-28.15811 4.77435,-36.02892 0.007,-11.58642 -3.35674,-30.53015 -6.8709,-38.69903 -2.6894,-6.25167 -3.39154,-6.81215 -17.39953,-13.88912 -27.38655,-13.83595 -51.29059,-32.52923 -62.00951,-48.49227 -3.0244,-4.50407 -5.77705,-7.71784 -6.117,-7.14172 -0.33994,0.57611 0.23532,6.3736 1.27836,12.88331 1.04306,6.50969 1.59182,12.14045 1.21948,12.5128 -1.06272,1.0627 -8.77656,-2.38855 -16.30443,-7.29478 -16.57285,-10.80118 -28.31603,-31.88578 -32.14776,-57.72048 l -1.087659,-7.33333 -5.447052,10.63867 -5.44705,10.63866 -4.063158,-6.40693 C 78.694364,501.41916 73.9489,489.12449 71.438799,476.97231 c -2.61252,-12.64802 -2.623224,-35.58439 -0.02286,-48.9723 1.06828,-5.5 2.488324,-18.1794 3.155656,-28.17644 2.570632,-38.50969 17.133045,-67.68031 58.771945,-117.72868 43.47917,-52.26028 56.02176,-68.92955 71.30229,-94.76155 6.01217,-10.16367 20.68749,-38.52318 20.68749,-39.97779 0,-0.37888 -3.89474,-0.68888 -8.655,-0.68888 -8.19762,0 -9.62441,0.51692 -27,9.78204 -10.08974,5.38013 -29.745,15.66287 -43.67832,22.85055 -13.93334,7.18767 -30.13333,15.60848 -36,18.71292 -30.89684,16.34956 -55.13959,27.81821 -70.608952,33.40337 -18.284965,6.60172 -24.724386,8.20548 -24.724386,6.15771 0,-0.68944 5.001893,-6.57547 11.115317,-13.08005 6.113425,-6.5046 13.982493,-15.07434 17.486819,-19.04386 7.15616,-8.10614 28.014108,-28.04569 44.055856,-42.11601 5.852576,-5.13334 11.341754,-9.98347 12.198174,-10.77808 0.856412,-0.7946 7.157132,-6.1946 14.001562,-12 23.38708,-19.83671 36.59229,-33.45417 38.41089,-39.61 2.52595,-8.550132 10.16167,-22.370378 17.15771,-31.054433 8.70165,-10.801216 21.39926,-20.68318 35.57368,-27.685331 16.71962,-8.259487 28.88752,-10.713771 49.17689,-9.919056 15.05268,0.589598 16.83961,0.954321 26.15644,5.33869 21.13913,9.947782 34.66667,31.621116 34.66667,55.541727 0,4.578885 -1.50723,15.002103 -3.34936,23.162713 -5.42239,24.02086 -15.65322,47.34299 -41.96818,95.67044 -30.30297,55.65142 -47.82187,94.10697 -55.80577,122.49871 l -2.76482,9.83205 4.94405,-0.85977 c 32.20437,-5.60031 55.41866,-6.02448 80.94408,-1.47902 12.79734,2.27891 30.4406,6.85084 33.90208,8.78514 1.15385,0.64477 8.09792,3.61405 15.43125,6.59841 15.52267,6.31708 35.22431,16.63572 55.96339,29.31058 19.14197,11.69874 44.80872,24.49736 60.70327,30.26942 23.59705,8.56922 36.27474,11.24455 58,12.23959 l 20,0.91601 -9.52292,9.42679 c -5.2376,5.18473 -14.08759,12.27184 -19.66667,15.74912 -5.57905,3.47728 -10.14375,6.74452 -10.14375,7.26053 0,1.55162 21.42152,32.14466 29.96967,42.80105 4.38332,5.46437 13.81988,15.90108 20.97015,23.19268 9.7906,9.98412 12.65329,13.67576 11.59437,14.95168 -1.83616,2.21244 -12.61265,5.7906 -25.50496,8.4685 l -10.30412,2.14031 15.42896,15.28244 c 35.30987,34.97459 56.76161,66.69402 67.14439,99.28246 3.99258,12.53154 6.68645,31.39585 5.58989,39.14433 -0.38907,2.74921 -0.96365,3.0406 -4.57255,2.31883 -4.88893,-0.97779 -13.65608,-6.4288 -28.40584,-17.66144 C 572.0086,683.91265 554.43292,674.33974 547,672.72786 c -4.13235,-0.89613 -4.33333,-0.75479 -4.33333,3.04757 0,4.87579 -4.53371,17.02336 -8.04582,21.55792 l -2.58174,3.33334 -3.61447,-4.66667 C 523.14165,689.1791 511.16245,677.40142 502,670.01989 c -7.66369,-6.17408 -28.05931,-16.79787 -35.58357,-18.53498 -3.394,-0.78356 -3.55554,-0.59784 -3.05352,3.51056 1.31604,10.77008 1.82373,20.7068 1.09517,21.43535 -0.43789,0.43791 -2.56624,-0.1192 -4.72965,-1.23791 -4.12818,-2.13476 -49.01858,-20.52622 -50.10099,-20.52622 -0.82795,0 0.62144,36.8635 1.65133,42 0.44112,2.2 1.67899,6.25 2.75083,9 l 1.94881,5 h -3.93918 c -2.16656,0 -7.30311,-1.2586 -11.41455,-2.7969 -4.11144,-1.53828 -7.86277,-2.40946 -8.33628,-1.93596 -0.47351,0.47352 -1.10036,8.5457 -1.393,17.93818 -0.535,17.17088 -0.0292,21.12661 5.13168,40.12801 4.95177,18.23178 5.50176,26.35532 3.2778,48.41436 -3.97433,39.42049 -6.40325,132.6814 -3.75552,144.19654 1.17996,5.13171 1.44485,5.33458 9.58481,7.34004 4.60423,1.13436 9.80191,3.33674 11.5504,4.89416 1.7485,1.55742 5.7793,3.2216 8.95735,3.69819 8.21232,1.23151 13.55649,4.95895 16.84273,11.7474 4.74062,9.7928 4.3413,10.37599 -7.10472,10.37599 -5.52712,0 -12.6885,0.92858 -16.10384,2.08812 -3.72554,1.26486 -9.65785,1.96209 -15.0466,1.76844 l -8.89616,-0.3197 -0.11866,7.99574 c -0.0677,4.5647 -1.02791,9.6703 -2.23767,11.8982 -1.16549,2.1464 -2.82031,7.7949 -3.67737,12.5522 -1.8896,10.4884 -3.93114,14.6432 -10.37058,21.1052 -2.711,2.7206 -6.90341,8.6683 -9.31648,13.2172 -2.41306,4.5489 -4.90261,8.5891 -5.53234,8.9783 -0.62972,0.3892 -2.99674,-1.4014 -5.26002,-3.9792 z M 364,1059.2672 c 0,-1.1365 0.88169,-3.7713 1.95932,-5.8552 1.84721,-3.5721 1.79272,-3.8325 -0.95229,-4.5503 -4.30662,-1.1262 -6.51468,4.3247 -4.19771,10.3626 1.03897,2.7075 3.19068,2.7364 3.19068,0.043 z m 10.82656,-21.9338 c 1.44151,-1.9826 2.53125,-6.0349 2.68923,-10 0.14608,-3.6667 1.41041,-9.2004 2.80961,-12.2971 1.53653,-3.4006 2.18615,-6.7579 1.64036,-8.4775 -0.49701,-1.5659 -0.50669,-6.0244 -0.0215,-9.90762 0.77204,-6.17924 1.36892,-7.26208 4.78228,-8.67595 3.21058,-1.32985 5.43991,-1.19869 12.609,0.74189 10.7421,2.90775 15.40514,1.60443 14.33263,-4.006 -0.93939,-4.91405 -7.67549,-9.5002 -16.64137,-11.32992 -5.55164,-1.13294 -8.41828,-2.53701 -10.4877,-5.13681 -2.81086,-3.53125 -2.83674,-4.09695 -1.99378,-43.5777 1.69149,-79.22172 3.23557,-121.42892 4.63389,-126.66667 2.27023,-8.50364 1.75275,-14.00677 -2.45039,-26.05874 C 382.38365,759.48202 380,738.21305 380,711.90095 v -14.37848 l -7,-6.70361 -7,-6.70361 -3.11568,3.08837 c -3.40203,3.37221 -3.38955,3.81184 1.15868,40.7964 0.76655,6.23334 1.86893,21.43518 2.44975,33.78187 1.15414,24.53464 1.26477,24.82788 9.38057,24.86439 4.38393,0.0197 4.46076,0.108 2.2352,2.56716 -1.26763,1.40072 -3.826,2.92856 -5.68525,3.3952 l -3.3805,0.84845 1.00492,17.6048 c 1.2717,22.27859 1.27851,138.42179 0.008,145.93858 -0.55592,3.29051 -2.45844,7.24211 -4.58037,9.51365 -3.1148,3.3344 -4.94215,4.00371 -12.88601,4.71978 -14.37543,1.29582 -15.92319,2.02142 -15.92319,7.4649 v 4.63456 l 9.66667,-0.0852 c 7.91742,-0.0697 9.66576,0.29218 9.66168,2 -0.009,4.01362 -5.27047,10.66808 -10.57231,13.37287 -2.94171,1.50077 -7.31524,4.44807 -9.71897,6.54957 -2.40372,2.1015 -9.3204,6.3045 -15.3704,9.34 -12.02686,6.0343 -13.75715,8.9547 -7.6691,12.9437 7.18806,4.7098 20.87528,-1.149 28.04876,-12.0063 1.61795,-2.4488 4.40554,-4.4151 7.287,-5.1402 2.56667,-0.6459 6.79196,-3.2294 9.38955,-5.7411 2.91397,-2.8176 6.05037,-4.56674 8.18879,-4.56674 5.90541,0 6.03401,5.80184 0.5751,25.94684 -2.32961,8.5969 -2.69878,13.0634 -1.20333,14.5588 1.89065,1.8907 7.50684,0.087 9.87645,-3.1723 z m -69.62073,-2.6667 c 2.13404,0 1.78461,-2.0714 -0.69683,-4.1309 -1.86581,-1.5484 -2.58631,-1.2549 -5.32671,2.1701 -4.52566,5.6563 -4.15789,8.1704 0.6902,4.7183 2.12987,-1.5166 4.52987,-2.7575 5.33334,-2.7575 z m -103.15388,-31.5065 c 3.19324,-3.19324 3.31861,-3.69437 1.40346,-5.60952 -2.61141,-2.61142 -4.42205,-1.05076 -5.59708,4.82432 -1.04117,5.2059 -0.35546,5.3343 4.19362,0.7852 z m 15.72086,-11.21968 c 1.90618,-1.4994 5.94854,-6.56522 8.98303,-11.25738 4.09245,-6.3281 6.51075,-8.74942 9.36445,-9.3762 4.51818,-0.99235 7.95579,-5.00567 12.0531,-14.07167 l 2.96862,-6.56857 h 11.76234 c 10.09681,0 12.15104,-0.38872 14.5076,-2.74528 1.8826,-1.8826 2.61582,-4.0823 2.33333,-7 -0.39699,-4.1002 -0.67197,-4.28083 -7.57193,-4.97348 -5.46547,-0.54866 -7.79264,-1.49532 -9.83318,-4.00001 -2.47438,-3.03722 -2.60826,-4.52064 -1.80034,-19.9479 0.48006,-9.16667 1.75368,-25.36667 2.83028,-36 1.07658,-10.63334 3.18334,-31.63334 4.68168,-46.66667 1.49833,-15.03334 3.0011,-29.13334 3.33949,-31.33334 0.33839,-2.2 1.14867,-9.44144 1.80061,-16.09209 0.84683,-8.63863 2.17867,-14.05231 4.6634,-18.95567 4.0301,-7.953 4.31899,-13.37642 1.31895,-24.75978 -1.76808,-6.70875 -2.0038,-12.13168 -1.30159,-29.94341 l 0.85752,-21.75096 -4.69842,-5.48904 c -2.58412,-3.01897 -4.69842,-5.98105 -4.69842,-6.58238 0,-0.60134 -0.52202,-1.09334 -1.16005,-1.09334 -2.18508,0 -4.01969,11.3387 -4.74613,29.33334 -0.39967,9.9 -1.12339,24.4162 -1.60827,32.25823 l -0.8816,14.25822 3.86469,0.85314 c 7.35912,1.62453 7.64624,1.8171 5.88088,3.94424 -0.88961,1.07192 -3.52861,2.30746 -5.86445,2.74568 -2.68101,0.50296 -4.29824,1.62213 -4.38601,3.03528 -0.0764,1.2312 -1.09747,18.73854 -2.26888,38.90521 -4.256,73.26995 -4.8903,83.41375 -5.50268,88 -0.34272,2.56667 -0.94995,8.69323 -1.3494,13.61458 -1.40407,17.29812 -6.53312,26.34197 -17.75364,31.30422 -7.35464,3.25257 -7.36227,3.25302 -16.79122,0.99028 -5.18828,-1.24506 -10.38048,-3.08394 -11.53822,-4.08641 -2.22824,-1.92939 -10.01663,-2.51371 -10.96531,-0.82267 -0.30856,0.55 -0.95311,2.64087 -1.43233,4.64636 -1.00168,4.19193 3.34404,9.75021 6.6356,8.48711 2.36961,-0.90929 15.20036,1.92776 15.20036,3.36102 0,1.77356 -8.43936,7.5771 -16.15523,11.10954 -5.12407,2.34588 -11.58639,3.80894 -21.16645,4.79203 -13.51427,1.38683 -18.67832,2.83299 -18.67832,5.23072 0,3.84037 2.97434,7.88628 6.77042,9.2096 6.34754,2.21276 9.47988,1.86163 16.4491,-1.84393 4.10181,-2.18096 8.22136,-3.28539 11.86525,-3.18103 7.16625,0.20527 11.48807,-1.55893 21.73956,-8.87425 4.57609,-3.26544 8.96267,-5.93716 9.74792,-5.93716 4.68085,0 -2.51571,13.80988 -13.74901,26.38373 -4.11946,4.61105 -7.48991,8.6182 -7.48991,8.90476 0,0.28657 0.94285,1.46389 2.09524,2.61627 2.87717,2.87717 7.53787,2.62536 11.67757,-0.63094 z m 212.51658,-5.54049 c 4.18428,0 4.46709,-0.21495 2.66021,-2.02183 -2.39659,-2.39658 -12.692,-4.54033 -13.73104,-2.85913 -0.39821,0.64432 -0.33691,2.3912 0.13624,3.88195 0.63263,1.9932 1.57373,2.48401 3.5564,1.85473 1.48288,-0.47064 4.80305,-0.85572 7.37819,-0.85572 z M 328,978.00003 c 0,-3.77181 -2.91671,-4.37725 -8.60393,-1.78597 -4.59103,2.0918 -4.27147,3.50838 0.93726,4.15477 2.38334,0.29577 5.08334,0.63379 6,0.75115 C 327.27912,981.24104 328,979.89162 328,978.00003 Z M 152.59088,971.6667 c -0.50719,-1.65 -1.12837,-3.23076 -1.38043,-3.5128 -0.76658,-0.8578 -8.3525,2.67576 -9.99617,4.65625 -1.28303,1.54595 -0.38313,1.85655 5.37897,1.85655 6.56042,0 6.8719,-0.1558 5.99763,-3 z m 145.07579,-24.18607 c 6.2231,-0.13876 -0.49,-4.81393 -6.91235,-4.81393 -3.50485,0 -4.08765,0.49036 -4.08765,3.43928 0,3.19773 0.30432,3.3686 4.33333,2.43297 2.38333,-0.55347 5.38333,-1.02971 6.66667,-1.05832 z M 188,929.47791 c 0,-2.93216 -5.35967,-4.74958 -9.78005,-3.31634 -2.6054,0.84478 -2.36706,1.17135 2.44672,3.35224 6.73422,3.05096 7.33333,3.04803 7.33333,-0.0359 z M 399.98557,695.00002 c -0.008,-0.55 -0.93062,-4 -2.0504,-7.66667 -2.93269,-9.60292 -4.72541,-30.92322 -3.31916,-39.4737 1.11863,-6.8016 0.98898,-7.37432 -2.38317,-10.5263 -1.9614,-1.83333 -7.16617,-5.67841 -11.56617,-8.54462 -12.49122,-8.13694 -18.49318,-13.50088 -21.9107,-19.58152 -1.85169,-3.29464 -2.38317,-5.13757 -1.28778,-4.4654 10.87049,6.67038 33.79554,22.94113 38.53181,27.34741 7.32115,6.81108 29.32943,17.55905 43.9898,21.48287 5.87868,1.5734 10.99229,2.55696 11.36359,2.18565 1.32964,-1.32963 -3.52627,-12.45987 -7.07186,-16.20943 -1.98817,-2.10254 -9.85738,-7.96105 -17.48712,-13.01889 -7.62974,-5.05784 -12.98484,-9.19607 -11.90021,-9.19607 3.46967,0 21.14588,6.4741 26.21128,9.60016 2.69199,1.66132 6.99452,4.89268 9.56119,7.1808 3.32474,2.96394 7.5422,4.85094 14.66666,6.56231 10.20606,2.45159 24.15799,7.29096 30.5512,10.59703 7.86932,4.06937 19.94996,14.34976 26.17771,22.27668 l 6.58932,8.38714 1.13068,-7.10336 c 1.51751,-9.53348 0.23152,-15.29968 -4.6528,-20.8626 -3.97656,-4.52906 -4.00076,-4.63816 -1.02889,-4.63816 3.47232,0 7.90098,1.2951 23.89945,6.989 14.14713,5.03502 26.08943,10.97567 37.65568,18.7317 10.40516,6.97741 9.8934,4.85401 -1.64596,-6.82952 -24.20191,-24.50427 -69.48435,-55.21814 -108.34305,-73.48619 -7.88334,-3.70608 -20.53076,-9.65248 -28.10539,-13.21424 -13.27787,-6.24354 -14.22283,-6.48115 -26.33333,-6.62166 -45.4547,-0.52733 -102.65562,-17.97206 -142.27238,-43.3892 -10.5766,-6.78569 -35.58993,-26.51073 -37.1796,-29.31913 -0.61012,-1.07787 -3.2093,-4.26248 -5.77597,-7.07692 -21.57251,-23.65506 -22.73793,-50.58628 -3.13271,-72.39203 13.39251,-14.89569 27.38415,-17.37075 46.33736,-8.19687 5.96711,2.88824 12.03715,6.59514 13.48899,8.23752 l 2.63969,2.98618 L 292,424.81136 c -6.60111,-1.86276 -29.92536,-2.48175 -35.57129,-0.94401 -10.72344,2.92068 -23.09538,16.52616 -23.09538,25.39812 0,4.53493 11.69942,23.70085 21.02086,34.43625 8.11626,9.34743 20.57674,18.68423 29.64581,22.21402 3.3,1.2844 10.5,2.63302 16,2.99696 l 10,0.66168 -4,-2.63764 c -5.6374,-3.71735 -18.42475,-17.26554 -22.27787,-23.60339 -5.7578,-9.4708 -10.82404,-26 -7.96905,-26 0.66399,0 3.30319,1.95 5.86489,4.33333 7.57532,7.04784 18.68587,12.97225 26.8067,14.29395 17.19846,2.79912 28.90866,-3.13456 28.90866,-14.64832 0,-2.92176 0.31498,-5.3123 0.69995,-5.3123 0.38497,0 4.73497,2.02506 9.66667,4.50012 4.93169,2.47507 14.90116,6.71651 22.15437,9.42543 20.52888,7.66709 36.56092,6.60416 45.24632,-2.99985 2.43336,-2.69074 2.43607,-2.69042 10.87855,1.26029 9.02941,4.22537 19.32313,5.64587 20.32493,2.80476 0.32501,-0.92176 -3.30489,-5.57176 -8.06647,-10.33333 -4.76157,-4.76159 -7.79369,-8.65742 -6.73804,-8.65742 6.908,0 19.60907,10.54342 20.98428,17.41948 2.06186,10.30927 18.06391,25.3101 35.98859,33.73685 13.44357,6.32008 38.19419,14.1073 38.19419,12.01694 0,-1.01874 -10.20372,-12.90538 -27.33198,-31.83993 -6.63376,-7.33334 -13.40656,-15.51819 -15.05064,-18.18856 -2.2771,-3.69852 -4.17586,-5.07736 -7.96998,-5.78764 -6.27251,-1.17424 -18.13312,-6.72676 -20.51092,-9.60214 -1.64968,-1.99492 -1.17903,-2.07728 5.53018,-0.96774 4.03334,0.66701 14.23334,1.18497 22.66667,1.15101 13.07217,-0.0527 16.3656,-0.51924 22.33333,-3.16419 3.85,-1.70636 7,-3.62857 7,-4.2716 0,-0.64302 -0.32365,-1.16914 -0.71921,-1.16914 -0.39557,0 -6.44943,-0.63896 -13.453,-1.41991 C 484.642,438.29447 466.3938,432.40852 446,422.76636 c -13.38797,-6.32981 -56.86763,-30.177 -63.25249,-34.69195 -6.26812,-4.43239 -35.42006,-18.45073 -48.16102,-23.15927 -26.13633,-9.6589 -40.21474,-11.84246 -77.91982,-12.0853 -27.57556,-0.1776 -30.91556,0.17404 -42.2689,4.45021 -8.28356,3.11996 -11.96445,7.46923 -15.08052,17.81887 l -1.67634,5.56776 -0.98582,-5.09048 c -1.30749,-6.75152 1.37324,-33.63776 4.6423,-46.55975 4.20537,-16.62304 13.4704,-38.69891 29.32216,-69.86612 8.15426,-16.03268 16.2057,-31.55032 17.89208,-34.48366 11.97648,-20.83229 20.04078,-35.24821 26.5513,-47.46368 C 305.75411,119.61826 310.14848,78.073285 287.67715,57.946474 272.89012,44.702217 268.84677,43.295923 246,43.450951 c -15.52011,0.105306 -18.37943,0.506513 -27.33333,3.835241 -12.1742,4.52591 -27.62994,14.944695 -34.4735,23.238734 C 174.95233,81.724368 164,100.35005 164,104.86572 c 0,4.07599 23.38012,6.56186 39.05405,4.15238 l 6.38739,-0.9819 -3.21979,4.31524 c -1.77088,2.37337 -4.27886,7.57195 -5.5733,11.5524 -2.35151,7.23093 -2.35096,7.23925 0.64677,9.66666 3.59981,2.91496 8.35908,3.0215 20.45764,0.45798 16.80303,-3.56034 34.13176,-13.94716 41.19988,-24.69514 L 265.14472,106 l -0.79383,3.33334 c -1.36181,5.71837 -8.59056,16.19585 -16.50724,23.92591 -1.91932,1.87409 -6.26358,9.20543 -9.65392,16.29187 -16.37398,34.22479 -36.15704,67.40657 -52.33594,87.78222 -4.36718,5.5 -9.40458,12.1 -11.19422,14.66667 -5.16986,7.41449 -26.71497,34.80553 -32.04292,40.73727 -6.78162,7.55013 -26.96506,34.63728 -37.14039,49.84417 -10.747779,16.06243 -21.301576,40.08523 -17.610409,40.08523 0.687494,0 2.541226,-2.08927 4.119404,-4.64282 2.709928,-4.38474 10.681415,-11.29634 10.681415,-9.26121 0,0.51932 -2.63346,8.514 -5.852123,17.76595 -10.911902,31.36589 -13.270624,43.25795 -13.382578,67.47141 -0.07808,16.88628 0.432744,23.40979 2.450487,31.29447 2.759091,10.78163 2.706061,10.80444 6.667752,-2.86895 2.529192,-8.72926 9.849182,-20.42552 12.783122,-20.42552 1.6163,0 2.17395,3.06963 2.90666,16 0.49866,8.8 1.50996,17.9611 2.24733,20.35801 0.73738,2.39689 1.38041,4.79689 1.42897,5.33333 0.0486,0.53643 1.04231,4.27533 2.20833,8.30867 3.35522,11.60592 20.23207,38.08774 22.7003,35.61952 0.48411,-0.48411 -0.0624,-4.34655 -1.21453,-8.58319 -5.79606,-21.31397 -6.27346,-39.42859 -1.61724,-61.36476 1.82956,-8.61936 3.32956,-18.64158 3.33333,-22.27158 0.009,-8.44796 1.74,-6.64157 4.53479,4.73164 1.60472,6.53032 2.09885,14.26359 1.9169,30 -0.23341,20.18978 -0.0724,21.64551 3.37436,30.50039 6.72292,17.27163 16.33307,28.67879 33.72178,40.02747 21.8007,14.22815 26.03237,16.85781 37.12569,23.07084 14.94063,8.3678 19.54152,10.1982 56.43795,22.45315 43.96125,14.60148 57.8132,22.58223 65.15898,37.54108 3.5475,7.22408 3.73528,8.53569 3.71436,25.94211 -0.0145,12.07776 0.46184,18.33333 1.39608,18.33333 4.31155,0 14.11731,-14.43103 18.51232,-27.24437 0.87399,-2.54804 0.9126,-2.54804 3.35588,0 1.35946,1.41774 4.78608,5.9496 7.61475,10.0708 10.03828,14.6252 25.87159,29.46312 25.79525,24.17357 z m -62.97616,-71.82423 c -10.80712,-12.79928 -18.7635,-19.59124 -27.91901,-23.83305 l -6.93655,-3.21375 3.92307,-1.5056 c 4.00924,-1.53865 12.42115,-0.91343 13.81519,1.02685 0.42601,0.59292 2.43064,2.132 4.45474,3.42016 6.58307,4.18959 23.27816,29.3879 22.00383,33.21093 -0.25733,0.77197 -4.46089,-3.32552 -9.34127,-9.10554 z M 317.33333,583.292 c -7.58641,-4.01126 -16.35248,-5.92901 -27.73229,-6.06694 -8.64001,-0.10467 -8.80259,-0.16806 -4.93437,-1.92224 6.03896,-2.73859 14.48638,-3.71588 22.9637,-2.65671 6.39568,0.79908 8.42131,1.75853 12.65854,5.99575 4.65977,4.65978 6.44989,8.16692 4.04442,7.92372 -0.55,-0.0556 -3.7,-1.52871 -7,-3.27358 z M 178.42412,531.65 c -11.29088,-6.43342 -22.04188,-16.31765 -25.78675,-23.70778 -3.73037,-7.36155 -3.94692,-9.07243 -1.75668,-13.87947 2.12176,-4.65678 3.06562,-4.2855 5.14832,2.02519 2.8786,8.72225 9.41226,17.6998 21.23556,29.17866 6.08054,5.90338 10.53348,10.72591 9.89547,10.71674 -0.63803,-0.009 -4.56919,-1.95919 -8.73592,-4.33334 z m -8.5908,-63.35731 c -0.77869,-4.94533 -3.92009,-14.85294 -6.98087,-22.01692 -6.17096,-14.44352 -8.6059,-23.85037 -7.89984,-30.51912 l 0.46834,-4.4233 1.54921,3.33333 c 13.69596,29.46845 15.62147,35.175 16.12876,47.80008 0.60481,15.05252 -1.28257,18.41969 -3.2656,5.82593 z m 215.52463,-18.20478 c -2.38431,-8.5159 -11.92014,-24.04462 -20.77171,-33.82594 -4.11216,-4.54408 -6.92917,-8.26196 -6.26004,-8.26196 4.59339,0 23.10001,16.16791 29.39504,25.68035 4.12267,6.22977 4.899,16.93279 1.47664,20.35805 -1.95877,1.96043 -2.27649,1.63355 -3.83993,-3.9505 z m 18.07777,-10.41472 c -1.0338,-6.46507 -8.79811,-21.08279 -14.34471,-27.00651 -2.05993,-2.2 -3.74812,-4.4622 -3.7515,-5.02709 -0.0133,-2.2267 10.45852,4.48033 15.21433,9.74445 7.99855,8.85343 10.90513,18.81948 7.39925,25.37029 -2.15062,4.01847 -3.53285,3.0757 -4.51737,-3.08114 z m -47.95552,-3.09691 c -2.57625,-8.17284 -13.8342,-25.57871 -22.12415,-34.20607 -2.92084,-3.03972 -5.07897,-5.75838 -4.79586,-6.04149 1.43294,-1.43295 13.0067,6.32973 20.16041,13.52187 11.9314,11.9955 16.67021,23.90129 12.56583,31.57041 -2.17166,4.05777 -3.29558,3.11997 -5.80623,-4.84472 z m -28.59256,-3.73056 c -1.7118,-0.94956 -4.25129,-4.27036 -5.64332,-7.37955 -1.39204,-3.1092 -5.55123,-9.04174 -9.24265,-13.18344 -8.64238,-9.69652 -12.00587,-16.72249 -11.98578,-25.03701 l 0.0159,-6.57904 4.31743,7.71448 c 4.03798,7.21517 6.06088,9.88749 18.44572,24.36768 6.10848,7.14195 10.08284,13.59215 11.24566,18.25117 0.754,3.021 0.47882,3.65835 -1.56273,3.61942 -1.36284,-0.026 -3.87844,-0.82415 -5.59024,-1.77371 z M 168.07083,371.33334 c -0.96759,-2.2 -2.04934,-7.09782 -2.40387,-10.88406 -0.67456,-7.20384 -0.71085,-7.0973 7.87535,-23.11594 2.555,-4.76666 5.02941,-10.14046 5.49869,-11.94177 0.46928,-1.80131 1.22944,-2.89889 1.68927,-2.43907 1.355,1.35499 -2.01652,15.28332 -5.68144,23.47102 -2.19808,4.91068 -3.71283,11.3296 -4.30504,18.24316 -0.87994,10.2725 -0.97871,10.51885 -2.67296,6.66666 z m 5.80409,-59.62368 c 0.72431,-9.356 3.18387,-13.6703 11.23627,-19.70953 3.42218,-2.56661 9.37214,-7.60364 13.22214,-11.19341 3.85,-3.58978 6.97879,-5.98983 6.95287,-5.33346 -0.0987,2.49891 -9.01577,14.11378 -17.61036,22.93826 -4.92156,5.0532 -10.17292,11.82782 -11.66969,15.05473 l -2.72143,5.86709 z M 192,275.86818 c 0,-4.1864 5.07692,-10.61763 13.3804,-16.94975 5.10745,-3.89485 9.28403,-6.59485 9.28128,-6 -0.0107,2.32171 -5.67493,10.20818 -9.72875,13.5456 -2.34645,1.93179 -5.96242,5.16766 -8.03549,7.19082 C 192.74552,277.70682 192,278.04374 192,275.86818 Z m 48,-101.66332 c 0,-0.254 0.96907,-2.40436 2.15348,-4.77859 1.18443,-2.37421 3.29243,-8.8744 4.68445,-14.44485 2.82783,-11.31606 3.4314,-12.4284 5.21415,-9.60947 1.60087,2.53135 1.588,6.13704 -0.0428,12.00741 -1.57219,5.65899 -8.73359,17.28731 -10.64659,17.28731 -0.74948,0 -1.36269,-0.20781 -1.36269,-0.46181 z M 216.98988,97.649564 c -2.02223,-1.253714 -4.01265,-3.337748 -4.42317,-4.631188 -0.82595,-2.602299 -2.62999,-3.073369 -3.90004,-1.018373 -0.45323,0.733333 -1.64675,1.333333 -2.65228,1.333333 -2.38168,0 -0.64568,-6.432191 3.18973,-11.818544 3.17416,-4.457683 6.47263,-5.99133 20.12921,-9.359223 5.5,-1.356372 11.05,-2.910448 12.33334,-3.453502 3.87032,-1.637756 2.7221,1.842492 -2.24744,6.812039 -4.0587,4.0587 -4.43264,5.005687 -3.28107,8.309082 3.7954,10.887508 -8.99351,20.121992 -19.14828,13.826376 z m 11.65355,-6.483471 c 2.48449,-2.484493 2.26906,-9.994509 -0.311,-10.841488 -1.02915,-0.337847 -1.37268,0.221036 -0.89734,1.459796 1.25275,3.264586 -1.85853,7.548935 -5.482,7.548935 -3.1961,0 -4.2026,1.306049 -2.39753,3.111111 1.64588,1.645889 6.90315,0.906372 9.08787,-1.278354 z M 297.7684,670.33335 c -4.39635,-14.85948 -8.371,-32.74912 -8.40621,-37.83581 -0.0256,-3.69649 -0.74684,-4.47508 -6.36219,-6.86792 -7.9292,-3.37881 -23.20753,-7.90101 -30.66711,-9.07709 l -5.6671,-0.89347 2.88189,6.50381 c 4.21439,9.51095 4.84368,28.62276 1.3666,41.50382 -1.93125,7.15441 -2.18123,9.66666 -0.96189,9.66666 2.44066,0 12.30236,-7.46514 14.70424,-11.13089 l 2.08612,-3.18381 7.78281,7.61548 c 7.52645,7.36464 19.62551,14.69922 24.24767,14.69922 2.02945,0 1.93109,-1.07673 -1.00483,-11 z M 478.71945,539.30072 c 1.03359,-0.63878 -2.6985,-2.45802 -9.77238,-4.76364 -14.04898,-4.57902 -20.59395,-8.60858 -31.00744,-19.09044 -5.915,-5.95384 -24.82664,-28.65089 -29.24031,-35.09313 -0.118,-0.17224 -2.57363,0.91209 -5.45693,2.40965 -5.0521,2.62399 -11.01868,2.77395 -17.12583,0.43041 -3.56653,-1.3686 -2.44232,1.26292 6.10179,14.28289 22.64461,34.50705 38.95716,44.52314 70.63861,43.37293 7.80465,-0.28335 14.94279,-0.98025 15.86249,-1.54867 z m 61.25872,-1.92566 c 1.56143,-0.98728 0.932,-1.68792 -2.98764,-3.32566 C 520.82557,527.29526 493.75469,514.93924 484,509.86284 c -14.92977,-7.76954 -22.85769,-13.74081 -28.97652,-21.82497 -4.67615,-6.1781 -5.34699,-6.58888 -9.70241,-5.94114 -2.82708,0.42044 -8.10424,-0.37769 -13.33334,-2.01656 -4.75992,-1.49184 -9.10422,-2.72016 -9.65401,-2.72962 -2.40992,-0.0415 7.11992,14.39441 15.47199,23.43711 18.25137,19.76054 42.39858,32.48073 70.19429,36.9767 6.80872,1.10132 30.06855,0.81815 31.97817,-0.3893 z M 404,533.32786 c 0,-0.73635 -4.87576,-6.58635 -10.83503,-13 -10.16856,-10.9439 -24.43936,-29.7647 -29.3381,-38.69207 -2.01564,-3.67327 -14.8801,-11.06666 -18.98799,-10.91267 -1.61445,0.0605 -7.50555,8.55947 -7.50555,10.82809 0,1.73195 10.19604,15.23127 19.82376,26.24619 13.05563,14.93676 30.18211,25.05416 45.17624,26.68771 C 403.25,534.58498 404,534.06422 404,533.32786 Z M 345.33333,513.54 c 0,-0.61968 -1.24565,-2.25398 -2.7681,-3.63178 -1.52247,-1.37782 -6.3853,-7.38896 -10.80628,-13.3581 l -8.03818,-10.85299 -9.70505,-0.73398 c -5.33777,-0.40371 -11.72495,-1.74942 -14.19372,-2.99047 -3.87096,-1.94595 -3.296,-1.03 4.178,6.6558 9.17807,9.43815 17.73929,15.74122 28.66667,21.10534 10.12744,4.97144 12.66666,5.73445 12.66666,3.80618 z M 59.333333,207.3279 c 22.199476,-16.49977 56.205247,-40.59949 66.675777,-47.25279 5.12832,-3.25869 19.52422,-12.61312 31.99089,-20.78763 12.46667,-8.17449 24.01667,-15.5794 25.66667,-16.45534 4.90434,-2.60359 3.44861,-4.15859 -4,-4.27277 -3.85,-0.059 -9.7,-0.82431 -13,-1.70066 -5.69568,-1.51254 -6.2367,-1.40668 -10.66667,2.08713 -31.04056,24.48092 -55.60933,44.1682 -62.666667,50.21565 -9.000136,7.71221 -53.326345,51.7656 -50.354977,50.04504 0.928571,-0.53768 8.288311,-5.88307 16.354977,-11.87863 z m 35.333334,-13.36137 c 17.605703,-9.78868 39.477103,-21.65223 70.000003,-37.96959 15.4,-8.23275 28.29905,-15.24906 28.66457,-15.5918 0.36551,-0.34274 -0.38449,-1.39026 -1.66667,-2.3278 -1.50132,-1.09779 -2.33124,-3.48311 -2.33124,-6.70031 0,-3.83638 -0.45261,-4.82198 -1.95044,-4.24721 -3.4636,1.32911 -80.87191,53.00444 -97.38289,65.00972 -25.531195,18.56397 -25.4754,18.58583 4.666667,1.82699 z"
       id="path3189" />
  </g>
</svg>
