<?xml version="1.0" encoding="UTF-8" standalone="no"?>
<!-- Created with Inkscape (http://www.inkscape.org/) -->

<svg
   version="1.1"
   id="svg2708"
   width="601.80109"
   height="1041.8585"
   viewBox="0 0 601.80109 1041.8585"
   sodipodi:docname="Stork1b.svg"
   inkscape:version="1.2.2 (732a01da63, 2022-12-09, custom)"
   xmlns:inkscape="http://www.inkscape.org/namespaces/inkscape"
   xmlns:sodipodi="http://sodipodi.sourceforge.net/DTD/sodipodi-0.dtd"
   xmlns="http://www.w3.org/2000/svg"
   xmlns:svg="http://www.w3.org/2000/svg">
  <defs
     id="defs2712" />
  <sodipodi:namedview
     id="namedview2710"
     pagecolor="#ffffff"
     bordercolor="#000000"
     borderopacity="0.25"
     inkscape:showpageshadow="2"
     inkscape:pageopacity="0.0"
     inkscape:pagecheckerboard="0"
     inkscape:deskcolor="#d1d1d1"
     showgrid="false"
     inkscape:zoom="0.75364072"
     inkscape:cx="322.43481"
     inkscape:cy="517.48796"
     inkscape:window-width="1920"
     inkscape:window-height="1031"
     inkscape:window-x="0"
     inkscape:window-y="25"
     inkscape:window-maximized="1"
     inkscape:current-layer="layer2" />
  <g
     inkscape:groupmode="layer"
     id="layer2"
     inkscape:label="Layer 1">
    <path
       style="fill:#000000;stroke-width:1.33333"
       d="m 358.82025,1069.9712 c -2.26328,-2.5777 -4.4546,-6.0396 -4.86961,-7.6931 -0.415,-1.6535 -0.53199,-11.5425 -0.25997,-21.9756 0.27202,-10.433 0.39244,-18.9691 0.26758,-18.9691 -1.74846,0 -8.62492,3.2115 -8.62492,4.0281 0,0.6053 -1.57548,2.9729 -3.50105,5.2614 -5.15131,6.1219 -13.11181,9.6867 -22.46787,10.0612 -9.5325,0.3815 -13.74488,1.9023 -22.30638,8.0531 -3.51864,2.5279 -6.69615,4.5962 -7.06111,4.5962 -0.36497,0 -0.66135,-4.95 -0.6586,-11 0.004,-8.613 0.57833,-11.9404 2.64707,-15.3334 1.45314,-2.3833 3.1781,-4.3333 3.83325,-4.3333 0.65515,0 1.9432,-1.8156 2.86236,-4.0346 1.95055,-4.709 4.847,-6.8927 19.319,-14.5648 14.90984,-7.90426 19.12167,-12.06727 12.20873,-12.06727 -1.71853,0 -6.61245,-1.2 -10.8754,-2.66667 -4.26294,-1.46666 -10.06492,-2.66666 -12.89329,-2.66666 h -5.14249 l 1.98241,-4.7446 c 4.44492,-10.63819 9.88193,-15.08436 19.69807,-16.10834 3.86209,-0.40288 9.00262,-1.61848 11.42342,-2.70133 2.4208,-1.08285 6.6208,-2.265 9.33334,-2.62699 9.99652,-1.33402 10.87177,-1.80714 13.7385,-7.42642 2.70907,-5.31022 2.8569,-7.67496 3.22855,-51.64534 0.21421,-25.34417 -0.10787,-55.08032 -0.7158,-66.08032 -0.60791,-11 -1.48156,-26.9 -1.94144,-35.33334 -0.45989,-8.43333 -1.09527,-17.13333 -1.41195,-19.33333 -0.31666,-2.2 -1.19508,-13.9 -1.95202,-26 -1.63107,-26.07292 -3.97918,-52.19838 -4.81274,-53.54708 -0.32709,-0.52926 -3.13118,0.18914 -6.2313,1.59645 -11.14055,5.05725 -11.2428,4.93755 -12.28591,-14.38271 -1.05759,-19.58844 -3.16675,-31.38888 -7.57127,-42.36026 -3.10028,-7.72256 -3.14872,-7.76571 -12.09244,-10.7689 -4.93882,-1.65838 -9.24308,-2.58906 -9.56501,-2.06817 -1.56897,2.53865 4.94947,30.49317 11.82225,50.69999 l 3.23026,9.49734 -6.2539,0.1136 c -3.43965,0.0625 -9.32134,0.0228 -13.07044,-0.0881 l -6.81652,-0.20184 -0.96097,7.08816 c -2.10992,15.56299 -2.13157,21.84771 -0.12187,35.37528 2.19804,14.79527 2.00122,17.86667 -2.11772,33.04623 -1.39292,5.13333 -3.12269,16.23333 -3.84394,24.66667 -3.53407,41.32212 -5.54299,63.70004 -6.04471,67.33333 -2.03227,14.71708 -4.65151,37.77984 -5.411,47.6446 -0.99672,12.94584 -0.23223,14.95731 6.22375,16.37527 2.14841,0.47188 4.65694,1.92233 5.57453,3.22324 0.96525,1.36851 4.29096,2.75623 7.8916,3.29296 7.26689,1.08321 16.09521,6.9672 19.06221,12.70476 1.12632,2.17806 2.04784,6.15986 2.04784,8.84847 0,4.50023 -0.23821,4.80272 -3,3.80951 -1.65,-0.59338 -6.47328,-1.02883 -10.7184,-0.96766 -6.13173,0.0884 -8.80416,0.86366 -13.00012,3.77146 -4.69498,3.25362 -6.368,3.63504 -15.06044,3.43349 l -9.77872,-0.22672 -5.22116,7.04531 c -3.19905,4.31673 -7.37645,8.07809 -10.78621,9.71198 -3.23189,1.54866 -5.88627,3.87839 -6.33119,5.55686 -1.38154,5.21194 -13.91977,17.62409 -19.25402,19.06049 -5.85932,1.5777 -11.47043,5.5651 -17.42532,12.3826 -2.40203,2.75 -5.13616,5 -6.07586,5 -2.34381,0 -5.4952,-5.1171 -7.31622,-11.8799 -1.9172,-7.1199 0.78358,-16.15786 7.43065,-24.86597 2.49536,-3.2691 4.53701,-6.21272 4.53701,-6.54137 0,-0.32865 -5.72977,1.47653 -12.73281,4.01153 -13.88528,5.02627 -18.19364,5.50939 -23.26719,2.6091 -2.37578,-1.35812 -8.0253,-1.91908 -19.66666,-1.95275 -17.78186,-0.0515 -17.31615,0.20913 -14.77645,-8.26763 2.00656,-6.6973 6.45689,-11.06792 14.22553,-13.97072 3.41966,-1.27778 8.02961,-3.67349 10.24432,-5.3238 5.1165,-3.81262 13.45497,-5.73301 25.3066,-5.82825 8.38606,-0.0673 9.07774,-0.26848 6.81512,-1.98143 -1.38502,-1.04854 -3.18502,-3.22533 -4,-4.83732 -1.95394,-3.86474 -10.67922,-8.27952 -18.07355,-9.14477 l -5.92511,-0.69334 4.45636,-5.0681 c 7.00339,-7.96479 10.79172,-9.3077 27.26532,-9.66518 11.40678,-0.24753 16.11854,0.22824 21.87542,2.2089 13.45638,4.62968 20.53345,2.75754 23.87114,-6.31479 3.52955,-9.59379 6.60282,-42.33239 9.18336,-97.8275 0.46035,-9.9 1.25652,-20.4 1.76927,-23.33333 0.51275,-2.93333 1.06271,-14.93333 1.22213,-26.66667 0.15943,-11.73333 0.58308,-23.73333 0.94146,-26.66666 1.50618,-12.32822 3.06857,-44.84858 2.36344,-49.19379 -0.75639,-4.66108 -0.79606,-4.68594 -4.45714,-2.79271 -2.03168,1.05061 -6.25026,2.31899 -9.37464,2.8186 l -5.68068,0.90837 0.96867,-4.5369 c 2.73753,-12.82172 4.76983,-28.15811 4.77435,-36.02892 0.007,-11.58642 -3.35674,-30.53015 -6.8709,-38.69903 -2.6894,-6.25167 -3.39154,-6.81215 -17.39953,-13.88912 -27.38655,-13.83595 -51.29059,-32.52923 -62.00951,-48.49227 -3.0244,-4.50407 -5.77705,-7.71784 -6.117,-7.14172 -0.33994,0.57611 0.23532,6.3736 1.27836,12.88331 1.04306,6.50969 1.59182,12.14045 1.21948,12.5128 -1.06272,1.0627 -8.77656,-2.38855 -16.30443,-7.29478 -16.57285,-10.80118 -28.31603,-31.88578 -32.14776,-57.72048 l -1.087659,-7.33333 -5.447052,10.63867 -5.44705,10.63866 -4.063158,-6.40693 C 78.694364,501.41916 73.9489,489.12449 71.438799,476.97231 c -2.61252,-12.64802 -2.623224,-35.58439 -0.02286,-48.9723 1.06828,-5.5 2.488324,-18.1794 3.155656,-28.17644 2.570632,-38.50969 17.133045,-67.68031 58.771945,-117.72868 43.47917,-52.26028 56.02176,-68.92955 71.30229,-94.76155 6.01217,-10.16367 20.68749,-38.52318 20.68749,-39.97779 0,-0.37888 -3.89474,-0.68888 -8.655,-0.68888 -8.19762,0 -9.62441,0.51692 -27,9.78204 -10.08974,5.38013 -29.745,15.66287 -43.67832,22.85055 -13.93334,7.18767 -30.13333,15.60848 -36,18.71292 -30.89684,16.34956 -55.13959,27.81821 -70.608952,33.40337 -18.284965,6.60172 -24.724386,8.20548 -24.724386,6.15771 0,-0.68944 5.001893,-6.57547 11.115317,-13.08005 6.113425,-6.5046 13.982493,-15.07434 17.486819,-19.04386 7.15616,-8.10614 28.014108,-28.04569 44.055856,-42.11601 5.852576,-5.13334 11.341754,-9.98347 12.198174,-10.77808 0.856412,-0.7946 7.157132,-6.1946 14.001562,-12 23.38708,-19.83671 36.59229,-33.45417 38.41089,-39.61 2.52595,-8.550132 10.16167,-22.370378 17.15771,-31.054433 8.70165,-10.801216 21.39926,-20.68318 35.57368,-27.685331 16.71962,-8.259487 28.88752,-10.713771 49.17689,-9.919056 15.05268,0.589598 16.83961,0.954321 26.15644,5.33869 21.13913,9.947782 34.66667,31.621116 34.66667,55.541727 0,4.578885 -1.50723,15.002103 -3.34936,23.162713 -5.42239,24.02086 -15.65322,47.34299 -41.96818,95.67044 -30.30297,55.65142 -47.82187,94.10697 -55.80577,122.49871 l -2.76482,9.83205 4.94405,-0.85977 c 32.20437,-5.60031 55.41866,-6.02448 80.94408,-1.47902 12.79734,2.27891 30.4406,6.85084 33.90208,8.78514 1.15385,0.64477 8.09792,3.61405 15.43125,6.59841 15.52267,6.31708 35.22431,16.63572 55.96339,29.31058 19.14197,11.69874 44.80872,24.49736 60.70327,30.26942 23.59705,8.56922 36.27474,11.24455 58,12.23959 l 20,0.91601 -9.52292,9.42679 c -5.2376,5.18473 -14.08759,12.27184 -19.66667,15.74912 -5.57905,3.47728 -10.14375,6.74452 -10.14375,7.26053 0,1.55162 21.42152,32.14466 29.96967,42.80105 4.38332,5.46437 13.81988,15.90108 20.97015,23.19268 9.7906,9.98412 12.65329,13.67576 11.59437,14.95168 -1.83616,2.21244 -12.61265,5.7906 -25.50496,8.4685 l -10.30412,2.14031 15.42896,15.28244 c 35.30987,34.97459 56.76161,66.69402 67.14439,99.28246 3.99258,12.53154 6.68645,31.39585 5.58989,39.14433 -0.38907,2.74921 -0.96365,3.0406 -4.57255,2.31883 -4.88893,-0.97779 -13.65608,-6.4288 -28.40584,-17.66144 C 572.0086,683.91265 554.43292,674.33974 547,672.72786 c -4.13235,-0.89613 -4.33333,-0.75479 -4.33333,3.04757 0,4.87579 -4.53371,17.02336 -8.04582,21.55792 l -2.58174,3.33334 -3.61447,-4.66667 C 523.14165,689.1791 511.16245,677.40142 502,670.01989 c -7.66369,-6.17408 -28.05931,-16.79787 -35.58357,-18.53498 -3.394,-0.78356 -3.55554,-0.59784 -3.05352,3.51056 1.31604,10.77008 1.82373,20.7068 1.09517,21.43535 -0.43789,0.43791 -2.56624,-0.1192 -4.72965,-1.23791 -4.12818,-2.13476 -49.01858,-20.52622 -50.10099,-20.52622 -0.82795,0 0.62144,36.8635 1.65133,42 0.44112,2.2 1.67899,6.25 2.75083,9 l 1.94881,5 h -3.93918 c -2.16656,0 -7.30311,-1.2586 -11.41455,-2.7969 -4.11144,-1.53828 -7.86277,-2.40946 -8.33628,-1.93596 -0.47351,0.47352 -1.10036,8.5457 -1.393,17.93818 -0.535,17.17088 -0.0292,21.12661 5.13168,40.12801 4.95177,18.23178 5.50176,26.35532 3.2778,48.41436 -3.97433,39.42049 -6.40325,132.6814 -3.75552,144.19654 1.17996,5.13171 1.44485,5.33458 9.58481,7.34004 4.60423,1.13436 9.80191,3.33674 11.5504,4.89416 1.7485,1.55742 5.7793,3.2216 8.95735,3.69819 8.21232,1.23151 13.55649,4.95895 16.84273,11.7474 4.74062,9.7928 4.3413,10.37599 -7.10472,10.37599 -5.52712,0 -12.6885,0.92858 -16.10384,2.08812 -3.72554,1.26486 -9.65785,1.96209 -15.0466,1.76844 l -8.89616,-0.3197 -0.11866,7.99574 c -0.0677,4.5647 -1.02791,9.6703 -2.23767,11.8982 -1.16549,2.1464 -2.82031,7.7949 -3.67737,12.5522 -1.8896,10.4884 -3.93114,14.6432 -10.37058,21.1052 -2.711,2.7206 -6.90341,8.6683 -9.31648,13.2172 -2.41306,4.5489 -4.90261,8.5891 -5.53234,8.9783 -0.62972,0.3892 -2.99674,-1.4014 -5.26002,-3.9792 z"
       id="path3189"
       transform="translate(-14.666662,-32.145016)" />
    <g
       id="layer4"
       inkscape:label="01"
       style="fill:#ff9955">
      <path
         style="fill:#ff9955;stroke-width:1.33333"
         d="m 374.82656,1037.3334 c 1.44151,-1.9826 2.53125,-6.0349 2.68923,-10 0.14608,-3.6667 1.41041,-9.2004 2.80961,-12.2971 1.53653,-3.4006 2.18615,-6.7579 1.64036,-8.4775 -0.49701,-1.5659 -0.50669,-6.0244 -0.0215,-9.90762 0.77204,-6.17924 1.36892,-7.26208 4.78228,-8.67595 3.21058,-1.32985 5.43991,-1.19869 12.609,0.74189 10.7421,2.90775 15.40514,1.60443 14.33263,-4.006 -0.93939,-4.91405 -7.67549,-9.5002 -16.64137,-11.32992 -5.55164,-1.13294 -8.41828,-2.53701 -10.4877,-5.13681 -2.81086,-3.53125 -2.83674,-4.09695 -1.99378,-43.5777 1.69149,-79.22172 3.23557,-121.42892 4.63389,-126.66667 2.27023,-8.50364 1.75275,-14.00677 -2.45039,-26.05874 C 382.38365,759.48202 380,738.21305 380,711.90095 v -14.37848 l -7,-6.70361 -7,-6.70361 -3.11568,3.08837 c -3.40203,3.37221 -3.38955,3.81184 1.15868,40.7964 0.76655,6.23334 1.86893,21.43518 2.44975,33.78187 1.15414,24.53464 1.26477,24.82788 9.38057,24.86439 4.38393,0.0197 4.46076,0.108 2.2352,2.56716 -1.26763,1.40072 -3.826,2.92856 -5.68525,3.3952 l -3.3805,0.84845 1.00492,17.6048 c 1.2717,22.27859 1.27851,138.42179 0.008,145.93858 -0.55592,3.29051 -2.45844,7.24211 -4.58037,9.51365 -3.1148,3.3344 -4.94215,4.00371 -12.88601,4.71978 -14.37543,1.29582 -15.92319,2.02142 -15.92319,7.4649 v 4.63456 l 9.66667,-0.0852 c 7.91742,-0.0697 9.66576,0.29218 9.66168,2 -0.009,4.01362 -5.27047,10.66808 -10.57231,13.37287 -2.94171,1.50077 -7.31524,4.44807 -9.71897,6.54957 -2.40372,2.1015 -9.3204,6.3045 -15.3704,9.34 -12.02686,6.0343 -13.75715,8.9547 -7.6691,12.9437 7.18806,4.7098 20.87528,-1.149 28.04876,-12.0063 1.61795,-2.4488 4.40554,-4.4151 7.287,-5.1402 2.56667,-0.6459 6.79196,-3.2294 9.38955,-5.7411 2.91397,-2.8176 6.05037,-4.56674 8.18879,-4.56674 5.90541,0 6.03401,5.80184 0.5751,25.94684 -2.32961,8.5969 -2.69878,13.0634 -1.20333,14.5588 1.89065,1.8907 7.50684,0.087 9.87645,-3.1723 z"
         id="path3246"
         transform="translate(-14.666662,-32.145016)" />
      <path
         style="fill:#ff9955;stroke-width:1.33333"
         d="m 217.77281,991.94052 c 1.90618,-1.4994 5.94854,-6.56522 8.98303,-11.25738 4.09245,-6.3281 6.51075,-8.74942 9.36445,-9.3762 4.51818,-0.99235 7.95579,-5.00567 12.0531,-14.07167 l 2.96862,-6.56857 h 11.76234 c 10.09681,0 12.15104,-0.38872 14.5076,-2.74528 1.8826,-1.8826 2.61582,-4.0823 2.33333,-7 -0.39699,-4.1002 -0.67197,-4.28083 -7.57193,-4.97348 -5.46547,-0.54866 -7.79264,-1.49532 -9.83318,-4.00001 -2.47438,-3.03722 -2.60826,-4.52064 -1.80034,-19.9479 0.48006,-9.16667 1.75368,-25.36667 2.83028,-36 1.07658,-10.63334 3.18334,-31.63334 4.68168,-46.66667 1.49833,-15.03334 3.0011,-29.13334 3.33949,-31.33334 0.33839,-2.2 1.14867,-9.44144 1.80061,-16.09209 0.84683,-8.63863 2.17867,-14.05231 4.6634,-18.95567 4.0301,-7.953 4.31899,-13.37642 1.31895,-24.75978 -1.76808,-6.70875 -2.0038,-12.13168 -1.30159,-29.94341 l 0.85752,-21.75096 -4.69842,-5.48904 c -2.58412,-3.01897 -4.69842,-5.98105 -4.69842,-6.58238 0,-0.60134 -0.52202,-1.09334 -1.16005,-1.09334 -2.18508,0 -4.01969,11.3387 -4.74613,29.33334 -0.39967,9.9 -1.12339,24.4162 -1.60827,32.25823 l -0.8816,14.25822 3.86469,0.85314 c 7.35912,1.62453 7.64624,1.8171 5.88088,3.94424 -0.88961,1.07192 -3.52861,2.30746 -5.86445,2.74568 -2.68101,0.50296 -4.29824,1.62213 -4.38601,3.03528 -0.0764,1.2312 -1.09747,18.73854 -2.26888,38.90521 -4.256,73.26995 -4.8903,83.41375 -5.50268,88 -0.34272,2.56667 -0.94995,8.69323 -1.3494,13.61458 -1.40407,17.29812 -6.53312,26.34197 -17.75364,31.30422 -7.35464,3.25257 -7.36227,3.25302 -16.79122,0.99028 -5.18828,-1.24506 -10.38048,-3.08394 -11.53822,-4.08641 -2.22824,-1.92939 -10.01663,-2.51371 -10.96531,-0.82267 -0.30856,0.55 -0.95311,2.64087 -1.43233,4.64636 -1.00168,4.19193 3.34404,9.75021 6.6356,8.48711 2.36961,-0.90929 15.20036,1.92776 15.20036,3.36102 0,1.77356 -8.43936,7.5771 -16.15523,11.10954 -5.12407,2.34588 -11.58639,3.80894 -21.16645,4.79203 -13.51427,1.38683 -18.67832,2.83299 -18.67832,5.23072 0,3.84037 2.97434,7.88628 6.77042,9.2096 6.34754,2.21276 9.47988,1.86163 16.4491,-1.84393 4.10181,-2.18096 8.22136,-3.28539 11.86525,-3.18103 7.16625,0.20527 11.48807,-1.55893 21.73956,-8.87425 4.57609,-3.26544 8.96267,-5.93716 9.74792,-5.93716 4.68085,0 -2.51571,13.80988 -13.74901,26.38373 -4.11946,4.61105 -7.48991,8.6182 -7.48991,8.90476 0,0.28657 0.94285,1.46389 2.09524,2.61627 2.87717,2.87717 7.53787,2.62536 11.67757,-0.63094 z"
         id="path3252"
         transform="translate(-14.666662,-32.145016)" />
    </g>
    <g
       id="layer3"
       inkscape:label="02"
       style="fill:#c8ab37">
      <path
         style="fill:#c8ab37;stroke-width:1.33333"
         d="m 188,929.47791 c 0,-2.93216 -5.35967,-4.74958 -9.78005,-3.31634 -2.6054,0.84478 -2.36706,1.17135 2.44672,3.35224 6.73422,3.05096 7.33333,3.04803 7.33333,-0.0359 z"
         id="path3262"
         transform="translate(-14.666662,-32.145016)" />
      <path
         style="fill:#c8ab37;stroke-width:1.33333"
         d="m 297.66667,947.48063 c 6.2231,-0.13876 -0.49,-4.81393 -6.91235,-4.81393 -3.50485,0 -4.08765,0.49036 -4.08765,3.43928 0,3.19773 0.30432,3.3686 4.33333,2.43297 2.38333,-0.55347 5.38333,-1.02971 6.66667,-1.05832 z"
         id="path3260"
         transform="translate(-14.666662,-32.145016)" />
      <path
         style="fill:#c8ab37;stroke-width:1.33333"
         d="m 152.59088,971.6667 c -0.50719,-1.65 -1.12837,-3.23076 -1.38043,-3.5128 -0.76658,-0.8578 -8.3525,2.67576 -9.99617,4.65625 -1.28303,1.54595 -0.38313,1.85655 5.37897,1.85655 6.56042,0 6.8719,-0.1558 5.99763,-3 z"
         id="path3258"
         transform="translate(-14.666662,-32.145016)" />
      <path
         style="fill:#c8ab37;stroke-width:1.33333"
         d="m 328,978.00003 c 0,-3.77181 -2.91671,-4.37725 -8.60393,-1.78597 -4.59103,2.0918 -4.27147,3.50838 0.93726,4.15477 2.38334,0.29577 5.08334,0.63379 6,0.75115 0.94579,0.12106 1.66667,-1.22836 1.66667,-3.11995 z"
         id="path3256"
         transform="translate(-14.666662,-32.145016)" />
      <path
         style="fill:#c8ab37;stroke-width:1.33333"
         d="m 430.28939,986.40003 c 4.18428,0 4.46709,-0.21495 2.66021,-2.02183 -2.39659,-2.39658 -12.692,-4.54033 -13.73104,-2.85913 -0.39821,0.64432 -0.33691,2.3912 0.13624,3.88195 0.63263,1.9932 1.57373,2.48401 3.5564,1.85473 1.48288,-0.47064 4.80305,-0.85572 7.37819,-0.85572 z"
         id="path3254"
         transform="translate(-14.666662,-32.145016)" />
      <path
         style="fill:#c8ab37;stroke-width:1.33333"
         d="m 202.05195,1003.1602 c 3.19324,-3.19324 3.31861,-3.69437 1.40346,-5.60952 -2.61141,-2.61142 -4.42205,-1.05076 -5.59708,4.82432 -1.04117,5.2059 -0.35546,5.3343 4.19362,0.7852 z"
         id="path3250"
         transform="translate(-14.666662,-32.145016)" />
      <path
         style="fill:#c8ab37;stroke-width:1.33333"
         d="m 305.20583,1034.6667 c 2.13404,0 1.78461,-2.0714 -0.69683,-4.1309 -1.86581,-1.5484 -2.58631,-1.2549 -5.32671,2.1701 -4.52566,5.6563 -4.15789,8.1704 0.6902,4.7183 2.12987,-1.5166 4.52987,-2.7575 5.33334,-2.7575 z"
         id="path3248"
         transform="translate(-14.666662,-32.145016)" />
      <path
         style="fill:#c8ab37;stroke-width:1.33333"
         d="m 364,1059.2672 c 0,-1.1365 0.88169,-3.7713 1.95932,-5.8552 1.84721,-3.5721 1.79272,-3.8325 -0.95229,-4.5503 -4.30662,-1.1262 -6.51468,4.3247 -4.19771,10.3626 1.03897,2.7075 3.19068,2.7364 3.19068,0.043 z"
         id="path3244"
         transform="translate(-14.666662,-32.145016)" />
    </g>
    <g
       id="layer5"
       inkscape:label="03"
       style="fill:#e6e6e6">
      <path
         id="path3264"
         style="fill:#e6e6e6;stroke-width:1.33333"
         d="M 246.00065 43.451657 C 230.48056 43.556963 227.62054 43.956919 218.66666 47.285641 C 206.49248 51.811541 191.03755 62.231854 184.19401 70.525875 C 174.95317 81.725295 164.00065 100.35005 164.00065 104.86572 C 164.00065 108.94171 187.37949 111.42754 203.05338 109.01806 L 209.44205 108.03564 L 206.22135 112.35205 C 204.45047 114.7254 201.94352 119.92435 200.64908 123.90478 C 198.29759 131.13569 198.29784 131.14339 201.29557 133.5708 C 204.89536 136.48574 209.65406 136.59135 221.7526 134.02783 C 238.55559 130.46749 255.88372 120.08048 262.95182 109.33252 L 265.14518 106.00048 L 264.35026 109.33252 C 262.98845 115.05087 255.76106 125.52824 247.8444 133.2583 C 245.92508 135.13239 241.58044 142.46483 238.1901 149.55127 C 221.81616 183.77598 202.03304 216.95691 185.85416 237.33252 C 181.487 242.8325 176.44849 249.43383 174.65885 252.00048 C 169.48899 259.41497 147.94383 286.80509 142.61588 292.73681 C 135.83428 300.28694 115.65252 327.37371 105.47721 342.58056 C 94.729451 358.64297 84.17472 382.6665 87.865881 382.6665 C 88.553373 382.6665 90.406847 380.57747 91.985021 378.02392 C 94.694945 373.6392 102.66666 366.72709 102.66666 368.7622 C 102.66666 369.28152 100.03376 377.2759 96.8151 386.52783 C 85.903218 417.89366 83.544241 429.78708 83.432287 454.00048 C 83.354207 470.88674 83.863767 477.41073 85.881506 485.29541 C 88.640591 496.07702 88.58779 496.09962 92.549475 482.42627 C 95.078661 473.69701 102.39874 462.00048 105.33268 462.00048 C 106.94898 462.00048 107.50817 465.07015 108.24088 478.00048 C 108.73954 486.80048 109.74962 495.961 110.48697 498.35791 C 111.22435 500.75478 111.8681 503.15545 111.91666 503.69189 C 111.96526 504.22832 112.95767 507.96716 114.12369 512.00048 C 117.47891 523.60638 134.35664 550.08783 136.82487 547.61963 C 137.30896 547.13552 136.76217 543.27228 135.61002 539.03564 C 129.81398 517.72171 129.33663 499.60849 133.99283 477.67236 C 135.82239 469.05302 137.32305 459.03086 137.32682 455.40088 C 137.33582 446.95292 139.0672 448.75817 141.86197 460.13134 C 143.46669 466.66166 143.95994 474.39497 143.77799 490.13134 C 143.54458 510.32108 143.70619 511.77648 147.15299 520.63134 C 153.87589 537.90295 163.48502 549.31003 180.87369 560.65869 C 202.67435 574.8868 206.90735 577.51794 218.00065 583.73095 C 232.94124 592.09875 237.54178 593.92915 274.43815 606.18408 C 318.3993 620.78552 332.25059 628.76628 339.59635 643.72509 C 343.14385 650.94917 343.33211 652.26012 343.31119 669.6665 C 343.29669 681.74424 343.77344 688.00048 344.70768 688.00048 C 349.01921 688.00048 358.82439 673.56966 363.2194 660.75634 C 364.09339 658.20832 364.13159 658.20832 366.57487 660.75634 C 367.93431 662.17408 371.36143 666.70546 374.1901 670.82666 C 384.22836 685.45182 400.06136 700.29003 399.98502 695.00048 C 399.97702 694.4505 399.05402 690.99917 397.93424 687.33252 C 395.00155 677.72962 393.20963 656.41032 394.61588 647.85986 C 395.73451 641.05828 395.6052 640.48448 392.23307 637.33252 C 390.27167 635.49919 385.06666 631.65574 380.66666 628.78955 C 368.17546 620.65263 362.17401 615.28814 358.75651 609.20752 C 356.90482 605.91288 356.37205 604.0705 357.46744 604.74267 C 368.33791 611.41305 391.26438 627.6821 396.00065 632.08838 C 403.32178 638.89944 425.32858 649.64893 439.98893 653.57275 C 445.86759 655.14615 450.98286 656.12961 451.35416 655.7583 C 452.6838 654.42867 447.82747 643.29692 444.2819 639.54736 C 442.29373 637.44482 434.42334 631.58762 426.79362 626.52978 C 419.16388 621.47196 413.80861 617.33252 414.89322 617.33252 C 418.36289 617.33252 436.04072 623.80802 441.10612 626.93408 C 443.79809 628.5954 448.09999 631.82565 450.66666 634.11377 C 453.9914 637.07769 458.20822 638.9649 465.33268 640.67627 C 475.53872 643.12784 489.49222 647.96787 495.88541 651.27392 C 503.75471 655.34329 515.8354 665.62435 522.06315 673.55127 L 528.65104 681.93798 L 529.7819 674.83447 C 531.29939 665.30101 530.01387 659.53409 525.12955 653.97119 C 521.15301 649.44213 521.12839 649.33252 524.10026 649.33252 C 527.57256 649.33252 532.0022 650.62887 548.00065 656.32275 C 562.14774 661.35777 574.08871 667.29721 585.65494 675.05322 C 596.06008 682.03061 595.54975 679.9086 584.01041 668.22509 C 559.80856 643.72088 514.52528 613.00678 475.66666 594.73877 C 467.78334 591.03269 455.13582 585.08568 447.56119 581.52392 C 434.28336 575.2804 433.33769 575.04334 421.22721 574.90283 C 375.77259 574.3755 318.5724 556.93124 278.95572 531.51416 C 268.37916 524.72847 243.36571 505.00224 241.77604 502.19384 C 241.16592 501.11599 238.5673 497.93211 236.00065 495.11767 C 214.42818 471.46267 213.26265 444.5308 232.86783 422.72509 C 246.26032 407.82944 260.2506 405.35397 279.20377 414.52783 C 285.17088 417.41607 291.24217 421.12373 292.69401 422.76611 L 295.33268 425.75244 L 292.00065 424.81103 C 285.39954 422.94827 262.07431 422.32993 256.42838 423.86767 C 245.70496 426.78835 233.33268 440.39417 233.33268 449.26611 C 233.33268 453.80104 245.03274 472.96628 254.35416 483.70166 C 262.4704 493.04907 274.9316 502.38671 284.00065 505.9165 C 287.30063 507.2009 294.50065 508.54865 300.00065 508.91259 L 310.00065 509.5747 L 306.00065 506.93603 C 300.36325 503.2187 287.57447 489.67035 283.72135 483.33252 C 277.96357 473.86174 272.89761 457.33252 275.7526 457.33252 C 276.41659 457.33252 279.05615 459.28317 281.61783 461.6665 C 289.19315 468.71432 300.30366 474.63972 308.42447 475.96142 C 325.62291 478.76054 337.33268 472.82672 337.33268 461.31298 C 337.33268 458.39124 337.64888 456.00048 338.03385 456.00048 C 338.41882 456.00048 342.76817 458.02544 347.69987 460.50048 C 352.63154 462.97555 362.60097 467.21735 369.85416 469.92627 C 390.383 477.59334 406.41486 476.53026 415.10026 466.92627 C 417.5336 464.23553 417.5367 464.23534 425.97916 468.18603 C 435.00855 472.4114 445.30158 473.83183 446.30338 470.99072 C 446.62839 470.06896 442.99855 465.4183 438.23697 460.65673 C 433.47542 455.89516 430.44304 452.00048 431.49869 452.00048 C 438.40669 452.00048 451.10786 462.54435 452.48307 469.42041 C 454.54493 479.72966 470.54866 494.73 488.4733 503.15673 C 501.91685 509.47681 526.66666 517.26272 526.66666 515.17236 C 526.66666 514.15362 516.46285 502.26703 499.33463 483.33252 C 492.70089 475.99918 485.92793 467.81537 484.28385 465.14502 C 482.00675 461.4465 480.10725 460.06819 476.31315 459.35791 C 470.04064 458.18367 458.18118 452.62977 455.80338 449.75439 C 454.1537 447.75947 454.62347 447.67807 461.33268 448.78759 C 465.366 449.4546 475.56732 449.97194 484.00065 449.93798 C 497.07278 449.88528 500.36495 449.41887 506.33268 446.77392 C 510.18266 445.06756 513.33268 443.14547 513.33268 442.50244 C 513.33268 441.85942 513.00949 441.33252 512.61393 441.33252 C 512.21836 441.33252 506.16437 440.69354 499.1608 439.91259 C 484.64172 438.29364 466.39441 432.40825 446.00065 422.76611 C 432.6127 416.43632 389.13158 392.58965 382.74674 388.0747 C 376.47864 383.64233 347.32752 369.62307 334.58658 364.91455 C 308.45031 355.25567 294.37166 353.0734 256.66666 352.83056 C 229.09116 352.65296 225.75045 353.00363 214.39713 357.27978 C 206.11359 360.39974 202.43312 364.74852 199.31705 375.09814 L 197.64127 380.6665 L 196.65494 375.57666 C 195.34745 368.82514 198.02846 341.93808 201.29752 329.01611 C 205.50289 312.39311 214.76805 290.31801 230.61979 259.15088 C 238.77403 243.11822 246.82599 227.59984 248.51237 224.6665 C 260.48881 203.83425 268.55263 189.41906 275.06315 177.20361 C 305.75427 119.619 310.14772 78.072568 287.67643 57.945797 C 272.88942 44.701566 268.84736 43.296629 246.00065 43.451657 z M 243.32291 68.29736 C 244.97266 68.422423 243.45636 71.476404 239.41862 75.514157 C 235.35992 79.572853 234.9858 80.519359 236.13737 83.82275 C 239.93276 94.710247 227.14369 103.94453 216.98893 97.648922 C 214.9667 96.39521 212.97757 94.311502 212.56705 93.018063 C 211.7411 90.415766 209.93671 89.945491 208.66666 92.000485 C 208.21343 92.733817 207.01985 93.332516 206.01432 93.332516 C 203.63264 93.332516 205.36837 86.900504 209.20377 81.514157 C 212.37793 77.056478 215.67611 75.522671 229.33268 72.154782 C 234.83267 70.798411 240.38332 69.24471 241.66666 68.701657 C 242.39235 68.394578 242.9422 68.268499 243.32291 68.29736 z M 250.7526 144.06689 C 251.14316 144.09819 251.55003 144.57876 252.05143 145.37158 C 253.6523 147.90293 253.63929 151.50904 252.00846 157.37939 C 250.43627 163.03838 243.27497 174.6665 241.36197 174.6665 C 240.61251 174.6665 240.00065 174.45956 240.00065 174.20556 C 240.00065 173.95156 240.96858 171.80048 242.15299 169.42627 C 243.33742 167.05206 245.44652 160.5514 246.83854 154.98095 C 248.87103 146.84755 249.75449 143.9868 250.7526 144.06689 z M 214.55533 252.83642 C 214.62583 252.836 214.66106 252.86275 214.6608 252.91845 C 214.6501 255.24016 208.98609 263.12596 204.93229 266.46338 C 202.58584 268.39515 198.9702 271.63162 196.89713 273.65478 C 192.74521 277.70675 192.00065 278.04323 192.00065 275.86767 C 192.00065 271.68129 197.07609 265.25057 205.37955 258.91845 C 210.00817 255.38876 213.87354 252.84048 214.55533 252.83642 z M 205.15299 275.36767 C 205.24359 275.35767 205.28904 275.39107 205.2858 275.47314 C 205.1871 277.97205 196.271 289.58618 187.67643 298.41064 C 182.75487 303.46384 177.50326 310.23842 176.00651 313.46533 L 173.28385 319.33252 L 173.87565 311.70947 C 174.59996 302.35349 177.05959 298.03971 185.11197 292.00048 C 188.53415 289.43389 194.48268 284.39688 198.33268 280.80713 C 201.70141 277.66607 204.51885 275.43642 205.15299 275.36767 z M 180.44401 322.85205 C 180.54744 322.83435 180.6449 322.86546 180.73112 322.95166 C 182.0861 324.30665 178.71439 338.23663 175.04947 346.42431 C 172.85141 351.33499 171.33504 357.75296 170.74283 364.6665 C 169.86289 374.93898 169.76521 375.18469 168.07096 371.33252 C 167.10337 369.13252 166.02119 364.23594 165.66666 360.4497 C 164.9921 353.24588 164.95548 353.35112 173.54166 337.33252 C 176.09666 332.56586 178.57238 327.19242 179.04166 325.39111 C 179.42295 323.92755 179.99578 322.92858 180.44401 322.85205 z M 300.0319 380.6665 L 304.3483 388.38134 C 308.38628 395.59651 310.41075 398.26838 322.79557 412.74853 C 328.90403 419.89046 332.87689 426.34148 334.03971 431.00048 C 334.79371 434.02148 334.51876 434.65856 332.47721 434.61963 C 331.11437 434.59363 328.59915 433.79575 326.88737 432.84619 C 325.17557 431.89663 322.63682 428.57452 321.24479 425.46533 C 319.85275 422.35613 315.69402 416.42537 312.0026 412.28369 C 303.36024 402.58719 299.99618 395.56108 300.01627 387.24658 L 300.0319 380.6665 z M 329.2194 396.16064 C 332.12515 396.34678 342.23832 403.33223 348.72135 409.85009 C 360.65273 421.84557 365.39018 433.75129 361.2858 441.42041 C 359.11414 445.47816 357.99175 444.54133 355.48112 436.57666 C 352.90487 428.40382 341.64605 410.99697 333.35612 402.36963 C 330.43528 399.32991 328.27613 396.61172 328.55924 396.32861 C 328.69358 396.19427 328.9188 396.14139 329.2194 396.16064 z M 385.79362 407.20361 C 387.85409 407.06763 396.39205 412.7772 400.55338 417.3833 C 408.55191 426.23671 411.45965 436.2036 407.95377 442.75439 C 405.80315 446.77286 404.42071 445.82918 403.43619 439.67236 C 402.40239 433.20731 394.63707 418.5902 389.09049 412.6665 C 387.03056 410.4665 385.34192 408.20405 385.33854 407.63916 C 385.33654 407.36082 385.49926 407.22304 385.79362 407.20361 z M 358.32682 408.00048 C 362.92019 408.00048 381.42634 424.16775 387.72135 433.68017 C 391.84402 439.90994 392.62027 450.61235 389.19791 454.03759 C 387.23914 455.99802 386.92151 455.67241 385.35807 450.08838 C 382.97376 441.57248 373.43815 426.0435 364.58658 416.2622 C 360.47444 411.71814 357.65769 408.00048 358.32682 408.00048 z M 155.42057 411.33252 L 156.9694 414.6665 C 170.66532 444.13489 172.59101 449.84222 173.0983 462.46728 C 173.70311 477.51978 171.81571 480.88719 169.83268 468.29345 C 169.05399 463.34814 165.91299 453.43984 162.85221 446.27588 C 156.68127 431.83238 154.24576 422.42509 154.95182 415.75634 L 155.42057 411.33252 z M 153.18229 490.91455 C 154.04546 490.86795 154.85843 492.53862 156.02994 496.08838 C 158.90854 504.81061 165.44104 513.78727 177.26432 525.26611 C 183.34484 531.16947 187.79881 535.99208 187.1608 535.98291 C 186.52277 535.97391 182.5912 534.02501 178.42447 531.65088 C 167.13363 525.21746 156.38222 515.332 152.63737 507.94189 C 148.907 500.58036 148.69127 498.87002 150.88151 494.06298 C 151.80976 492.02566 152.51093 490.95077 153.18229 490.91455 z M 301.3151 572.229 C 303.39352 572.2435 305.51022 572.38218 307.62955 572.64697 C 314.02523 573.44605 316.05248 574.40389 320.28971 578.64111 C 324.94946 583.30089 326.73815 586.80814 324.33268 586.56494 C 323.78268 586.50934 320.63266 585.03637 317.33268 583.2915 C 309.74629 579.28024 300.98003 577.36302 289.60026 577.22509 C 280.96025 577.12042 280.79846 577.0574 284.66666 575.30322 C 289.19588 573.24928 295.07983 572.1854 301.3151 572.229 z M 311.84244 593.76025 C 315.40821 593.73835 319.02 594.4382 319.89127 595.65088 C 320.31728 596.24378 322.32225 597.78264 324.34635 599.0708 C 330.9294 603.26037 347.62457 628.45872 346.35026 632.28173 C 346.09293 633.0537 341.88882 628.95627 337.00846 623.17627 C 326.20136 610.37701 318.24598 603.58409 309.09049 599.34228 L 302.15299 596.12939 L 306.07682 594.62353 C 307.58028 594.04654 309.70299 593.77342 311.84244 593.76025 z "
         transform="translate(-14.666662,-32.145016)" />
      <path
         style="fill:#e6e6e6;stroke-width:1.33333"
         d="m 297.7684,670.33335 c -4.39635,-14.85948 -8.371,-32.74912 -8.40621,-37.83581 -0.0256,-3.69649 -0.74684,-4.47508 -6.36219,-6.86792 -7.9292,-3.37881 -23.20753,-7.90101 -30.66711,-9.07709 l -5.6671,-0.89347 2.88189,6.50381 c 4.21439,9.51095 4.84368,28.62276 1.3666,41.50382 -1.93125,7.15441 -2.18123,9.66666 -0.96189,9.66666 2.44066,0 12.30236,-7.46514 14.70424,-11.13089 l 2.08612,-3.18381 7.78281,7.61548 c 7.52645,7.36464 19.62551,14.69922 24.24767,14.69922 2.02945,0 1.93109,-1.07673 -1.00483,-11 z"
         id="path3294"
         transform="translate(-14.666662,-32.145016)" />
      <path
         style="fill:#e6e6e6;stroke-width:1.33333"
         d="m 345.33333,513.54 c 0,-0.61968 -1.24565,-2.25398 -2.7681,-3.63178 -1.52247,-1.37782 -6.3853,-7.38896 -10.80628,-13.3581 l -8.03818,-10.85299 -9.70505,-0.73398 c -5.33777,-0.40371 -11.72495,-1.74942 -14.19372,-2.99047 -3.87096,-1.94595 -3.296,-1.03 4.178,6.6558 9.17807,9.43815 17.73929,15.74122 28.66667,21.10534 10.12744,4.97144 12.66666,5.73445 12.66666,3.80618 z"
         id="path3302"
         transform="translate(-14.666662,-32.145016)" />
      <path
         style="fill:#e6e6e6;stroke-width:1.33333"
         d="m 404,533.32786 c 0,-0.73635 -4.87576,-6.58635 -10.83503,-13 -10.16856,-10.9439 -24.43936,-29.7647 -29.3381,-38.69207 -2.01564,-3.67327 -14.8801,-11.06666 -18.98799,-10.91267 -1.61445,0.0605 -7.50555,8.55947 -7.50555,10.82809 0,1.73195 10.19604,15.23127 19.82376,26.24619 13.05563,14.93676 30.18211,25.05416 45.17624,26.68771 C 403.25,534.58498 404,534.06422 404,533.32786 Z"
         id="path3300"
         transform="translate(-14.666662,-32.145016)" />
      <path
         style="fill:#e6e6e6;stroke-width:1.33333"
         d="m 539.97817,537.37506 c 1.56143,-0.98728 0.932,-1.68792 -2.98764,-3.32566 C 520.82557,527.29526 493.75469,514.93924 484,509.86284 c -14.92977,-7.76954 -22.85769,-13.74081 -28.97652,-21.82497 -4.67615,-6.1781 -5.34699,-6.58888 -9.70241,-5.94114 -2.82708,0.42044 -8.10424,-0.37769 -13.33334,-2.01656 -4.75992,-1.49184 -9.10422,-2.72016 -9.65401,-2.72962 -2.40992,-0.0415 7.11992,14.39441 15.47199,23.43711 18.25137,19.76054 42.39858,32.48073 70.19429,36.9767 6.80872,1.10132 30.06855,0.81815 31.97817,-0.3893 z"
         id="path3298"
         transform="translate(-14.666662,-32.145016)" />
      <path
         style="fill:#e6e6e6;stroke-width:1.33333"
         d="m 478.71945,539.30072 c 1.03359,-0.63878 -2.6985,-2.45802 -9.77238,-4.76364 -14.04898,-4.57902 -20.59395,-8.60858 -31.00744,-19.09044 -5.915,-5.95384 -24.82664,-28.65089 -29.24031,-35.09313 -0.118,-0.17224 -2.57363,0.91209 -5.45693,2.40965 -5.0521,2.62399 -11.01868,2.77395 -17.12583,0.43041 -3.56653,-1.3686 -2.44232,1.26292 6.10179,14.28289 22.64461,34.50705 38.95716,44.52314 70.63861,43.37293 7.80465,-0.28335 14.94279,-0.98025 15.86249,-1.54867 z"
         id="path3296"
         transform="translate(-14.666662,-32.145016)" />
    </g>
    <g
       id="layer6"
       inkscape:label="04"
       style="fill:#ff9955">
      <path
         style="fill:#ff9955;stroke-width:1.33333"
         d="m 94.666667,193.96653 c 17.605703,-9.78868 39.477103,-21.65223 70.000003,-37.96959 15.4,-8.23275 28.29905,-15.24906 28.66457,-15.5918 0.36551,-0.34274 -0.38449,-1.39026 -1.66667,-2.3278 -1.50132,-1.09779 -2.33124,-3.48311 -2.33124,-6.70031 0,-3.83638 -0.45261,-4.82198 -1.95044,-4.24721 -3.4636,1.32911 -80.87191,53.00444 -97.38289,65.00972 -25.531195,18.56397 -25.4754,18.58583 4.666667,1.82699 z"
         id="path3306"
         transform="translate(-14.666662,-32.145016)" />
      <path
         style="fill:#ff9955;stroke-width:1.33333"
         d="m 59.333333,207.3279 c 22.199476,-16.49977 56.205247,-40.59949 66.675777,-47.25279 5.12832,-3.25869 19.52422,-12.61312 31.99089,-20.78763 12.46667,-8.17449 24.01667,-15.5794 25.66667,-16.45534 4.90434,-2.60359 3.44861,-4.15859 -4,-4.27277 -3.85,-0.059 -9.7,-0.82431 -13,-1.70066 -5.69568,-1.51254 -6.2367,-1.40668 -10.66667,2.08713 -31.04056,24.48092 -55.60933,44.1682 -62.666667,50.21565 -9.000136,7.71221 -53.326345,51.7656 -50.354977,50.04504 0.928571,-0.53768 8.288311,-5.88307 16.354977,-11.87863 z"
         id="path3304"
         transform="translate(-14.666662,-32.145016)" />
    </g>
    <path
       style="fill:#ffff00;stroke-width:1.33333"
       d="m 228.64343,91.166093 c 2.48449,-2.484493 2.26906,-9.994509 -0.311,-10.841488 -1.02915,-0.337847 -1.37268,0.221036 -0.89734,1.459796 1.25275,3.264586 -1.85853,7.548935 -5.482,7.548935 -3.1961,0 -4.2026,1.306049 -2.39753,3.111111 1.64588,1.645889 6.90315,0.906372 9.08787,-1.278354 z"
       id="path3292"
       transform="translate(-14.666662,-32.145016)" />
  </g>
</svg>
