<?xml version="1.0" encoding="UTF-8" standalone="no"?>
<!-- Created with Inkscape (http://www.inkscape.org/) -->

<svg
   version="1.1"
   id="svg2708"
   width="1761.5336"
   height="2135.1267"
   viewBox="0 0 1761.5335 2135.1267"
   sodipodi:docname="knj2.svg"
   inkscape:version="1.2.2 (732a01da63, 2022-12-09, custom)"
   xmlns:inkscape="http://www.inkscape.org/namespaces/inkscape"
   xmlns:sodipodi="http://sodipodi.sourceforge.net/DTD/sodipodi-0.dtd"
   xmlns="http://www.w3.org/2000/svg"
   xmlns:svg="http://www.w3.org/2000/svg">
  <defs
     id="defs2712" />
  <sodipodi:namedview
     id="namedview2710"
     pagecolor="#ffffff"
     bordercolor="#000000"
     borderopacity="0.25"
     inkscape:showpageshadow="2"
     inkscape:pageopacity="0.0"
     inkscape:pagecheckerboard="0"
     inkscape:deskcolor="#d1d1d1"
     showgrid="false"
     inkscape:zoom="0.39187386"
     inkscape:cx="1133.0177"
     inkscape:cy="997.77006"
     inkscape:window-width="1920"
     inkscape:window-height="1031"
     inkscape:window-x="0"
     inkscape:window-y="25"
     inkscape:window-maximized="1"
     inkscape:current-layer="layer2"
     showguides="false" />
  <g
     inkscape:groupmode="layer"
     id="layer2"
     inkscape:label="Layer 1">
    <path
       id="path3189"
       style="fill:#000000;stroke-width:1.33333"
       d="M 1365.1871 450.24439 L 1358.4586 456.78931 C 1349.7964 465.21566 1325.2115 493.69585 1325.6578 494.78736 C 1325.8455 495.24656 1333.4234 501.25743 1342.4957 508.14478 C 1351.568 515.03211 1359.9079 521.39858 1361.0289 522.29322 C 1362.8327 523.73256 1362.6499 524.88382 1359.4469 532.29322 C 1357.4561 536.89854 1354.877 542.91359 1353.7145 545.66041 C 1351.3136 551.33326 1345.5539 556.1898 1336.7555 559.96119 C 1328.6433 563.43846 1311.6132 575.04345 1308.1383 579.46119 C 1306.5956 581.42231 1305.3336 584.05251 1305.3336 585.30689 C 1305.3336 586.73061 1301.2004 590.11624 1294.3336 594.31861 C 1277.771 604.45456 1251.3296 623.2569 1239.3336 633.42798 C 1225.8832 644.8321 1192.1218 678.83402 1181.1949 691.98072 C 1171.4637 703.68873 1165.6723 715.28918 1163.6422 727.14087 C 1162.3224 734.84552 1162.4771 736.46465 1165.2692 744.16041 C 1170.8057 759.42156 1186.6487 792.82773 1220.693 861.03345 L 1254.152 928.06861 L 1251.8453 944.68384 C 1247.4068 976.66352 1247.3232 996.31827 1251.4879 1028.1331 L 1252.2906 1034.2678 L 1236.9078 1047.1604 C 1228.4472 1054.2514 1216.5979 1065.2913 1210.5758 1071.6936 C 1201.0016 1081.8721 1199.7274 1082.8319 1200.4293 1079.3342 C 1200.8709 1077.1342 1201.9636 1065.2606 1202.857 1052.9495 C 1204.2707 1033.4708 1204.7524 1030.6846 1206.5738 1031.4827 C 1209.8976 1032.9392 1233.414 1033.5718 1239.8961 1032.3792 C 1243.1385 1031.7827 1245.9721 1030.7036 1246.1949 1029.9807 C 1246.4178 1029.2578 1242.6758 1024.1693 1237.8785 1018.6721 C 1222.9036 1001.5122 1218.9362 989.31553 1215.9781 951.33423 C 1211.3956 892.4955 1198.466 848.9392 1175.1559 813.82056 C 1172.3643 809.61484 1161.4276 797.1501 1150.8531 786.12134 L 1131.6266 766.06861 L 1135.4801 763.36744 C 1137.5993 761.88196 1142.9336 757.15073 1147.3336 752.85377 L 1155.3336 745.04127 L 1147.3746 737.78541 C 1137.3734 728.66662 1129.2143 723.98697 1112.1168 717.56666 L 1098.6012 712.49048 L 1102.5426 707.04908 C 1107.8313 699.74814 1113.8652 695.3446 1129.7887 687.16236 L 1143.1637 680.28931 L 1134.9254 676.13111 C 1122.3768 669.79663 1113.549 668.00025 1094.9625 668.00025 C 1079.9012 668.00025 1078.5455 667.79917 1079.1656 665.66627 C 1079.5386 664.38294 1080.0291 661.25438 1080.2555 658.71314 L 1080.6676 654.09205 L 1073.9996 654.469 C 1052.1912 655.70207 1030.3826 663.63111 1006.0074 679.18775 L 995.33361 686.00025 L 950.66759 686.66627 C 899.01566 687.43716 900.02767 687.21137 885.65587 701.23072 C 881.14464 705.6313 875.96219 709.39916 873.81603 709.84009 C 774.53344 730.23798 731.91695 740.98839 707.99962 751.67212 L 699.33361 755.54517 L 686.66759 753.86158 C 670.70585 751.7401 652.8042 751.56875 644.00744 753.45533 C 628.43653 756.79466 616.10539 772.11313 612.72033 792.31861 C 612.19986 795.42528 609.81273 799.69718 606.38634 803.65259 C 599.00393 812.17493 594.37719 822.60441 594.16759 831.19947 C 593.96415 839.54241 596.77269 844.4738 603.57384 847.71705 L 608.35314 849.99439 L 607.61095 862.41236 C 607.08098 871.29545 607.31581 874.98484 608.43517 875.37525 C 609.29572 875.6754 626.17754 877.16468 645.94884 878.6858 C 665.72013 880.20688 682.10735 881.66462 682.36681 881.92408 C 682.62629 882.18355 679.65104 883.42992 675.75353 884.69556 C 662.52257 888.9921 626.0298 902.9809 619.59533 906.22291 C 612.25238 909.92261 612.25774 909.3863 619.38244 924.95728 C 625.13182 937.52264 634.08591 946.58008 644.74572 950.61744 C 651.42215 953.14608 654.35292 953.50368 663.3922 952.89283 C 676.3602 952.01648 686.92622 948.27432 696.28478 941.24244 C 703.82557 935.57638 703.62298 935.63643 710.99962 936.85572 L 715.99962 937.68189 L 715.99962 948.07837 C 715.99962 969.71598 712.59775 983.99069 701.44103 1009.1721 C 698.3936 1016.0504 696.07219 1021.8101 696.28283 1021.971 C 696.49345 1022.1318 702.06763 1023.2879 708.66759 1024.5393 C 727.82689 1028.1719 738.60529 1031.3445 773.33361 1043.5803 C 791.3002 1049.9105 806.23953 1055.2858 806.53283 1055.5237 C 806.82612 1055.7615 796.62673 1066.6371 783.86681 1079.6936 C 750.58753 1113.7464 732.24455 1136.0592 708.48986 1171.387 C 679.16988 1214.991 661.00322 1250.0245 654.63634 1275.2346 L 650.67345 1290.9241 L 627.81798 1314.4612 C 602.46532 1340.5722 589.05607 1355.9699 582.93126 1366.0002 C 572.85253 1382.5064 566.60703 1412.0914 560.19298 1473.6936 C 558.83618 1486.7246 557.45546 1497.6556 557.12462 1497.9866 C 556.79378 1498.3174 543.05554 1494.9973 526.59533 1490.6077 C 467.3999 1474.822 424.80678 1467.2685 386.66759 1465.7913 C 361.05883 1464.7994 361.70569 1464.6053 342.16954 1479.1702 C 335.7364 1483.9665 325.56666 1490.5696 319.56994 1493.846 C 294.72334 1507.4207 292.50068 1511.987 284.1129 1566.6663 C 279.8671 1594.3443 273.13803 1628.4162 259.359 1692.0002 C 245.11424 1757.7336 240.10822 1790.6336 239.6129 1821.7815 C 239.28426 1842.4483 240.11023 1844.6921 253.87658 1860.4768 C 263.38121 1871.3751 263.53889 1871.7586 269.97619 1900.0002 C 280.00581 1944.0026 285.76818 1954.23 305.68517 1963.3674 C 311.69131 1966.1228 314.06354 1968.4849 322.66759 1980.2854 C 332.96758 1994.4117 370.58288 2033.3342 373.93517 2033.3342 C 376.50236 2033.3342 393.66547 2014.4693 400.71251 2003.9026 C 403.92732 1999.0821 409.21235 1990.1699 412.45665 1984.0979 L 418.35509 1973.0569 L 421.96447 1984.1956 C 427.69009 2001.8717 436.75938 2019.301 443.02306 2024.6624 C 448.47751 2029.3312 460.43939 2034.6663 465.45275 2034.6663 C 466.94707 2034.6663 472.45628 2038.7526 477.86876 2043.8752 C 491.84732 2057.106 501.12938 2061.1912 538.90783 2070.7288 C 551.81984 2073.9886 555.30444 2074.4608 556.16954 2073.0725 C 557.75916 2070.5217 562.38829 2050.1466 564.95861 2034.385 C 566.61591 2024.222 567.189 2012.3726 567.1715 1988.6663 C 567.14626 1954.3302 565.83108 1942.089 559.1754 1914.2542 L 555.68908 1899.6721 L 530.78478 1900.6272 C 504.05368 1901.6532 495.81906 1900.643 493.35314 1896.0354 C 492.60535 1894.6382 492.47295 1893.1991 493.06017 1892.8362 C 493.64738 1892.4732 499.70019 1891.2089 506.50939 1890.0276 C 528.0619 1886.2881 541.92503 1879.4658 548.99181 1869.1233 C 554.13999 1861.5887 555.59013 1856.5027 556.61681 1842.3967 L 557.46251 1830.7913 L 548.39806 1830.3967 L 539.33361 1830.0002 L 539.95275 1825.3342 C 540.29367 1822.7675 540.59502 1817.3675 540.62072 1813.3342 C 540.65808 1807.4818 540.26371 1806.0938 538.66759 1806.467 C 537.56759 1806.7244 529.3376 1807.262 520.38048 1807.6604 L 504.09533 1808.3831 L 500.20079 1804.2151 C 493.15158 1796.6688 478.85559 1760.7478 473.14415 1736.2288 C 469.75883 1721.6953 467.84344 1670.6663 470.68322 1670.6663 C 471.61052 1670.6663 479.42297 1674.5773 488.04454 1679.3577 C 511.22936 1692.2131 547.38653 1709.38 569.33361 1717.9514 C 602.53104 1730.9169 604.46799 1731.84 621.43908 1742.8303 C 669.7379 1774.1079 684.15053 1779.042 705.33361 1771.5432 C 716.79896 1767.4846 724.11681 1762.7191 735.01915 1752.2151 L 744.03673 1743.5256 L 748.35119 1746.721 C 867.2305 1834.7462 948.7051 1876.944 1043.0445 1899.3538 L 1064.0875 1904.3538 L 1063.2184 1919.844 L 1062.3492 1935.3342 L 1054.691 1947.3342 C 1035.8799 1976.8094 1026.0089 1997.6664 1019.6988 2021.2717 C 1014.2404 2041.6913 1013.7895 2057.973 1018.4586 2066.1194 C 1024.6783 2076.9708 1034.6494 2078.8454 1049.3004 2071.9143 C 1058.5777 2067.5255 1067.8684 2060.7304 1073.5074 2054.2112 C 1076.6211 2050.6113 1078.1174 2050.0513 1086.8512 2049.217 C 1099.5079 2048.0081 1121.5614 2040.6935 1128.4176 2035.4299 C 1137.9682 2028.0977 1139.2777 2025.3107 1139.7945 2011.2483 L 1140.2574 1998.6877 L 1145.1285 1994.8948 C 1147.8079 1992.8086 1162.1046 1982.8684 1176.9 1972.8049 C 1191.6954 1962.7413 1206.5583 1951.9405 1209.9274 1948.803 L 1216.0524 1943.0979 L 1227.1578 1946.0627 C 1233.265 1947.6935 1245.4022 1950.0564 1254.1305 1951.3127 C 1262.8587 1952.5694 1270.0887 1953.6884 1270.1969 1953.7991 C 1270.3052 1953.9097 1269.1933 1957.6006 1267.7262 1962.0002 C 1265.669 1968.1697 1264.9035 1974.9333 1264.3766 1991.5549 C 1263.6006 2016.0365 1265.0069 2031.2938 1270.7477 2060.6663 C 1275.5043 2085.0032 1275.4864 2084.5557 1271.6676 2083.4143 C 1239.142 2073.6927 1211.5417 2069.3206 1182.9313 2069.3596 C 1130.4135 2069.4293 1082.0174 2083.3863 1033.6442 2112.4104 C 1011.62 2125.6249 991.12796 2143.4329 976.69884 2161.9026 C 972.07417 2167.8223 967.17551 2173.6084 965.81212 2174.7581 C 964.44872 2175.908 958.23296 2178.5281 951.99962 2180.5823 C 937.1001 2185.4926 918.59653 2194.1912 906.75744 2201.8499 C 888.76458 2213.4891 865.59611 2238.2662 856.12072 2256.0002 C 851.84873 2263.9957 844.77426 2283.8861 845.82775 2284.9397 C 846.1882 2285.3001 852.37533 2282.9005 859.57579 2279.6077 C 886.71389 2267.1973 902.63168 2261.2439 924.61876 2255.2815 C 932.56945 2253.1253 937.01707 2252.4845 937.90197 2253.3694 C 938.63366 2254.1011 939.61895 2258.9003 940.08947 2264.0335 C 940.71587 2270.867 942.22587 2275.95 945.73009 2283.0159 C 951.09531 2293.8341 956.75175 2302.0534 957.7047 2300.4163 C 958.05142 2299.8207 959.94833 2293.633 961.9215 2286.6663 C 965.133 2275.3274 977.20997 2248.509 981.91369 2242.2698 C 984.58102 2238.7317 1022.9988 2236.8372 1067.9996 2238.0237 C 1105.2986 2239.0073 1117.3997 2240.0733 1112.6676 2241.9592 C 1100.8382 2246.6736 1081.8712 2255.6627 1059.1852 2267.3108 C 1044.4372 2274.8831 1024.6372 2283.8797 1015.1852 2287.303 C 978.81477 2300.4755 968.27282 2308.2776 966.33947 2323.4514 C 965.86958 2327.1392 963.60645 2331.6682 959.34337 2337.4514 C 947.59167 2353.3936 940.4695 2370.38 932.10704 2402.4085 C 928.65618 2415.6252 928.42691 2417.5814 930.25158 2418.2815 C 933.56551 2419.5533 985.35325 2417.5941 1007.9996 2415.3401 C 1037.1795 2412.4359 1056.4205 2408.7672 1074.9449 2402.5745 C 1091.4455 2397.0586 1105.7427 2390.5743 1107.4313 2387.842 C 1107.9584 2386.9892 1109.1909 2375.4862 1110.1715 2362.2795 C 1111.4256 2345.3903 1112.5631 2337.3372 1114.0074 2335.1331 C 1116.1863 2331.8076 1117.1135 2331.4488 1119.4664 2333.0198 C 1122.3429 2334.9405 1123.8942 2339.75 1125.3102 2351.1448 C 1126.8678 2363.6795 1128.3681 2368.7242 1131.6051 2372.301 C 1133.5664 2374.4682 1134.0161 2374.348 1139.0895 2370.303 C 1142.0582 2367.9362 1146.5548 2364.7379 1149.0817 2363.1956 L 1153.6754 2360.3928 L 1163.8375 2363.6428 C 1172.6903 2366.4752 1175.8031 2366.8187 1187.9996 2366.2991 C 1202.6994 2365.673 1213.3336 2362.6273 1213.3336 2359.0432 C 1213.3336 2358.0055 1210.3115 2350.3459 1206.6188 2342.0217 C 1197.9588 2322.5008 1195.9611 2313.6255 1199.1363 2308.7795 C 1201.7576 2304.7794 1226.1392 2292.5704 1247.3336 2284.6448 L 1260.6676 2279.6585 L 1267.9996 2281.6877 C 1272.033 2282.8037 1283.1343 2285.9048 1292.6676 2288.5803 C 1302.2009 2291.2559 1315.8496 2294.4555 1322.9996 2295.6897 C 1330.4089 2296.9688 1335.9996 2298.579 1335.9996 2299.4338 C 1335.9996 2304.3861 1323.4687 2316.7016 1309.2477 2325.7249 C 1276.0933 2346.7612 1188.3388 2381.5192 1157.2242 2385.9377 C 1138.8987 2388.5404 1125.2747 2391.4306 1119.0172 2394.0452 C 1116.4727 2395.1084 1108.304 2400.0993 1100.8629 2405.135 C 1085.1123 2415.7943 1079.3227 2418.8404 1059.1344 2427.094 C 1028.8705 2439.4666 1007.5508 2451.7598 1000.6383 2460.8225 C 996.88223 2465.7469 993.33361 2474.7086 993.33361 2479.2678 C 993.33361 2480.9192 990.07209 2485.9398 985.86486 2490.7659 C 964.05365 2515.7851 953.314 2540.7172 952.88244 2567.3342 C 952.76353 2574.6675 953.13273 2581.8079 953.70275 2583.2034 C 954.70427 2585.6553 956.43148 2585.7122 1005.0367 2584.9085 C 1056.2956 2584.0607 1069.4011 2582.9996 1099.7516 2577.2346 C 1107.5886 2575.7461 1118.6503 2573.2943 1124.3336 2571.7854 L 1134.6676 2569.0413 L 1134.6852 2538.1877 C 1134.6952 2521.2185 1135.0783 2505.9332 1135.5367 2504.221 C 1136.2443 2501.5782 1137.1121 2502.6848 1141.2828 2511.553 C 1143.985 2517.2984 1148.2448 2524.0466 1150.7477 2526.5471 C 1159.9761 2535.7663 1180.3655 2541.572 1193.568 2538.7405 C 1205.4826 2536.1853 1213.3576 2530.0496 1220.441 2517.7991 C 1220.978 2516.8703 1216.5834 2512.7301 1209.3102 2507.3147 C 1195.8562 2497.2973 1191.9996 2493.1041 1191.9996 2488.4866 C 1191.9996 2484.3384 1192.8083 2484.4795 1200.5485 2489.9827 C 1209.077 2496.0465 1219.8433 2500.0002 1227.8277 2500.0002 C 1231.3447 2500.0002 1234.5062 2499.7162 1234.8531 2499.3694 C 1235.2 2499.0224 1234.9059 2495.2406 1234.1988 2490.9651 C 1232.6041 2481.3226 1233.5497 2477.3663 1238.9078 2471.2639 C 1244.0992 2465.3511 1255.2984 2459.6391 1278.6676 2450.9885 C 1304.9432 2441.2619 1330.2188 2433.5724 1399.982 2414.0764 C 1426.7641 2406.5919 1431.3212 2404.457 1442.1402 2394.3362 C 1457.1048 2380.3374 1465.7656 2363.986 1472.6832 2336.6663 L 1475.7203 2324.6663 L 1485.527 2324.3577 C 1513.5934 2323.4711 1548.9289 2321.0944 1561.3336 2319.26 C 1604.7004 2312.8467 1648.8512 2298.291 1694.8395 2275.2463 C 1746.5848 2249.3168 1777.3603 2225.2014 1812.6676 2182.9163 C 1820.7015 2173.2947 1826.7892 2167.6843 1837.3336 2160.1838 C 1855.3282 2147.3843 1880.7405 2121.9232 1891.8356 2105.5784 C 1906.2901 2084.2838 1917.0309 2060.4414 1923.9156 2034.3655 C 1931.1713 2006.884 1932.4498 1996.5436 1932.5328 1964.6663 C 1932.6163 1932.4447 1930.8996 1920.4899 1922.6305 1895.719 C 1904.1118 1840.2437 1861.7684 1798.6438 1803.9996 1779.1702 C 1784.4828 1772.5912 1787.667 1777.789 1777.9645 1736.6663 C 1770.3433 1704.3646 1765.8296 1690.322 1757.2399 1672.1936 C 1726.4899 1607.2997 1679.7814 1567.7364 1595.9996 1535.6155 C 1577.0011 1528.3316 1527.7064 1512.2718 1506.568 1506.4788 C 1496.596 1503.7458 1495.6269 1503.1634 1493.2399 1498.4846 C 1489.8973 1491.9326 1489.9944 1489.72 1493.6676 1488.5901 C 1500.8477 1486.3817 1528.9301 1471.508 1540.9215 1463.5627 C 1548.1142 1458.7972 1560.1406 1449.7895 1567.6461 1443.5471 C 1579.5956 1433.6085 1582.2491 1432.0073 1588.9801 1430.6721 C 1611.7581 1426.1537 1639.5813 1419.1222 1653.025 1414.4866 C 1692.0374 1401.0346 1722.3043 1379.1105 1747.2145 1346.262 C 1759.1465 1330.5274 1781.0298 1294.898 1796.6402 1265.7854 L 1805.9469 1248.428 L 1833.9742 1234.2698 C 1879.3135 1211.3666 1921.4753 1185.1593 1947.5426 1163.676 C 1977.5571 1138.94 1991.4769 1109.4851 1998.1168 1056.6663 C 2000.9288 1034.297 2002.0826 962.76622 2000.1051 933.33423 C 1998.6179 911.19794 1995.4239 884.96953 1993.9195 882.53541 C 1993.5381 881.91842 1989.8 882.97453 1985.6129 884.88111 C 1972.2704 890.95645 1949.1707 898.3411 1932.6676 901.80689 C 1900.1596 908.63381 1887.9075 909.68272 1833.1676 910.32252 L 1781.6676 910.92408 L 1756.1832 901.4358 C 1702.5854 881.48046 1661.0274 872.63879 1605.0192 869.27564 C 1562.5402 866.72491 1523.4643 871.1056 1491.0504 882.05103 C 1481.3611 885.32294 1472.8724 888.00025 1472.1871 888.00025 C 1470.9965 888.00025 1467.9996 874.02032 1467.9996 868.46509 C 1467.9996 866.44637 1470.3889 864.76491 1478.0309 861.4065 C 1497.6605 852.77994 1503.571 846.32439 1511.361 825.00806 C 1517.2544 808.88063 1523.1894 796.70708 1531.3902 783.91236 L 1537.3531 774.60767 L 1534.1793 773.40064 C 1532.4337 772.73696 1526.8364 771.78369 1521.7399 771.2815 L 1512.4723 770.36939 L 1518.1305 755.35767 C 1524.7299 737.84535 1529.8209 727.42698 1538.068 714.5608 L 1544.0192 705.27564 L 1540.3434 703.81861 C 1538.3212 703.01756 1523.3474 701.91743 1507.068 701.37525 L 1477.4703 700.39087 L 1467.5934 691.16822 C 1450.7692 675.45639 1433.4066 669.0159 1407.9996 669.0647 C 1393.4211 669.09273 1380.8996 671.21877 1366.482 676.11353 C 1340.3724 684.97785 1321.3495 701.69471 1307.5192 727.92603 C 1304.0176 734.56715 1300.7288 740.00025 1300.2125 740.00025 C 1298.4483 740.00025 1289.3336 731.81008 1289.3336 730.22486 C 1289.3336 727.73706 1314.257 700.63791 1329.5016 686.55103 C 1354.0195 663.89509 1358.4972 660.32775 1363.6266 659.36548 C 1370.255 658.12197 1385.1359 643.22112 1390.236 632.72095 C 1393.3369 626.33595 1395.3399 624.15458 1401.6207 620.31666 C 1408.4301 616.15564 1410.9171 615.47516 1424.9547 613.9358 C 1442.6347 611.99696 1454.0105 608.33055 1460.7711 602.39478 L 1465.3258 598.39869 L 1484.9176 616.19947 C 1545.6164 671.34843 1648.0303 772.22317 1648.0113 776.844 C 1648.0034 778.86993 1645.5086 781.31107 1639.3336 785.33423 C 1634.5669 788.43983 1630.6676 791.56098 1630.6676 792.27173 C 1630.6676 793.58336 1667.4822 835.33541 1673.8043 841.19361 L 1677.2516 844.38892 L 1683.6266 839.19556 C 1706.0837 820.89807 1811.779 723.38431 1813.1617 719.68775 C 1813.4338 718.96039 1807.0874 711.683 1799.0582 703.51587 C 1791.029 695.34879 1774.3171 677.86619 1761.9215 664.66627 C 1749.5257 651.46631 1729.6059 630.49129 1717.6539 618.05494 L 1695.9215 595.44361 L 1675.2945 616.03931 C 1663.9497 627.36683 1654.6676 637.07024 1654.6676 637.60377 C 1654.6676 638.13727 1658.5004 644.44603 1663.1871 651.62134 C 1681.4538 679.58798 1686.1104 693.42844 1684.9293 716.25025 C 1684.5616 723.35413 1683.8432 729.83975 1683.3336 730.66431 C 1682.772 731.57301 1664.9974 714.93002 1638.2047 688.41041 C 1592.1498 642.82464 1562.8098 615.49884 1524.9274 582.90845 C 1508.3785 568.67156 1502.7406 563.07083 1503.357 561.48267 C 1507.1906 551.60556 1509.5221 535.72678 1509.111 522.30298 L 1508.6676 507.78931 L 1503.8649 503.5608 C 1497.8122 498.23268 1482.8863 486.35827 1480.4059 484.89673 C 1479.3761 484.28993 1474.2135 482.60292 1468.9332 481.14869 C 1463.6529 479.69445 1455.4484 476.37822 1450.7008 473.77955 L 1442.0699 469.05494 L 1428.2906 469.99439 C 1416.9688 470.76613 1413.1704 471.61028 1406.984 474.73072 L 1399.4567 478.52759 L 1391.3942 471.86744 C 1386.9603 468.20413 1379.2496 461.83961 1374.2594 457.72486 L 1365.1871 450.24439 z M 755.99962 944.64478 L 784.02501 946.1858 L 812.0504 947.72486 L 821.55822 956.69361 C 837.29738 971.54114 851.2304 975.86777 883.58751 975.95337 C 893.26088 975.97896 901.502 976.52615 901.90001 977.17017 C 902.29804 977.81417 896.48287 983.18333 888.97814 989.10181 C 881.47341 995.02032 870.23296 1004.0801 863.99962 1009.2327 C 857.7663 1014.3853 851.76759 1018.5771 850.66759 1018.5491 C 849.56759 1018.5209 827.66627 1010.4885 801.99962 1000.6995 L 755.33361 982.90064 L 754.93322 967.78345 C 754.7136 959.46898 754.8643 950.86243 755.2672 948.6565 L 755.99962 944.64478 z M 362.54845 1697.3342 C 364.51289 1697.3342 378.66759 1788.1172 378.66759 1800.717 C 378.66759 1803.2477 378.51074 1803.2231 366.09337 1798.6096 C 350.09328 1792.6652 346.22254 1788.1838 346.49962 1775.926 C 346.82749 1761.4218 359.9147 1697.3342 362.54845 1697.3342 z M 383.0797 1849.4377 C 383.14209 1849.4358 383.18768 1849.4496 383.21447 1849.4788 C 384.1759 1850.5261 386.62557 1872.3199 385.91173 1873.4749 C 385.50695 1874.1299 381.72305 1874.6663 377.50353 1874.6663 C 370.83847 1874.6663 369.36225 1874.1768 366.24962 1870.928 C 364.27911 1868.8712 362.66759 1866.4843 362.66759 1865.6252 C 362.66759 1864.0684 381.14555 1849.498 383.0797 1849.4377 z M 1757.1715 1891.3342 L 1757.2262 1900.6663 C 1757.2915 1911.836 1754.3615 1934.8927 1751.3668 1946.7678 C 1739.3 1994.617 1717.79 2028.7962 1677.4527 2064.219 C 1671.3892 2069.544 1667.9424 2073.4951 1668.5309 2074.4475 C 1670.0455 2076.8981 1695.6892 2075.5953 1704.6969 2072.6096 C 1709.6449 2070.9695 1682.0325 2096.7646 1671.3336 2103.7776 C 1649.5712 2118.0425 1620.2463 2130.247 1594.1324 2135.9045 C 1586.7579 2137.5022 1571.588 2139.2686 1558.9215 2140.0042 C 1524.5249 2142.0016 1525.6229 2142.337 1534.9996 2132.6663 C 1539.8068 2127.7084 1543.8015 2125.572 1561.3336 2118.5803 C 1627.1954 2092.3147 1662.8406 2064.1552 1695.4039 2012.6663 C 1699.578 2006.0663 1715.1826 1976.0669 1730.0817 1946.0002 L 1757.1715 1891.3342 z "
       transform="translate(-239.56017,-450.24439)" />
    <g
       id="layer1"
       inkscape:label="Horse"
       transform="translate(-239.56017,-450.24439)"
       style="display:inline">
      <g
         id="layer3"
         inkscape:label="01"
         style="display:inline;fill:#803300"
         transform="translate(239.56017,450.24439)">
        <path
           style="fill:#803300;stroke-width:1.33333"
           d="m 477.21381,2010.3334 c 8.01705,-17.4923 11.85632,-28.8766 17.42438,-51.6667 1.34375,-5.5 3.73946,-14.8 5.32378,-20.6667 4.24881,-15.7332 5.50844,-20.9934 5.08429,-21.2324 -0.20877,-0.1173 -3.37959,-0.9678 -7.04625,-1.8894 -7.89203,-1.9836 -15.00039,-7.2704 -18.59203,-13.8278 -2.28243,-4.1672 -2.39673,-5.3842 -0.95697,-10.1897 2.53353,-8.4561 7.95121,-11.7068 25.71076,-15.4264 17.60728,-3.6877 21.56912,-5.0707 27.5113,-9.6029 4.91579,-3.7495 9.66027,-12.0976 9.66027,-16.9978 0,-3.1005 -0.50849,-3.3146 -9.66667,-4.069 -5.31666,-0.438 -12.18298,-0.9392 -15.25848,-1.1138 l -5.59181,-0.3174 6.55804,-8.6667 c 3.60692,-4.7667 6.57324,-9.4167 6.59181,-10.3333 0.0243,-1.1979 -2.979,-1.6667 -10.67572,-1.6667 -10.97037,0 -18.19546,-2.0004 -23.05804,-6.3841 -3.00292,-2.7074 -13.95289,-24.1528 -19.63246,-38.4504 -5.88943,-14.8258 -11.5489,-35.9876 -13.97167,-52.2427 -2.23593,-15.0016 -2.75024,-48.6244 -0.94209,-61.5895 l 1.02272,-7.3333 -10.68782,-12.2048 c -10.26873,-11.7264 -23.15956,-31.7679 -21.5004,-33.4271 0.43882,-0.4388 9.65118,7.8743 20.47188,18.4735 11.49618,11.2609 24.10783,22.1943 30.34071,26.3029 21.52853,14.1918 87.65521,45.1872 122.44532,57.3936 8.79015,3.084 17.58583,7.9228 34.66667,19.0711 12.5884,8.2161 28.19479,17.6652 34.68083,20.9979 11.05268,5.6793 12.43345,6.0545 22,5.9798 16.80312,-0.1306 20.51714,-2.5876 55.64166,-36.8024 20.85948,-20.3193 31.98019,-30.1885 36.04034,-31.9845 3.72534,-1.6479 10.13462,-2.8372 17.53194,-3.2533 l 11.65991,-0.6559 -12.67548,6.5713 c -11.17657,5.7943 -14.45823,8.4116 -27.7514,22.1338 -8.29176,8.5593 -14.84911,16.2428 -14.57188,17.0745 0.9974,2.9921 82.24486,59.8569 101.26151,70.8725 l 6.26273,3.6278 3.15896,-5.0854 c 1.73743,-2.7969 7.54834,-13.4853 12.91312,-23.752 14.58795,-27.9172 44.43072,-77.0269 70.35707,-115.7808 12.67496,-18.9462 23.04537,-34.6886 23.04537,-34.9833 0,-0.2947 -4.16176,-2.6315 -9.24834,-5.1931 -24.58195,-12.3793 -45.41832,-26.7738 -45.41832,-31.3766 0,-5.6864 30.15914,-62.0499 52.2164,-97.5858 35.39215,-57.0193 85.77645,-112.5942 128.73955,-142.0021 l 10.9559,-7.4994 -7.8186,-8.3581 c -29.5224,-31.5595 -42.5435,-67.2716 -47.5165,-130.32 -0.4526,-5.7378 -1.0833,-10.172 -1.4016,-9.8537 -1.1808,1.1808 -5.9877,16.0739 -9.4583,29.3045 -3.2313,12.3183 -3.5855,15.9874 -3.6347,37.6484 -0.05,22.1044 0.2421,25.1417 3.6994,38.4546 2.0645,7.95 3.5159,14.6925 3.2251,14.9832 -0.827,0.827 -18.1503,-13.733 -27.0067,-22.6986 -15.4087,-15.5989 -23.89999,-32.0156 -28.67245,-55.4344 -6.06629,-29.7679 -1.50286,-57.6075 14.71595,-89.7759 3.6741,-7.2873 6.5174,-13.4094 6.3184,-13.6046 -1.3629,-1.3368 -29.42051,-11.1727 -30.30744,-10.6246 -2.02087,1.249 -4.00607,17.0701 -4.91819,39.1959 -0.8179,19.8401 -1.06878,21.4909 -2.77205,18.2401 -5.22169,-9.966 -7.11643,-33.745 -4.09347,-51.3736 1.15192,-6.7174 1.19678,-9.7613 0.15916,-10.7989 -2.38669,-2.3867 -133.08424,-52.7756 -143.39632,-55.2847 -3.32002,-0.8079 -5.60097,1.0522 -26.46884,21.5854 -40.69972,40.0469 -69.73288,76.9675 -99.77041,126.875 -14.25923,23.6918 -32.89423,62.9278 -29.88734,62.9278 0.41984,0 5.63752,-2.9848 11.59486,-6.6328 11.03318,-6.7563 26.75145,-13.8384 29.02865,-13.0793 0.69253,0.2309 -4.31852,4.8645 -11.13567,10.297 -13.0764,10.4205 -64.75508,61.9056 -85.47914,85.1591 -14.51571,16.2873 -21.09942,25.6925 -24.66656,35.238 -8.54858,22.8752 -17.58243,97.1095 -17.58243,144.4807 v 25.6297 l 9.92739,3.3377 9.92738,3.3379 13.81678,-4.4804 c 7.59922,-2.4641 17.6819,-5.1176 22.40594,-5.8964 12.42239,-2.0481 39.91631,-3.0955 44.58918,-1.6987 3.56036,1.0644 2.24142,1.5998 -12,4.8712 -17.29456,3.973 -42.86802,11.0663 -45.8379,12.7142 -2.35342,1.3058 -2.60536,1.173 17.8379,9.4049 20.23849,8.1495 36.77018,16.4149 40.02529,20.0119 2.92644,3.2336 1.66489,6.6386 -2.4596,6.6386 -5.59431,0 -29.6704,-7.5189 -76.32612,-23.8364 -83.2225,-29.1064 -127.0205,-42.307 -168.91935,-50.9118 -24.26381,-4.9831 -31.15192,-4.8179 -37.18923,0.8918 -5.45534,5.1594 -12.37681,15.4428 -23.7188,35.2398 -7.0311,12.2726 -9.4122,17.6838 -9.4122,21.3901 0,9.2967 5.38174,36.4988 14.61916,73.8932 14.52091,58.7825 16.48682,70.5233 26.0713,155.7036 8.4667,75.2464 8.48998,75.3612 19.87814,98.0169 8.85046,17.6074 9.78531,20.2839 16.79466,48.0838 7.10786,28.1906 15.56532,48.5432 21.89568,52.691 2.59836,1.7026 11.65014,4.7915 17.82721,6.0836 0.23072,0.048 2.68816,-4.8622 5.46099,-10.9122 z"
           id="path3238"
           transform="translate(-239.56017,-450.24439)" />
        <path
           style="fill:#803300;stroke-width:1.33333"
           d="m 1120.3072,2515.6667 c 0.7529,-19.4076 2.5829,-26.0043 8.2422,-29.7124 8.0769,-5.2923 17.6647,1.4291 24.7912,17.3791 2.2936,5.1333 5.4291,10.6772 6.9677,12.3197 6.5747,7.0183 27.8247,10.7305 37.5836,6.5657 l 3.8919,-1.661 -6.9502,-5.1019 c -14.0245,-10.2949 -19.822,-22.4487 -16.3061,-34.1837 2.0458,-6.8282 7.0298,-10.6064 13.9857,-10.6022 4.3536,0 7.5478,1.3751 15.4661,6.6447 l 9.9792,6.6412 1.5179,-6.7395 c 5.3091,-23.5729 28.5584,-34.6502 139.857,-66.6354 27.8666,-8.0084 54.5377,-16.1842 59.2689,-18.1686 6.0873,-2.5529 10.8408,-5.8812 16.2587,-11.3838 13.7809,-13.9966 17.5985,-23.2955 26.4233,-64.3619 4.8881,-22.7469 7.1531,-37.7184 13.3935,-88.5312 3.4298,-27.9284 5.3864,-35.3325 13.3514,-50.5259 9.3316,-17.7997 33.5236,-53.7817 39.733,-59.0966 3.4778,-2.977 12.5712,-7.401 26.5373,-12.9108 64.9515,-25.6243 98.4839,-52.0272 129.0371,-101.6022 4.2936,-6.9666 22.3173,-41.775 40.0526,-77.352 17.7354,-35.5769 33.0782,-65.3338 34.0951,-66.1264 3.9625,-3.088 6.5072,-3.0677 10.1647,0.081 l 3.6844,3.172 -0.037,29.7793 c -0.032,25.5231 -0.4694,31.9391 -3.0616,44.8909 -7.9164,39.5556 -26.9888,79.8232 -51.4164,108.555 -4.2084,4.95 -7.2914,9 -6.8512,9 2.486,0 26.9682,-10.3478 37.0144,-15.6447 22.9543,-12.1028 39.8276,-28.3629 58.7782,-56.6423 5.2657,-7.8578 9.9229,-14.3078 10.3494,-14.3333 1.1956,-0.072 -2.3284,26.6671 -4.8285,36.6361 -2.7043,10.7832 -6.8847,21.2442 -14.8803,37.236 -7.9816,15.9638 -15.4364,26.2583 -26.7296,36.9118 -8.605,8.1176 -25.5724,21.1697 -27.5198,21.1697 -0.4643,0 4.0133,-5.85 9.9501,-13 13.1292,-15.8123 25.0887,-33.4389 31.8408,-46.9289 8.4567,-16.8958 8.3239,-17.4646 -2.1295,-9.1239 -13.8938,11.0857 -21.1233,15.7065 -37.1102,23.7193 -14.3891,7.2119 -14.7411,7.4992 -21.2264,17.3335 -8.5027,12.8933 -27.8974,32.1231 -41.4754,41.1228 -14.6525,9.7119 -42.4981,23.2139 -59.3333,28.7701 -23.7728,7.8459 -37.3661,10.0064 -72.6391,11.5456 -17.5848,0.7674 -32.0385,1.5076 -32.1194,1.645 -0.081,0.1374 -4.209,6.7718 -9.1734,14.7433 -15.1948,24.398 -16.2772,28.0805 -21.408,72.8399 -1.8914,16.5 -4.6137,37.7374 -6.0494,47.1944 -1.4359,9.457 -2.6107,17.407 -2.6107,17.6666 0,1.9823 59.6897,-1.1168 80.6667,-4.1881 63.4648,-9.2921 135.5546,-39.4659 188,-78.6888 13.7108,-10.2541 45.4092,-39.0193 44.2621,-40.1665 -0.2841,-0.284 -8.5788,2.1774 -18.4325,5.4701 -19.3755,6.4743 -36.2656,10.3217 -55.163,12.5653 -17.5596,2.085 -54.5948,3.3484 -65.1089,2.2212 l -9.1091,-0.9765 20.5118,-11.0435 c 47.2193,-25.4228 70.9012,-41.818 120.3286,-83.3045 25.5168,-21.4173 26.0443,-21.8316 26.0443,-20.4525 0,2.0428 -22.5731,29.6677 -33.7996,41.364 -16.7761,17.478 -41.2044,35.8662 -71.2004,53.5957 -5.3167,3.1425 -9.6667,6.2931 -9.6667,7.0012 0,2.5933 36.2824,-2.4271 56,-7.7488 26.5615,-7.1688 46.0015,-16.1201 70.192,-32.3204 35.0043,-23.4423 55.5272,-46.0884 72.3311,-79.814 13.0212,-26.1337 20.2844,-54.3 23.0413,-89.3536 5.59,-71.0747 -20.9766,-133.0529 -71.5644,-166.9553 -20.1714,-13.5184 -29.7298,-17.904 -55.3066,-25.3762 l -16.64,-4.8612 -3.6386,-16.581 c -7.5082,-34.216 -13.5553,-58.2663 -17.4102,-69.2428 -8.7363,-24.8763 -27.4047,-56.5848 -45.9284,-78.0104 -29.1844,-33.7563 -77.5404,-60.8766 -151.7428,-85.1043 -28.1163,-9.1801 -58.9476,-18.2235 -62.1294,-18.2235 -5.1836,0 -42.4181,37.3011 -68.544,68.6667 -31.6014,37.9392 -66.1572,88.5817 -91.2821,133.7767 -4.6201,8.3105 -9.2272,15.4274 -10.2381,15.8154 -3.4838,1.3368 -56.2518,-12.3881 -114.8106,-29.8622 -23.6523,-7.058 -43.3591,-12.4778 -43.7928,-12.044 -0.4337,0.4337 0.8008,8.1818 2.7434,17.218 1.9426,9.0362 6.5149,34.7294 10.1607,57.0961 7.1519,43.8763 10.971,61.6799 17.3943,81.0891 3.3571,10.1438 4.5135,12.2662 6.3048,11.5714 8.8977,-3.4516 39.6806,-8.321 43.4524,-6.8737 1.8431,0.7073 4.1171,14.2791 5.4533,32.5465 l 0.8047,11 h -17.8695 c -9.8281,0 -18.1438,0.2744 -18.4792,0.6099 -1.1609,1.1608 2.1715,27.2933 3.6694,28.7761 1.8945,1.8752 35.1482,8.625 48.6145,9.8676 l 10.1185,0.9336 8.3672,-15.1984 c 4.6019,-8.3592 15.8835,-25.3513 25.07,-37.7602 23.3983,-31.6058 23.9267,-32.8914 26.3137,-64.0184 2.7984,-36.4932 5.9138,-56.5435 8.7857,-56.5435 0.7216,0 1.2264,18.1801 1.2264,44.1751 v 44.1752 l -6.7016,11.7108 c -3.6859,6.4409 -11.2648,18.2121 -16.842,26.1582 -25.7706,36.7163 -38.9798,62.9803 -43.9084,87.3038 -3.9257,19.3742 -0.088,56.3662 10.2155,98.4769 2.243,9.1667 5.515,23.1003 7.2712,30.9636 4.3472,19.4639 7.3707,25.8503 20.6981,43.7191 20.9916,28.1448 21.882,30.4954 29.4548,77.7577 6.8189,42.5577 7.7319,65.4441 3.014,75.5596 -10.2701,22.0197 -43.8741,43.2135 -109.666,69.1651 -46.7487,18.4401 -63.1707,23.581 -85.5356,26.7768 -10.6334,1.5194 -22.2202,3.7146 -25.7485,4.8781 -3.5283,1.1633 -13.7283,7.0229 -22.6667,13.0213 -12.4771,8.3731 -21.3609,13.0256 -38.2515,20.033 -12.1,5.0198 -26.2,11.2162 -31.3333,13.7697 -18.5266,9.2155 -29.9348,20.4552 -28.1163,27.7009 1.7175,6.843 28.1005,22.767 60.7829,36.6867 10.6334,4.5289 19.6334,8.6935 20,9.2548 0.3667,0.5612 4.7077,1.7173 9.6466,2.5692 4.9389,0.8519 10.3389,2.0948 12,2.7621 1.6611,0.6672 4.285,1.2514 5.831,1.2978 2.6886,0.081 2.8408,-0.6844 3.4963,-17.5822 z"
           id="path3220"
           transform="translate(-239.56017,-450.24439)" />
        <path
           style="fill:#803300;stroke-width:1.33333"
           d="m 1168.5845,1131.2367 c 5.8498,-11.9967 12.8323,-32.8449 16.267,-48.57 2.0314,-9.3004 2.476,-17.1331 2.4786,-43.6663 0,-17.7831 0.1343,-32.3331 0.2945,-32.3333 0.1602,-2e-4 4.9602,2.3493 10.6667,5.2212 11.0356,5.5538 19.0421,7.9209 19.0421,5.6297 0,-0.7483 -0.5445,-1.6971 -1.21,-2.1084 -2.6427,-1.6333 -9.514,-21.09109 -11.3893,-32.25169 -1.0927,-6.50351 -2.9517,-22.92456 -4.131,-36.49123 -4.0516,-46.6086 -11.0695,-74.73282 -25.9137,-103.84879 -10.5944,-20.78025 -12.2481,-22.82329 -18.4528,-22.79747 -8.6392,0.036 -8.9381,0.85747 -5.1477,14.14671 5.7898,20.29871 6.3655,26.00143 5.5017,54.49955 -0.4832,15.9397 -0.2725,29.34798 0.5238,33.33228 0.7327,3.66609 1.1235,6.87424 0.8686,7.12921 -1.0664,1.06636 -6.1561,-11.04239 -8.0203,-19.08089 -1.1067,-4.77194 -2.8942,-19.63474 -3.9721,-33.02843 -2.7434,-34.08736 -7.8626,-52.99701 -14.3582,-53.03717 -4.6965,-0.0291 -156.82437,23.10693 -158.41957,24.09281 -3.63859,2.24877 -5.66047,25.70064 -5.78314,67.07897 l -0.122,41.15347 -14.65382,7.97958 c -18.67076,10.16693 -40.28415,24.38877 -57.49264,37.83069 -13.07507,10.2133 -27.7744,23.1933 -26.91508,23.7669 2.71913,1.8151 125.56777,48.856 126.77266,48.5434 2.28787,-0.5935 56.51669,-56.1177 63.50789,-65.0249 6.7408,-8.5882 12.0094,-18.75332 15.9889,-30.84895 l 2.8885,-8.77968 -4.5191,-7.50478 c -2.4855,-4.12764 -5.9515,-11.87678 -7.7021,-17.22033 -2.8095,-8.57592 -3.1705,-12.06145 -3.0772,-29.71552 0.1184,-22.39066 1.8091,-29.55344 10.4602,-44.31422 4.478,-7.64063 13.5312,-17.19328 19.138,-20.19399 2.203,-1.179 1.587,0.59519 -3.0727,8.85013 -3.2055,5.67862 -7.7622,16.02475 -10.126,22.99142 -3.7039,10.91609 -4.3792,14.98905 -4.8864,29.47078 -0.6362,18.1645 0.8522,26.30267 7.0462,38.5258 3.8472,7.59218 13.5131,16.65057 21.3534,20.0113 7.0325,3.01448 21.5491,6.20241 22.7545,4.99704 0.4657,-0.46569 -0.9992,-4.07291 -3.2552,-8.01604 -5.0758,-8.87155 -7.9047,-20.49071 -9.0056,-36.98888 -0.8704,-13.04306 0.8019,-28.72894 3.7926,-35.57375 1.5819,-3.62053 1.6556,-3.48835 1.992,3.57375 0.6584,13.82029 4.4862,37.20801 7.5772,46.29585 4.4977,13.22384 7.7953,19.06542 17.4774,30.9605 4.7568,5.84404 8.6487,11.00372 8.6487,11.46597 0,0.46224 -9.8795,0.63883 -21.9545,0.3924 l -21.9546,-0.44805 -4.7723,13.99995 c -8.5207,24.996 -28.3959,61.7187 -47.1257,87.0722 -3.0394,4.1144 -5.5262,7.9643 -5.5262,8.5555 0,1.082 67.7466,27.7609 72.6067,28.5928 4.0972,0.7013 21.3496,-26.0122 35.6631,-55.2205 6.7382,-13.75 12.6917,-25 13.23,-25 0.9028,0 -0.013,3.6588 -6.0314,24.0999 -4.3318,14.7125 -10.2042,28.1125 -19.5665,44.6479 -5.2473,9.2675 -9.0125,17.3273 -8.3813,17.9409 1.6373,1.5916 20.7252,9.1599 23.3099,9.2423 1.4015,0.045 3.8985,-3.4883 7.0873,-10.0276 z"
           id="path3276"
           transform="translate(-239.56017,-450.24439)" />
        <path
           style="fill:#803300;stroke-width:1.33333"
           d="m 832.00001,835.82056 c 74.04039,-17.8124 96.18962,-23.58543 98.23752,-25.60487 0.86396,-0.85196 2.55448,-8.74901 3.7567,-17.54901 2.56097,-18.74583 6.88458,-41.10543 13.60218,-70.34376 2.65496,-11.55572 4.4409,-21.39672 3.96875,-21.86887 -1.68733,-1.68733 -43.16268,1.93603 -47.43192,4.14373 -4.78485,2.47435 -8.14761,8.29151 -8.38093,14.49803 -0.21646,5.75756 1.08849,7.87245 7.90308,12.80832 3.11045,2.25293 7.46806,7.24616 9.6836,11.09605 5.1807,9.00244 6.54762,10.6925 10.9829,13.57919 2.01038,1.30845 3.32496,2.91337 2.92132,3.56648 -1.32644,2.14623 -13.34096,1.24128 -21.3678,-1.60945 -8.39161,-2.9803 -21.37378,-3.88902 -30.98878,-2.16916 l -5.78004,1.03388 0.94062,-4.36722 c 1.26468,-5.87169 4.23763,-11.63281 8.18026,-15.85205 l 3.25636,-3.48483 -4.17754,-3.51517 c -2.68198,-2.25673 -5.76585,-3.51517 -8.61413,-3.51517 -4.72697,0 -72.19728,14.24418 -105.1247,22.19369 -13.08949,3.16013 -20.0275,5.45376 -20.54044,6.79043 -0.426,1.11013 0.21852,13.49285 1.43228,27.51716 1.21375,14.02429 2.59499,32.54872 3.06944,41.16538 0.47444,8.61667 1.32379,15.66667 1.88744,15.66667 0.56366,0 4.2256,2.68465 8.13766,5.96589 5.56853,4.6706 7.83656,5.8013 10.44617,5.20776 1.83333,-0.41696 30.63333,-7.32586 64,-15.3531 z"
           id="path3300"
           transform="translate(-239.56017,-450.24439)" />
        <path
           style="fill:#803300;stroke-width:1.33333"
           d="m 1163.5089,1353.2113 c -9.8505,-21.5614 -18.1254,-52.5382 -20.9945,-78.5917 -2.5415,-23.0787 -0.1021,-64.4298 5.0074,-84.8821 0.603,-2.414 -0.1699,-3.3162 -4.395,-5.1302 -6.1988,-2.6614 -17.7367,-6.8974 -25.4735,-9.3522 l -5.68,-1.8022 -4.8382,9.6069 c -9.7255,19.311 -14.0732,35.0793 -16.2512,58.9402 l -1.0954,12 -2.5024,-5.3333 c -1.699,-3.6212 -2.6697,-9.2992 -3.0236,-17.6867 -0.7506,-17.7876 2.3927,-30.6298 13.5028,-55.1671 l 3.4051,-7.5204 -11.5852,-4.335 c -6.3719,-2.3843 -14.5285,-5.4781 -18.1259,-6.8752 l -6.5407,-2.5402 0.8153,27.0623 c 1.8541,61.5404 8.0864,91.2535 25.2744,120.4992 8.9316,15.1971 28.6579,35.466 40.325,41.4341 4.4,2.2508 10.9394,5.6756 14.532,7.6107 3.5925,1.9351 7.2294,3.5183 8.0819,3.5183 0.8525,0 2.7131,1.0517 4.1347,2.3373 3.1329,2.8329 9.1198,6.8229 9.5957,6.3949 0.1893,-0.1702 -1.6866,-4.7546 -4.1687,-10.1876 z"
           id="path3270"
           transform="translate(-239.56017,-450.24439)" />
        <path
           style="fill:#803300;stroke-width:1.33333"
           d="m 704.99778,846.96414 4.33111,-3.6308 -1.30389,-8 c -0.71715,-4.4 -2.78418,-20.51802 -4.5934,-35.81785 -1.80923,-15.29981 -3.60914,-28.13747 -3.99979,-28.52812 -1.26492,-1.26493 -14.39328,-2.92 -30.35224,-3.82647 -18.54147,-1.05314 -25.78431,0.50119 -32.69176,7.01575 -6.35825,5.9966 -5.36487,9.54641 5.57029,19.90517 10.06907,9.53832 12.02512,14.42106 7.30754,18.24112 -3.64462,2.95123 -9.36847,2.37256 -17.48383,-1.76758 -2.75489,-1.40544 -6.18605,-2.55535 -7.62479,-2.55535 -5.45566,0 -17.77697,19.1886 -15.7362,24.50677 0.8545,2.22678 7.61607,3.83347 50.91252,12.09787 37.02183,7.06669 39.87355,7.21404 45.66444,2.35949 z"
           id="path3302"
           transform="translate(-239.56017,-450.24439)" />
        <path
           style="fill:#803300;stroke-width:1.33333"
           d="m 917.34455,951.00001 c 0.009,-10.10943 1.57096,-35.73609 4.83774,-79.40817 l 0.8783,-11.7415 -3.19695,0.74844 c -1.75833,0.41166 -36.38763,8.19295 -76.95401,17.29178 l -73.75706,16.54332 -7.18283,7.78306 -7.18284,7.78307 -0.0601,9.48309 -0.0601,9.4831 7,0.7882 c 3.85,0.4335 18.4,1.48992 32.33333,2.34758 l 25.33334,1.55939 10.66666,10.30211 c 13.6989,13.23069 19.65951,15.60915 43.05888,17.18167 9.31762,0.62617 23.09112,1.22468 30.60779,1.33001 l 13.66671,0.19152 0.0107,-11.66667 z"
           id="path3286"
           transform="translate(-239.56017,-450.24439)" />
        <path
           style="fill:#803300;stroke-width:1.33333"
           d="m 680.59626,933.4675 c 4.71484,-2.32112 10.14158,-6.08501 12.05942,-8.36424 3.45881,-4.11057 3.56714,-4.13797 13.41565,-3.39313 l 9.92868,0.75091 v -4.45511 c 0,-3.58611 -0.84524,-4.97929 -4.33333,-7.14255 -5.40986,-3.35509 -11.6689,-10.00177 -15.56603,-16.53004 -1.64164,-2.75 -3.14519,-5 -3.34121,-5 -0.19603,0 -8.99708,4.10938 -19.55792,9.13194 -10.56083,5.02256 -24.15151,11.14058 -30.20151,13.59561 -6.05,2.45503 -11,5.15564 -11,6.00135 0,1.95654 6.61187,10.99438 10.97836,15.00648 4.72315,4.3398 9.68313,5.59596 20.03355,5.07369 6.79205,-0.34271 11.1235,-1.49425 17.58434,-4.67491 z"
           id="path3292"
           transform="translate(-239.56017,-450.24439)" />
        <path
           style="fill:#803300;stroke-width:1.33333"
           d="m 1062.6667,1881.827 c 0,-13.0108 -3.9868,-92.5986 -5.2921,-105.6452 -0.687,-6.8667 -2.5867,-16.9908 -4.2216,-22.4979 l -2.9725,-10.0129 -7.9525,0.8312 c -4.3739,0.4572 -9.949,0.8312 -12.3892,0.8312 -4.0925,0 -5.0437,0.905 -12.2612,11.6666 -17.4829,26.0676 -57.57759,95.3092 -57.57759,99.4338 0,2.6074 33.65534,15.3144 60.87609,22.9845 14.1342,3.9827 36.6766,9.4072 40.7906,9.8157 0.55,0.055 1,-3.2785 1,-7.407 z"
           id="path3246"
           transform="translate(-239.56017,-450.24439)" />
        <path
           style="fill:#803300;stroke-width:1.33333"
           d="m 326.83236,1949.9472 c 7.27447,-2.5596 22.36675,-11.3565 31.16765,-18.1669 8.86245,-6.858 22.86216,-16.4243 28.75586,-19.6495 7.91723,-4.3325 8.34338,-5.442 5.6328,-14.6656 l -2.38866,-8.1281 -10,-0.015 c -25.27218,-0.037 -40.18485,-19.1392 -27.09082,-34.7005 1.90836,-2.268 8.15206,-7.6879 13.8749,-12.0443 11.74488,-8.9406 14.54925,-12.2901 14.54925,-17.3774 0,-4.7343 -1.06664,-5.4491 -17.73949,-11.8891 C 339.4176,1803.9724 332,1795.7875 332,1778.4482 c 0,-22.3363 10.4354,-71.3044 21.06515,-98.8482 l 3.70488,-9.6 -4.94449,-19.3333 c -7.73411,-30.2409 -10.79307,-49.2925 -10.27428,-63.9897 L 342,1573.9638 l 13.63446,-22.7576 c 16.12353,-26.912 22.00761,-34.08 30.72335,-37.427 16.1492,-6.2014 47.81929,-0.076 132.39588,25.6078 18.01453,5.4705 33.69236,9.9464 34.83962,9.9464 1.73068,0 2.2509,-2.8599 3.05447,-16.7919 0.53268,-9.2355 0.45485,-17.2941 -0.17296,-17.908 -1.61137,-1.5757 -50.9584,-14.8591 -76.08536,-20.4808 -50.62276,-11.326 -102.92695,-17.1773 -114.43471,-12.8021 -1.9537,0.7428 -8.45764,4.9145 -14.45318,9.2706 -5.99555,4.356 -16.28613,11.0047 -22.86795,14.7747 -13.14158,7.5275 -17.35966,10.9043 -19.90803,15.9375 -2.60909,5.153 -5.61991,19.4069 -10.70224,50.6666 -4.75427,29.2419 -13.38532,72.5823 -26.55271,133.3334 -11.10029,51.214 -15.23484,78.0597 -17.5778,114.133 -0.74854,11.5252 -0.51988,14.2142 1.58631,18.6526 2.46293,5.1902 12.37752,16.0385 16.95129,18.5477 1.84436,1.0119 4.30866,9.0499 10.21924,33.3333 8.85135,36.3655 11.99564,45.6976 17.51491,51.9838 4.26032,4.8522 13.53715,10.0136 18.00111,10.0152 1.5578,5e-4 5.4578,-0.9227 8.66666,-2.0518 z"
           id="path3244"
           transform="translate(-239.56017,-450.24439)" />
        <path
           style="fill:#803300;stroke-width:1.33333"
           d="m 1090.809,2360.5376 4.809,-0.8245 0.8693,-13.2659 c 1.2799,-19.5296 5.7135,-26.6085 17.8844,-28.5546 10.345,-1.6543 21.6547,8.4389 24.252,21.6433 2.3519,11.9564 2.119,11.7169 7.4432,7.656 l 4.7581,-3.6291 12.2542,4.0948 c 15.5212,5.1867 28.5481,6.8652 29.7134,3.8286 0.4447,-1.159 -1.0021,-6.4675 -3.2151,-11.7967 -7.505,-18.0729 -8.1835,-32.2343 -1.9603,-40.9167 1.5536,-2.1674 11.2768,-7.8388 26.2921,-15.3356 21.1255,-10.5473 23.4638,-12.0342 20.6254,-13.1156 -6.3464,-2.4176 -52.9289,-15.416 -70.7447,-19.7406 l -18.2101,-4.4204 -19.79,7.0493 c -22.1327,7.884 -42.3672,17.1404 -67.1232,30.7063 -9.181,5.0309 -25.949,12.563 -37.3334,16.7701 -32.64082,12.0623 -39.99995,16.458 -39.99995,23.8931 0,3.5221 1.15237,5.4848 5.55624,9.4634 10.23109,9.2432 44.18471,23.3342 64.44371,26.7444 10.1793,1.7136 28.7091,1.5964 39.4757,-0.2496 z"
           id="path3224"
           transform="translate(-239.56017,-450.24439)" />
        <path
           style="fill:#803300;stroke-width:1.33333"
           d="m 1338.2804,2280.4168 c 0.9163,-2.3877 -7.894,-67.3216 -11.0482,-81.4286 -2.6318,-11.7703 -6.7453,-19.163 -20.3411,-36.5563 -6.5357,-8.3613 -13.0906,-17.5789 -14.5666,-20.4837 -2.8768,-5.6619 -8.3109,-22.3135 -10.9075,-33.4238 l -1.5913,-6.8088 -15.8671,-4.9525 c -32.2341,-10.0609 -56.5214,-13.4112 -89.8182,-12.3897 -25.3092,0.7764 -38.5698,2.8432 -62.6003,9.757 -42.9875,12.3682 -73.8672,29.7496 -105.1284,59.1746 -17.53535,16.5053 -27.8999,30.0636 -36.81371,48.1576 -9.89172,20.079 -13.81996,32.8645 -14.50302,47.2041 l -0.57161,12 6.46263,-12 c 23.20366,-43.0853 45.52141,-67.3799 81.19271,-88.3843 l 6.8453,-4.0308 0.7069,7.5408 c 0.5659,6.0374 0.2644,7.8782 -1.512,9.2323 -1.2204,0.9303 -7.2957,5.3719 -13.5006,9.8701 -12.5077,9.0674 -35.43758,30.7063 -39.0285,36.8312 l -2.31021,3.9406 48.31021,-0.1667 c 81.4137,-0.2807 107.3284,4.4981 220.9769,40.7491 35.0672,11.1854 61.9288,18.1164 71.0419,18.3305 2.3077,0.055 4.0346,-0.7627 4.5718,-2.1627 z"
           id="path3226"
           transform="translate(-239.56017,-450.24439)" />
        <path
           style="fill:#803300;stroke-width:1.33333"
           d="m 910.66668,2244.1147 c 6.96667,-2.3163 16.68481,-4.9063 21.59588,-5.7556 l 8.9292,-1.5443 1.48023,-6.1702 c 0.81412,-3.3936 4.10994,-12.713 7.32406,-20.7098 3.21411,-7.9966 5.67346,-14.7097 5.46522,-14.918 -0.75142,-0.7514 -11.09878,3.4372 -22.1661,8.973 -16.33594,8.171 -27.74498,16.0953 -38.9663,27.0646 -9.2098,9.003 -22.32886,25.236 -22.32886,27.629 0,0.5812 5.85,-1.5115 13,-4.6503 7.15,-3.1389 18.7,-7.6021 25.66667,-9.9184 z"
           id="path3228"
           transform="translate(-239.56017,-450.24439)" />
        <path
           style="display:inline;fill:#803300;stroke-width:1.33333"
           d="m 1027.3814,1263 c 0.074,-34.277 5.1338,-53.9858 22.9242,-89.2904 5.6236,-11.1598 9.9553,-20.5241 9.6262,-20.8096 -0.3292,-0.2855 -8.6284,-3.6609 -18.4427,-7.5009 -14.3462,-5.6132 -18.0924,-6.6307 -19.1102,-5.1905 -3.8517,5.4502 -16.0282,32.8464 -18.6261,41.9071 -2.5154,8.773 -3.0278,13.8089 -3.041,29.8843 -0.019,22.5393 2.2701,34.6229 9.1459,48.289 4.2044,8.3566 15.3384,24.9197 16.809,25.0055 0.3666,0.021 0.6883,-10.0112 0.7147,-22.2945 z"
           id="path3272"
           transform="translate(-239.56017,-450.24439)" />
        <path
           style="display:inline;fill:#803300;stroke-width:1.33333"
           d="m 1055.3073,1068.6667 c 15.6238,-23.5368 28.4976,-47.799 35.8738,-67.6085 5.9241,-15.90988 5.9856,-17.71972 0.695,-20.4556 -2.2681,-1.17291 -4.2955,-1.93831 -4.5053,-1.70091 -0.2097,0.23742 -2.1758,4.73412 -4.3689,9.99271 -8.4406,20.2382 -12.4625,25.6029 -43.6634,58.2429 -16.5029,17.264 -30.0052,31.9447 -30.0052,32.6239 0,0.6792 6.45,3.9432 14.3334,7.2533 10.7781,4.5256 14.7235,5.6423 15.9064,4.502 0.8652,-0.8341 7.9456,-11.1165 15.7342,-22.8498 z"
           id="path3278"
           transform="translate(-239.56017,-450.24439)" />
        <path
           style="display:inline;fill:#803300;stroke-width:1.33333"
           d="m 1057.1709,791.39701 c 36.944,-4.74521 67.4546,-8.91136 67.8013,-9.25809 0.8081,-0.80812 -6.2706,-10.13891 -7.6918,-10.13891 -0.5884,0 -6.3672,1.26112 -12.8418,2.80251 -9.858,2.34685 -14.6985,2.7073 -29.7719,2.21702 -19.4533,-0.63274 -30.366,-3.47473 -35.4853,-9.24144 -2.5103,-2.82769 -2.5077,-2.8311 1.4853,-1.93922 2.2,0.4914 11.8,1.24021 21.3333,1.66401 14.4646,0.64303 19.5399,0.31297 30.6656,-1.99428 12.2202,-2.53421 32.6824,-10.83483 32.6586,-13.24811 -0.01,-0.50993 -4.6551,-0.97841 -10.3334,-1.04104 -10.0383,-0.11066 -21.6053,-2.76324 -44.2939,-10.15734 -6.8597,-2.23556 -8.094,-3.02404 -6,-3.83279 3.9476,-1.52457 18.7495,-0.0691 43.1517,4.24308 25.2136,4.45559 26.39,4.55829 24.373,2.12797 -2.5916,-3.12268 -24.6838,-13.97737 -34.2216,-16.8143 -9.693,-2.8831 -37.6361,-6.76402 -68.6667,-9.5369 -23.0343,-2.05833 -25.7071,-2.95817 -15.9976,-5.38597 5.1007,-1.2754 16.8371,-1.86572 38.5777,-1.94041 l 31.2467,-0.10734 3.2726,-5.24106 c 1.7999,-2.88258 6.5008,-8.94684 10.4464,-13.47614 6.4323,-7.38376 6.9015,-8.32153 4.5386,-9.07148 -3.1179,-0.98959 -21.6123,1.33303 -32.2768,4.05346 -11.2569,2.87156 -10.9121,3.1076 -9.8568,-6.7469 0.5105,-4.76667 0.6855,-8.66667 0.3889,-8.66667 -0.2966,0 -4.9768,1.50931 -10.4004,3.354 -12.3349,4.19535 -24.0371,10.11109 -38.6059,19.51615 l -11.33335,7.31634 -4.35214,21.24009 c -5.78716,28.24363 -13.64786,72.167 -13.64786,76.26044 0,2.97225 0.40229,3.20191 4.33333,2.47371 2.38333,-0.44151 34.56022,-4.68518 71.50422,-9.43039 z"
           id="path3308"
           transform="translate(-239.56017,-450.24439)" />
      </g>
      <g
         id="layer5"
         inkscape:label="02"
         style="display:inline;fill:#916f6f"
         sodipodi:insensitive="true"
         transform="translate(239.56017,450.24439)">
        <path
           style="fill:#916f6f;stroke-width:1.33333"
           d="m 1068.8172,2567.3107 c 18.2749,-2.3669 43.2143,-6.8817 47.9415,-8.6789 2.7737,-1.0547 3.2413,-2.1027 3.2413,-7.2654 0,-4.9993 -0.4262,-6.033 -2.4875,-6.033 -4.7281,0 -31.9112,-6.6466 -38.3673,-9.3811 -9.8062,-4.1536 -23.7099,-11.1467 -24.6162,-12.3811 -0.4424,-0.6025 -5.261,-3.0329 -10.7079,-5.4008 -5.4469,-2.3678 -15.203,-7.5062 -21.6802,-11.4186 -7.5808,-4.579 -13.7701,-7.3382 -17.3717,-7.744 -5.34869,-0.603 -5.86913,-0.3258 -11.82121,6.2944 -8.36523,9.3041 -15.00715,20.5173 -19.55715,33.0172 -4.0158,11.0322 -7.36677,28.8956 -5.87372,31.3113 1.31552,2.1285 81.05178,0.3024 101.30008,-2.32 z"
           id="path3218"
           transform="translate(-239.56017,-450.24439)" />
        <path
           style="fill:#916f6f;stroke-width:1.33333"
           d="m 981.33335,2402.6227 c 51.04185,-3.1665 78.24405,-8.2204 104.99995,-19.5073 7.494,-3.1614 8.3334,-3.9043 8.3334,-7.3758 0,-3.7605 -0.1294,-3.833 -5,-2.8 -2.75,0.5832 -13.4,0.9554 -23.6667,0.8271 -16.0147,-0.2003 -20.2218,-0.7269 -29.6134,-3.7079 -6.0207,-1.9109 -11.2773,-4.0092 -11.6812,-4.6628 -0.4039,-0.6534 -4.7778,-2.5237 -9.7199,-4.1561 -4.942,-1.6323 -14.3855,-5.3321 -20.98549,-8.2219 -19.96318,-8.7406 -24.76056,-7.3497 -33.28037,9.6487 -6.02248,12.0159 -14.66929,38.9392 -13.03177,40.5768 1.07481,1.0748 8.53484,0.9371 33.64548,-0.6208 z"
           id="path3222"
           transform="translate(-239.56017,-450.24439)" />
        <path
           style="fill:#916f6f;stroke-width:1.33333"
           d="m 546.56335,2051 c 5.6892,-21.343 7.94832,-56.6013 5.5744,-87 -1.77793,-22.7668 -6.66642,-48.731 -9.13774,-48.5333 -0.91667,0.073 -6.98716,0.2233 -13.48999,0.3333 l -11.82332,0.2 -1.38131,6.3334 c -0.75972,3.4833 -3.87345,15.9333 -6.9194,27.6666 -3.04594,11.7334 -6.36214,24.6334 -7.36933,28.6667 -1.0072,4.0333 -4.87524,14.4419 -8.59565,23.13 -8.01392,18.7147 -9.17587,24.2315 -6.28224,29.8271 3.89798,7.5378 19.10697,15.2716 41.5279,21.1168 16.13779,4.207 16.31591,4.1897 17.89668,-1.7406 z"
           id="path3234"
           transform="translate(-239.56017,-450.24439)" />
        <path
           style="fill:#916f6f;stroke-width:1.33333"
           d="m 379.28166,2007.8816 c 14.35163,-15.8854 33.85612,-54.9582 32.28599,-64.6774 -0.69928,-4.3287 -10.10362,-25.8708 -11.294,-25.8708 -0.93775,0 -9.95178,6.6904 -11.60698,8.6149 -2.4034,2.7944 -17.15486,12.2641 -26,16.6907 -9.73356,4.871 -32,20.885 -32,23.0144 0,3.3168 39.71147,47.68 42.68055,47.68 0.55503,0 3.22553,-2.4532 5.93444,-5.4518 z"
           id="path3240"
           transform="translate(-239.56017,-450.24439)" />
      </g>
      <path
         style="fill:#f4eed7;stroke-width:1.33333"
         d="m 688.00001,867.41204 c 0,-1.05672 -0.50135,-2.23116 -1.11409,-2.60987 -1.52823,-0.94449 -59.00448,-11.46883 -62.63442,-11.46883 -2.51562,0 -2.91816,0.73568 -2.91816,5.33334 0,5.25517 0.0733,5.33489 5,5.43965 2.75,0.0585 16.7,1.18056 31,2.49353 14.3,1.31296 27.05,2.46512 28.33334,2.56035 1.28333,0.0952 2.33333,-0.69145 2.33333,-1.74817 z"
         id="path3296" />
      <g
         id="layer6"
         inkscape:label="03"
         style="display:inline;fill:#ff0000"
         transform="translate(239.56017,450.24439)">
        <path
           style="fill:#ff0000;stroke-width:1.33333"
           d="m 955.17861,925.64186 c -0.89496,-24.26837 0.30848,-44.10688 4.3132,-71.10213 1.15264,-7.76983 2.51724,-14.809 3.03244,-15.6426 0.5152,-0.83361 5.708,-2.15945 11.53958,-2.94633 18.02674,-2.4324 174.49407,-26.69636 176.41967,-27.35804 2.3908,-0.82154 0.4031,-3.27716 -8.1153,-10.02538 -5.3304,-4.22276 -7.0723,-4.90129 -11.3333,-4.41484 -22.5453,2.57386 -156.35254,19.49294 -158.68913,20.06524 -2.08082,0.50966 -3.26186,0.0169 -3.89128,-1.62328 -1.02573,-2.67298 3.65259,-32.1281 12.31234,-77.51958 3.24492,-17.0088 5.89985,-31.5588 5.89985,-32.33334 0,-0.8759 -4.19263,-1.40824 -11.09115,-1.40824 h -11.09114 l -5.63255,23.66667 c -6.73672,28.30613 -11.13669,51.96409 -14.19671,76.33333 -1.24312,9.9 -2.46906,18.22 -2.72433,18.48888 -0.87448,0.92116 -34.63443,9.5034 -97.93079,24.89535 -34.83333,8.47052 -65.64887,16.01504 -68.47896,16.76563 l -5.14563,1.36469 0.9438,8.90939 c 0.5191,4.90017 1.10532,9.08009 1.30272,9.28872 0.35479,0.37493 100.96113,-21.8119 140.46091,-30.97602 11.2289,-2.60514 21.06694,-4.73664 21.86231,-4.73664 0.99189,0 1.16501,3.24582 0.55113,10.33334 -5.08712,58.73297 -7.98901,103.79072 -6.80764,105.70223 0.42696,0.69082 6.75803,-1.74574 14.06906,-5.41458 l 13.29276,-6.67061 z"
           id="path3288"
           transform="translate(-239.56017,-450.24439)" />
        <path
           style="fill:#ff0000;stroke-width:1.33333"
           d="m 1154.9538,1163.9303 3.5198,-10.7364 -2.9035,-1.1185 c -1.5969,-0.6152 -25.4034,-10.1225 -52.9034,-21.1272 -27.5,-11.0048 -69.8,-27.8336 -94,-37.3975 -24.20002,-9.5638 -57.80002,-22.8658 -74.66669,-29.5602 -38.13696,-15.1363 -116.26438,-45.2277 -158.66667,-61.1116 l -32,-11.98719 -0.35421,-37.51481 -0.35421,-37.5148 -6.97912,0.40228 -6.97912,0.4023 -0.82675,25.52092 c -0.45472,14.03649 -1.24228,28.29185 -1.75016,31.67857 -1.06176,7.08035 -5.56804,20.70807 -10.50123,31.75743 l -3.40368,7.6236 4.90758,0.8414 c 26.96909,4.6236 78.3339,23.5849 369.57426,136.428 34.1,13.2123 62.6227,24.0511 63.3837,24.0862 0.761,0.035 2.9676,-4.7675 4.9034,-10.6725 z"
           id="path3274"
           transform="translate(-239.56017,-450.24439)" />
        <path
           style="fill:#ff0000;stroke-width:1.33333"
           d="m 733.20321,836.01469 3.20321,-0.0147 -0.87614,-16.33333 c -1.06176,-19.79387 -4.68118,-58.29281 -5.62367,-59.81779 -0.80529,-1.303 -13.75999,3.53264 -16.41245,6.12631 -1.56242,1.52779 -1.30523,6.58371 1.70902,33.59629 4.49623,40.29348 3.94884,38.25224 9.98978,37.25302 2.64388,-0.43734 6.24849,-0.80175 8.01025,-0.80982 z"
           id="path3304"
           transform="translate(-239.56017,-450.24439)" />
        <path
           style="fill:#ff0000;stroke-width:1.33333"
           d="m 747.62306,899.74106 c 6.86479,-4.5429 12.38884,-15.13208 12.34767,-23.6695 -0.0784,-16.25612 -15.11016,-29.78995 -30.75624,-27.69138 -15.85479,2.12658 -26.89951,16.91128 -24.54639,32.85836 1.21827,8.25624 5.21112,14.31128 12.5406,19.01746 5.56372,3.5724 6.99044,3.89201 15.57824,3.4898 7.54499,-0.35336 10.5403,-1.1619 14.83612,-4.00474 z"
           id="path3294"
           transform="translate(-239.56017,-450.24439)" />
        <path
           style="fill:#ff0000;stroke-width:1.33333"
           d="m 959.62337,1828.6667 c 10.14755,-18.6329 26.71575,-46.7009 40.88483,-69.2627 4.1205,-6.5612 7.4918,-12.4112 7.4918,-13 0,-0.5889 -1.8426,-1.0706 -4.0947,-1.0706 h -4.0947 l 0.8482,-27 c 1.0374,-33.0182 3.1161,-71.1424 4.1286,-75.718 0.7037,-3.1799 0.1451,-3.5975 -9.23313,-6.9036 -9.2923,-3.2758 -10.11666,-3.3643 -11.92874,-1.282 -3.75616,4.3164 -49.96013,74.4521 -62.52048,94.9036 -17.59262,28.6453 -46.43837,81.1345 -46.43837,84.5017 0,1.3817 41.26013,23.4983 43.83771,23.4983 0.6859,0 5.90178,-6.15 11.59085,-13.6667 14.01284,-18.5144 35.18153,-44.8076 36.95915,-45.9063 1.64993,-1.0197 -2.26276,6.1592 -22.23148,40.7902 -7.78592,13.5028 -14.15623,24.9765 -14.15623,25.4972 0,0.5205 3.45,2.4649 7.66667,4.3208 9.24066,4.067 7.43584,5.7372 21.29002,-19.7019 z"
           id="path3250"
           transform="translate(-239.56017,-450.24439)" />
        <path
           style="fill:#ff0000;stroke-width:1.33333"
           d="m 1319.235,1720.4423 c 2.1096,-5.4975 26.4853,-45.8703 40.1422,-66.4863 30.3596,-45.8298 57.0658,-78.9965 95.7695,-118.9368 13.6693,-14.1061 24.8533,-26.5358 24.8533,-27.6214 0,-1.0856 -1.0378,-4.1504 -2.3064,-6.8106 -2.6542,-5.566 -0.729,-5.5826 -26.3602,0.2287 -15.282,3.4648 -17.765,3.6377 -55.3334,3.8517 l -39.3333,0.2243 -16.5347,7.6828 c -45.6326,21.2031 -91.44,34.7241 -144.3439,42.6063 -12.4498,1.8549 -13.2044,2.1684 -22.6667,9.4172 -9.7596,7.4766 -20.114,13.0729 -32.1214,17.3608 -5.4849,1.9586 -6.3333,2.7558 -6.3333,5.9513 0,4.5021 3.1214,8.8904 27.8957,39.2173 10.6907,13.087 19.8889,24.5859 20.4405,25.5535 0.6636,1.164 -2.8589,5.9495 -10.4134,14.1467 -10.897,11.8238 -11.2762,12.44 -8.3363,13.542 22.1245,8.293 142.7894,41.9657 151.2708,42.2134 1.5716,0.045 3.2415,-0.9174 3.711,-2.1409 z"
           id="path3254"
           transform="translate(-239.56017,-450.24439)" />
        <path
           style="fill:#ff0000;stroke-width:1.33333"
           d="m 1005.3333,1624.4103 c 0,-0.5077 -3.2708,-9.0577 -7.26859,-19 -10.79987,-26.8591 -13.38431,-37.6811 -13.39179,-56.0769 -0.005,-14.0128 0.30764,-15.9724 3.63843,-22.7547 11.05152,-22.5031 77.31975,-78.5111 148.35535,-125.3856 15.4,-10.1621 29.2,-19.3211 30.6667,-20.3532 2.6661,-1.8763 2.6661,-1.8772 0,-4.8297 -1.4658,-1.6243 -5.3658,-4.5079 -8.6667,-6.408 -3.3009,-1.9003 -7.8016,-4.7685 -10.0016,-6.3738 -2.2,-1.6055 -5.5,-3.3685 -7.3333,-3.918 -1.8334,-0.5496 -6.2957,-2.4192 -9.9162,-4.1548 -3.6206,-1.7356 -7.9327,-3.1556 -9.5824,-3.1556 -7.0287,0 -40.4675,26.438 -66.5085,52.5843 -42.0289,42.1987 -80.35869,97.5528 -113.78772,164.3271 l -9.46755,18.9113 4.13239,3.4772 c 8.01416,6.7435 29.92051,18.6164 48.41776,26.2417 19.31982,7.9646 20.71222,8.4262 20.71222,6.8687 z"
           id="path3260"
           transform="translate(-239.56017,-450.24439)" />
        <path
           style="fill:#ff0000;stroke-width:1.33333"
           d="m 1103.3849,2030.5131 c 7.9076,-2.6221 14.3314,-5.7141 17.4219,-8.3856 l 4.8955,-4.2319 -2.1169,-15.4886 c -4.4517,-32.5718 -28.1822,-122.6291 -45.4299,-172.407 l -4.6199,-13.3333 -0.1012,9.6033 c -0.2619,24.8687 10.4188,200.6578 12.5607,206.73 0.8737,2.477 3.5921,2.0883 17.3897,-2.4869 z"
           id="path3236"
           transform="translate(-239.56017,-450.24439)" />
      </g>
    </g>
    <g
       id="layer15"
       inkscape:label="Man"
       style="display:inline">
      <g
         id="layer7"
         inkscape:label="01"
         style="display:inline;fill:#ffeeaa">
        <path
           style="fill:#ffeeaa;stroke-width:1.33333"
           d="m 1496.4418,543.00001 c 1.7738,-11.33416 2.2838,-22.57496 1.1944,-26.3298 -1.0782,-3.71638 -4.8427,-7.22579 -20.6582,-19.25822 -3.1646,-2.4076 -8.5917,-4.61496 -14.6732,-5.96796 -5.5462,-1.23392 -12.2004,-3.83829 -15.6446,-6.12322 -6.6726,-4.42656 -14.6904,-5.17702 -28.1136,-2.63134 -7.445,1.41188 -16.7798,6.62938 -18.1227,10.1293 -1.6277,4.24154 1.7887,5.08061 10.5385,2.58826 4.604,-1.31144 9.571,-2.71198 11.0376,-3.11232 1.6026,-0.43742 -0.2597,2.05106 -4.6666,6.23594 -7.0103,6.65698 -7.2194,7.0484 -4.7452,8.88325 3.6566,2.71179 5.021,2.49275 17.1126,-2.74723 5.9228,-2.56666 11.3828,-4.66666 12.1335,-4.66666 0.7505,0 -1.9712,2.97322 -6.0484,6.60717 -8.47,7.5492 -11.7467,13.56027 -9.1181,16.72736 0.9122,1.09935 2.815,1.9988 4.2284,1.9988 3.2281,0 9.3986,-3.142 11.7613,-5.98893 2.4824,-2.99107 13.2807,-9.184 14.2768,-8.18787 0.4476,0.44761 -2.2795,4.0846 -6.0601,8.08217 -3.7808,3.99759 -6.8742,7.85518 -6.8742,8.57243 0,3.96407 1.8863,5.5222 6.6852,5.5222 4.4319,0 5.7507,-0.81713 10.5284,-6.52367 6.0535,-7.23018 11.7412,-10.07072 22.9756,-11.47437 l 7.4748,-0.93391 0.969,16.79931 c 0.9722,16.85697 2.3494,21.12349 3.8088,11.79931 z"
           id="path3322"
           transform="translate(-239.56017,-450.24439)" />
        <path
           style="fill:#ffeeaa;stroke-width:1.33333"
           d="m 1390,614.62223 c 11.5696,-7.78917 16.4934,-9.44824 33.6984,-11.35489 25.9967,-2.88091 27.496,-4.00251 51.0106,-38.1604 l 7.9577,-11.55972 -0.019,-11.10695 c -0.023,-14.10097 -0.7596,-17.00253 -4.0946,-16.1304 -4.3908,1.14822 -10.4687,9.34518 -11.4126,15.39159 -0.7245,4.64176 -2.5594,7.35805 -10.4368,15.45047 l -9.5577,9.81858 -27.1972,-0.22026 c -14.9585,-0.1212 -27.3787,-0.40171 -27.6005,-0.62347 -0.2218,-0.22176 2.009,-1.99952 4.9573,-3.95057 2.9483,-1.95106 5.3604,-4.38308 5.3604,-5.40451 4e-4,-1.82308 -27.1713,-24.77169 -29.33,-24.77169 -0.6059,0 -3.3095,5.32686 -6.0081,11.83748 -3.7131,8.95808 -6.4984,13.40537 -11.4507,18.28321 -3.5993,3.54515 -6.5357,7.36828 -6.5253,8.49585 0.023,2.43088 8.844,18.8806 15.5165,28.93324 6.8599,10.33478 16.4488,20.60747 18.2563,19.55814 0.848,-0.49228 3.9417,-2.51086 6.875,-4.4857 z"
           id="path3318"
           transform="translate(-239.56017,-450.24439)" />
        <path
           style="fill:#ffeeaa;stroke-width:1.33333"
           d="m 1378.9732,939.90662 c 26.3391,-10.43817 76.7396,-37.40806 80.221,-42.92709 0.9212,-1.46035 0.5978,-6.0136 -1.047,-14.74651 l -2.3794,-12.63384 -8.7848,-2.20664 c -4.8315,-1.21365 -13.3292,-3.96624 -18.8838,-6.11685 -8.2681,-3.20127 -11.0305,-5.0614 -15.2362,-10.25961 -6.1008,-7.54056 -11.9906,-18.78038 -14.1744,-27.04971 -0.8666,-3.28149 -2.9691,-8.48997 -4.6722,-11.5744 -3.7369,-6.76785 -6.247,-14.65429 -9.461,-29.72529 -2.3018,-10.79274 -2.7976,-11.73243 -10.3964,-19.70023 -6.2939,-6.59947 -9.4067,-8.78053 -14.7359,-10.325 -8.3244,-2.41252 -32.5266,-5.91732 -41.0897,-5.95035 L 1312,746.66668 v 11.96926 c 0,14.43048 0.9278,15.40591 15.5669,16.36619 10.217,0.6702 18.0611,4.15752 24.2461,10.77924 l 3.1461,3.36845 -9.8793,-0.74717 c -7.6372,-0.5776 -10.8326,-0.25419 -14.08,1.42509 -2.3104,1.19475 -5.9395,2.17227 -8.0646,2.17227 -3.2699,0 -4.1861,-0.81997 -5.959,-5.33333 -1.1522,-2.93334 -2.9155,-5.33334 -3.9183,-5.33334 -1.0028,0 -4.0573,3.88442 -6.7879,8.63203 -2.7306,4.74761 -7.5593,11.81744 -10.7304,15.71071 -3.1711,3.89328 -6.8815,8.7816 -8.2452,10.86294 -2.4067,3.67304 -2.4074,3.83702 -0.026,5.57842 1.3495,0.98677 5.8977,2.18378 10.107,2.66001 l 7.6534,0.86588 0.547,12.5064 c 0.3008,6.87852 1.1567,13.11613 1.9019,13.86136 0.7452,0.74523 6.1176,2.26553 11.9386,3.37847 6.2013,1.18564 11.5898,3.02849 13.0136,4.45057 2.3502,2.34745 2.0713,2.45695 -8.5063,3.33908 -16.0397,1.33765 -15.9237,1.22147 -15.9237,15.9462 0,17.12049 -0.078,17.0466 18.9322,17.88553 25.6894,1.13367 39.53,-1.88818 69.608,-15.19778 7.2637,-3.21422 13.472,-5.57878 13.7962,-5.25456 1.0178,1.01777 -14.5328,11.80402 -27.8076,19.2881 -7.0046,3.94902 -14.7118,8.793 -17.1273,10.7644 l -4.3917,3.58436 0.9772,17.56894 c 0.5374,9.66292 1.4981,17.56894 2.1349,17.56894 0.6368,0 7.3199,-2.44202 14.8513,-5.42672 z"
           id="path3290"
           transform="translate(-239.56017,-450.24439)" />
      </g>
      <g
         id="layer8"
         inkscape:label="02"
         style="display:inline">
        <path
           style="fill:#008080;stroke-width:1.33333"
           d="m 1275.3794,1021.3079 c 5.3392,-2.9473 17.333,-8.5843 26.6527,-12.5266 15.0674,-6.3736 16.5156,-7.2622 13.0693,-8.0191 -6.6046,-1.45067 -12.0682,-5.662 -15.9592,-12.30136 -3.1496,-5.37445 -3.7286,-7.84219 -3.6952,-15.75023 0.026,-6.22337 0.8089,-10.83237 2.3269,-13.70365 2.182,-4.12694 2.17,-4.5572 -0.2601,-9.33334 -1.4011,-2.75381 -3.8813,-9.50694 -5.5116,-15.00694 -1.6302,-5.5 -3.8419,-11.70576 -4.9148,-13.79058 -1.0729,-2.08481 -1.5466,-4.18481 -1.0528,-4.66666 1.4951,-1.45871 10.3004,9.4477 15.9458,19.75073 5.6605,10.33071 7.546,11.97937 10.7033,9.35908 1.4656,-1.21633 1.9977,-4.64732 2.0393,-13.14916 l 0.056,-11.50341 4.8575,11.70861 c 3.8982,9.39624 6.0278,12.66755 10.7831,16.56415 l 5.9255,4.85554 7.494,-1.89749 7.4939,-1.89748 0.4321,-8.66667 c 0.6896,-13.83316 -1.0058,-27.90708 -3.6846,-30.58589 -1.8627,-1.86265 -5.7934,-2.527 -19.4354,-3.28497 -29.6268,-1.64608 -29.7601,-1.79471 -31.4126,-35.00215 -0.6876,-13.81984 -1.6964,-27.80509 -2.2416,-31.07832 -0.9197,-5.52188 -1.3564,-6.03761 -6.052,-7.14683 -6.6837,-1.57886 -14.2725,-8.74644 -14.2725,-13.48026 0,-4.70758 1.2157,-6.8313 12.1705,-21.26043 8.5105,-11.20949 14.5067,-23.0228 14.4887,-28.54449 -0.019,-5.75128 -3.2279,-12.28098 -9.8616,-20.06515 -10.3596,-12.15636 -11.1528,-12.58565 -18.9295,-10.24519 -6.8074,2.04871 -8.3867,1.81226 -6.2836,-0.94076 18.2557,-23.8974 50.7478,-58.70299 74.2202,-79.50479 l 7.8048,-6.91673 -6.4715,-7.37691 c -11.3771,-12.96916 -19.1457,-23.55821 -25.5575,-34.83685 -3.436,-6.04393 -6.7847,-11.00577 -7.4417,-11.02629 -2.3023,-0.0719 -27.8223,16.4388 -43.2398,27.97501 -26.9265,20.14776 -63.9706,55.91555 -79.8783,77.12612 -5.8818,7.84264 -11.0207,20.56703 -11.0207,27.28847 0,8.74764 20.2434,52.81867 59.7018,129.97387 17.0898,33.41673 26.4703,50.43557 27.1398,49.23928 1.4895,-2.66156 3.8033,-17.96251 3.815,-25.22804 0.019,-11.77031 3.9254,-7.99028 6.5998,6.38629 1.4968,8.04579 0.3588,17.20869 -4.5074,36.29216 -7.2297,28.35214 -9.0042,52.48047 -6.0074,81.68351 1.3688,13.339 1.9322,15.8927 3.5063,15.8927 0.4164,0 5.1256,-2.4115 10.4648,-5.3588 z"
           id="path3280"
           transform="translate(-239.56017,-450.24439)" />
        <path
           style="fill:#008080;stroke-width:1.33333"
           d="m 1370.9746,640.22737 8.5768,-7.77264 -9.1758,-9.62238 c -9.7834,-10.25952 -17.0177,-20.77105 -26.4952,-38.49769 -3.2342,-6.04928 -6.4804,-10.99023 -7.2137,-10.97988 -2.85,0.0401 -19.3333,13.39148 -19.3333,15.65976 0,2.79597 13.87,27.16175 20.093,35.29796 6.2927,8.22723 21.5675,23.68751 23.4034,23.68751 0.8624,0 5.4276,-3.4977 10.1448,-7.77264 z"
           id="path3316"
           transform="translate(-239.56017,-450.24439)" />
        <path
           id="path3264"
           style="fill:#008080;stroke-width:1.33333"
           d="m 1580.6676,883.51587 c -30.5749,0.012 -42.4573,1.16927 -66.1719,6.44532 -18.7671,4.17531 -30.9792,9.21049 -55.791,23.0039 -39.769,22.10855 -57.3299,30.06678 -92.8926,42.08985 -11.8369,4.00186 -22.2901,7.75009 -23.2285,8.33008 -5.726,3.53885 19.1581,2.64626 39.3789,-1.41211 15.6951,-3.15004 38.8795,-9.85576 75.834,-21.9336 18.0174,-5.88858 33.2337,-10.70209 33.8145,-10.69726 4.819,0.0401 -33.1678,19.38544 -56.2774,28.66015 -28.0232,11.2467 -48.68,16.43573 -74,18.58985 -18.6982,1.59075 -19.6237,1.86112 -20.4453,5.96875 -0.4082,2.04065 -2.9386,6.58848 -5.6231,10.10547 -2.7047,3.54346 -3.9419,6.03433 -2.7734,5.58593 1.1597,-0.44504 8.5056,-2.04426 16.3223,-3.55273 43.698,-8.43285 89.7358,-5.75771 129.8535,7.54493 16.772,5.5614 45.2758,19.0094 58.8476,27.7637 74.9521,48.3463 119.6655,129.7254 119.793,218.0273 0.084,58.3224 -17.5274,108.5004 -57.1367,162.791 -2.4924,3.4163 -1.4919,3.3373 17.8613,-1.4062 31.0045,-7.5993 54.7593,-17.4192 75.2891,-31.1231 13.3487,-8.9104 35.9396,-31.8393 47.584,-48.2969 17.6438,-24.9368 46.3326,-75.3378 42.8789,-75.33 -0.9815,0 -7.7839,1.1569 -15.1172,2.5644 -13.5179,2.5945 -39.0707,5.5177 -46.5664,5.3281 -2.4746,-0.063 9.6524,-4.7443 30.5664,-11.8027 43.4812,-14.6749 48.3677,-16.6272 75.332,-30.0898 34.5416,-17.2456 72.9709,-40.464 99.7442,-60.2637 37.2366,-27.5379 49.9515,-52.6894 56.4863,-111.7402 3.1842,-28.7739 1.6463,-141.90264 -1.9785,-145.52738 -0.2524,-0.25241 -5.7902,1.34288 -12.3047,3.54492 -35.3555,11.9509 -70.4695,17.32323 -127.2793,19.47071 l -24.668,0.93164 17.334,4.45898 c 9.5333,2.45217 21.7018,6.04568 27.041,7.98438 10.6271,3.85879 14.211,6.68209 6.8184,5.37109 -2.4893,-0.44145 -13.8267,-2.03554 -25.1934,-3.54102 -32.8009,-4.34436 -43.7597,-7.2651 -80,-21.32617 -67.0603,-26.01919 -119.8921,-36.54298 -183.332,-36.51758 z m -7.9395,63.26758 c 3.78,0.0323 8.2662,0.13252 13.7539,0.28711 26.0262,0.73317 90.6167,5.5835 91.9375,6.9043 0.38,0.38004 -0.1584,0.70977 -1.1972,0.73242 -1.0389,0.0227 -6.3887,0.6416 -11.8887,1.375 -5.5,0.73341 -30.9993,1.88305 -56.666,2.55469 -52.4399,1.37225 -55.9268,1.8022 -103.1445,12.6914 -30.7467,7.09072 -49.7256,10.24445 -45.5235,7.56641 3.9199,-2.49814 79.5229,-27.94798 89.8164,-30.23437 6.5904,-1.46388 11.5723,-1.974 22.9121,-1.87696 z m 32.5235,66.57425 c 9.6243,0.03 17.4921,0.3897 16.6816,1.1269 -2.036,1.8517 -12.0663,3.8891 -30.0058,6.0918 -9.2067,1.1304 -20.2515,3.2618 -24.543,4.7383 -10.9842,3.7792 -11.5283,3.3971 -4.5879,-3.2266 3.4708,-3.3124 8.3878,-6.4768 11.334,-7.2949 3.47,-0.9634 18.747,-1.4736 31.1211,-1.4355 z"
           transform="translate(-239.56017,-450.24439)" />
      </g>
      <path
         style="fill:#008000;stroke-width:1.33333"
         d="m 1045.8436,1632.6066 c 21.7756,-5.6596 42.5886,-14.8303 62.2741,-27.4394 13.2841,-8.5088 15.1707,-10.6354 13.6041,-15.335 -1.7241,-5.1724 -8.5092,-8.1904 -21.7964,-9.6951 -13.0714,-1.4801 -18.5921,-3.5416 -18.5921,-6.9421 0,-2.8492 4.8644,-6.5286 8.6301,-6.5276 1.4868,4e-4 6.0033,1.2685 10.0366,2.8182 14.5423,5.5874 33.3692,3.3366 51.9204,-6.2072 13.3527,-6.8693 13.1589,-6.4374 4.7379,-10.5574 -6.7016,-3.2788 -15.325,-12.0084 -15.325,-15.5139 0,-0.5828 3.1939,0.4027 7.0976,2.1899 10.9194,4.999 19.7069,6.2084 33.7585,4.6457 29.4496,-3.2751 74.8184,-13.6037 105.8043,-24.0873 17.7722,-6.0131 47.5927,-18.2075 48.6303,-19.8863 0.3439,-0.5564 -7.0845,-3.5025 -16.5075,-6.5469 -20.9188,-6.7584 -52.506,-22.4139 -68.5317,-33.9663 -23.9592,-17.2712 -47.3101,-40.3408 -63.2752,-62.5128 -3.3173,-4.6071 -6.2395,-8.6219 -6.4939,-8.922 -0.7268,-0.8576 -21.7135,12.194 -46.4824,28.9071 -60.4152,40.7661 -122.7689,93.1142 -133.7708,112.3052 -3.86546,6.7425 -4.20327,8.3 -4.19349,19.3333 0.005,6.6 0.87472,16.078 1.93084,21.0621 2.38095,11.2366 12.83845,37.7895 18.74825,47.6046 5.9266,9.8428 12.3966,18.6666 13.6872,18.6666 0.5785,0 6.9272,-1.527 14.1083,-3.3934 z"
         id="path3258"
         transform="translate(-239.56017,-450.24439)" />
      <g
         id="layer10"
         inkscape:label="03"
         style="display:inline">
        <path
           style="fill:#808000;stroke-width:1.33333"
           d="m 1161.3334,1966.1272 c 38.5599,-25.5181 40.7743,-27.3602 41.789,-34.7634 1.1977,-8.7379 -0.4759,-26.1219 -2.593,-26.9343 -0.949,-0.3641 -5.5826,2.0903 -10.2968,5.4543 -4.7142,3.3638 -9.3101,6.1162 -10.2131,6.1162 -2.2602,0 -0.6965,-5.8568 3.4788,-13.0298 6.3649,-10.9348 17.9976,-15.9938 39.6216,-17.2311 l 14.5085,-0.83 -0.5945,-7.1681 c -0.3269,-3.9424 -1.2495,-7.8232 -2.0501,-8.6239 -2.2417,-2.2416 -16.7522,0.8868 -39.301,8.4733 -10.8078,3.6363 -20.7078,6.3982 -22,6.1375 -1.8519,-0.3735 -0.7269,-2.184 5.312,-8.5492 l 7.6615,-8.0755 -3.3761,-9.8849 c -6.2841,-18.3997 -10.1638,-36.4145 -17.9787,-83.4809 -8.1332,-48.984 -15.1565,-81.5096 -17.8212,-82.5322 -0.86,-0.33 -8.1449,3.3679 -16.1887,8.2176 -8.0437,4.8496 -22.6511,12.7832 -32.4609,17.6303 l -17.836,8.8128 -3.4973,-4.0307 c -1.9236,-2.2168 -16.3974,-20.2664 -32.1641,-40.1101 l -28.6666,-36.0796 -0.8301,4.8439 c -0.4565,2.6642 -1.241,22.094 -1.7432,43.1773 L 1013.1803,1732 h 16.0765 c 18.7403,0 17.7795,1.1991 12.8659,-16.0576 -1.7658,-6.2017 -3.5946,-13.3757 -4.064,-15.9424 l -0.8534,-4.6666 2.8837,3.3333 c 7.1538,8.2691 19.753,37.6317 26.5403,61.8528 1.6213,5.7857 6.8575,20.4857 11.636,32.6667 17.4298,44.4309 33.3687,98.0004 46.7246,157.0378 4.2219,18.6626 8.2596,33.6815 9.0002,33.4782 0.7388,-0.2028 13.0432,-8.1116 27.3433,-17.575 z"
           id="path3242"
           transform="translate(-239.56017,-450.24439)" />
        <path
           style="fill:#808000;stroke-width:1.33333"
           d="m 1043.0531,2058.5166 c 9.2026,-4.6176 18.9249,-12.5544 24.2277,-19.7783 l 4.9813,-6.7859 -2.2467,-34.3096 c -1.2357,-18.8701 -2.6938,-35.8068 -3.2402,-37.6368 -0.9151,-3.0652 -1.4895,-2.4872 -7.2875,7.3334 -18.0148,30.513 -30.1544,64.0716 -30.1544,83.3588 0,10.7888 3.6524,12.8701 13.7198,7.8184 z"
           id="path3232"
           transform="translate(-239.56017,-450.24439)" />
        <path
           style="fill:#808000;stroke-width:1.33333"
           d="m 1102.5557,1700.5183 c 25.6273,-13.4647 49.9517,-30.3239 61.8381,-42.8596 l 3.7272,-3.9308 -18.1765,-21.864 c -9.9971,-12.0251 -18.9086,-22.6268 -19.8034,-23.5592 -1.3064,-1.3613 -3.0566,-0.6764 -8.884,3.4769 -19.8658,14.1586 -45.9408,26.2062 -71.2212,32.9068 -7.7632,2.0576 -13.9471,4.1442 -13.7421,4.6366 1.0436,2.5058 47.216,59.8182 48.2619,59.9058 0.6723,0.056 8.7723,-3.8642 18,-8.7125 z"
           id="path3256"
           transform="translate(-239.56017,-450.24439)" />
      </g>
      <g
         id="layer11"
         inkscape:label="04"
         style="fill:#999999">
        <path
           style="fill:#999999;stroke-width:1.33333"
           d="m 1323.8864,988.72541 c 6.7641,-3.49781 9.9395,-14.39932 6.6915,-22.97193 -4.8708,-12.85543 -17.3295,-13.29676 -23.7446,-0.84112 -3.6751,7.13572 -0.6951,19.32432 5.6743,23.2082 5.0032,3.05087 6.4954,3.13019 11.3788,0.60485 z"
           id="path3284"
           transform="translate(-239.56017,-450.24439)" />
        <path
           style="fill:#999999;stroke-width:1.33333"
           d="m 1486.2039,757.00001 c -1.2785,-20.12729 -4.1161,-29.10549 -13.3632,-42.28005 -8.5525,-12.18487 -18.9932,-21.26248 -31.202,-27.12814 L 1430,682.00001 l -19.526,-0.4528 c -16.7368,-0.38812 -21.0221,-0.0449 -30,2.40197 -17.2161,4.6924 -31.299,12.27567 -42.4264,22.84564 -10.4629,9.93876 -21.9225,25.925 -19.9143,27.78062 0.66,0.60984 10.6546,2.3948 22.2102,3.96657 11.5556,1.57177 22.6556,3.54084 24.6667,4.37571 2.011,0.83485 7.9985,5.98914 13.3053,11.45397 l 9.6487,9.93604 4.4049,-3.82053 c 2.4228,-2.10128 8.8808,-5.92052 14.3513,-8.48719 5.4704,-2.56667 10.1463,-5.11667 10.3907,-5.66667 0.6268,-1.41028 18.0792,-1.24789 21.8021,0.20286 1.6978,0.66157 7.5868,5.06768 13.0868,9.79136 12.059,10.35686 14.5188,11.73442 23.2388,13.01417 13.0115,1.90956 11.9464,3.10839 10.9651,-12.34172 z"
           id="path3310"
           transform="translate(-239.56017,-450.24439)" />
        <path
           style="fill:#999999;stroke-width:1.33333"
           d="m 1467.3592,852.95112 c 22.8431,-9.26615 26.2247,-12.73683 34.0534,-34.95111 2.3258,-6.6 6.7042,-16.8 9.7294,-22.66667 3.0254,-5.86666 5.6852,-11.05436 5.911,-11.52821 0.6176,-1.29685 -12.674,-2.45581 -35.569,-3.10143 l -20.5158,-0.57853 -11.5918,-11.34313 c -6.3754,-6.23872 -13.2734,-11.98248 -15.3288,-12.76392 -7.2828,-2.76891 -23.3305,2.0346 -34.9125,10.45025 l -5.5316,4.01933 0.4853,8.72507 c 0.5786,10.40209 3.712,22.11448 7.8798,29.45391 1.6657,2.93333 4.0278,8.80696 5.2492,13.0525 1.2213,4.24556 3.2469,8.76407 4.5014,10.04115 1.2544,1.27708 3.2786,4.46425 4.498,7.0826 3.4154,7.33288 9.0236,11.98492 18.4784,15.32775 12.163,4.30028 19.7548,4.01682 32.6636,-1.21956 z"
           id="path3298"
           transform="translate(-239.56017,-450.24439)" />
        <path
           style="fill:#999999;stroke-width:1.33333"
           d="m 1502.0103,763.98017 c 1.1433,-2.21091 3.928,-9.26091 6.1883,-15.66667 2.2602,-6.40576 6.5849,-16.44682 9.6101,-22.31349 3.0253,-5.86667 5.6889,-11.06539 5.9191,-11.55271 0.4408,-0.93324 -9.1836,-1.96885 -27.207,-2.9276 l -10.8126,-0.57517 3.2585,6.75449 c 4.5681,9.46939 7.9613,23.67839 9.0852,38.04442 0.5273,6.74112 1.166,12.25657 1.4192,12.25657 0.2532,0 1.3959,-1.80893 2.5392,-4.01984 z"
           id="path3312"
           transform="translate(-239.56017,-450.24439)" />
        <path
           style="fill:#999999;stroke-width:1.33333"
           d="m 1694.9928,813.69009 c 19.424,-17.01019 67.7403,-61.15284 88.3222,-80.69285 l 14.6482,-13.90672 -27.4333,-28.54526 c -15.0884,-15.69989 -35.8396,-37.41029 -46.114,-48.24533 -10.2743,-10.83504 -21.1159,-21.78462 -24.0924,-24.33239 l -5.4119,-4.63231 -13.0884,12.46599 -13.0882,12.46599 6.8925,10.53306 c 15.4341,23.58598 21.0092,40.27435 20.8904,62.53307 -0.091,17.05402 -3.6148,29.99712 -12.1504,44.63036 -4.7221,8.0956 -24.332,29.47112 -32.87,35.82955 l -3.8357,2.85664 6.5024,7.64227 c 7.5409,8.86266 23.2605,25.70785 23.9901,25.70785 0.2739,0 7.8512,-6.43947 16.8385,-14.30992 z"
           id="path3306"
           transform="translate(-239.56017,-450.24439)" />
      </g>
      <g
         id="layer12"
         inkscape:label="05"
         style="fill:#ffccaa">
        <path
           style="fill:#ffccaa;stroke-width:1.33333"
           d="m 1448.385,550.70001 5.615,-5.29999 -5.0428,-0.0333 c -6.9962,-0.0463 -14.0732,-3.28798 -15.5272,-7.11252 -0.9492,-2.49644 -2.4997,-3.37986 -6.9894,-3.98204 -5.9308,-0.79548 -11.7739,-5.63312 -11.7739,-9.74783 0,-1.09652 -2.0599,-2.85436 -4.5775,-3.90628 -4.9789,-2.08032 -8.7558,-6.50093 -8.7558,-10.24801 0,-1.3035 -0.854,-2.36999 -1.8978,-2.36999 -1.0437,0 -3.814,-1.61245 -6.1561,-3.58323 -3.9679,-3.33882 -4.2071,-4.01673 -3.5056,-9.93881 0.8921,-7.53343 0.4615,-8.15608 -13.7656,-19.90275 l -9.9917,-8.24972 -11.7219,12.36326 c -6.4469,6.79977 -11.5507,12.85397 -11.3416,13.45376 0.2092,0.59978 17.6591,14.59132 38.7777,31.09229 29.4582,23.01705 39.5466,30.19365 43.3334,30.826 2.7146,0.45333 5.5358,1.02775 6.2692,1.27647 0.7333,0.2487 3.6065,0.49957 6.3849,0.55746 4.1328,0.0861 6.0731,-0.85877 10.6667,-5.19473 z"
           id="path3320"
           transform="translate(-239.56017,-450.24439)" />
        <path
           style="fill:#ffccaa;stroke-width:1.33333"
           d="m 1669,757.42906 c 3.85,-5.3472 7,-10.71438 7,-11.92709 0,-2.03667 -86.0936,-88.92103 -107.3333,-108.31914 -31.2971,-28.58345 -79.0359,-69.18282 -81.3487,-69.18282 -0.9084,0 -4.827,4.59344 -8.7081,10.20765 l -7.0565,10.20764 4.5566,4.00224 c 22.8179,20.04149 76.1271,70.52849 124.5567,117.96262 32.2667,31.60342 59.2667,57.3056 60,57.11593 0.7333,-0.18967 4.4833,-4.71983 8.3333,-10.06703 z"
           id="path3314"
           transform="translate(-239.56017,-450.24439)" />
      </g>
      <path
         style="fill:#0000ff;stroke-width:1.33333"
         d="m 1437.3334,1488.6572 c 25.4664,-4.1541 46.769,-11.1816 71.1724,-23.479 14.9958,-7.5568 34.1609,-19.5103 34.1609,-21.3066 0,-0.6626 0.8573,-1.2049 1.9051,-1.2049 1.0477,0 4.1317,-2.1 6.8532,-4.6667 2.7214,-2.5666 5.3942,-4.6666 5.9394,-4.6666 0.5454,0 7.8114,-7.0806 16.1468,-15.7346 15.0824,-15.6588 29.0492,-33.891 35.5295,-46.3801 1.8697,-3.6036 3.8961,-7.452 4.5031,-8.552 37.1657,-67.3626 38.814,-152.7316 4.2794,-221.6576 -50.3316,-100.455 -158.5496,-153.68387 -267.5702,-131.6092 -20.0956,4.069 -38.7766,10.7498 -59.3037,21.2085 -18.149,9.247 -42.1723,23.8721 -39.6159,24.1176 0.7333,0.07 0.2388,0.5594 -1.0989,1.0865 -7.5541,2.9767 -38.3112,34.8248 -49.7559,51.5208 -8.5011,12.4018 -21.8119,34.3864 -21.8119,36.0252 0,0.6197 -2.4204,7.0292 -5.3786,14.2433 -6.6591,16.2393 -14.1014,44.8676 -16.1254,62.0298 -2.271,19.2563 -0.827,57.5895 2.8266,75.0351 22.099,105.5197 108.4309,184.3139 214.6774,195.9335 14.9303,1.6328 46.804,0.6445 62.6667,-1.943 z"
         id="path3262"
         transform="translate(-239.56017,-450.24439)" />
    </g>
  </g>
</svg>
