<?xml version="1.0" encoding="UTF-8" standalone="no"?>
<!-- Created with Inkscape (http://www.inkscape.org/) -->

<svg
   version="1.1"
   id="svg2708"
   width="1761.5336"
   height="2135.1267"
   viewBox="0 0 1761.5335 2135.1267"
   sodipodi:docname="knj1.svg"
   inkscape:version="1.2.2 (732a01da63, 2022-12-09, custom)"
   xmlns:inkscape="http://www.inkscape.org/namespaces/inkscape"
   xmlns:sodipodi="http://sodipodi.sourceforge.net/DTD/sodipodi-0.dtd"
   xmlns="http://www.w3.org/2000/svg"
   xmlns:svg="http://www.w3.org/2000/svg">
  <defs
     id="defs2712" />
  <sodipodi:namedview
     id="namedview2710"
     pagecolor="#ffffff"
     bordercolor="#000000"
     borderopacity="0.25"
     inkscape:showpageshadow="2"
     inkscape:pageopacity="0.0"
     inkscape:pagecheckerboard="0"
     inkscape:deskcolor="#d1d1d1"
     showgrid="false"
     inkscape:zoom="0.30322265"
     inkscape:cx="240.74719"
     inkscape:cy="913.52015"
     inkscape:window-width="1920"
     inkscape:window-height="1031"
     inkscape:window-x="0"
     inkscape:window-y="25"
     inkscape:window-maximized="1"
     inkscape:current-layer="layer1" />
  <g
     inkscape:groupmode="layer"
     id="layer1"
     inkscape:label="Layer 1"
     transform="translate(-239.56017,-450.24439)">
    <path
       style="fill:#000000;stroke-width:1.33333"
       d="m 953.70307,2583.2039 c -0.57002,-1.3955 -0.93911,-8.5372 -0.8202,-15.8705 0.43156,-26.6174 11.17044,-51.5478 32.98173,-76.5674 4.20727,-4.8261 7.46875,-9.8476 7.46875,-11.499 0,-4.5592 3.54908,-13.5204 7.30515,-18.4448 6.9125,-9.0627 28.2321,-21.3554 58.496,-33.728 20.1883,-8.2536 25.9774,-11.3002 41.728,-21.9595 7.4411,-5.0357 15.6111,-10.0257 18.1556,-11.0889 6.2575,-2.6146 19.8806,-5.5056 38.2065,-8.1083 31.1146,-4.4189 118.868,-39.176 152.0224,-60.2127 14.221,-9.0233 26.753,-21.339 26.753,-26.2913 0,-0.8548 -5.5907,-2.4648 -13,-3.7439 -7.15,-1.2342 -20.8,-4.4333 -30.3333,-7.1089 -9.5333,-2.6755 -20.6333,-5.7776 -24.6667,-6.8936 l -7.3333,-2.0289 -13.3333,4.9858 c -21.1944,7.9256 -45.5751,20.1347 -48.1964,24.1352 -3.1752,4.846 -1.1777,13.7203 7.4823,33.2416 3.6927,8.3242 6.7141,15.9838 6.7141,17.0215 0,3.5841 -10.6336,6.6299 -25.3334,7.256 -12.1965,0.5196 -15.309,0.1776 -24.1618,-2.6548 l -10.1619,-3.2513 -4.5944,2.8038 c -2.5269,1.5423 -7.0234,4.7404 -9.9921,7.1072 -5.0734,4.045 -5.5229,4.1648 -7.4842,1.9976 -3.237,-3.5768 -4.738,-8.6206 -6.2956,-21.1553 -1.416,-11.3948 -2.9664,-16.2044 -5.8429,-18.1251 -2.3529,-1.571 -3.28,-1.2121 -5.4589,2.1134 -1.4443,2.2041 -2.5821,10.2562 -3.8362,27.1458 -0.9806,13.2067 -2.2142,24.71 -2.7413,25.5628 -1.6886,2.7323 -15.9847,9.2152 -32.4853,14.7311 -18.5248,6.1927 -37.7655,9.8617 -66.9454,12.7659 -22.64655,2.254 -74.43399,4.2136 -77.74796,2.9418 -1.82467,-0.7001 -1.59611,-2.6561 1.85479,-15.8732 8.36246,-32.0285 15.48468,-49.0144 27.23642,-64.9566 4.26308,-5.7832 6.52631,-10.3122 6.9962,-14 1.93339,-15.1738 12.47558,-22.9754 48.84605,-36.1479 9.452,-3.4233 29.252,-12.4197 44,-19.992 22.6864,-11.6481 41.6518,-20.6388 53.4812,-25.3532 4.7321,-1.8859 -7.3677,-2.9519 -44.6667,-3.9355 -45.0012,-1.1865 -83.41923,0.7087 -86.0866,4.2468 -4.70372,6.2392 -16.78001,33.0582 -19.99155,44.3971 -1.97317,6.9667 -3.87126,13.154 -4.21798,13.7496 -0.95295,1.6371 -6.60858,-6.5815 -11.9738,-17.3997 -3.50426,-7.0659 -5.015,-12.1496 -5.6414,-18.9835 -0.47052,-5.1332 -1.45415,-9.9319 -2.18584,-10.6636 -0.8849,-0.8849 -5.33255,-0.2451 -13.28324,1.9111 -21.9872,5.9624 -37.90656,11.9162 -65.04474,24.3266 -7.2005,3.2928 -13.38676,5.692 -13.74721,5.3316 -1.05349,-1.0536 6.02073,-20.9433 10.29272,-28.9388 9.47543,-17.7344 32.64465,-42.5109 50.63755,-54.1505 11.83917,-7.6587 30.3425,-16.3564 45.2421,-21.2667 6.23334,-2.0542 12.44884,-4.6757 13.81224,-5.8256 1.36339,-1.1497 6.26275,-6.934 10.88746,-12.8537 14.42916,-18.4697 34.91959,-36.2795 56.94379,-49.494 48.3736,-29.0241 96.7704,-42.9804 149.2882,-43.0501 28.6108,-0.039 56.2094,4.3334 88.735,14.055 3.8188,1.1414 3.8369,1.5896 -0.9197,-22.7477 -5.7408,-29.3725 -7.1474,-44.6311 -6.3714,-69.1127 0.5269,-16.622 1.2936,-23.3845 3.3508,-29.554 1.4671,-4.4 2.5788,-8.0904 2.4705,-8.201 -0.1082,-0.1107 -7.3382,-1.2292 -16.0664,-2.4859 -8.7283,-1.2567 -20.8664,-3.6192 -26.9736,-5.25 l -11.1041,-2.9652 -6.1256,5.7044 c -3.3691,3.1375 -18.231,13.9381 -33.0264,24.0017 -14.7954,10.0635 -29.093,20.0042 -31.7724,22.0904 l -4.8717,3.7931 -0.4617,12.5617 c -0.5168,14.0624 -1.8277,16.8482 -11.3783,24.1804 -6.8562,5.2636 -28.9086,12.5786 -41.5653,13.7875 -8.7338,0.8343 -10.2306,1.3944 -13.3443,4.9943 -5.639,6.5192 -14.9296,13.3134 -24.2069,17.7022 -14.651,6.9311 -24.6215,5.058 -30.8412,-5.7934 -4.6691,-8.1464 -4.2193,-24.4286 1.2391,-44.8482 6.3101,-23.6057 16.1812,-44.4634 34.9923,-73.9386 l 7.6583,-12 0.8695,-15.4903 0.8695,-15.4901 -21.0439,-4.9988 c -94.33996,-22.4098 -175.81189,-64.6075 -294.69168,-152.6331 l -4.31458,-3.1948 -9.01876,8.6892 c -10.90242,10.504 -18.22005,15.2683 -29.68544,19.3269 -21.18316,7.4988 -35.59618,2.5663 -83.8952,-28.7113 -16.97113,-10.9903 -18.90721,-11.9148 -52.1048,-24.8803 -21.94716,-8.5714 -58.10325,-25.737 -81.28815,-38.5924 -8.62161,-4.7804 -16.43436,-8.6917 -17.36166,-8.6917 -2.83978,0 -0.92418,51.0276 2.46118,65.5611 5.71144,24.5194 20.00643,60.4405 27.05568,67.9868 l 3.89475,4.1693 16.28577,-0.7243 c 8.95716,-0.3984 17.18576,-0.9346 18.28576,-1.192 1.59612,-0.3732 1.99055,1.0134 1.95319,6.8658 -0.0257,4.0333 -0.32575,9.4333 -0.66667,12 l -0.61985,4.6666 9.06449,0.3958 9.0645,0.3957 -0.8446,11.6043 c -1.02668,14.106 -2.47844,19.1938 -7.62662,26.7284 -7.06682,10.3425 -20.92998,17.1638 -42.48257,20.9033 -6.80924,1.1813 -12.86088,2.4449 -13.44809,2.8079 -0.58722,0.3629 -0.45583,1.803 0.29196,3.2002 2.46592,4.6076 10.70084,5.6179 37.43206,4.5919 l 24.90443,-0.9557 3.48696,14.583 c 6.65568,27.8352 7.97103,40.0758 7.99627,74.4119 0.0175,23.7067 -0.55626,35.5553 -2.21356,45.7183 -2.57032,15.7616 -7.19886,36.1369 -8.78848,38.6877 -0.86514,1.3883 -4.34922,0.9149 -17.26131,-2.3449 -37.77857,-9.5376 -47.06141,-13.6212 -61.04001,-26.852 -5.41252,-5.123 -10.92152,-9.2091 -12.41584,-9.2091 -5.01336,0 -16.97494,-5.3351 -22.42939,-10.0039 -6.26372,-5.3614 -15.33429,-22.7908 -21.05995,-40.4673 l -3.60769,-11.1377 -5.89883,11.04 c -3.24434,6.072 -8.52913,14.984 -11.74394,19.8045 -7.04708,10.5667 -24.21116,29.4311 -26.77835,29.4311 -3.35229,0 -40.96808,-38.9219 -51.26811,-53.0482 -8.60409,-11.8005 -10.97443,-14.162 -16.98061,-16.9174 -19.91707,-9.1374 -25.681,-19.3654 -35.71066,-63.3678 -6.4373,-28.242 -6.59334,-28.625 -16.09801,-39.5233 -13.76639,-15.7847 -14.59359,-18.0285 -14.26495,-38.6953 0.49532,-31.1479 5.50095,-64.048 19.74575,-129.7814 13.77911,-63.5844 20.50827,-97.6549 24.75411,-125.3333 8.38778,-54.6793 10.61089,-59.2449 35.45757,-72.82 5.99676,-3.2764 16.16671,-9.8812 22.59989,-14.6775 19.53619,-14.5649 18.88803,-14.3701 44.49691,-13.3782 38.13935,1.4772 80.73216,9.0312 139.92783,24.8169 16.46029,4.3896 30.19849,7.7103 30.52933,7.3795 0.33084,-0.331 1.71163,-11.2634 3.06843,-24.2944 6.41405,-61.6026 12.66081,-91.1868 22.73958,-107.693 6.12481,-10.0307 19.53432,-25.4271 44.8871,-51.5381 l 22.85464,-23.5381 3.96259,-15.6901 c 6.36688,-25.2101 24.53437,-60.242 53.85447,-103.8464 23.75481,-35.3278 42.09656,-57.64 75.37596,-91.6928 12.75996,-13.0565 22.95996,-23.9337 22.66667,-24.1715 -0.2933,-0.2379 -15.23326,-5.6117 -33.19993,-11.9419 -34.72844,-12.2358 -45.50728,-15.4098 -64.66666,-19.0424 -6.6,-1.2514 -12.17234,-2.4069 -12.38296,-2.5677 -0.21064,-0.1609 2.11037,-5.9201 5.1578,-12.7984 11.15676,-25.18161 14.55849,-39.45693 14.55849,-61.09462 v -10.39573 l -5,-0.82644 c -7.37668,-1.21929 -7.17444,-1.27957 -14.71527,4.38649 -9.3586,7.03192 -19.92546,10.77479 -32.8935,11.65114 -9.03932,0.61085 -11.96928,0.2533 -18.64575,-2.27538 -10.65985,-4.03736 -19.61283,-13.0959 -25.36225,-25.6613 -7.1247,-15.57106 -7.13078,-15.03348 0.21217,-18.73322 6.43451,-3.24201 42.92664,-17.23084 56.15764,-21.52738 3.89751,-1.26564 6.87409,-2.51347 6.61461,-2.77294 -0.25946,-0.25946 -16.64833,-1.71632 -36.4197,-3.23744 -19.77138,-1.52112 -36.65204,-3.01125 -37.51259,-3.3114 -1.11936,-0.39041 -1.35381,-4.07929 -0.82384,-12.96242 l 0.74079,-12.41671 -4.77756,-2.27827 c -6.80119,-3.24325 -9.60982,-8.17546 -9.40638,-16.51844 0.2096,-8.5951 4.83506,-19.0239 12.21751,-27.54628 3.42639,-3.95545 5.81348,-8.22666 6.33395,-11.33333 3.3851,-20.20556 15.71753,-35.52344 31.28848,-38.86281 8.7968,-1.88658 26.69654,-1.71675 42.65836,0.40473 l 12.66666,1.68353 8.66667,-3.87137 c 23.91741,-10.68381 66.53345,-21.43527 165.81644,-41.83324 2.14616,-0.44093 7.32739,-4.20895 11.83866,-8.60957 14.37184,-14.01939 13.35944,-13.79259 65.01157,-14.56352 l 44.66667,-0.66667 10.67425,-6.81246 c 24.3752,-15.55668 46.184,-23.48509 67.9924,-24.71816 l 6.6667,-0.37694 -0.4116,4.62045 c -0.2264,2.54124 -0.7168,5.67044 -1.0898,6.95377 -0.6201,2.13294 0.7368,2.33334 15.7981,2.33334 18.5865,0 27.4126,1.79568 39.9612,8.1302 l 8.2395,4.15929 -13.3763,6.87338 c -15.9235,8.18228 -21.9566,12.58594 -27.2453,19.88688 l -3.9419,5.44164 13.5163,5.07554 c 17.0975,6.42035 25.2566,11.09899 35.2578,20.21778 l 7.9587,7.25648 -8.0001,7.81274 c -4.4,4.297 -9.7338,9.02814 -11.853,10.51362 l -3.8531,2.70088 19.2263,20.05236 c 10.5745,11.0288 21.5104,23.49344 24.302,27.6992 23.3105,35.11876 36.2408,78.67437 40.8233,137.51334 2.9581,37.98142 6.9248,50.17846 21.8997,67.33836 4.7973,5.4972 8.54,10.5864 8.3171,11.3093 -0.2228,0.7229 -3.058,1.8024 -6.3004,2.3989 -6.4821,1.1926 -29.9976,0.5596 -33.3214,-0.8969 -1.8214,-0.7981 -2.3038,1.9879 -3.7175,21.4666 -0.8934,12.3111 -1.9857,24.1837 -2.4273,26.3837 -0.7019,3.4977 0.5723,2.5382 10.1465,-7.6403 6.0221,-6.4023 17.8715,-17.4421 26.3321,-24.5331 l 15.383,-12.8927 -0.8029,-6.1336 c -4.1647,-31.81479 -4.0803,-51.47063 0.3582,-83.45043 l 2.306,-16.61479 -33.4595,-67.03418 c -34.0443,-68.206 -49.8857,-101.6116 -55.4226,-116.87283 -2.7921,-7.69576 -2.947,-9.31579 -1.6272,-17.02044 2.0301,-11.85177 7.821,-23.45207 17.5522,-35.16012 10.9269,-13.14674 44.6882,-47.14851 58.1386,-58.55267 11.996,-10.17112 38.4374,-28.97272 55,-39.10871 6.8668,-4.20237 11,-7.58874 11,-9.01246 0,-1.25438 1.2621,-3.88524 2.8048,-5.8464 3.4749,-4.41774 20.505,-16.02128 28.6172,-19.49859 8.7984,-3.77139 14.5576,-8.6282 16.9585,-14.30109 1.1625,-2.74682 3.7425,-8.76224 5.7333,-13.3676 3.203,-7.40944 3.385,-8.56066 1.5812,-10 -1.121,-0.89464 -9.461,-7.26175 -18.5333,-14.14912 -9.0723,-6.88739 -16.6487,-12.89823 -16.8364,-13.35743 -0.4463,-1.09151 24.1383,-29.57149 32.8005,-37.99788 l 6.7278,-6.54447 9.0732,7.48143 c 4.9902,4.11479 12.7009,10.47869 17.1348,14.142 l 8.0616,6.66057 7.5281,-3.79732 c 6.1864,-3.12044 9.9843,-3.9647 21.3065,-4.73644 l 13.7783,-0.93912 8.6319,4.72491 c 4.7476,2.59871 12.9522,5.91473 18.2325,7.36897 5.2803,1.45423 10.4431,3.14054 11.4729,3.74734 2.4804,1.46154 17.4044,13.33648 23.4571,18.6646 l 4.8028,4.228 0.4445,14.51458 c 0.4111,13.42384 -1.9212,29.30251 -5.7548,39.17966 -0.6164,1.58816 5.0223,7.18881 21.5712,21.42578 37.8828,32.59051 67.2214,59.91524 113.2763,105.50117 26.7927,26.51973 44.5689,43.1632 45.1305,42.2545 0.5096,-0.82456 1.2274,-7.31152 1.5951,-14.41544 1.1811,-22.82189 -3.4749,-36.66225 -21.7416,-64.62897 -4.6867,-7.17535 -8.5212,-13.4826 -8.5212,-14.01614 0,-0.53353 9.2825,-10.23806 20.6277,-21.56562 l 20.6279,-20.59558 21.7307,22.61171 c 11.952,12.43643 31.8726,33.41169 44.2684,46.61169 12.3956,13.2 29.1069,30.68221 37.1361,38.84933 8.0292,8.16713 14.376,15.44444 14.1039,16.1718 -1.3827,3.69656 -107.0784,101.20925 -129.5355,119.50682 l -6.3741,5.19352 -3.4471,-3.19406 c -6.3221,-5.8582 -43.138,-47.61028 -43.138,-48.92191 0,-0.71075 3.9,-3.83323 8.6667,-6.93883 6.175,-4.0232 8.6698,-6.46401 8.6777,-8.48994 0.019,-4.62083 -102.3944,-105.49531 -163.0936,-160.64451 l -19.5925,-17.80112 -4.5532,3.99776 c -6.7606,5.93581 -18.1368,9.6012 -35.8168,11.54004 -14.0376,1.5394 -16.524,2.21926 -23.3334,6.38028 -6.2808,3.83796 -8.2836,6.02032 -11.3849,12.40536 -5.1001,10.50021 -19.9825,25.40174 -26.6109,26.64525 -5.1294,0.96227 -9.6067,4.52912 -34.1246,27.18514 -15.2446,14.08692 -40.1678,41.1848 -40.1678,43.6726 0,1.58522 9.1154,9.77581 10.8796,9.77581 0.5163,0 3.8037,-5.43369 7.3053,-12.07485 13.8307,-26.23144 32.8537,-42.94702 58.9637,-51.81138 14.4176,-4.8948 26.9395,-7.02069 41.518,-7.04872 25.407,-0.0488 42.7696,6.39081 59.5938,22.10268 l 9.8756,9.22271 29.5986,0.98577 c 16.2794,0.54218 31.2532,1.64119 33.2754,2.44224 l 3.6766,1.45647 -5.9521,9.28579 c -8.2471,12.86626 -13.3385,23.28436 -19.9379,40.79676 l -5.6569,15.01125 9.2663,0.91308 c 5.0965,0.50219 10.6945,1.45608 12.4401,2.11976 l 3.1739,1.20669 -5.9639,9.30416 c -8.2012,12.79476 -14.1341,24.96899 -20.0279,41.0965 -7.79,21.31641 -13.701,27.77149 -33.3306,36.39809 -7.642,3.35841 -10.031,5.03932 -10.031,7.05808 0,5.55523 2.996,19.53492 4.1866,19.53492 0.6853,0 9.1737,-2.67701 18.863,-5.94892 32.4139,-10.94547 71.4904,-15.32556 113.9694,-12.77483 56.0086,3.36315 97.5662,12.20444 151.1644,32.15986 l 25.484,9.48812 51.4997,-0.60194 c 54.7403,-0.6398 66.9916,-1.68826 99.4996,-8.51522 16.5031,-3.46579 39.6039,-10.85076 52.9464,-16.92614 4.1871,-1.90658 7.9249,-2.96173 8.3063,-2.34474 1.5044,2.43416 4.6977,28.66073 6.1849,50.79714 1.9775,29.43211 0.8248,100.96406 -1.9872,123.33336 -6.6399,52.8192 -20.5603,82.2727 -50.5748,107.0091 -26.0673,21.4833 -68.2292,47.6912 -113.5685,70.5944 l -28.0263,14.1575 -9.3071,17.3568 c -15.6108,29.1126 -37.4934,64.7438 -49.4254,80.4784 -24.9102,32.8489 -55.1767,54.7719 -94.1891,68.2239 -13.4437,4.6356 -41.2683,11.6675 -64.0463,16.1859 -6.731,1.3352 -9.3838,2.9361 -21.3333,12.8747 -7.5055,6.2424 -19.5312,15.249 -26.7239,20.0149 -11.9914,7.9453 -40.0756,22.8196 -47.2557,25.028 -3.6732,1.1299 -3.7685,3.3429 -0.4259,9.8949 2.387,4.6788 3.356,5.26 13.328,7.993 21.1384,5.793 70.4327,21.8533 89.4312,29.1372 83.7822,32.1209 130.4894,71.6846 161.2394,136.5789 8.5901,18.1284 13.1041,32.1707 20.7253,64.4724 9.7025,41.1231 6.5185,35.9251 26.0353,42.5041 57.7688,19.4736 100.1112,61.0734 118.6299,116.5491 8.2691,24.7709 9.986,36.7252 9.9025,68.9468 -0.083,31.8777 -1.3605,42.2165 -8.6162,69.698 -6.8847,26.0759 -17.6255,49.9189 -32.0804,71.2135 -11.0951,16.3448 -36.5078,41.8054 -54.5024,54.6053 -10.5444,7.5005 -16.6328,13.1116 -24.6667,22.7332 -35.3073,42.2855 -66.082,66.4005 -117.8277,92.3304 -45.9883,23.0447 -90.1388,37.6 -133.5056,44.0133 -12.4047,1.8344 -47.7395,4.21 -75.8063,5.0966 l -9.8063,0.3097 -3.0385,12 c -6.9176,27.3201 -15.5771,43.6713 -30.5417,57.6701 -10.8194,10.1208 -15.377,12.2547 -42.1591,19.7392 -69.7636,19.496 -95.0392,27.1868 -121.3148,36.9134 -23.3692,8.6506 -34.5681,14.361 -39.7595,20.2738 -5.3581,6.1024 -6.3038,10.0594 -4.7091,19.7019 0.7071,4.2755 1.0018,8.0573 0.6549,8.4043 -0.3469,0.3468 -3.5082,0.6306 -7.0252,0.6306 -7.9848,0 -18.7503,-3.953 -27.2792,-10.0168 -7.7402,-5.5032 -8.5486,-5.6446 -8.5486,-1.4964 0,4.6175 3.8555,8.8114 17.3095,18.8288 7.2732,5.4154 11.6678,9.5543 11.1308,10.4831 -7.0834,12.2505 -14.9572,18.3869 -26.8718,20.9421 -13.2025,2.8315 -33.5933,-2.9753 -42.8217,-12.1945 -2.5029,-2.5005 -6.7615,-9.2471 -9.4637,-14.9925 -4.1707,-8.8682 -5.0389,-9.9762 -5.7465,-7.3334 -0.4584,1.7122 -0.8417,16.9972 -0.8517,33.9668 l -0.018,30.854 -10.3333,2.7435 c -5.6833,1.5089 -16.7455,3.9616 -24.5825,5.4501 -30.3505,5.765 -43.4555,6.8268 -94.7144,7.6746 -48.60554,0.8037 -50.33185,0.7464 -51.33337,-1.7055 z m 115.11413,-15.8932 c 18.2749,-2.3669 43.2143,-6.8817 47.9415,-8.6789 2.7737,-1.0547 3.2413,-2.1027 3.2413,-7.2654 0,-4.9993 -0.4262,-6.033 -2.4875,-6.033 -4.7281,0 -31.9112,-6.6466 -38.3673,-9.3811 -9.8062,-4.1536 -23.7099,-11.1467 -24.6162,-12.3811 -0.4424,-0.6025 -5.261,-3.0329 -10.7079,-5.4008 -5.4469,-2.3678 -15.203,-7.5062 -21.6802,-11.4186 -7.5808,-4.579 -13.7701,-7.3382 -17.3717,-7.744 -5.34869,-0.603 -5.86913,-0.3258 -11.82121,6.2944 -8.36523,9.3041 -15.00715,20.5173 -19.55715,33.0172 -4.0158,11.0322 -7.36677,28.8956 -5.87372,31.3113 1.31552,2.1285 81.05178,0.3024 101.30008,-2.32 z m 51.49,-51.644 c 0.7529,-19.4076 2.5829,-26.0043 8.2422,-29.7124 8.0769,-5.2923 17.6647,1.4291 24.7912,17.3791 2.2936,5.1333 5.4291,10.6772 6.9677,12.3197 6.5747,7.0183 27.8247,10.7305 37.5836,6.5657 l 3.8919,-1.661 -6.9502,-5.1019 c -14.0245,-10.2949 -19.822,-22.4487 -16.3061,-34.1837 2.0458,-6.8282 7.0298,-10.6064 13.9857,-10.6022 4.3536,0 7.5478,1.3751 15.4661,6.6447 l 9.9792,6.6412 1.5179,-6.7395 c 5.3091,-23.5729 28.5584,-34.6502 139.857,-66.6354 27.8666,-8.0084 54.5377,-16.1842 59.2689,-18.1686 6.0873,-2.5529 10.8408,-5.8812 16.2587,-11.3838 13.7809,-13.9966 17.5985,-23.2955 26.4233,-64.3619 4.8881,-22.7469 7.1531,-37.7184 13.3935,-88.5312 3.4298,-27.9284 5.3864,-35.3325 13.3514,-50.5259 9.3316,-17.7997 33.5236,-53.7817 39.733,-59.0966 3.4778,-2.977 12.5712,-7.401 26.5373,-12.9108 64.9515,-25.6243 98.4839,-52.0272 129.0371,-101.6022 4.2936,-6.9666 22.3173,-41.775 40.0526,-77.352 17.7354,-35.5769 33.0782,-65.3338 34.0951,-66.1264 3.9625,-3.088 6.5072,-3.0677 10.1647,0.081 l 3.6844,3.172 -0.037,29.7793 c -0.032,25.5231 -0.4694,31.9391 -3.0616,44.8909 -7.9164,39.5556 -26.9888,79.8232 -51.4164,108.555 -4.2084,4.95 -7.2914,9 -6.8512,9 2.486,0 26.9682,-10.3478 37.0144,-15.6447 22.9543,-12.1028 39.8276,-28.3629 58.7782,-56.6423 5.2657,-7.8578 9.9229,-14.3078 10.3494,-14.3333 1.1956,-0.072 -2.3284,26.6671 -4.8285,36.6361 -2.7043,10.7832 -6.8847,21.2442 -14.8803,37.236 -7.9816,15.9638 -15.4364,26.2583 -26.7296,36.9118 -8.605,8.1176 -25.5724,21.1697 -27.5198,21.1697 -0.4643,0 4.0133,-5.85 9.9501,-13 13.1292,-15.8123 25.0887,-33.4389 31.8408,-46.9289 8.4567,-16.8958 8.3239,-17.4646 -2.1295,-9.1239 -13.8938,11.0857 -21.1233,15.7065 -37.1102,23.7193 -14.3891,7.2119 -14.7411,7.4992 -21.2264,17.3335 -8.5027,12.8933 -27.8974,32.1231 -41.4754,41.1228 -14.6525,9.7119 -42.4981,23.2139 -59.3333,28.7701 -23.7728,7.8459 -37.3661,10.0064 -72.6391,11.5456 -17.5848,0.7674 -32.0385,1.5076 -32.1194,1.645 -0.081,0.1374 -4.209,6.7718 -9.1734,14.7433 -15.1948,24.398 -16.2772,28.0805 -21.408,72.8399 -1.8914,16.5 -4.6137,37.7374 -6.0494,47.1944 -1.4359,9.457 -2.6107,17.407 -2.6107,17.6666 0,1.9823 59.6897,-1.1168 80.6667,-4.1881 63.4648,-9.2921 135.5546,-39.4659 188,-78.6888 13.7108,-10.2541 45.4092,-39.0193 44.2621,-40.1665 -0.2841,-0.284 -8.5788,2.1774 -18.4325,5.4701 -19.3755,6.4743 -36.2656,10.3217 -55.163,12.5653 -17.5596,2.085 -54.5948,3.3484 -65.1089,2.2212 l -9.1091,-0.9765 20.5118,-11.0435 c 47.2193,-25.4228 70.9012,-41.818 120.3286,-83.3045 25.5168,-21.4173 26.0443,-21.8316 26.0443,-20.4525 0,2.0428 -22.5731,29.6677 -33.7996,41.364 -16.7761,17.478 -41.2044,35.8662 -71.2004,53.5957 -5.3167,3.1425 -9.6667,6.2931 -9.6667,7.0012 0,2.5933 36.2824,-2.4271 56,-7.7488 26.5615,-7.1688 46.0015,-16.1201 70.192,-32.3204 35.0043,-23.4423 55.5272,-46.0884 72.3311,-79.814 13.0212,-26.1337 20.2844,-54.3 23.0413,-89.3536 5.59,-71.0747 -20.9766,-133.0529 -71.5644,-166.9553 -20.1714,-13.5184 -29.7298,-17.904 -55.3066,-25.3762 l -16.64,-4.8612 -3.6386,-16.581 c -7.5082,-34.216 -13.5553,-58.2663 -17.4102,-69.2428 -8.7363,-24.8763 -27.4047,-56.5848 -45.9284,-78.0104 -29.1844,-33.7563 -77.5404,-60.8766 -151.7428,-85.1043 -28.1163,-9.1801 -58.9476,-18.2235 -62.1294,-18.2235 -5.1836,0 -42.4181,37.3011 -68.544,68.6667 -31.6014,37.9392 -66.1572,88.5817 -91.2821,133.7767 -4.6201,8.3105 -9.2272,15.4274 -10.2381,15.8154 -3.4838,1.3368 -56.2518,-12.3881 -114.8106,-29.8622 -23.6523,-7.058 -43.3591,-12.4778 -43.7928,-12.044 -0.4337,0.4337 0.8008,8.1818 2.7434,17.218 1.9426,9.0362 6.5149,34.7294 10.1607,57.0961 7.1519,43.8763 10.971,61.6799 17.3943,81.0891 3.3571,10.1438 4.5135,12.2662 6.3048,11.5714 8.8977,-3.4516 39.6806,-8.321 43.4524,-6.8737 1.8431,0.7073 4.1171,14.2791 5.4533,32.5465 l 0.8047,11 h -17.8695 c -9.8281,0 -18.1438,0.2744 -18.4792,0.6099 -1.1609,1.1608 2.1715,27.2933 3.6694,28.7761 1.8945,1.8752 35.1482,8.625 48.6145,9.8676 l 10.1185,0.9336 8.3672,-15.1984 c 4.6019,-8.3592 15.8835,-25.3513 25.07,-37.7602 23.3983,-31.6058 23.9267,-32.8914 26.3137,-64.0184 2.7984,-36.4932 5.9138,-56.5435 8.7857,-56.5435 0.7216,0 1.2264,18.1801 1.2264,44.1751 v 44.1752 l -6.7016,11.7108 c -3.6859,6.4409 -11.2648,18.2121 -16.842,26.1582 -25.7706,36.7163 -38.9798,62.9803 -43.9084,87.3038 -3.9257,19.3742 -0.088,56.3662 10.2155,98.4769 2.243,9.1667 5.515,23.1003 7.2712,30.9636 4.3472,19.4639 7.3707,25.8503 20.6981,43.7191 20.9916,28.1448 21.882,30.4954 29.4548,77.7577 6.8189,42.5577 7.7319,65.4441 3.014,75.5596 -10.2701,22.0197 -43.8741,43.2135 -109.666,69.1651 -46.7487,18.4401 -63.1707,23.581 -85.5356,26.7768 -10.6334,1.5194 -22.2202,3.7146 -25.7485,4.8781 -3.5283,1.1633 -13.7283,7.0229 -22.6667,13.0213 -12.4771,8.3731 -21.3609,13.0256 -38.2515,20.033 -12.1,5.0198 -26.2,11.2162 -31.3333,13.7697 -18.5266,9.2155 -29.9348,20.4552 -28.1163,27.7009 1.7175,6.843 28.1005,22.767 60.7829,36.6867 10.6334,4.5289 19.6334,8.6935 20,9.2548 0.3667,0.5612 4.7077,1.7173 9.6466,2.5692 4.9389,0.8519 10.3389,2.0948 12,2.7621 1.6611,0.6672 4.285,1.2514 5.831,1.2978 2.6886,0.081 2.8408,-0.6844 3.4963,-17.5822 z m -138.97385,-113.044 c 51.04185,-3.1665 78.24405,-8.2204 104.99995,-19.5073 7.494,-3.1614 8.3334,-3.9043 8.3334,-7.3758 0,-3.7605 -0.1294,-3.833 -5,-2.8 -2.75,0.5832 -13.4,0.9554 -23.6667,0.8271 -16.0147,-0.2003 -20.2218,-0.7269 -29.6134,-3.7079 -6.0207,-1.9109 -11.2773,-4.0092 -11.6812,-4.6628 -0.4039,-0.6534 -4.7778,-2.5237 -9.7199,-4.1561 -4.942,-1.6323 -14.3855,-5.3321 -20.98549,-8.2219 -19.96318,-8.7406 -24.76056,-7.3497 -33.28037,9.6487 -6.02248,12.0159 -14.66929,38.9392 -13.03177,40.5768 1.07481,1.0748 8.53484,0.9371 33.64548,-0.6208 z m 109.47565,-42.0851 4.809,-0.8245 0.8693,-13.2659 c 1.2799,-19.5296 5.7135,-26.6085 17.8844,-28.5546 10.345,-1.6543 21.6547,8.4389 24.252,21.6433 2.3519,11.9564 2.119,11.7169 7.4432,7.656 l 4.7581,-3.6291 12.2542,4.0948 c 15.5212,5.1867 28.5481,6.8652 29.7134,3.8286 0.4447,-1.159 -1.0021,-6.4675 -3.2151,-11.7967 -7.505,-18.0729 -8.1835,-32.2343 -1.9603,-40.9167 1.5536,-2.1674 11.2768,-7.8388 26.2921,-15.3356 21.1255,-10.5473 23.4638,-12.0342 20.6254,-13.1156 -6.3464,-2.4176 -52.9289,-15.416 -70.7447,-19.7406 l -18.2101,-4.4204 -19.79,7.0493 c -22.1327,7.884 -42.3672,17.1404 -67.1232,30.7063 -9.181,5.0309 -25.949,12.563 -37.3334,16.7701 -32.64082,12.0623 -39.99995,16.458 -39.99995,23.8931 0,3.5221 1.15237,5.4848 5.55624,9.4634 10.23109,9.2432 44.18471,23.3342 64.44371,26.7444 10.1793,1.7136 28.7091,1.5964 39.4757,-0.2496 z m 247.4714,-80.1208 c 0.9163,-2.3877 -7.894,-67.3216 -11.0482,-81.4286 -2.6318,-11.7703 -6.7453,-19.163 -20.3411,-36.5563 -6.5357,-8.3613 -13.0906,-17.5789 -14.5666,-20.4837 -2.8768,-5.6619 -8.3109,-22.3135 -10.9075,-33.4238 l -1.5913,-6.8088 -15.8671,-4.9525 c -32.2341,-10.0609 -56.5214,-13.4112 -89.8182,-12.3897 -25.3092,0.7764 -38.5698,2.8432 -62.6003,9.757 -42.9875,12.3682 -73.8672,29.7496 -105.1284,59.1746 -17.53535,16.5053 -27.8999,30.0636 -36.81371,48.1576 -9.89172,20.079 -13.81996,32.8645 -14.50302,47.2041 l -0.57161,12 6.46263,-12 c 23.20366,-43.0853 45.52141,-67.3799 81.19271,-88.3843 l 6.8453,-4.0308 0.7069,7.5408 c 0.5659,6.0374 0.2644,7.8782 -1.512,9.2323 -1.2204,0.9303 -7.2957,5.3719 -13.5006,9.8701 -12.5077,9.0674 -35.43758,30.7063 -39.0285,36.8312 l -2.31021,3.9406 48.31021,-0.1667 c 81.4137,-0.2807 107.3284,4.4981 220.9769,40.7491 35.0672,11.1854 61.9288,18.1164 71.0419,18.3305 2.3077,0.055 4.0346,-0.7627 4.5718,-2.1627 z m -427.61372,-36.3021 c 6.96667,-2.3163 16.68481,-4.9063 21.59588,-5.7556 l 8.9292,-1.5443 1.48023,-6.1702 c 0.81412,-3.3936 4.10994,-12.713 7.32406,-20.7098 3.21411,-7.9966 5.67346,-14.7097 5.46522,-14.918 -0.75142,-0.7514 -11.09878,3.4372 -22.1661,8.973 -16.33594,8.171 -27.74498,16.0953 -38.9663,27.0646 -9.2098,9.003 -22.32886,25.236 -22.32886,27.629 0,0.5812 5.85,-1.5115 13,-4.6503 7.15,-3.1389 18.7,-7.6021 25.66667,-9.9184 z m 648.25442,-104.1113 c 12.6665,-0.7356 27.8363,-2.5018 35.2108,-4.0995 26.1139,-5.6579 55.4391,-17.8608 77.2015,-32.1257 10.6989,-7.013 38.3109,-32.8096 33.3629,-31.1695 -9.0077,2.9857 -34.6501,4.2901 -36.1647,1.8395 -0.5885,-0.9524 2.8575,-4.9034 8.9214,-10.2284 40.3373,-35.4228 61.8466,-69.602 73.9134,-117.4512 2.9947,-11.8751 5.9256,-34.9322 5.8603,-46.1019 l -0.055,-9.3333 -27.0894,54.6666 c -14.8991,30.0667 -30.5046,60.0667 -34.6787,66.6667 -32.5637,51.4893 -68.2085,79.6483 -134.0707,105.9143 -17.5321,6.9917 -21.5261,9.1282 -26.3333,14.0861 -9.3767,9.6707 -10.4755,9.3337 23.9211,7.3363 z m -515.868,-81.4868 c 9.2026,-4.6176 18.9249,-12.5544 24.2277,-19.7783 l 4.9813,-6.7859 -2.2467,-34.3096 c -1.2357,-18.8701 -2.6938,-35.8068 -3.2402,-37.6368 -0.9151,-3.0652 -1.4895,-2.4872 -7.2875,7.3334 -18.0148,30.513 -30.1544,64.0716 -30.1544,83.3588 0,10.7888 3.6524,12.8701 13.7198,7.8184 z M 546.56335,2051 c 5.6892,-21.343 7.94832,-56.6013 5.5744,-87 -1.77793,-22.7668 -6.66642,-48.731 -9.13774,-48.5333 -0.91667,0.073 -6.98716,0.2233 -13.48999,0.3333 l -11.82332,0.2 -1.38131,6.3334 c -0.75972,3.4833 -3.87345,15.9333 -6.9194,27.6666 -3.04594,11.7334 -6.36214,24.6334 -7.36933,28.6667 -1.0072,4.0333 -4.87524,14.4419 -8.59565,23.13 -8.01392,18.7147 -9.17587,24.2315 -6.28224,29.8271 3.89798,7.5378 19.10697,15.2716 41.5279,21.1168 16.13779,4.207 16.31591,4.1897 17.89668,-1.7406 z m 556.82155,-20.4869 c 7.9076,-2.6221 14.3314,-5.7141 17.4219,-8.3856 l 4.8955,-4.2319 -2.1169,-15.4886 c -4.4517,-32.5718 -28.1822,-122.6291 -45.4299,-172.407 l -4.6199,-13.3333 -0.1012,9.6033 c -0.2619,24.8687 10.4188,200.6578 12.5607,206.73 0.8737,2.477 3.5921,2.0883 17.3897,-2.4869 z m -626.17109,-20.1797 c 8.01705,-17.4923 11.85632,-28.8766 17.42438,-51.6667 1.34375,-5.5 3.73946,-14.8 5.32378,-20.6667 4.24881,-15.7332 5.50844,-20.9934 5.08429,-21.2324 -0.20877,-0.1173 -3.37959,-0.9678 -7.04625,-1.8894 -7.89203,-1.9836 -15.00039,-7.2704 -18.59203,-13.8278 -2.28243,-4.1672 -2.39673,-5.3842 -0.95697,-10.1897 2.53353,-8.4561 7.95121,-11.7068 25.71076,-15.4264 17.60728,-3.6877 21.56912,-5.0707 27.5113,-9.6029 4.91579,-3.7495 9.66027,-12.0976 9.66027,-16.9978 0,-3.1005 -0.50849,-3.3146 -9.66667,-4.069 -5.31666,-0.438 -12.18298,-0.9392 -15.25848,-1.1138 l -5.59181,-0.3174 6.55804,-8.6667 c 3.60692,-4.7667 6.57324,-9.4167 6.59181,-10.3333 0.0243,-1.1979 -2.979,-1.6667 -10.67572,-1.6667 -10.97037,0 -18.19546,-2.0004 -23.05804,-6.3841 -3.00292,-2.7074 -13.95289,-24.1528 -19.63246,-38.4504 -5.88943,-14.8258 -11.5489,-35.9876 -13.97167,-52.2427 -2.23593,-15.0016 -2.75024,-48.6244 -0.94209,-61.5895 l 1.02272,-7.3333 -10.68782,-12.2048 c -10.26873,-11.7264 -23.15956,-31.7679 -21.5004,-33.4271 0.43882,-0.4388 9.65118,7.8743 20.47188,18.4735 11.49618,11.2609 24.10783,22.1943 30.34071,26.3029 21.52853,14.1918 87.65521,45.1872 122.44532,57.3936 8.79015,3.084 17.58583,7.9228 34.66667,19.0711 12.5884,8.2161 28.19479,17.6652 34.68083,20.9979 11.05268,5.6793 12.43345,6.0545 22,5.9798 16.80312,-0.1306 20.51714,-2.5876 55.64166,-36.8024 20.85948,-20.3193 31.98019,-30.1885 36.04034,-31.9845 3.72534,-1.6479 10.13462,-2.8372 17.53194,-3.2533 l 11.65991,-0.6559 -12.67548,6.5713 c -11.17657,5.7943 -14.45823,8.4116 -27.7514,22.1338 -8.29176,8.5593 -14.84911,16.2428 -14.57188,17.0745 0.9974,2.9921 82.24486,59.8569 101.26151,70.8725 l 6.26273,3.6278 3.15896,-5.0854 c 1.73743,-2.7969 7.54834,-13.4853 12.91312,-23.752 14.58795,-27.9172 44.43072,-77.0269 70.35707,-115.7808 12.67496,-18.9462 23.04537,-34.6886 23.04537,-34.9833 0,-0.2947 -4.16176,-2.6315 -9.24834,-5.1931 -24.58195,-12.3793 -45.41832,-26.7738 -45.41832,-31.3766 0,-5.6864 30.15914,-62.0499 52.2164,-97.5858 35.39215,-57.0193 85.77645,-112.5942 128.73955,-142.0021 l 10.9559,-7.4994 -7.8186,-8.3581 c -29.5224,-31.5595 -42.5435,-67.2716 -47.5165,-130.32 -0.4526,-5.7378 -1.0833,-10.172 -1.4016,-9.8537 -1.1808,1.1808 -5.9877,16.0739 -9.4583,29.3045 -3.2313,12.3183 -3.5855,15.9874 -3.6347,37.6484 -0.05,22.1044 0.2421,25.1417 3.6994,38.4546 2.0645,7.95 3.5159,14.6925 3.2251,14.9832 -0.827,0.827 -18.1503,-13.733 -27.0067,-22.6986 -15.4087,-15.5989 -23.89999,-32.0156 -28.67245,-55.4344 -6.06629,-29.7679 -1.50286,-57.6075 14.71595,-89.7759 3.6741,-7.2873 6.5174,-13.4094 6.3184,-13.6046 -1.3629,-1.3368 -29.42051,-11.1727 -30.30744,-10.6246 -2.02087,1.249 -4.00607,17.0701 -4.91819,39.1959 -0.8179,19.8401 -1.06878,21.4909 -2.77205,18.2401 -5.22169,-9.966 -7.11643,-33.745 -4.09347,-51.3736 1.15192,-6.7174 1.19678,-9.7613 0.15916,-10.7989 -2.38669,-2.3867 -133.08424,-52.7756 -143.39632,-55.2847 -3.32002,-0.8079 -5.60097,1.0522 -26.46884,21.5854 -40.69972,40.0469 -69.73288,76.9675 -99.77041,126.875 -14.25923,23.6918 -32.89423,62.9278 -29.88734,62.9278 0.41984,0 5.63752,-2.9848 11.59486,-6.6328 11.03318,-6.7563 26.75145,-13.8384 29.02865,-13.0793 0.69253,0.2309 -4.31852,4.8645 -11.13567,10.297 -13.0764,10.4205 -64.75508,61.9056 -85.47914,85.1591 -14.51571,16.2873 -21.09942,25.6925 -24.66656,35.238 -8.54858,22.8752 -17.58243,97.1095 -17.58243,144.4807 v 25.6297 l 9.92739,3.3377 9.92738,3.3379 13.81678,-4.4804 c 7.59922,-2.4641 17.6819,-5.1176 22.40594,-5.8964 12.42239,-2.0481 39.91631,-3.0955 44.58918,-1.6987 3.56036,1.0644 2.24142,1.5998 -12,4.8712 -17.29456,3.973 -42.86802,11.0663 -45.8379,12.7142 -2.35342,1.3058 -2.60536,1.173 17.8379,9.4049 20.23849,8.1495 36.77018,16.4149 40.02529,20.0119 2.92644,3.2336 1.66489,6.6386 -2.4596,6.6386 -5.59431,0 -29.6704,-7.5189 -76.32612,-23.8364 -83.2225,-29.1064 -127.0205,-42.307 -168.91935,-50.9118 -24.26381,-4.9831 -31.15192,-4.8179 -37.18923,0.8918 -5.45534,5.1594 -12.37681,15.4428 -23.7188,35.2398 -7.0311,12.2726 -9.4122,17.6838 -9.4122,21.3901 0,9.2967 5.38174,36.4988 14.61916,73.8932 14.52091,58.7825 16.48682,70.5233 26.0713,155.7036 8.4667,75.2464 8.48998,75.3612 19.87814,98.0169 8.85046,17.6074 9.78531,20.2839 16.79466,48.0838 7.10786,28.1906 15.56532,48.5432 21.89568,52.691 2.59836,1.7026 11.65014,4.7915 17.82721,6.0836 0.23072,0.048 2.68816,-4.8622 5.46099,-10.9122 z m -97.93215,-2.4518 c 14.35163,-15.8854 33.85612,-54.9582 32.28599,-64.6774 -0.69928,-4.3287 -10.10362,-25.8708 -11.294,-25.8708 -0.93775,0 -9.95178,6.6904 -11.60698,8.6149 -2.4034,2.7944 -17.15486,12.2641 -26,16.6907 -9.73356,4.871 -32,20.885 -32,23.0144 0,3.3168 39.71147,47.68 42.68055,47.68 0.55503,0 3.22553,-2.4532 5.93444,-5.4518 z m 782.05174,-41.7544 c 38.5599,-25.5181 40.7743,-27.3602 41.789,-34.7634 1.1977,-8.7379 -0.4759,-26.1219 -2.593,-26.9343 -0.949,-0.3641 -5.5826,2.0903 -10.2968,5.4543 -4.7142,3.3638 -9.3101,6.1162 -10.2131,6.1162 -2.2602,0 -0.6965,-5.8568 3.4788,-13.0298 6.3649,-10.9348 17.9976,-15.9938 39.6216,-17.2311 l 14.5085,-0.83 -0.5945,-7.1681 c -0.3269,-3.9424 -1.2495,-7.8232 -2.0501,-8.6239 -2.2417,-2.2416 -16.7522,0.8868 -39.301,8.4733 -10.8078,3.6363 -20.7078,6.3982 -22,6.1375 -1.8519,-0.3735 -0.7269,-2.184 5.312,-8.5492 l 7.6615,-8.0755 -3.3761,-9.8849 c -6.2841,-18.3997 -10.1638,-36.4145 -17.9787,-83.4809 -8.1332,-48.984 -15.1565,-81.5096 -17.8212,-82.5322 -0.86,-0.33 -8.1449,3.3679 -16.1887,8.2176 -8.0437,4.8496 -22.6511,12.7832 -32.4609,17.6303 l -17.836,8.8128 -3.4973,-4.0307 c -1.9236,-2.2168 -16.3974,-20.2664 -32.1641,-40.1101 l -28.6666,-36.0796 -0.8301,4.8439 c -0.4565,2.6642 -1.241,22.094 -1.7432,43.1773 L 1013.1803,1732 h 16.0765 c 18.7403,0 17.7795,1.1991 12.8659,-16.0576 -1.7658,-6.2017 -3.5946,-13.3757 -4.064,-15.9424 l -0.8534,-4.6666 2.8837,3.3333 c 7.1538,8.2691 19.753,37.6317 26.5403,61.8528 1.6213,5.7857 6.8575,20.4857 11.636,32.6667 17.4298,44.4309 33.3687,98.0004 46.7246,157.0378 4.2219,18.6626 8.2596,33.6815 9.0002,33.4782 0.7388,-0.2028 13.0432,-8.1116 27.3433,-17.575 z m -834.50104,-16.18 c 7.27447,-2.5596 22.36675,-11.3565 31.16765,-18.1669 8.86245,-6.858 22.86216,-16.4243 28.75586,-19.6495 7.91723,-4.3325 8.34338,-5.442 5.6328,-14.6656 l -2.38866,-8.1281 -10,-0.015 c -25.27218,-0.037 -40.18485,-19.1392 -27.09082,-34.7005 1.90836,-2.268 8.15206,-7.6879 13.8749,-12.0443 11.74488,-8.9406 14.54925,-12.2901 14.54925,-17.3774 0,-4.7343 -1.06664,-5.4491 -17.73949,-11.8891 C 339.4176,1803.9724 332,1795.7875 332,1778.4482 c 0,-22.3363 10.4354,-71.3044 21.06515,-98.8482 l 3.70488,-9.6 -4.94449,-19.3333 c -7.73411,-30.2409 -10.79307,-49.2925 -10.27428,-63.9897 L 342,1573.9638 l 13.63446,-22.7576 c 16.12353,-26.912 22.00761,-34.08 30.72335,-37.427 16.1492,-6.2014 47.81929,-0.076 132.39588,25.6078 18.01453,5.4705 33.69236,9.9464 34.83962,9.9464 1.73068,0 2.2509,-2.8599 3.05447,-16.7919 0.53268,-9.2355 0.45485,-17.2941 -0.17296,-17.908 -1.61137,-1.5757 -50.9584,-14.8591 -76.08536,-20.4808 -50.62276,-11.326 -102.92695,-17.1773 -114.43471,-12.8021 -1.9537,0.7428 -8.45764,4.9145 -14.45318,9.2706 -5.99555,4.356 -16.28613,11.0047 -22.86795,14.7747 -13.14158,7.5275 -17.35966,10.9043 -19.90803,15.9375 -2.60909,5.153 -5.61991,19.4069 -10.70224,50.6666 -4.75427,29.2419 -13.38532,72.5823 -26.55271,133.3334 -11.10029,51.214 -15.23484,78.0597 -17.5778,114.133 -0.74854,11.5252 -0.51988,14.2142 1.58631,18.6526 2.46293,5.1902 12.37752,16.0385 16.95129,18.5477 1.84436,1.0119 4.30866,9.0499 10.21924,33.3333 8.85135,36.3655 11.99564,45.6976 17.51491,51.9838 4.26032,4.8522 13.53715,10.0136 18.00111,10.0152 1.5578,5e-4 5.4578,-0.9227 8.66666,-2.0518 z m 735.83434,-68.1202 c 0,-13.0108 -3.9868,-92.5986 -5.2921,-105.6452 -0.687,-6.8667 -2.5867,-16.9908 -4.2216,-22.4979 l -2.9725,-10.0129 -7.9525,0.8312 c -4.3739,0.4572 -9.949,0.8312 -12.3892,0.8312 -4.0925,0 -5.0437,0.905 -12.2612,11.6666 -17.4829,26.0676 -57.57759,95.3092 -57.57759,99.4338 0,2.6074 33.65534,15.3144 60.87609,22.9845 14.1342,3.9827 36.6766,9.4072 40.7906,9.8157 0.55,0.055 1,-3.2785 1,-7.407 z m -676.75475,-8.3512 c 0.71384,-1.155 -1.73638,-22.9494 -2.69781,-23.9967 -0.85709,-0.9336 -20.54747,14.5392 -20.54747,16.1464 0,0.8591 1.61226,3.2448 3.58279,5.3016 3.11263,3.2488 4.58956,3.7396 11.25464,3.7396 4.21952,0 8.00307,-0.5359 8.40785,-1.1909 z m 573.71142,-44.8091 c 10.14755,-18.6329 26.71575,-46.7009 40.88483,-69.2627 4.1205,-6.5612 7.4918,-12.4112 7.4918,-13 0,-0.5889 -1.8426,-1.0706 -4.0947,-1.0706 h -4.0947 l 0.8482,-27 c 1.0374,-33.0182 3.1161,-71.1424 4.1286,-75.718 0.7037,-3.1799 0.1451,-3.5975 -9.23313,-6.9036 -9.2923,-3.2758 -10.11666,-3.3643 -11.92874,-1.282 -3.75616,4.3164 -49.96013,74.4521 -62.52048,94.9036 -17.59262,28.6453 -46.43837,81.1345 -46.43837,84.5017 0,1.3817 41.26013,23.4983 43.83771,23.4983 0.6859,0 5.90178,-6.15 11.59085,-13.6667 14.01284,-18.5144 35.18153,-44.8076 36.95915,-45.9063 1.64993,-1.0197 -2.26276,6.1592 -22.23148,40.7902 -7.78592,13.5028 -14.15623,24.9765 -14.15623,25.4972 0,0.5205 3.45,2.4649 7.66667,4.3208 9.24066,4.067 7.43584,5.7372 21.29002,-19.7019 z m -580.9567,-27.9491 c 0,-12.6001 -14.15365,-103.3842 -16.11809,-103.3842 -2.63375,0 -15.72012,64.0892 -16.04799,78.5934 -0.27708,12.2578 3.59251,16.7375 19.59266,22.6819 12.4174,4.6135 12.57342,4.6396 12.57342,2.1089 z m 940.56833,-80.2753 c 2.1096,-5.4975 26.4853,-45.8703 40.1422,-66.4863 30.3596,-45.8298 57.0658,-78.9965 95.7695,-118.9368 13.6693,-14.1061 24.8533,-26.5358 24.8533,-27.6214 0,-1.0856 -1.0378,-4.1504 -2.3064,-6.8106 -2.6542,-5.566 -0.729,-5.5826 -26.3602,0.2287 -15.282,3.4648 -17.765,3.6377 -55.3334,3.8517 l -39.3333,0.2243 -16.5347,7.6828 c -45.6326,21.2031 -91.44,34.7241 -144.3439,42.6063 -12.4498,1.8549 -13.2044,2.1684 -22.6667,9.4172 -9.7596,7.4766 -20.114,13.0729 -32.1214,17.3608 -5.4849,1.9586 -6.3333,2.7558 -6.3333,5.9513 0,4.5021 3.1214,8.8904 27.8957,39.2173 10.6907,13.087 19.8889,24.5859 20.4405,25.5535 0.6636,1.164 -2.8589,5.9495 -10.4134,14.1467 -10.897,11.8238 -11.2762,12.44 -8.3363,13.542 22.1245,8.293 142.7894,41.9657 151.2708,42.2134 1.5716,0.045 3.2415,-0.9174 3.711,-2.1409 z m -216.6793,-19.924 c 25.6273,-13.4647 49.9517,-30.3239 61.8381,-42.8596 l 3.7272,-3.9308 -18.1765,-21.864 c -9.9971,-12.0251 -18.9086,-22.6268 -19.8034,-23.5592 -1.3064,-1.3613 -3.0566,-0.6764 -8.884,3.4769 -19.8658,14.1586 -45.9408,26.2062 -71.2212,32.9068 -7.7632,2.0576 -13.9471,4.1442 -13.7421,4.6366 1.0436,2.5058 47.216,59.8182 48.2619,59.9058 0.6723,0.056 8.7723,-3.8642 18,-8.7125 z m -56.7121,-67.9117 c 21.7756,-5.6596 42.5886,-14.8303 62.2741,-27.4394 13.2841,-8.5088 15.1707,-10.6354 13.6041,-15.335 -1.7241,-5.1724 -8.5092,-8.1904 -21.7964,-9.6951 -13.0714,-1.4801 -18.5921,-3.5416 -18.5921,-6.9421 0,-2.8492 4.8644,-6.5286 8.6301,-6.5276 1.4868,4e-4 6.0033,1.2685 10.0366,2.8182 14.5423,5.5874 33.3692,3.3366 51.9204,-6.2072 13.3527,-6.8693 13.1589,-6.4374 4.7379,-10.5574 -6.7016,-3.2788 -15.325,-12.0084 -15.325,-15.5139 0,-0.5828 3.1939,0.4027 7.0976,2.1899 10.9194,4.999 19.7069,6.2084 33.7585,4.6457 29.4496,-3.2751 74.8184,-13.6037 105.8043,-24.0873 17.7722,-6.0131 47.5927,-18.2075 48.6303,-19.8863 0.3439,-0.5564 -7.0845,-3.5025 -16.5075,-6.5469 -20.9188,-6.7584 -52.506,-22.4139 -68.5317,-33.9663 -23.9592,-17.2712 -47.3101,-40.3408 -63.2752,-62.5128 -3.3173,-4.6071 -6.2395,-8.6219 -6.4939,-8.922 -0.7268,-0.8576 -21.7135,12.194 -46.4824,28.9071 -60.4152,40.7661 -122.7689,93.1142 -133.7708,112.3052 -3.86546,6.7425 -4.20327,8.3 -4.19349,19.3333 0.005,6.6 0.87472,16.078 1.93084,21.0621 2.38095,11.2366 12.83845,37.7895 18.74825,47.6046 5.9266,9.8428 12.3966,18.6666 13.6872,18.6666 0.5785,0 6.9272,-1.527 14.1083,-3.3934 z m -40.5103,-8.1963 c 0,-0.5077 -3.2708,-9.0577 -7.26859,-19 -10.79987,-26.8591 -13.38431,-37.6811 -13.39179,-56.0769 -0.005,-14.0128 0.30764,-15.9724 3.63843,-22.7547 11.05152,-22.5031 77.31975,-78.5111 148.35535,-125.3856 15.4,-10.1621 29.2,-19.3211 30.6667,-20.3532 2.6661,-1.8763 2.6661,-1.8772 0,-4.8297 -1.4658,-1.6243 -5.3658,-4.5079 -8.6667,-6.408 -3.3009,-1.9003 -7.8016,-4.7685 -10.0016,-6.3738 -2.2,-1.6055 -5.5,-3.3685 -7.3333,-3.918 -1.8334,-0.5496 -6.2957,-2.4192 -9.9162,-4.1548 -3.6206,-1.7356 -7.9327,-3.1556 -9.5824,-3.1556 -7.0287,0 -40.4675,26.438 -66.5085,52.5843 -42.0289,42.1987 -80.35869,97.5528 -113.78772,164.3271 l -9.46755,18.9113 4.13239,3.4772 c 8.01416,6.7435 29.92051,18.6164 48.41776,26.2417 19.31982,7.9646 20.71222,8.4262 20.71222,6.8687 z m 432.0001,-135.7531 c 25.4664,-4.1541 46.769,-11.1816 71.1724,-23.479 14.9958,-7.5568 34.1609,-19.5103 34.1609,-21.3066 0,-0.6626 0.8573,-1.2049 1.9051,-1.2049 1.0477,0 4.1317,-2.1 6.8532,-4.6667 2.7214,-2.5666 5.3942,-4.6666 5.9394,-4.6666 0.5454,0 7.8114,-7.0806 16.1468,-15.7346 15.0824,-15.6588 29.0492,-33.891 35.5295,-46.3801 1.8697,-3.6036 3.8961,-7.452 4.5031,-8.552 37.1657,-67.3626 38.814,-152.7316 4.2794,-221.6576 -50.3316,-100.455 -158.5496,-153.68387 -267.5702,-131.6092 -20.0956,4.069 -38.7766,10.7498 -59.3037,21.2085 -18.149,9.247 -42.1723,23.8721 -39.6159,24.1176 0.7333,0.07 0.2388,0.5594 -1.0989,1.0865 -7.5541,2.9767 -38.3112,34.8248 -49.7559,51.5208 -8.5011,12.4018 -21.8119,34.3864 -21.8119,36.0252 0,0.6197 -2.4204,7.0292 -5.3786,14.2433 -6.6591,16.2393 -14.1014,44.8676 -16.1254,62.0298 -2.271,19.2563 -0.827,57.5895 2.8266,75.0351 22.099,105.5197 108.4309,184.3139 214.6774,195.9335 14.9303,1.6328 46.804,0.6445 62.6667,-1.943 z m 180.7001,-79.2373 c 31.0045,-7.5993 54.7595,-17.4192 75.2893,-31.1231 13.3487,-8.9104 35.9386,-31.8392 47.583,-48.2968 17.6438,-24.9369 46.3325,-75.3371 42.8788,-75.3293 -0.9815,0 -7.7846,1.1556 -15.1179,2.5631 -13.5179,2.5945 -39.0692,5.5187 -46.5649,5.3291 -2.4746,-0.063 9.6509,-4.7452 30.5649,-11.8036 43.4813,-14.6749 48.3689,-16.6271 75.3333,-30.0897 34.5416,-17.2456 72.9707,-40.4639 99.744,-60.2636 37.2367,-27.5379 49.9506,-52.6884 56.4854,-111.7393 3.1842,-28.7739 1.6462,-141.90226 -1.9786,-145.527 -0.2524,-0.25241 -5.7889,1.34274 -12.3034,3.54479 -35.3555,11.95091 -70.4708,17.32245 -127.2807,19.46993 l -24.6667,0.93243 17.3334,4.45851 c 9.5333,2.45217 21.7017,6.04472 27.0409,7.98342 10.6271,3.8588 14.2111,6.682 6.8185,5.371 -2.4893,-0.44145 -13.8261,-2.0344 -25.1928,-3.53988 -32.801,-4.34437 -43.7597,-7.26582 -80,-21.3269 -67.0604,-26.01922 -119.8933,-36.54279 -183.3333,-36.51739 -30.5749,0.012 -42.4559,1.16955 -66.1705,6.4456 -18.7671,4.17532 -30.9804,9.2112 -55.7922,23.00463 -39.769,22.10857 -57.3297,30.06506 -92.8924,42.08814 -11.8369,4.00187 -22.2894,7.75066 -23.2278,8.33065 -5.726,3.53886 19.1581,2.647 39.3789,-1.41138 15.6951,-3.15004 38.8788,-9.85552 75.8333,-21.93337 18.0174,-5.88859 33.2339,-10.70258 33.8147,-10.69775 4.8191,0.0401 -33.1677,19.38555 -56.2773,28.66027 -28.0232,11.24671 -48.68,16.43607 -74,18.59019 -18.6982,1.59076 -19.624,1.86105 -20.4456,5.96868 -0.4082,2.04066 -2.9386,6.58782 -5.6231,10.10481 -2.7048,3.54347 -3.9409,6.03376 -2.7724,5.58536 1.1597,-0.44504 8.5041,-2.04336 16.3208,-3.55183 43.6981,-8.43286 89.7359,-5.75805 129.8536,7.54459 16.772,5.5614 45.2768,19.0094 58.8487,27.7637 74.9521,48.3464 119.6645,129.7251 119.792,218.0271 0.084,58.3225 -17.5274,108.5003 -57.1367,162.791 -2.4924,3.4163 -1.4904,3.3374 17.8628,-1.4061 z m -55.2368,-387.332 c 3.4708,-3.3124 8.3871,-6.4769 11.3333,-7.295 6.169,-1.7128 49.656,-1.9926 47.8034,-0.3075 -2.036,1.8517 -12.0664,3.8876 -30.006,6.0903 -9.2067,1.1304 -20.2507,3.2633 -24.5422,4.7398 -10.9842,3.7792 -11.5289,3.3961 -4.5885,-3.2276 z M 1460,978.89509 c 3.9199,-2.49814 79.5219,-27.94757 89.8154,-30.23397 8.7872,-1.95183 14.7157,-2.20903 36.6666,-1.59067 26.0262,0.73317 90.6174,5.58444 91.9382,6.90524 0.38,0.38004 -0.1591,0.70951 -1.1979,0.73216 -1.0389,0.0227 -6.3889,0.64123 -11.8889,1.37463 -5.5,0.73341 -31,1.883 -56.6667,2.55464 -52.4399,1.37225 -55.9259,1.80115 -103.1437,12.69037 -30.7467,7.09072 -49.7251,10.24564 -45.523,7.5676 z m -296.4911,374.31621 c -9.8505,-21.5614 -18.1254,-52.5382 -20.9945,-78.5917 -2.5415,-23.0787 -0.1021,-64.4298 5.0074,-84.8821 0.603,-2.414 -0.1699,-3.3162 -4.395,-5.1302 -6.1988,-2.6614 -17.7367,-6.8974 -25.4735,-9.3522 l -5.68,-1.8022 -4.8382,9.6069 c -9.7255,19.311 -14.0732,35.0793 -16.2512,58.9402 l -1.0954,12 -2.5024,-5.3333 c -1.699,-3.6212 -2.6697,-9.2992 -3.0236,-17.6867 -0.7506,-17.7876 2.3927,-30.6298 13.5028,-55.1671 l 3.4051,-7.5204 -11.5852,-4.335 c -6.3719,-2.3843 -14.5285,-5.4781 -18.1259,-6.8752 l -6.5407,-2.5402 0.8153,27.0623 c 1.8541,61.5404 8.0864,91.2535 25.2744,120.4992 8.9316,15.1971 28.6579,35.466 40.325,41.4341 4.4,2.2508 10.9394,5.6756 14.532,7.6107 3.5925,1.9351 7.2294,3.5183 8.0819,3.5183 0.8525,0 2.7131,1.0517 4.1347,2.3373 3.1329,2.8329 9.1198,6.8229 9.5957,6.3949 0.1893,-0.1702 -1.6866,-4.7546 -4.1687,-10.1876 z M 1027.3814,1263 c 0.074,-34.277 5.1338,-53.9858 22.9242,-89.2904 5.6236,-11.1598 9.9553,-20.5241 9.6262,-20.8096 -0.3292,-0.2855 -8.6284,-3.6609 -18.4427,-7.5009 -14.3462,-5.6132 -18.0924,-6.6307 -19.1102,-5.1905 -3.8517,5.4502 -16.0282,32.8464 -18.6261,41.9071 -2.5154,8.773 -3.0278,13.8089 -3.041,29.8843 -0.019,22.5393 2.2701,34.6229 9.1459,48.289 4.2044,8.3566 15.3384,24.9197 16.809,25.0055 0.3666,0.021 0.6883,-10.0112 0.7147,-22.2945 z m 127.5724,-99.0697 3.5198,-10.7364 -2.9035,-1.1185 c -1.5969,-0.6152 -25.4034,-10.1225 -52.9034,-21.1272 -27.5,-11.0048 -69.8,-27.8336 -94,-37.3975 -24.20002,-9.5638 -57.80002,-22.8658 -74.66669,-29.5602 -38.13696,-15.1363 -116.26438,-45.2277 -158.66667,-61.1116 l -32,-11.98719 -0.35421,-37.51481 -0.35421,-37.5148 -6.97912,0.40228 -6.97912,0.4023 -0.82675,25.52092 c -0.45472,14.03649 -1.24228,28.29185 -1.75016,31.67857 -1.06176,7.08035 -5.56804,20.70807 -10.50123,31.75743 l -3.40368,7.6236 4.90758,0.8414 c 26.96909,4.6236 78.3339,23.5849 369.57426,136.428 34.1,13.2123 62.6227,24.0511 63.3837,24.0862 0.761,0.035 2.9676,-4.7675 4.9034,-10.6725 z m 13.6307,-32.6936 c 5.8498,-11.9967 12.8323,-32.8449 16.267,-48.57 2.0314,-9.3004 2.476,-17.1331 2.4786,-43.6663 0,-17.7831 0.1343,-32.3331 0.2945,-32.3333 0.1602,-2e-4 4.9602,2.3493 10.6667,5.2212 11.0356,5.5538 19.0421,7.9209 19.0421,5.6297 0,-0.7483 -0.5445,-1.6971 -1.21,-2.1084 -2.6427,-1.6333 -9.514,-21.09109 -11.3893,-32.25169 -1.0927,-6.50351 -2.9517,-22.92456 -4.131,-36.49123 -4.0516,-46.6086 -11.0695,-74.73282 -25.9137,-103.84879 -10.5944,-20.78025 -12.2481,-22.82329 -18.4528,-22.79747 -8.6392,0.036 -8.9381,0.85747 -5.1477,14.14671 5.7898,20.29871 6.3655,26.00143 5.5017,54.49955 -0.4832,15.9397 -0.2725,29.34798 0.5238,33.33228 0.7327,3.66609 1.1235,6.87424 0.8686,7.12921 -1.0664,1.06636 -6.1561,-11.04239 -8.0203,-19.08089 -1.1067,-4.77194 -2.8942,-19.63474 -3.9721,-33.02843 -2.7434,-34.08736 -7.8626,-52.99701 -14.3582,-53.03717 -4.6965,-0.0291 -156.82437,23.10693 -158.41957,24.09281 -3.63859,2.24877 -5.66047,25.70064 -5.78314,67.07897 l -0.122,41.15347 -14.65382,7.97958 c -18.67076,10.16693 -40.28415,24.38877 -57.49264,37.83069 -13.07507,10.2133 -27.7744,23.1933 -26.91508,23.7669 2.71913,1.8151 125.56777,48.856 126.77266,48.5434 2.28787,-0.5935 56.51669,-56.1177 63.50789,-65.0249 6.7408,-8.5882 12.0094,-18.75332 15.9889,-30.84895 l 2.8885,-8.77968 -4.5191,-7.50478 c -2.4855,-4.12764 -5.9515,-11.87678 -7.7021,-17.22033 -2.8095,-8.57592 -3.1705,-12.06145 -3.0772,-29.71552 0.1184,-22.39066 1.8091,-29.55344 10.4602,-44.31422 4.478,-7.64063 13.5312,-17.19328 19.138,-20.19399 2.203,-1.179 1.587,0.59519 -3.0727,8.85013 -3.2055,5.67862 -7.7622,16.02475 -10.126,22.99142 -3.7039,10.91609 -4.3792,14.98905 -4.8864,29.47078 -0.6362,18.1645 0.8522,26.30267 7.0462,38.5258 3.8472,7.59218 13.5131,16.65057 21.3534,20.0113 7.0325,3.01448 21.5491,6.20241 22.7545,4.99704 0.4657,-0.46569 -0.9992,-4.07291 -3.2552,-8.01604 -5.0758,-8.87155 -7.9047,-20.49071 -9.0056,-36.98888 -0.8704,-13.04306 0.8019,-28.72894 3.7926,-35.57375 1.5819,-3.62053 1.6556,-3.48835 1.992,3.57375 0.6584,13.82029 4.4862,37.20801 7.5772,46.29585 4.4977,13.22384 7.7953,19.06542 17.4774,30.9605 4.7568,5.84404 8.6487,11.00372 8.6487,11.46597 0,0.46224 -9.8795,0.63883 -21.9545,0.3924 l -21.9546,-0.44805 -4.7723,13.99995 c -8.5207,24.996 -28.3959,61.7187 -47.1257,87.0722 -3.0394,4.1144 -5.5262,7.9643 -5.5262,8.5555 0,1.082 67.7466,27.7609 72.6067,28.5928 4.0972,0.7013 21.3496,-26.0122 35.6631,-55.2205 6.7382,-13.75 12.6917,-25 13.23,-25 0.9028,0 -0.013,3.6588 -6.0314,24.0999 -4.3318,14.7125 -10.2042,28.1125 -19.5665,44.6479 -5.2473,9.2675 -9.0125,17.3273 -8.3813,17.9409 1.6373,1.5916 20.7252,9.1599 23.3099,9.2423 1.4015,0.045 3.8985,-3.4883 7.0873,-10.0276 z m -113.2772,-62.57 c 15.6238,-23.5368 28.4976,-47.799 35.8738,-67.6085 5.9241,-15.90988 5.9856,-17.71972 0.695,-20.4556 -2.2681,-1.17291 -4.2955,-1.93831 -4.5053,-1.70091 -0.2097,0.23742 -2.1758,4.73412 -4.3689,9.99271 -8.4406,20.2382 -12.4625,25.6029 -43.6634,58.2429 -16.5029,17.264 -30.0052,31.9447 -30.0052,32.6239 0,0.6792 6.45,3.9432 14.3334,7.2533 10.7781,4.5256 14.7235,5.6423 15.9064,4.502 0.8652,-0.8341 7.9456,-11.1165 15.7342,-22.8498 z m 220.0721,-47.3588 c 5.3392,-2.9473 17.333,-8.5843 26.6527,-12.5266 15.0674,-6.3736 16.5156,-7.2622 13.0693,-8.0191 -6.6046,-1.45067 -12.0682,-5.662 -15.9592,-12.30136 -3.1496,-5.37445 -3.7286,-7.84219 -3.6952,-15.75023 0.026,-6.22337 0.8089,-10.83237 2.3269,-13.70365 2.182,-4.12694 2.17,-4.5572 -0.2601,-9.33334 -1.4011,-2.75381 -3.8813,-9.50694 -5.5116,-15.00694 -1.6302,-5.5 -3.8419,-11.70576 -4.9148,-13.79058 -1.0729,-2.08481 -1.5466,-4.18481 -1.0528,-4.66666 1.4951,-1.45871 10.3004,9.4477 15.9458,19.75073 5.6605,10.33071 7.546,11.97937 10.7033,9.35908 1.4656,-1.21633 1.9977,-4.64732 2.0393,-13.14916 l 0.056,-11.50341 4.8575,11.70861 c 3.8982,9.39624 6.0278,12.66755 10.7831,16.56415 l 5.9255,4.85554 7.494,-1.89749 7.4939,-1.89748 0.4321,-8.66667 c 0.6896,-13.83316 -1.0058,-27.90708 -3.6846,-30.58589 -1.8627,-1.86265 -5.7934,-2.527 -19.4354,-3.28497 -29.6268,-1.64608 -29.7601,-1.79471 -31.4126,-35.00215 -0.6876,-13.81984 -1.6964,-27.80509 -2.2416,-31.07832 -0.9197,-5.52188 -1.3564,-6.03761 -6.052,-7.14683 -6.6837,-1.57886 -14.2725,-8.74644 -14.2725,-13.48026 0,-4.70758 1.2157,-6.8313 12.1705,-21.26043 8.5105,-11.20949 14.5067,-23.0228 14.4887,-28.54449 -0.019,-5.75128 -3.2279,-12.28098 -9.8616,-20.06515 -10.3596,-12.15636 -11.1528,-12.58565 -18.9295,-10.24519 -6.8074,2.04871 -8.3867,1.81226 -6.2836,-0.94076 18.2557,-23.8974 50.7478,-58.70299 74.2202,-79.50479 l 7.8048,-6.91673 -6.4715,-7.37691 c -11.3771,-12.96916 -19.1457,-23.55821 -25.5575,-34.83685 -3.436,-6.04393 -6.7847,-11.00577 -7.4417,-11.02629 -2.3023,-0.0719 -27.8223,16.4388 -43.2398,27.97501 -26.9265,20.14776 -63.9706,55.91555 -79.8783,77.12612 -5.8818,7.84264 -11.0207,20.56703 -11.0207,27.28847 0,8.74764 20.2434,52.81867 59.7018,129.97387 17.0898,33.41673 26.4703,50.43557 27.1398,49.23928 1.4895,-2.66156 3.8033,-17.96251 3.815,-25.22804 0.019,-11.77031 3.9254,-7.99028 6.5998,6.38629 1.4968,8.04579 0.3588,17.20869 -4.5074,36.29216 -7.2297,28.35214 -9.0042,52.48047 -6.0074,81.68351 1.3688,13.339 1.9322,15.8927 3.5063,15.8927 0.4164,0 5.1256,-2.4115 10.4648,-5.3588 z M 864.00001,1009.232 c 6.23334,-5.1526 17.47358,-14.21072 24.97832,-20.12923 7.50474,-5.91849 13.31934,-11.28782 12.92131,-11.93182 -0.39801,-0.64402 -8.63827,-1.19187 -18.31165,-1.21746 -32.35715,-0.0856 -46.28974,-4.41141 -62.02892,-19.25896 l -9.50858,-8.96991 -28.02533,-1.53976 -28.02534,-1.53977 -0.73256,4.0108 c -0.4029,2.20593 -0.55286,10.81354 -0.33324,19.12802 l 0.39932,15.11721 46.66667,17.79838 c 25.66667,9.789 47.56667,17.8214 48.66667,17.8496 1.1,0.028 7.1,-4.1645 13.33333,-9.3171 z m 459.88639,-20.50659 c 6.7641,-3.49781 9.9395,-14.39932 6.6915,-22.97193 -4.8708,-12.85543 -17.3295,-13.29676 -23.7446,-0.84112 -3.6751,7.13572 -0.6951,19.32432 5.6743,23.2082 5.0032,3.05087 6.4954,3.13019 11.3788,0.60485 z m -406.54185,-37.7254 c 0.009,-10.10943 1.57096,-35.73609 4.83774,-79.40817 l 0.8783,-11.7415 -3.19695,0.74844 c -1.75833,0.41166 -36.38763,8.19295 -76.95401,17.29178 l -73.75706,16.54332 -7.18283,7.78306 -7.18284,7.78307 -0.0601,9.48309 -0.0601,9.4831 7,0.7882 c 3.85,0.4335 18.4,1.48992 32.33333,2.34758 l 25.33334,1.55939 10.66666,10.30211 c 13.6989,13.23069 19.65951,15.60915 43.05888,17.18167 9.31762,0.62617 23.09112,1.22468 30.60779,1.33001 l 13.66671,0.19152 0.0107,-11.66667 z m 37.83406,-25.35815 c -0.89496,-24.26837 0.30848,-44.10688 4.3132,-71.10213 1.15264,-7.76983 2.51724,-14.809 3.03244,-15.6426 0.5152,-0.83361 5.708,-2.15945 11.53958,-2.94633 18.02674,-2.4324 174.49407,-26.69636 176.41967,-27.35804 2.3908,-0.82154 0.4031,-3.27716 -8.1153,-10.02538 -5.3304,-4.22276 -7.0723,-4.90129 -11.3333,-4.41484 -22.5453,2.57386 -156.35254,19.49294 -158.68913,20.06524 -2.08082,0.50966 -3.26186,0.0169 -3.89128,-1.62328 -1.02573,-2.67298 3.65259,-32.1281 12.31234,-77.51958 3.24492,-17.0088 5.89985,-31.5588 5.89985,-32.33334 0,-0.8759 -4.19263,-1.40824 -11.09115,-1.40824 h -11.09114 l -5.63255,23.66667 c -6.73672,28.30613 -11.13669,51.96409 -14.19671,76.33333 -1.24312,9.9 -2.46906,18.22 -2.72433,18.48888 -0.87448,0.92116 -34.63443,9.5034 -97.93079,24.89535 -34.83333,8.47052 -65.64887,16.01504 -68.47896,16.76563 l -5.14563,1.36469 0.9438,8.90939 c 0.5191,4.90017 1.10532,9.08009 1.30272,9.28872 0.35479,0.37493 100.96113,-21.8119 140.46091,-30.97602 11.2289,-2.60514 21.06694,-4.73664 21.86231,-4.73664 0.99189,0 1.16501,3.24582 0.55113,10.33334 -5.08712,58.73297 -7.98901,103.79072 -6.80764,105.70223 0.42696,0.69082 6.75803,-1.74574 14.06906,-5.41458 l 13.29276,-6.67061 z m 423.79459,14.26476 c 26.3391,-10.43817 76.7396,-37.40806 80.221,-42.92709 0.9212,-1.46035 0.5978,-6.0136 -1.047,-14.74651 l -2.3794,-12.63384 -8.7848,-2.20664 c -4.8315,-1.21365 -13.3292,-3.96624 -18.8838,-6.11685 -8.2681,-3.20127 -11.0305,-5.0614 -15.2362,-10.25961 -6.1008,-7.54056 -11.9906,-18.78038 -14.1744,-27.04971 -0.8666,-3.28149 -2.9691,-8.48997 -4.6722,-11.5744 -3.7369,-6.76785 -6.247,-14.65429 -9.461,-29.72529 -2.3018,-10.79274 -2.7976,-11.73243 -10.3964,-19.70023 -6.2939,-6.59947 -9.4067,-8.78053 -14.7359,-10.325 -8.3244,-2.41252 -32.5266,-5.91732 -41.0897,-5.95035 L 1312,746.66668 v 11.96926 c 0,14.43048 0.9278,15.40591 15.5669,16.36619 10.217,0.6702 18.0611,4.15752 24.2461,10.77924 l 3.1461,3.36845 -9.8793,-0.74717 c -7.6372,-0.5776 -10.8326,-0.25419 -14.08,1.42509 -2.3104,1.19475 -5.9395,2.17227 -8.0646,2.17227 -3.2699,0 -4.1861,-0.81997 -5.959,-5.33333 -1.1522,-2.93334 -2.9155,-5.33334 -3.9183,-5.33334 -1.0028,0 -4.0573,3.88442 -6.7879,8.63203 -2.7306,4.74761 -7.5593,11.81744 -10.7304,15.71071 -3.1711,3.89328 -6.8815,8.7816 -8.2452,10.86294 -2.4067,3.67304 -2.4074,3.83702 -0.026,5.57842 1.3495,0.98677 5.8977,2.18378 10.107,2.66001 l 7.6534,0.86588 0.547,12.5064 c 0.3008,6.87852 1.1567,13.11613 1.9019,13.86136 0.7452,0.74523 6.1176,2.26553 11.9386,3.37847 6.2013,1.18564 11.5898,3.02849 13.0136,4.45057 2.3502,2.34745 2.0713,2.45695 -8.5063,3.33908 -16.0397,1.33765 -15.9237,1.22147 -15.9237,15.9462 0,17.12049 -0.078,17.0466 18.9322,17.88553 25.6894,1.13367 39.53,-1.88818 69.608,-15.19778 7.2637,-3.21422 13.472,-5.57878 13.7962,-5.25456 1.0178,1.01777 -14.5328,11.80402 -27.8076,19.2881 -7.0046,3.94902 -14.7118,8.793 -17.1273,10.7644 l -4.3917,3.58436 0.9772,17.56894 c 0.5374,9.66292 1.4981,17.56894 2.1349,17.56894 0.6368,0 7.3199,-2.44202 14.8513,-5.42672 z M 680.59626,933.4675 c 4.71484,-2.32112 10.14158,-6.08501 12.05942,-8.36424 3.45881,-4.11057 3.56714,-4.13797 13.41565,-3.39313 l 9.92868,0.75091 v -4.45511 c 0,-3.58611 -0.84524,-4.97929 -4.33333,-7.14255 -5.40986,-3.35509 -11.6689,-10.00177 -15.56603,-16.53004 -1.64164,-2.75 -3.14519,-5 -3.34121,-5 -0.19603,0 -8.99708,4.10938 -19.55792,9.13194 -10.56083,5.02256 -24.15151,11.14058 -30.20151,13.59561 -6.05,2.45503 -11,5.15564 -11,6.00135 0,1.95654 6.61187,10.99438 10.97836,15.00648 4.72315,4.3398 9.68313,5.59596 20.03355,5.07369 6.79205,-0.34271 11.1235,-1.49425 17.58434,-4.67491 z m 67.0268,-33.72644 c 6.86479,-4.5429 12.38884,-15.13208 12.34767,-23.6695 -0.0784,-16.25612 -15.11016,-29.78995 -30.75624,-27.69138 -15.85479,2.12658 -26.89951,16.91128 -24.54639,32.85836 1.21827,8.25624 5.21112,14.31128 12.5406,19.01746 5.56372,3.5724 6.99044,3.89201 15.57824,3.4898 7.54499,-0.35336 10.5403,-1.1619 14.83612,-4.00474 z m -59.62305,-32.32902 c 0,-1.05672 -0.50135,-2.23116 -1.11409,-2.60987 -1.52823,-0.94449 -59.00448,-11.46883 -62.63442,-11.46883 -2.51562,0 -2.91816,0.73568 -2.91816,5.33334 0,5.25517 0.0733,5.33489 5,5.43965 2.75,0.0585 16.7,1.18056 31,2.49353 14.3,1.31296 27.05,2.46512 28.33334,2.56035 1.28333,0.0952 2.33333,-0.69145 2.33333,-1.74817 z m 779.35919,-14.46092 c 22.8431,-9.26615 26.2247,-12.73683 34.0534,-34.95111 2.3258,-6.6 6.7042,-16.8 9.7294,-22.66667 3.0254,-5.86666 5.6852,-11.05436 5.911,-11.52821 0.6176,-1.29685 -12.674,-2.45581 -35.569,-3.10143 l -20.5158,-0.57853 -11.5918,-11.34313 c -6.3754,-6.23872 -13.2734,-11.98248 -15.3288,-12.76392 -7.2828,-2.76891 -23.3305,2.0346 -34.9125,10.45025 l -5.5316,4.01933 0.4853,8.72507 c 0.5786,10.40209 3.712,22.11448 7.8798,29.45391 1.6657,2.93333 4.0278,8.80696 5.2492,13.0525 1.2213,4.24556 3.2469,8.76407 4.5014,10.04115 1.2544,1.27708 3.2786,4.46425 4.498,7.0826 3.4154,7.33288 9.0236,11.98492 18.4784,15.32775 12.163,4.30028 19.7548,4.01682 32.6636,-1.21956 z M 832.00001,835.82056 c 74.04039,-17.8124 96.18962,-23.58543 98.23752,-25.60487 0.86396,-0.85196 2.55448,-8.74901 3.7567,-17.54901 2.56097,-18.74583 6.88458,-41.10543 13.60218,-70.34376 2.65496,-11.55572 4.4409,-21.39672 3.96875,-21.86887 -1.68733,-1.68733 -43.16268,1.93603 -47.43192,4.14373 -4.78485,2.47435 -8.14761,8.29151 -8.38093,14.49803 -0.21646,5.75756 1.08849,7.87245 7.90308,12.80832 3.11045,2.25293 7.46806,7.24616 9.6836,11.09605 5.1807,9.00244 6.54762,10.6925 10.9829,13.57919 2.01038,1.30845 3.32496,2.91337 2.92132,3.56648 -1.32644,2.14623 -13.34096,1.24128 -21.3678,-1.60945 -8.39161,-2.9803 -21.37378,-3.88902 -30.98878,-2.16916 l -5.78004,1.03388 0.94062,-4.36722 c 1.26468,-5.87169 4.23763,-11.63281 8.18026,-15.85205 l 3.25636,-3.48483 -4.17754,-3.51517 c -2.68198,-2.25673 -5.76585,-3.51517 -8.61413,-3.51517 -4.72697,0 -72.19728,14.24418 -105.1247,22.19369 -13.08949,3.16013 -20.0275,5.45376 -20.54044,6.79043 -0.426,1.11013 0.21852,13.49285 1.43228,27.51716 1.21375,14.02429 2.59499,32.54872 3.06944,41.16538 0.47444,8.61667 1.32379,15.66667 1.88744,15.66667 0.56366,0 4.2256,2.68465 8.13766,5.96589 5.56853,4.6706 7.83656,5.8013 10.44617,5.20776 1.83333,-0.41696 30.63333,-7.32586 64,-15.3531 z m -127.00223,11.14358 4.33111,-3.6308 -1.30389,-8 c -0.71715,-4.4 -2.78418,-20.51802 -4.5934,-35.81785 -1.80923,-15.29981 -3.60914,-28.13747 -3.99979,-28.52812 -1.26492,-1.26493 -14.39328,-2.92 -30.35224,-3.82647 -18.54147,-1.05314 -25.78431,0.50119 -32.69176,7.01575 -6.35825,5.9966 -5.36487,9.54641 5.57029,19.90517 10.06907,9.53832 12.02512,14.42106 7.30754,18.24112 -3.64462,2.95123 -9.36847,2.37256 -17.48383,-1.76758 -2.75489,-1.40544 -6.18605,-2.55535 -7.62479,-2.55535 -5.45566,0 -17.77697,19.1886 -15.7362,24.50677 0.8545,2.22678 7.61607,3.83347 50.91252,12.09787 37.02183,7.06669 39.87355,7.21404 45.66444,2.35949 z m 28.20543,-10.94945 3.20321,-0.0147 -0.87614,-16.33333 c -1.06176,-19.79387 -4.68118,-58.29281 -5.62367,-59.81779 -0.80529,-1.303 -13.75999,3.53264 -16.41245,6.12631 -1.56242,1.52779 -1.30523,6.58371 1.70902,33.59629 4.49623,40.29348 3.94884,38.25224 9.98978,37.25302 2.64388,-0.43734 6.24849,-0.80175 8.01025,-0.80982 z m 961.78959,-22.3246 c 19.424,-17.01019 67.7403,-61.15284 88.3222,-80.69285 l 14.6482,-13.90672 -27.4333,-28.54526 c -15.0884,-15.69989 -35.8396,-37.41029 -46.114,-48.24533 -10.2743,-10.83504 -21.1159,-21.78462 -24.0924,-24.33239 l -5.4119,-4.63231 -13.0884,12.46599 -13.0882,12.46599 6.8925,10.53306 c 15.4341,23.58598 21.0092,40.27435 20.8904,62.53307 -0.091,17.05402 -3.6148,29.99712 -12.1504,44.63036 -4.7221,8.0956 -24.332,29.47112 -32.87,35.82955 l -3.8357,2.85664 6.5024,7.64227 c 7.5409,8.86266 23.2605,25.70785 23.9901,25.70785 0.2739,0 7.8512,-6.43947 16.8385,-14.30992 z m -637.8219,-22.29308 c 36.944,-4.74521 67.4546,-8.91136 67.8013,-9.25809 0.8081,-0.80812 -6.2706,-10.13891 -7.6918,-10.13891 -0.5884,0 -6.3672,1.26112 -12.8418,2.80251 -9.858,2.34685 -14.6985,2.7073 -29.7719,2.21702 -19.4533,-0.63274 -30.366,-3.47473 -35.4853,-9.24144 -2.5103,-2.82769 -2.5077,-2.8311 1.4853,-1.93922 2.2,0.4914 11.8,1.24021 21.3333,1.66401 14.4646,0.64303 19.5399,0.31297 30.6656,-1.99428 12.2202,-2.53421 32.6824,-10.83483 32.6586,-13.24811 -0.01,-0.50993 -4.6551,-0.97841 -10.3334,-1.04104 -10.0383,-0.11066 -21.6053,-2.76324 -44.2939,-10.15734 -6.8597,-2.23556 -8.094,-3.02404 -6,-3.83279 3.9476,-1.52457 18.7495,-0.0691 43.1517,4.24308 25.2136,4.45559 26.39,4.55829 24.373,2.12797 -2.5916,-3.12268 -24.6838,-13.97737 -34.2216,-16.8143 -9.693,-2.8831 -37.6361,-6.76402 -68.6667,-9.5369 -23.0343,-2.05833 -25.7071,-2.95817 -15.9976,-5.38597 5.1007,-1.2754 16.8371,-1.86572 38.5777,-1.94041 l 31.2467,-0.10734 3.2726,-5.24106 c 1.7999,-2.88258 6.5008,-8.94684 10.4464,-13.47614 6.4323,-7.38376 6.9015,-8.32153 4.5386,-9.07148 -3.1179,-0.98959 -21.6123,1.33303 -32.2768,4.05346 -11.2569,2.87156 -10.9121,3.1076 -9.8568,-6.7469 0.5105,-4.76667 0.6855,-8.66667 0.3889,-8.66667 -0.2966,0 -4.9768,1.50931 -10.4004,3.354 -12.3349,4.19535 -24.0371,10.11109 -38.6059,19.51615 l -11.33335,7.31634 -4.35214,21.24009 c -5.78716,28.24363 -13.64786,72.167 -13.64786,76.26044 0,2.97225 0.40229,3.20191 4.33333,2.47371 2.38333,-0.44151 34.56022,-4.68518 71.50422,-9.43039 z m 429.033,-34.397 c -1.2785,-20.12729 -4.1161,-29.10549 -13.3632,-42.28005 -8.5525,-12.18487 -18.9932,-21.26248 -31.202,-27.12814 L 1430,682.00001 l -19.526,-0.4528 c -16.7368,-0.38812 -21.0221,-0.0449 -30,2.40197 -17.2161,4.6924 -31.299,12.27567 -42.4264,22.84564 -10.4629,9.93876 -21.9225,25.925 -19.9143,27.78062 0.66,0.60984 10.6546,2.3948 22.2102,3.96657 11.5556,1.57177 22.6556,3.54084 24.6667,4.37571 2.011,0.83485 7.9985,5.98914 13.3053,11.45397 l 9.6487,9.93604 4.4049,-3.82053 c 2.4228,-2.10128 8.8808,-5.92052 14.3513,-8.48719 5.4704,-2.56667 10.1463,-5.11667 10.3907,-5.66667 0.6268,-1.41028 18.0792,-1.24789 21.8021,0.20286 1.6978,0.66157 7.5868,5.06768 13.0868,9.79136 12.059,10.35686 14.5188,11.73442 23.2388,13.01417 13.0115,1.90956 11.9464,3.10839 10.9651,-12.34172 z m 15.8064,6.98016 c 1.1433,-2.21091 3.928,-9.26091 6.1883,-15.66667 2.2602,-6.40576 6.5849,-16.44682 9.6101,-22.31349 3.0253,-5.86667 5.6889,-11.06539 5.9191,-11.55271 0.4408,-0.93324 -9.1836,-1.96885 -27.207,-2.9276 l -10.8126,-0.57517 3.2585,6.75449 c 4.5681,9.46939 7.9613,23.67839 9.0852,38.04442 0.5273,6.74112 1.166,12.25657 1.4192,12.25657 0.2532,0 1.3959,-1.80893 2.5392,-4.01984 z M 1669,757.42906 c 3.85,-5.3472 7,-10.71438 7,-11.92709 0,-2.03667 -86.0936,-88.92103 -107.3333,-108.31914 -31.2971,-28.58345 -79.0359,-69.18282 -81.3487,-69.18282 -0.9084,0 -4.827,4.59344 -8.7081,10.20765 l -7.0565,10.20764 4.5566,4.00224 c 22.8179,20.04149 76.1271,70.52849 124.5567,117.96262 32.2667,31.60342 59.2667,57.3056 60,57.11593 0.7333,-0.18967 4.4833,-4.71983 8.3333,-10.06703 z m -298.0254,-117.20169 8.5768,-7.77264 -9.1758,-9.62238 c -9.7834,-10.25952 -17.0177,-20.77105 -26.4952,-38.49769 -3.2342,-6.04928 -6.4804,-10.99023 -7.2137,-10.97988 -2.85,0.0401 -19.3333,13.39148 -19.3333,15.65976 0,2.79597 13.87,27.16175 20.093,35.29796 6.2927,8.22723 21.5675,23.68751 23.4034,23.68751 0.8624,0 5.4276,-3.4977 10.1448,-7.77264 z M 1390,614.62223 c 11.5696,-7.78917 16.4934,-9.44824 33.6984,-11.35489 25.9967,-2.88091 27.496,-4.00251 51.0106,-38.1604 l 7.9577,-11.55972 -0.019,-11.10695 c -0.023,-14.10097 -0.7596,-17.00253 -4.0946,-16.1304 -4.3908,1.14822 -10.4687,9.34518 -11.4126,15.39159 -0.7245,4.64176 -2.5594,7.35805 -10.4368,15.45047 l -9.5577,9.81858 -27.1972,-0.22026 c -14.9585,-0.1212 -27.3787,-0.40171 -27.6005,-0.62347 -0.2218,-0.22176 2.009,-1.99952 4.9573,-3.95057 2.9483,-1.95106 5.3604,-4.38308 5.3604,-5.40451 4e-4,-1.82308 -27.1713,-24.77169 -29.33,-24.77169 -0.6059,0 -3.3095,5.32686 -6.0081,11.83748 -3.7131,8.95808 -6.4984,13.40537 -11.4507,18.28321 -3.5993,3.54515 -6.5357,7.36828 -6.5253,8.49585 0.023,2.43088 8.844,18.8806 15.5165,28.93324 6.8599,10.33478 16.4488,20.60747 18.2563,19.55814 0.848,-0.49228 3.9417,-2.51086 6.875,-4.4857 z m 58.385,-63.92222 5.615,-5.29999 -5.0428,-0.0333 c -6.9962,-0.0463 -14.0732,-3.28798 -15.5272,-7.11252 -0.9492,-2.49644 -2.4997,-3.37986 -6.9894,-3.98204 -5.9308,-0.79548 -11.7739,-5.63312 -11.7739,-9.74783 0,-1.09652 -2.0599,-2.85436 -4.5775,-3.90628 -4.9789,-2.08032 -8.7558,-6.50093 -8.7558,-10.24801 0,-1.3035 -0.854,-2.36999 -1.8978,-2.36999 -1.0437,0 -3.814,-1.61245 -6.1561,-3.58323 -3.9679,-3.33882 -4.2071,-4.01673 -3.5056,-9.93881 0.8921,-7.53343 0.4615,-8.15608 -13.7656,-19.90275 l -9.9917,-8.24972 -11.7219,12.36326 c -6.4469,6.79977 -11.5507,12.85397 -11.3416,13.45376 0.2092,0.59978 17.6591,14.59132 38.7777,31.09229 29.4582,23.01705 39.5466,30.19365 43.3334,30.826 2.7146,0.45333 5.5358,1.02775 6.2692,1.27647 0.7333,0.2487 3.6065,0.49957 6.3849,0.55746 4.1328,0.0861 6.0731,-0.85877 10.6667,-5.19473 z m 48.0568,-7.7 c 1.7738,-11.33416 2.2838,-22.57496 1.1944,-26.3298 -1.0782,-3.71638 -4.8427,-7.22579 -20.6582,-19.25822 -3.1646,-2.4076 -8.5917,-4.61496 -14.6732,-5.96796 -5.5462,-1.23392 -12.2004,-3.83829 -15.6446,-6.12322 -6.6726,-4.42656 -14.6904,-5.17702 -28.1136,-2.63134 -7.445,1.41188 -16.7798,6.62938 -18.1227,10.1293 -1.6277,4.24154 1.7887,5.08061 10.5385,2.58826 4.604,-1.31144 9.571,-2.71198 11.0376,-3.11232 1.6026,-0.43742 -0.2597,2.05106 -4.6666,6.23594 -7.0103,6.65698 -7.2194,7.0484 -4.7452,8.88325 3.6566,2.71179 5.021,2.49275 17.1126,-2.74723 5.9228,-2.56666 11.3828,-4.66666 12.1335,-4.66666 0.7505,0 -1.9712,2.97322 -6.0484,6.60717 -8.47,7.5492 -11.7467,13.56027 -9.1181,16.72736 0.9122,1.09935 2.815,1.9988 4.2284,1.9988 3.2281,0 9.3986,-3.142 11.7613,-5.98893 2.4824,-2.99107 13.2807,-9.184 14.2768,-8.18787 0.4476,0.44761 -2.2795,4.0846 -6.0601,8.08217 -3.7808,3.99759 -6.8742,7.85518 -6.8742,8.57243 0,3.96407 1.8863,5.5222 6.6852,5.5222 4.4319,0 5.7507,-0.81713 10.5284,-6.52367 6.0535,-7.23018 11.7412,-10.07072 22.9756,-11.47437 l 7.4748,-0.93391 0.969,16.79931 c 0.9722,16.85697 2.3494,21.12349 3.8088,11.79931 z"
       id="path3189" />
  </g>
</svg>
